<mxfile host="Electron" modified="2024-05-04T20:31:53.992Z" agent="Mozilla/5.0 (Windows NT 10.0; Win64; x64) AppleWebKit/537.36 (KHTML, like Gecko) draw.io/24.2.5 Chrome/120.0.6099.109 Electron/28.1.0 Safari/537.36" etag="hhutpFJZcQrv18UowYDe" version="24.2.5" type="device">
  <diagram name="Page-1" id="T5YTn9m5IVGGNWXPU5p8">
    <mxGraphModel dx="159" dy="107" grid="1" gridSize="10" guides="1" tooltips="1" connect="1" arrows="1" fold="1" page="1" pageScale="1" pageWidth="827" pageHeight="1169" math="0" shadow="0">
      <root>
        <mxCell id="0" />
        <mxCell id="1" parent="0" />
        <mxCell id="n61FLX1z2W_WPuKx8NXm-2" value="" style="shape=image;verticalLabelPosition=bottom;labelBackgroundColor=default;verticalAlign=top;aspect=fixed;imageAspect=0;image=data:image/png,iVBORw0KGgoAAAANSUhEUgAAArEAAABnCAYAAAAXIho2AAAAAXNSR0IArs4c6QAAAARnQU1BAACxjwv8YQUAAAAJcEhZcwAADsMAAA7DAcdvqGQAAJauSURBVHhe7f1brO1bct/3rX36QrGbpGg1KV7UJCVSEq2LrZslQbZiWxYcRQkMBMhDAhgIgjzkQUGgxyAPDoQAuQB5CPSSAIqdFzuAHhLLMH2JFUmBEomUrCtJWaQokSLZFEk12ffu092nzyX/z1z7u7vO6P9/rjn3Xmufw9Pr16iuGjVqjFFVY6wxas099z5PXnvrlbduHnHvOErqQ+sfsY+ZrxeRv17w5Ay98pRDPMz+te/eYEPevBWfya+fWrd4baN1A/Xjq/4rT/nLgIR88FY8xPs3mgm+BGzFEL8WxryxkTw+VC749r6N9mKji1a7+DrmAgglKrRVLmx87au96tKv7XTJK/RdE4ajgEqDtJSKSVDKovo6TvqnTeOugqD8HOElDhV0yZh0F3I0h2YbrWdhykCeHKZ8Brk3+aQZ2h4Bvo5JB9nVzg6mTfrZF9V/YVjPUnSO4BK7hyBY5T0OUz7CYxH7gDhK7J7+Glt43LTzWPMz25fIsLZfBu5a0w91NlOeONKH+vfs6OIrwZE+pOuChNXmhcHpXougcA0K0/l6oIpYiLOZxW/6F8VRwPRVFRPTnvyBp/wc9KM9n+lnbo4wxypKquRW0KG53rVyBwKvGgvpj0h/dAUsPakjM3WFXV/ytFmpNE2aY+d4chAKTF3Qt9qWlo5DutIXaYP+aj7IDk8/f0fKbsWR/uRgQcYBT55JmXQXZkB7xKlJ6YC8x+/A6jLE9aVf9zV52ky5NsTp4lPeS2M2k4SkD9c+BzYzNVFpW9urftJd80A6WOU92lsP4rDqZt+KxyL2AXGU2D39NbbwuGlfi5mTNT9HfefsXiZa92h9P8Rr36W6idm/2mrHVwq150U1MfvrS3cv4HDkBQC3u8IV6NeCVX/FKjmQmwOmfA6Caf4VBb8HfVUUE9OezV6hu6IE7/lBL7YjH8Nq06dsK7Kb65Fhts/JOJ9RFVX62XdE2V2BXMh9PNJGFRErzwamXP8cDx2v2U/ODrhPjq+YeiEDneOAyEj6cDalsvbk2eHRqm+dCbo9/SmwGVQ0EzLlCKZ8BE7tEeQUols5rPwOrK5CvL743Fc80o5mmwxxunj9e1RfdhHE74LwI+mBVTd552H2Q33WzfaIjvph1U3bdRzEYdXNvvBYxD4gjhK7p7/GFh437WtzMNuX9q12Lxutv/Lgh/bIx9l3zu4I6/j4ShPa85I76r/L7rnB4WhWDsn0FbTQ68AGeoQB1wfkbO6CYJpjhT43/x7qW/tLWFCxHM0RjCnBeyjuc9AvDmT9itjG5dOaM6hvts/J81CIjVyM6aP6assH0F8By04qtIhOaOTJC1cb1vGzH815QBrXfsR9HKY8kV7YoE3u09japaQ+IEfsZpqnfTJ9aQ5zjak/oUBWmkFOeY8gvoccWAnwHEO19+wuwJGrgLd/0ZEu/Z6MQn2X0DoPzLmCUFf9TMce2XMgH6VzTeuRLppzXkNH60Eczuoei9iHw1Fi9/TX2MLX46atMZ9rX9P3TiAfjjj4IT3na/2X2q2Y4wFfacVdNtrzYoLa9wI3e3yviIUvP+XQq9C4vgPLIbzE6DfPfUCVMAOeSVZxlJj0qFcA9K9zrGAzx6wo5uLbw2pTe+r4MCu0GUvytD2SIZ87EPk/27h2RDfHXAHLTyq0wqEjoyln0ziY4+oj71F92c954iCc2Q70hTrTMQvR0iE1HZXSVBrXdmOyry8O9PVlj74GBYVmkDMB6SJY23to0UmQvDo35egCrC5qw2xPOtKlT55tmDrUubiLYMrNt0K4s29NRSRNYK/Zl8ZJ7DovjdmTJzUW9vpXmrbNufII4rCreyxiHwbnknrUd1/69xrWOM+1j/pW/TuFPV9fxEdj5g/082BeDJP2UF+XzYrZh+aFeC9wowsaVZAmg/75Sazi1qsRGgNxmHO8CATaR2NQ4Oavb02GhFWhgH5t+iOs66yQh6qtI+zZaK86Ml2vKRTPNahi2iNz7ekbE78CXIw6NoWMH8nxPlEFnD6ac2Y/5Wyyi9aU6d9LI/1MAxs0U1jKcMdFX5RNcrazb7bx5s8WaqNDFHjB4pPSwdRDfEWLtvBsIw5OGfD0F+Ccq7N9RKv9kVx7j/bOzh7pvyusbM4R4KWqdM19n/oj3eyb/C4CfG8ceW8eWOVw0j8WsQ+Ho8Tu6a+xDe/1jZvxrbGea99l+7LR+ns+7uleJtbLYbb3MG1cOCvSx6NA/0Jw08crOiUuGXfrQ3q85NYGPIfI8y+H7WHaH0H/uQK0T2LnPOS18PWqoLC37rl1+CpHyNhinpCnXs5ia8y0X+2gOeNTvwf6DsN8McnlY/avMo6uRKFEhSeUwjrXNmbtW21AW9HbmMatdvVPlMIJIadPLg1ATt/RKUXRN2w00xr1+9Jqz7Yj1bg5nnyIApscCgxfKZs96J+L4pMAz2aV0R3IhelOcu25f/UfyXPclNF6ZlZie64fcHZ3QRpgpmKP2nP20dpms/bNsRE9TF16HLJJt9occQQrh1P/YxH7cDhK7J7+Glv4eti0GeMa77n2XbYvA3v+rDy8E/6F9ZKYF8Qespk0kc4FtHcZoeeGRLnJ3fbkWcRWgFbE0qG+ZtBrYCxkw6HVFmbfEdZgas+bf0K/PgSzf35Cu9oBXf2hdY7QqximDMVcPqEcZWvN2tkd5aY2n7IBcvmgS0bFkL64658fMWZ3ISzLbTTlwkk+1zauFEUdE3zakHFtxDauD8hQOwivPhAqG+FGpWT9feeuIlZ/xWl99Dh9c9eHas91k3dRIqAEoIKYOqgPpn7COAQ5UHtPnjb1nUEuR2u7fUNTznbKjVn75xmZ7SNiN9ea+jjE9zBTcI7a17nPU1/f5BG7xq1jIf0eZTPHTL6ngzhM3WMR+4A4Suye/hpb+HrYtBnjGu+59l22D4UjH5KP+t9JnC6Bp7Tn09RP20kT2vMCmhdTuucCJ6IqhT5Vdbvv6dCsGiKgZwd4Y5Ihfg4FBvEC75YPJSA9HqoyoL7Z39igvepWrPGUi6CfrlcTas/Y9WWbbG2YuUL5lF6bTIfqR+Lb01W47rXZogtg2UKZIWh3XFZe+NkjfZF2vydB89HVn655QB9MXTwI0Th6odZfuKWodLGHtYj1TxGziVfE4sbNT2hL6+RopjwypnH4LgSwEky+14cE3MTaFoIWhrn41MN0cuoPYLmWbvnZbq/iq9wYSAdsOgvxqHnnPHs010egnW8I4qGwZxrWNKaLrzT1e+fD2ZjzpIf09c32HmVzxCfBHn8sYh8QR4nd019jC18PmzZjXOM9177L9j6xt+7R+g/px/Oiy+ASnC6MHZpI5xKaF9KUnwuSF1VF4LC+GsAuHSS3CY2tjdc/dXsQSH0FBngEqobkkA5VfYB5vA6gjzyTRae9JnBtryh+/vYKBn1IbupLpx20G49qT6zt4o5D/nvx6HsZi6222KuiJs38zHkPkMuFVFiz3bGI6sfrwytS05eqeP31sZtrAb3+dNpohRRA46BwZ7pKGYI1VXtFbLSmubnSz3nqAzLKh0PM4PY4momJr0GvBGsbzvUdYO5BS8/2PAuTJx+N6Rzom/vduMbM+Y4oO2jNlSC+l4ao/UqOH5H+9Wx0LqacHT7nhNo4zPaU79KhkPyMPxaxD4ejxD60/r2CNb7ZPtcH52zvA0fzJ6/83Yp5OUzwe6+PbqWJ2l102ZDTPRe60dEsYvd0MGXwmvQasNdubDCG/loI0Gtf8DMJ9BN03fiqiTmmJJGzC2v/tRCn+MsBTF0kB/Ew7egjmPlbsfrJ/5VmvPGqKHyV2UQXYHV7tu/ijoIjpJ2M65s07SO2UkMfZ5ecnu1eKPpWfbpSVQqBbqZutitc92R8HdO4VbbmXBelOwuOTw7kPYIpzwWSJ8ERvwMt016scvuKkle+jum8zLOind2UayffRa1xjqDU3EVzH9vLVRd1FpKnrvak5lrXm+1Vt45b7Sdqn2wei9iHw1Fi9/TnNuFa+/cKZoxrvOfad9m+KJrvaM29/vvGQ859hC4OvAtmRX3zIloJ9saeRbc47vuvuJcCptx3Y3H2US9Kc0weyM0z9cDhqZsBkL30QJ5Ej4dZEfRRWdAnQXRsmjP0YuhHq49HyM6L2SsK4u8VlZ/607GzTu2pR2SoHWZM+ZquQ1Ac8fTlB1dlJafPHuIH4NJ0PbmjEM12dnSOQv0VJVNuDDQmmvNkN/0pZfpLXeGwkYps6I3BkRSULpAmKD2zOHXESh09otOmX3XpJ29brN26yfmDH6IA4xOzb1IBA77SRO2V34H2AZ97ErVX7WVyvLHxuffOyDoueaWpn+dlElhHaNr5uBJ0LthOgmQ27Vvtlejb/8lXGXU+5jmZ84L27NuTa69jJokTD49F7APiKLHX6K+d472EGeMa76V9sLZfFM135MNe/33grnX7wT5ad+3vQoCjsavNHk1oz4vIBbfK0VXo5nbLV6BWsHbz94Iks2lcrwg5yjZki0/9OWcFFc8OF3CJyCY52yoHqG+O8SJoT6RjA/xdoY8eLyaYMRdneSHL2Xx9YY6ZRN+8s23N6XO+pCveYo1HxY2Xn6qy+swZnYFlOwaF1FEppPpXuwrVZNxxi6PGQ3zaGZdNKaJPnmvioA8JDS9thcpuHgtcmuhxdqXKd19LIyqN6cmrrqJ23Qrc3GR9SHuPH6IgYcoT9KgkBLoWgdkXzvXtoLy3H3u8/ULt49zDuD76zkq288dJG9UX1R8137QB+hX66CMQftR+TN3sW+lIb987B1MXX89HPHmuOymbZJh9ySF58sci9gGxl9ijZN+X/r2EGeMa77n2XbYviuY7WnOv/0Wwzreu1Q/00XpH/fSN3xu76rX3aCLdejlFXWjkq9BtXQVB9kJM3ksC2fQKzBciYo+H9NkfQQDscLc3kBF006ebchUCVDHU10uQLFklLD+1s8uHcxyVOyjm8oJ6MXG5LI/lQB85+2SwzmyD+PY2eG7+HunHxYfkBq8CKx/Ng85AmLmGoxlaNMNCbEoFvaOknUzfMWRvnWxR7TkHDnPN+rUhHS5EMkgJXakrLQhKifaUFabs8QrZKJvmwlda57M+eW5VPu3xs+g87qHzeTQJ/bkF7lz8Fu2dpdAqt09HPHttexVPnvq1bSzZ+OY4ZwPaK4SaH/WXnklzT6ZuJXp7W3/7nDz3f7bn+Zg26zg20Pz4Hq19sMdP9FjEPgzOJfWo77707xXM+NZYz7Xvsn1R7K11tP6LrL3OfcRfJlwa84KBeNCfTfKkLrSr0G1f9UBeK4Spc/tLUC8CrC8C270k9prcBQF67WEmga62QLvhQV/BqyaqFGD20emb8/MVp780geWgOPHik4vJkdyyL2/1T9vkifpgfbECnT56cpQOj8RY/PKEp5tjzmCGnnuFVngzrHTTxhGZ7XQdw8gayDxzneZjQ46at/b0I50QJ/TNtCRLQ+1SVxrXAlZbf0evcfhqr52+lE+5LZvbOWW4Y4vOQ0L38EKTfhXleu5blG5vbyZPnns9ZXzSqmv8JXRX2KWL3V207lW0p1v3P6rf+TmyM9+qp4PpxyQ6WPsgDs90j0Xsw+EosXv6c5twrf17BTPGNd5z7btsXxTNd7TmXv8lWMftzXPNnGz37OdFsPbr29MF8koT6bqsptxl1oUG9BfBLe7G95+UVQFoexE4q0KAdNq9ML0S7IwL2cIacLbpOTnlyd3gMwjBdatDbTZI4LWrEHCgL1mNm7qgjfhEf46DWMsB2ns5e11xOcZn/mY7ufn5mi7kYzr+sEP04oJyQYfPmKuwqqrKV2SuM1jdFUZtNMOe+sJH9I7CLDr141/ayFHLNnskNezmvHTNZWxz4vWxN7fwSu/EPBZIShSeM13xqML0Gzdi9+ue8mk7eemeKcfbQu38WHW1J0fvNsitPMfbs/Zvkv5sJm9s+95+0rWX8fZZ3x619pGNfnSE+sv3HkHy3LM92rMhR2sbGTP5Oi7ZucnXbJLxqDakC2/TPxaxD4ejxO7pr7GFr4dNmzGu8Z5r32X7othb6y7dEVbbvbGXzBPY7s1xX3BpuFygiwW1Vv3xLrVkfOrRRXCTewmqIHoxuvk50IvRR2P1T5ovApku58Mcu4c1yAKJCi5eBVBbdQBuczrtkpIt6I/o0s+5Vt/3IM4Za3J6seJVZHG27HpZyy+5PgR8SQ8zL3S4OIDvqPjrS5YDRBfvI8TscGuAMTvgWtsY52LtQpo6x6sj1u9CFaOzTWbzxY2M6wiScf3zONZf8do85MbT4eYVonbHYqZ1pgUpSuln8Tn78NlXEbumGEfZJaeX5tYnmyP/8JWyB/LBNr0jkE/5lWukjdOhtT1ta7dX61ma1P5GxrXf0645o+asL39nDmt3NuLZlPOVwL7Yt2i22bSH0Wo3ddE6Tnv24fSdJZj2cw58EkyeDI9F7APiKLF7+mts4eth02aMa7zn2nfZviia72jNvf6w9u2Ng72x58A+gmQ/7OlWdBHs9e+N6/JYadp1AXUxJXeBRbN9JyzgxlYNzErCS0DG2eCgUqD3AkAvAhsyNKf2DKCA2Gc7oR96yWHy9GuQ9OnI9bnR05Hr48PUN8+6JpDZrzyUi17E2S5OuZtEl21V2DpHuWst69KHfMQj8eDFVrx4edIW80oqqmxxBM29IBcLJV4IuLDIQtTvWM0iVX99iK7+0kTOXiro6+uYIn3rJ7DWZlMbpyutbbsanr4URtKiL5tZgGrHP7RRNmiOX3lzzLnqt755pD6eHNVum6HtwZPfSchtZwAlT/3kk+jmfqF0eMR27nW2Uf3ZxpP5MueCzoUcJuuH9O0BzHxPee4THs32tNnT78mtH61t5BwBuXGTmg/yOb/3+GMR+4A4Suye/hrb8F7fuBnfGuu59l22z4vmOVrr3Lrr2HN918CYOX5Pfh6sY992aTwlF86K2Tcvpanrkkq+E93sVQRu7WRQQeiPZ+OlAG16TrAJ2U7MBK59E151AcxEmT894L389HiVAgJtpFpIzhbI6c2X/lLwLyon4sa1kfaszKrIskNVWo1H2TQ/8O9I5j/qABR3MqpP3PVVnc1coPIRLbC0cKbbeG6j+gubrNBc0zHnoGOz9usjm19/c7FBoH8tZPnZXFMXpKDUCbs0xKVHX2mKfH2g/ii9Ocl78+FzHtQabU9yXPprr31AhrlVO1t275h5XNF5wDsT82wc6cn2C3XG6MyFR2zpENvklaZ9PNn8K616tsnlV77jk0Jt+zP3Crf/sw2r3So7NzjgRz5oNxaMyyZ9VFs/TP42+bGIfTgcJfYa/bVzvJcwY1zjvbQP1vZdOJr7SIa71qh/5bCnuxTGzPHrXPFLMefYg0vDxQJdJqgx9cfnhdalFO8Ciw7RjV5lgCpiLVwFwEYfe7pu914bIAf9zb0GrU0POUeXjAsCCmANGPci4IJF9CqCbn3EZlYQ2RmngiDTAfla8Lt4kJjL46RZuU29drr4Ol9rAL9Xmd/FO+XinbFH8lRu5CGebTmKFhQmF9fjEa9P2KhjNYtUMjt9xtDXzmbOk77jmiwNff3APPM4a0PzaaO2W3jkUtARKk1SWbpwNr42gLKP082UTmrOZDaNS9/WobYy/1bKJppbtbNl94qOYHxFeUf2L5o6Y5Pj7dmk9qyzkL02yo7OHjcGb536a5PnOBTkLhs8gnKM2htk73CY+2dfs22fkhs/9dM23txTF49mP3nOu0dzPFuIwzPdYxH7cDhK7J7+Glv4eti0GeMa77n2XbbhaMzeeD8w6df+S7COnXO86Lxz/DpX/BzW8efGuFBAPpD2tO/CQV1WdMldTHjUmEO4qd34Xn3yrBRqz9cDaetrLM5Rcg7j9F6JwJHZj3JuyjCDn8GBlx/m7V7VMCuF2lOOjJkyzPWvAT/FKjdxuZgvanlEdLM9qRyzMW+vLHnmY8rlRzVUu/jEPSuqYq4CS2/satNcaEFbi3I3milAQkWOWHL6dNPWHGTzOIra2XY0Fazk+hFd8wA7lD+lMTkUYimUFkRG9FMnRT5x1cbRWrxmP9ulNp5sbGtMfT7htjN+RKvtQ6LjN49l0J7nYPLk2WaPG1Nfe4rs55SznfrZj5uD3HytkX7a17cHucxHkNdJ5Xpy+2APcUTXftYfT4emPMlc+ua4+J4OyOiS+VHzi5Mc3vfv/Zknf+ap/Ih3IeZmPeIynMtZP+gwZdjrW/m7CXyaBLj4a5/DOm7Kl4DdvFjnHHMP8gdPP2UXU/IuLNJtb6Judm3oxteX3phZbeDNg7OZ4+nSJ6OCQnvtaS8IHMjZuIHJBY3oChx5Bbqt6VGvTHp2z4vGmgemP0Es2tmAvEFx6pOvYsOR/mymXDtbHKYcB+uLWX++rDlIrh3twNQRJK+udkSSo9nfcepIocbgr26kiK2Q1Z9O8Zo+3ReetuszT/2vbQHN9ZA2m1JXiooJZhpKS6lSpACdsZDNSmHKoN32hGzwqU9eeZjj7htzzQhmOyqXk5fPVRd1LurrHKDZxtmQ53mpr3Zzdq7aa/1kusal35Pzz5rR1K39zoU2pAtTnnu1t19zzsbNNdc+SG++5DDt9dVfnPXBYxH7Lkcb9YjLcWnO5g/j0Zi9H9h3Cv0gxyNY5SNkt0cTtfHW67KBxkTpAx0YM+XJXaBxuvRfgxboxu416IafMpv6a6PGI/OxoWOHzzWO+CpPHeD1FzQ+AyarAiCuuqhQwyfRNe6+0HyzcOYD7iM3vI/ckpEx2j7qI4tVG4pdvOWyHJChPpj98Rmj2FsPn7mAVZ5jn8K0Ld02zbb+eXQciYpPdh0tOvZkffT6k9HnN1KI0lWk4n194LYwvbVrDJ1CVsF6W+C+b5N/3bbWN270/m0N8itP6XZNPgu3dnEUlzREpaVP2MCWwuyH5CjMfrANrRWsH7HH9zDtJoW57n1gby1UHmdOw2oH2SGy/Yzbb1SbTfppg0fZIDb5kr2zgTd3dig/7qL8P9fuHE3M/cPXPdFez8oeNccEXXo+wNTB7K8voisHtdFjEfsugY3fw7X69yquifec7bsln5es5wc17ocVVh2e7hyymWPuGtclgbpg1zEzDnaQzVyD3dTX7nHUTv4aMOwWn7f7vOGT2c4+xLFehgLSX2DGpGfXWpeScQJIRuaE9HhU4FNXEYkqYCtu9T8nuAInd+Z627xPWq9PfCtc+/No1N8Oqj991HxgkZXKRQRTl9wczZct1FcuZu7C2n6KuURUu+3rmChW9ZEdD30dh47TqjfmthC9lRWjZDq25NsC9bZopdNW3H5xC+iNrVB98/RvB3x4kKR/y0Z9WeCW3trozS3417f/FQfiR7GF0oHo8dKGQ/0znRHEJ6wHrcUmec+H2Q7TPj5p+vC82Ft7rlHujtoI0uHynF1XSVwf0p7y7EueNmiereRskumNv4vyfcq1Vx2COEw97MnTpn3qDMHcv84arOP32nt6OIoHPX4n9gFxlNhr9NfO8V7CjHGN99I+eJ55zo15HjTHyuGo71K+4nnGpeuymJcGOcw6ojHa5C6s+Shmj/pgD68uqq0eatzXwG2uGugjLhUBcrPj+lAvwpS76bQLCGkHrwQUNOCc2dNNpCuAIChFnyCRdl9KjCoWcXXM1LEnHyblFrnWHgmLbAgZFQY+qRQIX9lkKSmz/JNt4lc2g9Pycm6hz25kIm2GJqgi0ybXZre+vsGkk8RaviqUxZ6Mq+3YcFRbv/acQ1AD3JtFAD7dQhWeHSlHRz9eWBWffaqqr3F02hWybLPH2bMl8+eWP9n6BVEwbbgAyP3USLpRRYLffub7yrba+7d+1o5VR4iMm5kclcL0pbs0WzEv4lPuKKaffXgex9dtqa0fyOmPOJDRHjr7YbbJyH4nzzbIZm0cpYvKety+kuNRNvSdoWlPPhqfPWrN+qcvKF/lpDjiQC/H8if3QC6vERv9+Lp/ycaQ48mNa15y+zzHJaNkvL4926lfx0FtyPaxiH1AHCX2ofXvFcz41ljPtZ/X9hL5edEce/O+KIdkFxxoz/49zHnQvCSbZ0WXyR6MdSGheSEBnt6F18PZhYi6TL8Gbn9VQkVSFYTbP+7W5zSunzP0vR7avQrkQDZmRTaNm5jjoUDnTV6Q6QSnrYqYBVp1DFJdVI1IBF3zPYWlR/PUFl6hA85GGuh7JEuTPmmzF2y4gei5Yww3uJPb2lw6vRbbZE8s2l6o5FRn2mRc24IRB3IULMaBDsSk8oFyIOIUJ8tjc5yc22iAqy0tbkSOtHOvI0W/6uKRtrEzZDrtUqHUZEMf0b+5OXpbepZhXLtEzIR0eCc10xe2FH55G3k7WylxdNA3PW23Ah7RGxNZKS7Frb72TaLrZzZdWzC3dlL9k7Ld45Ng5f0YTr7KHbdklDx1K8m0fuehzHd+cERXG5/y1GW3yp0z1Bqo9ZMRe/6spC85lNvyvZd3umi2k6dtZI/xa8bYq7vkc33kcwSPRewD4iix1+ivnePdjun3JfHeFf9R/xHOzX+J/Lxojr15L+HJsKc/pwtT7/KDeQmmm2hMfdpdHvXNNtnDxr6LjW5edj2APX5oPoZfAy9CRWxF0qwOEBuvAe72xzlRm3M4FDT0UoT6VvKKAHsBscMLkI1qAS9IbQHNNr5XXagetPsYrWSYG20wtWV7AHOjFNBJk/5f3Yhrwv/4Rp/ZyNS/uBF9c9CZV9HDDZ/WGYN/50Zc9wfbFUbct642+X0msh/qKhPd1le3+xSXMzKOLBBMJk5OFfPMV8XrzJ02B+iyL1cDluIe6oikS5aDjhUZrz+Z69pCm7b02vr6riubz23EpvF0bF4/BSmzBSKIPmIOgtAfzFDikEh8JG72z20j3zylodnsIf7No93xqg8vxVbG9c82Kq21eU+XPpq2vCezTQZcmz5KN/VQn+NUH7l+0D9/bIENguRs8Nr1yeZsk2V72mpHt3t4O27qI3pngJxtcmPmHGyzn2Rt3Prspz9QPiZlA+Vs5nXmnxzZM3tfn/a0mWP25sGRcUDWX1+2caQPpi3MMdO+NoJ0cJIfi9iHw1FiH1r/MpEPDtXqj/aej+f8Phpzn5jzXys/L5pj5XDUdw0/kuNRl92U95BNdl34XR5z3NSROwu4i8kFh/fYdVlpu0D1R9r63waVQqRa8H5XudFVoZC7/Xsdej1m4HT4XgKMMxfoD3TWKbhALgGCqgCd1UNUwKoOtYuKoja5agSxRRtyF7gg/NKhnKFTUP38U/6JjRStn9yIzS9s9Nbm1Be3CT+18W/cHGb34S3Y92/Jed9Guf0vbMSV37DRt26kgKX79RspjD6ykWIWCUGI3D7t6ebkk5xBVXI5LLf68Q5Ugckd6oDMA2GBFlpJjrJdDo6pOwa2L9JOn0tcVGxOF9F0G1U+1tZf2/hIIduRYXNbwMoipwUjyxHderDYm0GiJplRcv0gfHaz+uI2+q2vmRHZIzPb21ZF2qW4Y9bxnOlc5bYm4qG+2Z796USGT/mcDp8E9FA7fg6yOX/sa6dLXtvzaDojiG7Ks+181O58Hcn41DcW0Vu3/jknGfh0FLs+OMrl1KP2qD1ceWQM3riVZv+cf8p7umtkIEN6wB+L2AfEUWL39NfYwrtl01Y/rm3DJTb3hTn3uXXP2e3B5ROyx/thg6k/h2k3bdfx9a9tWHVdypNWn7NJjyMX6LQFdlB8e22yx8+l45JzOXoskz2oeJdmD+3M2QmqgFkdaPeWJyMvAkd7Gdz+HOklKJgWMLbXIXDEXMY1B3tzGE+mswawFxS9QKsQBLIWqnQSQsdOlYFP0ldSNnBByJZDilPL4z+3kRT87Ea/vBH3fnqb9Fe2RP3yzXdv4f2uTcdxxdP3b2RxM+L/YKPv2Uipaxaf3f7Ctvxr2wyfvfmOTaeI/d6NhPUdG5nFp7MKXMUsVxW29EIszPdtSzyx7Nw3VEFLnvtigXIrd9odGhNyFy9HtTtA7OjwgbYvbltryyWZK+U297it3ZFiw1V8hmRfzGXM/N0Kr4hl//rJSZnidJ9rdzAqNYNEgJnJZrQaFMWnNzLz57eUfeGUBmnBI20rSUu6UtbKiGelDq+Ns7cl2sltC502u7ldkba+5LgxzYMgPRuYffTxSZfAEUMQl9H0ZRiR6fZkZwCX/Y7s5JG2McmRsXT6tM0XR/rYoLl+46L8zjc8kOUFl7uZd/sA5ZVdcnaovaRr3OTZJs95Vqovu2m7jttrr/ZHONk+FrEPh6PEXqO/do6XiUv8vbYNe7r7wrn1k6+1uav/WqxzTD7nrb3SxF6/yxG6CBE5guTskyGezkUDja0NLkDksvEQdlFW8OAuutoe2bddXBaocvAxmHqrKgJ50/XfVgu3RId7KXCOqTIK3IJkdjk9b8oCZGO9nEZk0MdhNQi9grXKwFzZs6nwUsfMwlW/ikIf/UZvbbrCUAwJ+VMbWc4nrArXf77RP3nKv7iVmj++Bfr5m399szHZRzf6AxuZsGIJOG7RkiJ4zileBWx2ha0Vf3Ijn9v+0ubyL28zvnnzmzaNAtb+fPtGClwrCbei1ooVSfiTLbenYtZLLf/2qP1r3/SVbzi9ShvJDS43yISIy+XU4sLqABkzIGfl0nIzcsviHQsu6eMSOzw32dqLuDH0+vudiqyfrL9w3zg5xvE+hZUlAQmg33I6VBOSYhXerR5YDf/UlqIvbbO/+SwdVuoT8ig9G0RuVR5JGzkqleTST5Zm3LaQJ80jXxtf7dd+aFy65pIBHOgmX/V7ML4fb/Ik42RWf1RbP9k5SNfZQeTZtits9vrI63hkZ52PqWPT2hE9nr/iNh8USz4jdmzK9ZRXnmwMftTvPMy+1phtZ8T6U7f6ArgzMW2BXNs4SDfnwoszPBaxD4SjpF6rh72+d8OmrT5c4ufz2twX5txHMtS+RL8nr+OuQWPnZXXEVwrJ6bvo5oWXDC7IdKBNjqZ9ttERXDQ9fpG2C4/sAfWgavfQ0vWInmDRKgf1VZVDVQLS71XoZfCqVFHo8zromw7PWxCswxEO4JxBHK4WrArI8ZwVTEEVpACsz167ebf+t7Yxb20yet9m9+pGzD1YQvQpK7c/tpFC1XdafSUA/+ltwl/agvvMzQ9u9r970/xrG/mc9DdupNTciqU3tjLmjW2R921BvrnNbOIvb7IYvrwlgC+u/fdLjE/1rMhZsgRbSSH7Mxv9ykY/uxVGv3TzXVsSrfB9GynJ1OQ+y5UKRaxPbYXqE0CFrRSXlpMP9szeybVlLIm44VCxaV8kBBnMXxNbSL7FQafPAoh+gWUcA1vfEuSOR0emurpjklvZdby4r80W9TuVcYWDf3UOf4lLlhDnK1rJOMcLJPA6SIgVzcaLVrdqXn1uOxGvPTuaVsBLldlRqyKrauu3stROGUd0pVd7bgm7bG1ZlA1adY0hN9+5cemTYcqw6mdfP+6RzE55j5yRjiIiz+PJJn26bJB2vH5tO0dG5GySm3clfebRz++70H7IGzkqt8l7dms/jtpnvBzXV3vq0s/2qpvjkPln/7THYfK30WMR+zA4Suq1enieMS8D6/p7/tyXzX1hzn0kw112d/XDlKG2Cymke14+QWfuLrzk2pBc/zpm9k2afYC7QKZOG9Y27jLqIuxhRB7Y6sK4h5bdCW5wb3bVnTdcIYR6z3vjyWzc/tq3lcRtGzji1bAI2Uvu1Vd19eXPvgy60Ztb7fHGN2208a9sTn15c1gt+PoWzGtbMD1AXITijLr8LcMNkMv5uJGVIj4H9YmrMBWuvh6A/+KWlY/ffOfNJzfLL93825vmBzf6ro2Uk9+9Tfjt22LbCp/dVnpjIxPIDedMjLeJVSM+DBQ3/m0bvbXt2AcYSqhCVvnMY38NzJcV/ulGf3OjV7fi9Zdufus2meE88Gms/do8OZXSZOW0mKWxwgq8NE8sI3jTW4rMTzxfHaA4n1VTkomqyHCxdJDYLJBbU1b+1S7npcexEbn94FZHCadrDn1kttrSzC4dme52vSdbCJwq2TJB5nwyvbaTs0LwrW7lPO7w22irfmZLxVeezaxcblarSxNuX5KlsZ+xmT7pnNT5Reu5nud7Pfe18dk350zXXOymHuY8eGuhibUNsocgmV1yPxLOwpRrO4612wU6pI1nN6l5yPE5ltx4/drZIX17bXQJyl/5iqZu2qRLv/K9/vYDJa98j6bNOYI9PYKv0T8WsQ+Do6Req4e9vnfDpl3i111tuMTmvjDnPpKh9iX6Pfmc7pK+S3nQ7jKGZKRvpfQrT171LtHaU8aRyyQduKzq6+LyYEXz8ZzPfI8tbsxpMdWBN1uVp0j1huM+GvOO477aycY7n44MXgqT9qVOpPraasE3tsrrK1vx+sWt77Pby//pzalf2W7qX9q6P7F59/Gtsv2VbeCnNvrc5uUXNi9f3fRf2bz3X1jyj8+/dYraX915fdN+aVvqyxv92Eaf30b9xlP79U3v3/b80OlpeutUlgjtyab9wpaRT21WX9xKkE9tgXxuG/WFrUR88+bf2Cw46vNOJeKWpbcUrpuzr21ZVE3LiQ9O5aQKzMsndskne3ksNisY+ZD4vhOg4vymbcATEyifTSapJvdXxv7eRpL+M1uMP3vzkS02RSxS+xvuawZ+B9BWZtMppnBLIHt+enFMb4/4xVd7ZN+ArsPl8PA5bpJ+2xHXPEgbDEFNUSrwCoOOCBfqF7W+UqgfcYvOEUTkxmbHJrnS0l+X+2pZKSOzgOWsAApEcCtEkXdWswq5AtZefHo7P74Te/ufS4gqZM2Myr1txzsCuNSVVhzxhvdIG6eraCDXnjyaY7Uh/TrHap8Nfbaz3ZgJ+j3IYHwlcD6izoZzE5+01x+fZ8suJU+baYd3NtlPu7i+ydElmPkj4+3D1O3Z4VPGV9kY7bkXs41Pmn3NI/98wuubY1YKyZOf6LGIfTgcJXZPf40tvFs2bfXj2jZcYnNfOFrrnA93ydfqnsfmiAftLuRkPJrtvb51HO7ijKOphzl+2uzBZeMSQy4wj2ePqge3J55Mr326rExekepPtvvTb6SAQz7G7F33KvRamPAHNvoXN/rtW9dWsH1+qwV/ZVvkF7dFfuZ933vzcze/5+Ynt0ruYzffvZVq37eVbB+5efONb9nWNZgnTwuNNzfPfWH15BX+FKfmFrX/OsCzLGz0yubAk82R00ePSpzKHkXIfLJAVpQb1rReGdnorU2HvrJl6svbuqYRqzz4OmsVlWVMLV94r2MbJNGWEJIqxzKWoFN99je29J/+3ax+Y5B0sk9n/+FGyntfM/i5bfgn55cYTtNo+2qBqciWIldYiZArMug/pnBKwW3V99V6jb+lqHSj0tQBqnilJ282hRuZ0lTI1KZ0PPodR2Fan7YdwqWvdgXq/D2BrJ/eXOZpp7+4OfLmKWIf74u6vaVrjwXR+YJ+coqAp2Y340wOsvkO/ee2lb74bBazt1Kr9XNmNanqGJRGbbwUkkt3P7PkbNJBdtM+qj37mmvKcz1EH63z4HsEqwyyKJszs8n1ySzeuSjzkf7Znjq8qybdbJObs3bnCq+/uVobn34kXwKxl9tyONs4Ku90Ux+d05lzr49+JdjTH1HzJ8957RM+cep7LGIfBkdJvVYPe33vhk27xK+72nCJzX3h3FrXyM/Tf03fpRxcctqTpu5c/3pRoi7UKPu13bhIW98eupRQdUePqgdXPeXRRWRPv77ThGopf76unvJ244raf7aRQk5/n+r95o1+xzbsD2613m/dSq6tsvqpD3/HzY+98idufnyraH/s9d9581Nf2cquL33XNmYrvT63rfLq9qR/YfNMzeCFkQDrrsF0g643Leq2VQmQvRJkdYxA9J1ql21SV+77t4zNFxze2ozYfWVTvLEJ/KhSUjVVMalr6G8rpltSRbHB2al1vJRgHSSpEuyjUX5JNE6n8lR1+tDQhnzAAqplBaxPZhVO/lqZrxfgyDd0P3fzbVviFaq+UmAaxWxTms60liLTm76959bpL395zfncAdRuH+SkPBXLzDOuvdm1baZBFQqzaKgUjEphcnpp5MLsi/TN7SBLvfbrp8hKNpJkSa+gjdg5FAIs8DxvZTOvKyDtT2+hf+VZEVvx2s8TXatID86WTF8qS6F+HKSaXNoRL9uKczx5tpuLbD0y0NcX5x/E6SI20LyQPNuh8xBBcncWmnLZp+sYRvrSrfZ7cradvynH2e35suouQXmQq+RVVx5Re588z0P7tI6N1nnZw9StNnsEd+khDm/rfyxiHwZHSX1o/cvEng+r7to27OnuC3PuI19exOZc/1HfJbbTLg7pXXLpk7v4Zv/KuyQn6TuiabPak5sbzXWgC8nj5MLrEyKPbbVUn9r1R9GnSdVRClZ0+0XR2xqqf7nfoD+8PQp/YFP94M3N3/3mP3rzw6/88Zu//IU/ePNjr/72rQD+tq3Y3QqIj2+r+dNx86nP1ARuay+LGq2b0WtuXo52w09iN29lcjTtBIeqIlQO+CqzMRaXrBLnlePbfPl6/VDVliJeLGKKKnqNrcpRRSLfTJBgVJ1FVn0itdaHt8Q/USz5bUFyyJJvE3wq66+aoZ/e3P7MNu2XT0XsnMpSFbK2KGqvpUCxJXQ4fZhd3MWqDfrkes3tzP3W33nrbM6UJSsJlehrYTr1/e5gnNQiellgpw9pr/O8efpcWpSnRG7kJIvYJtgMkaNkgeUxsmn4nLWVkT3h0We2GV5/lssKWTyyguM3yZHD1/RJ60xxacZHik+0thHEmwvqz76+dKg1+DbtZv/0pbHQ0YhW6I8nOydoL+uovqkjz/bU78mos4f0aeO1cXatt/o09ZegvMx87OnkceY0OZp96/iZfzys/clRbag/gvr3+sJe+7GIfSAcJfWh9S8Tez6sumvbsKe7L8y5L5Gh9l32l/YfcThnc2SHXHLJUxetlyLMMS7UxugnzzHZanfxGpN9NnMMkI0LZBdV9VvPuce3oqdiRzF0up188urvFiEfBP74Ruqq37nN/29vJdUfvLn5y9/6p2/+q8/+qzf/z4//oZubn9qqtJ/cZv3pzaZPb1Ucir0qGWTuHOeUV58zXv5udq+9m5Kz+LyN00NtNz9uDtx4sgDxqopk4+erYZ7mKnESXWJ7+VCfxopNPhSuCnTxalfYiqvk+otc8x977SNSdZe2ApdOZfREeaZgMkmFrCQqXn1P1sfj+C9t7v7yNuSLp2lNV41sOdOSWzKbyjzuCb00PDtoHTDUXslLucLLFdrArHQxJ9tqqSJXpFZ4zhTi9FKrbZyIs5HebKZOm/2t7DvSEmjDi1A72aZz3MaLHEcz6CLIg2bHb4tXe/LKxj+4jTOzWStkbZ3Vta1odkdOG2/F0taRm1RqS3PtFU/TfuprLmjuSdNm1TX/XTwZzfFQG010dIBcu4yT43vy3A28/tqdMdTukZt/9sXpnbPs57r4pHwx312YOShPM3flpv505K6f+LQx78z32oZ0kLwS7Okj2Gufw2MR+0A4SupD618mVh+ubcOluvvCnPs+5Ev7L+lbbe6yywa55CA5/XoxdiEmT/u4vi7Xxs2xKN28nI3FYY6h76IGbY+pyxJ5XHvmfYLnj5/9xSAyu1OtpHD1lcz/ZqOtIvrSf//m5m//nv/RzZ//0p+8+b/8/X/z5uZHP3pz88NbnyJXzdXC3eLdiibE9bGpGuG4djdmt7jXnr7buiC0JwSi31oCQsaqKlQSSGUh0HTTDu8lmf5ah6+S2YbgFbFVUGJW2/TB6W2dc9tvvKpRQhWr/VMCZP6oMMmS3m8PqiLf6X32sXULKKZ8IttH4v2WoP3xLb2f2fbxjdMUyLIVsqZeybJ9RikFFVnPwPd4ewozRwO6O5OdQWmiI0uH7UZtPV7Rqi21ffJKr1+7z0LJeEVt/cZ98bSBIrfBorPpuLakOuWdfEFEPG9jcchbeW91+2CDb/9rXeXO7JP3+5G22Wv3cyfXpW+msmNPF4+0Z7qnvKL5YI5Lxqc8dXMtvq766Q+CVW69eWw6OtCPcT9O2lE7gdff+UmPa6eL5nzpyLNgjTqnqLWTmzsfku/CmseZs6mPs7/Ljk3zJu+1Eay6SbCnj2CvfQ6PRewD4SipD61/mVh9uKsNzzPmvjDnPrfuXfLz9F/TN3kyHPUjF99euwsQdVEmT7tpT3bB4l2y9Onqb96I3bzs2XngtfHmsY4LsofVo1t9p9hRY/n7+P7CkHLgib9L9Nc3+mvb2K1e/Wt//H9583/8lf/xzX/+F3/w5uY/3a44NZSJkFcPyN3GExaHAquCUR94aQSA52gBA24MsAM3rDWtJyDVQRUZ6mMxpKJQwxSsMdPePKhXBUE+8wlZm99R1VbFa7Wmuoc9v/lh/YpZn8byQ1uNpaKssCWf/mzfxIomk81iVsIrXFe9vzH/q9vUXziF2nT2VTFrP+PpEdsKMNTW3fWAreC19HTW8AoI+r0iVuroa0+5YlYqV5s+GyVX2H75tIEiE1ElZofAAbHxlZJzo0Vqpg6hlZC8Wh3pwz+95eaz25G5/etjjo5Z41ZBVrZqPxbxyIrl+C6+yrXTraCfsC/ZzTHrXDKRTM/P9PWtNpOXydr96IZ+lHDUj0d81c1ztOqRduetviibKR+RsfHG58ts34WZh8n3dHt9e/0zn8kr6YO9PgR7ujDbs3/q9+I/2T4WsQ+DvaSeS/RR37X6l4V1/bvacIluz+a+MOe+b/kS3TU2l/BJLr9V1+Wnr8tx8jkmWZ9LWbtLtUt6kudUX/bG9uxOew979q3FxjiXpIcVKWAqbNRXv2Ujf0fLP6z/6/zlrb+wzfEv39z8b77n/33zv/+//lu3/8kqE5sQ4t2AbtVuXdDP4SqaHNLPIRWJGqI6goPsBENGcw3olheAukQVUVGKqiYqWnFU5ZEtXiIi83rBwXrW5gNf+ZWczxKtiFVVqXtUVWS25sonVWXfieWTtqK25KMPWsyEJlARkytUyf1tOhyVwL5ywO5Xt/R8aVvyy6cide6vX1CUeGsxi1fjc1V6UWk4QtsCnVfpwVHbifP+q5+a3kaIiyDbmVKR6BOVcWQc0RnDrrnePG2mxPrtAG/j6XGZcCg6PEVokzt8Nq3N7bcS7fbgU9sMr59mduzMGJl5PYqOkxXok63W6vhso3nUJ70I5hzWAu2ZCSBH+UPmd+2pMwe5+RtLdh6AXExxZ0J/9xj9bEd7uqgfRZzNbCNzOiO1Z9+k5mudlaP8vgtyIv5yFM32zOFddjjg5fiIJmrv9TdXuEQ+wmMR+wA4Sui1etjrezds2OrDXW14njH3hXNrPa98re6Svj2+6sDlBnTk7JLnJTjleSHujXHh4l2s62UbsYtqe349tSjZM1w70rYeuKQ8th5Y9ZTCxp9qK2D9s/6/Y6Pv2Aa88jdubn7u2/7SzT/+5o/e3PzC9jRbsAD2cHT7LfY/98sfuvmf/Udb+VQRyzlzq0pKRMmZN69qwA3PcVwQVRAVr6iKrPoFp6/KYB81R/o1Bj6olPjJxxKrjfhctYXT6feqmVPVo0pEko3Iilik7vrAtutPTGwhSUGVbUgRdfvH2bd9FsoRPEeM9ymtv0H/6S30L56Ws0RFq6+NoL5uoLbWL0VopkMIsLetbU/k3EoP6mziPORZ6crbSF/9ZUBb1Onx9B0ZbUR+67TJNlxik/3W0mGo1NyLxKq8nbm0utnlWzHrawRfejZLRyqOHB2ryhv9WvxV5HSc6Woj7XM4+pFLP3myeUOR46h1pxzle3356scPigWmXbpz4Ft3YedmnqEj3SS7hTtf+vGI3ty16+88JtNHxuxxVC7PQfzlqHzM9h4/kqcOcPOtlP4aZN8ckLzSXXgsYh8ARwl9aP3LxOrDtW24xOa+cG6t5D1duMvmXP+1HMjn7PaoSxOtF6ELE4/mmEns54UbXy/eST25HvaeXs8uuTab+TTj5g4eIw+uT+YUM9+/0W/dyH9Y9fdu9MVP/Ps3n/v4v7pJ94//4M9/782f/avbs88pTgqKkyUPJMuN2qekKgVOo4rQKi6kmqh4xasqpk1tc04bc9FVKLcxqCRWSc3qKo7UlmyN4a+5ZhFbIVslqf3BzfiJoqnitUUqVhWl7V4LsWmhHIz0GWf8P99C+cLmwqunIrbC1X9rYX4ITKeP7DyUloqZeLAt0OpS1TnVtpWdWZ6v3pcyura/fp7H0zVHY0QoY2zo33xWWqKKV3IlZrpKg4m8aBXemP22eL39GsEXtiNy+x83aFbc1h4dMWQ1easwSXaktVd+DnLc3RGH9uIaWC+ybmSf8XzM3/YfTXs07bRDfuGrPKl4pty56jzFk9kh7Xj67NKtPGIb1zfHTpk/l6D493jy1O/Js73u0VH7IXDJvI9F7APhKKl7+mts4d2wYasP992+b8z571u+RneJ7aqfOqjtgkufHO8CRPOCnDb11+6ynBfsbK8FwdR7zHt+lSweefr5OVKPvu8N+k9y3n5qhViqst7cej671VafvfnOTf5tm+Z3bqS++u/95E9s//8w+MVf/vDNn/hf/6bbYKsjCjZ0qyswySqFyVUKKgp8FqTCw43Dp1y1waYx5tCPrGdjusn5hKpxqp6qoCR9VlrisLnGNzdSvFYx+gKyjz/fx9DOKZjskr8hpm0if3mropQDJtZO5uR8ziTSfGyMNyfHFMEf39L1ua3o+syzbzX0SwvZV0nst68cKMykh8tSpYCpti8lVl7Pcqt3NttWHuSR9tQll0pjpZdOH53oO8u35/hWj9hqO8G3EShWJRnncZtfNJDnVsvzvLNysrx9Zov589tMr9/+vrFRPz3aZrXFZu54tWpHqd0hO7LJ8WmDyi3SBl7OPu1pN/X1TTS3taB2uskjvk6qkGV3jht7Fzor0dqepG/PPh1uJ3Fx27nO4Gqb3dE8U1cbXYK9fPRLwdTttbNLt7cfUzf73im879/7M0/+zFP5EfeE9Qc3HOm/HrEe+nfyh+B5sLeX53Txc3HO8ZeO07+Oi7r4kmdfBHE266WZrmcWefTpKhA84D3mHve4P3TW1x88f267Gl/bntm3Tp+/+barLw1870bKVd+C/d5t/u/bnu+PbmXTBzZ6dXu+v3Lzr3/iP7j56KvKmofBN3/TV24++NkP3fzNn92e/RIAgpV4N3tUNYUjlYJqSxWhopjVhPql2iV7cgWrNnvj2VbfVPg2Llk14nXphWlDbA6QJ7ex/DMOWVPFo2hVwPrexkc2o2f/ha7+wpZ/TNfu+b4rWRGrEO07r5V2ToBFJIlDnLVI5RXStqDKWftbthEf3ka/bzsXX97+9/qzwrKSGO9M8Ww9n53FVcY7k/R7pH+OtR65M02nH9dOh9PXN22m7ZvP8mGTWJmZrhlYtxpexHNWOnmujPbT8+rpp0c2HZOORm3cFtdHtvW8cFzboVl0IJh8yrxGvELFOKk+iNPPcTBtRThJFvDmnDL7yZP3bFZiM/u0o9r5ic82kM8RTNvmAfPXPkchee1PH9rD9hXZZ0S276suHtnbrpD2uzk7A+donqGJtX0Jiq9YZ84gefbhcx8fP4l9ABwl9KH1Lwt760/dXf1wic194si/a+RLdbD2H3HY69vTBfLeBZmuS1s7PuVpWx+qAIhcEj2v2h4bbbxPpTy3yFNLj3t69fUEK2I/u12lbz77Q+L+6pY/OEYVOJ5fnhjdf970O29+/Cf/pxt/WJw+jf1f/aav1hUCFuz6IlQQVkXQ4RWbqgm8gnTam6M+cvVdlUhzzMpjBf/aALWNulJ9WdKRpCMxgLXM3YeDPvqU/m/Zcv1+QfqnshSvClnFk09h/csDds7EFqyk7BntKeMohy0iiJJEnk+ldczFYfMrkO3xL26Wn7j5jZuzvpbrg2G1NRe5Kj3Ip7ROifSY3SrrY9rZnz8DPOY9blsrlvHZ7hxLX/24FPNaW2ayMacUa9d/OwdveNhvJTa3s533cbb9dDn3edmqrfaZLdYvnWb0+45M47ZUTqxiNqug8tPO4Mas+VrlkH69J/BVt+oh/UrnwM95Wla5WKL2Pz4pHbvimuvrC/neuUGQjIy1M8VBt3fO2sXazk/6Pcq2effkuS4KYmifonR48aPkqU9ex660pz+yRSAvk0N9K8ohkI/oHB6L2AfAUUIfWv+ysK5/VxueZ8x9Yc59H/Kl/Zf0XcvBZabdpTbbuEshokPJ027ar5dtF3B6nM7j7Wntj11ROs9tj70nWKniof/09qy89axYVT0pYn0Sq2ShV6b0h8eeICuZ7eM3f+4T33vzR35FIfDw+Pf/w++5+bP/5baWYAQlOV5/tz4XqkOqQapHUEUoYlvhyIbcGFy/iqSqQ7txvdZHsBl8k2T1oDSpNyWcXAGrDgIvTvOrEn0C60Pt79mC+4CiVaHqv8KloMRNhKuM7YN2Ow8cnIFXNvVx9ExGieMEcuL6RBf5B4B90vvLm+XPbkXrZ04FrFPhhPiqbv9wAnJKrNbsVg22Ko468zxHzq9tRWQpqvCsnUwvalxKRU4utWS6ZDbG1n7rFLcNFjuP5Ya3bW7c025F3pJx3vbbye1Pkv+0rJj7CWlGs8cdMRzJTce2zFvRCmQ80j5CeSynsy23sz15pJ1OlLXD7M8/Pud3MiRH9RuXjE8ZN+ddyIf8qQ34jJUMs42vNM9eNng02+aa+dGXvOouQXlc8xGVM9Q5QGv7SK8Ne/Z7fsNeTNdgtdfOj8ci9p5xlMxr9bDX905v1iU+3dWGqdvrvy+cW+eob09+nv4jDlN3ZLdyIEcuhvVyWC/JyVf7ZBcoamztLuDaHmi6Hu4eeA+4Rx+nUxZ5gj3FnuHXT5XTs+ppI18h8FUCpUpfzvQ0K3K3K/et7Tp8ss38xls3P/6PFVQvB7/4Sx+++RN/+umnsQJ1K1eMVh1Uv+Hp65sVhP544xpbJVYFoo3r62beQxssqdWC1aElexazXi9r9wms3xd+YCNb8A0G+QTWfx0C+S9vodvvX351l+18zyAnQWCc992EuEX6tqbgBIU4YHwQgOQ6Lf7bwX7Vscf+Sxb/dDsBn91+vXnz2bcdnBCfypqpT2RnCj3IsD6inXsrIVHY1qhzjGvzZpL00ePabMkVqunKUrbab5ziLfaZB3mTR16z4bGZ8jRPbOTntl5/ieuNU5yT7MKUzVxbbsy8R1a7BvOOmHK5xSdNHXkSXfPsoYJoj8tWNOOpjWevTY5H+qyNI0i3R9PfGdekVd845Lzpx7XLQ2P22ntrr23I/yMU75qHvdxkh+/R2qcNR2P2fD6ia3BuvsfvxL5LYXN+LeB5/HynYvNDdheu8W3P9pLx2VxjG7QjmLwf9D2eHMj1dZFOeXIX8XopR57cigLcIz7rqNdOD7fyo8/YcFWU78WqqvrMbStgv7TZfmq7Yj+3XZFf/sDNn/uVz998z+tmejn45m/+ys0Hv/Chm7/5o5sfAnVTeyGFoDpAySoHNItVvNcWTR2ebLy+OZ6+1+UIEl7VpGhVa6pFb2uer/72oA61MWKwhjrTFqgMpfvX2ymFo69r+E+g/c2NfnSjn9roZzcXfnlz55c2dz6x0Se3n5vPbGfFInYUODoDm22lVH/wXYkVzdJLYack1dZ3WxD7S3+f3P7/te1/zls0z6KzFmnPM0ieRF8fqo2MnX3NH/fzMdfuzF9CX33StfLa5lkxz3CbOUmOP7tl9AtbVm7/FYKyRcbnrw/pUccKtxPzSJ07VkeY92V3R7w45aV8TUrPxpgygc8x5X7SnKd2WVzngtowdfH8iKZfjauPLoIpw+xfCZLnvEc2sz05HMkVi/bT3qL22t5HzgDyU5mO3E+r9jp+pfqj1uw85Ut0hOn/inN9e2idt+Xk8ZPY+8VRMh9a/7Kwt/7U3dUPd7XvE0e+Pa98af+R/dpe+Z5uoktxXpJTF0dd/umOLnN2ZA8GjuhQjwjes6vfUzs/+Ku2QnTqK996fP1UqChWfY3g9i9v3X4cqKD13+RSVW3PtOJLXeWPxk224ce/X1H1cnH6NPbf3fySGNXDrBS8CnS4uivuRaDv9fBS4L0c6XGkxjPfrO2azyuxvgh8sQHyIumS21dYK2bJcke2Odb16av09ufz/tHdj267+X5fHfBfi/gbG/21jf7x9mj9wuaGvzh0+4fhXHBuLNvSX96errdOziqhfGpuX1XG5D6J7ZN1+y6oElYCPI+dMjP3ryD4akGfCiukf/rm27cgnZC+I4usaCVbYrUeZY+qmfm8/ix0liOrxpFzPYmuszx1zj4uF9HtL2pf237j5NGMvc1dwbqZcX/l7Y3TSCTbjmDHJJ34s1mPl5xUaFRsxPewl7N0dkk7mjpcHutLX57rT248gjjoW/21n2RUYYXEh8jsZDWiw2cOinuP589K/IHZxmHGkYwjcWoXc1TfHjW2+SfXD/rFEl9joQPt4kZyMfnMGdtJ9HvyNeDzSsV2RHf134XHT2LvGddu+q913HXILjmEv9ZxSYzZ3HU+Ljk/5opgrj/XQfMyau45vgsEX6lLdr2Qs596j7e2Z5jsSf7CtuJbp5LDU6v88ImrT2BVVP359laKfGnz7Bc20Z8uq6+2eubP/cZP3nzPr1dGvFycPo39yodu/ubf257BqoZqkKoEci8pqj6J92KgXtV0yb0mc2PiMJOsOlK8Sodiv//aq98W1IC+VkqH1IL0UIrVmL5cqgr8Frvjl4O/tdHf3Vz+4a0g+mfbrxZvnIrC/ui+OrvQucup1zc7rn01AOWVpEiUhVg3mr6SS6KyZVOBq18fG+Nv229t9OoW+Ktb4NZzxqQCtCv56Mh7bbJx0qjdWaWP6sfNi9IDGdggYNOYqQ+28a3tf28+W4UFnpf9lNhY8qvbmC9tx+K1LTtvnjJR0WpP8ApZGdMvg7g2vd3oOHbUOk7J87itBPEgzkAW76SZK0QWUe1yxG6l+srKnKecTt3UT+JzcvPGJzV+nSd/Js61V9n6eAR77VC+0bovc3/IyL5GXRt7NK+UOV/yPBMRHLUn1va1mPHfhT3bmUfUvrWHj0XsPWNvE95L6JDPw/4i7SPdEb0T2NvTo32efq5y2NOFS84Pm+ySpw5W2Q/70UPQY8Eum/mA0M+2R+f206ZbSmbT50qeaJ/c3f6BqKLGJ3NKJIVs325UtGzPsALN1zMVYb6W+fdubv53/87HNuGdwXd+5xs3/9F/tpUPqgTuqxSqu7wGVQ2oqqFXZE9eX4/Z7qUBCSyJEogrXPuqQP/iFbm2T2Tl7R9t5ENMBaz5pNe3NqS6f9Hso9tkT356E3x14K9vBdNf2tS3n3Yy9YmnmlftW4Gk5DSdcG7P1Fun/b3VVJDiFamVVWagr08bVX7hJZVN8719Zf8E16tbsM4XxJ3RzjVyJmcxNM9kKZ3nGp/n3VhyfNrMteaa2aVH0Pba+tve17c+s0Gf1+K3G/3Ktqri1VGTjY5cvwrMrNEpaOsve9rtBF5BS5ZZpN1x6/iFfI+H4lpjTJ65SkbdEXNf1j3JFswfT4+0jZ/rJ2eLw/SJbvajdcyU8eTmQZcguzkuar5QzucZmddFezX3KAr14Y2f89jnzgHujOydDW3Umsgc5p3rXwP2M15Y23soX0eoH7V37RtfH/GIizEP0yUU+oGYPxxTt9Lsn5j6PTrC9GXK940ZO5qXIqz+rrGiS9GcMMdNfdjTwfQrvs67trPtEtEvjuRJt9ALRvaYe5qG1UyUrncQ3/3dWyWoontaYz+rBNzwbn8QkraQyIVY0LiErC82uTqm4hSRFaA+YfXpKp0CtX80wCfV/rnWvkKgmFX461fAKmgRzL/S7/cGhex3b4u/kvFf2wqhv3Lzm7eFFLB/YCP/UQn/hTRf9lDvzqLWlwMUTgqq27CVIwKxUYLqVGizELzk9GxKHj1emdb3NJRiHOS0FX1K7+sm/u1g/72237H9jvN9W6hPTmnwq40Pm9XtpUOq+moL3ofWUb8P8G4WVuQ+F53bNCESkcUB7yiIpiNSZOmQtv/C1ge21V7ZNu59mzfy5z9a8MHNiw9tfTLQZ9AyIjOIDtH5xYJsS306i6xpDesh7TJeu+Jk7sAsYNZipiKmHS3msLYnOvp76K7o1JR73P4g+9d+9Rl1e2MMmX7+GpCdcclsrWXN1o3mNTP3tHZjpg1MeQ/1zbwhuUSh9WDKsI7retkjfe3V3K91XP3p8c7DOv9D4aHXePwk9hEPivUS2KP10ljpPjB/gK79Ydqzv3aOGUfyjHHq7sKR/d7YbKOJVTft7Akkr20PC3gwyPPB8TB5MPwh6e1/lcuT3FOtYEEVMmiDF0j1AVvl9Ps++OTme77V0/Ty8SN/69tufugfbuWBKiDq5vfq9wL0KjgMdL0WQFc7ouvgSKIkSVgkB73ucqE665958MJ7uSty6Stke/lVpCpQNeAPbqSA9Y9A/OC2a9/ky7I+gf0vt8LnL978rq0U9J/z/Zc2Uj72X561WwojYQpPWFy1z/a+AkFJdmvN0kijKkjtrbbSyCz2WNts+kpGiUlfWUUn6bjxr2/rvrml5bPb//Piq0WJWW79+Woa+Vh6O6vp442fdsnQGJRt1Jz9LOArQdtdhCITVUVjR0sWtWWoQrbitaxq49qzSK7dEW3eeTyT9edTfiEyxKG4yksxFd/aX16SI0hfLuPZandnrPqovklzrdaYfsannwjSr+OTW3Ounw1qfEieunJv35H8z31pHybStTfGdHbW87NSfezSNX5vbUhuPZRN9sbOfvb0jWuuFTMXsLYn9JnnyGbqV5vHIvYRD4qjA/5rFXvx3EeMzbHyFXs/zPF5yaIuaMQGdQHjkD6CPV2XeHO52PvkowJCXzXYbT3me4GuwIqb+Sz3FG/8fZuNgE381PyHXv/Gm//5t3/y5smTJy+d/uT/4aO37vFlvj444ms3fLd4BN32M4GTr5sjaYpQiVOQKlpn4SqZeB85zuLWXHz1Iaa/N+fjVF8fQD7M9Je5vlnl+7c3+ivbw/af3fz+m4+dPn397Rv5O199wcOuVJaiQrAE1/qkk7v29vbZ7DNDTrS/lcOVZPoiT2uJAvJ8CnGrS4z5tXnwua34fHUj/37BW6femeL8RGvRUfFKx66+ZDT79YGV18d68kkdh0kdnbjoRVThiWQH9emqTKLZLptzXHJ71TrJe35pzxiCmIGu/sZkh5fP8lTOcHR7Lt4udxesd4U9iZqnuaO5Xj7n64S++qe/kTGNw5s3/R5diznm3Hj+zPyiuX84qm8vrqmL0uHr/NGcN8re2Norr3+udQ5s5AAP5WTNUwSzL8y+aTvxWMQ+4oUwDyqs7a93lI/7zMv8Qd6T+2Gfj0JyejgaG8jTvjnwHp7akfZ8zNBXP4lzTXvGkQJHe7sqn2x937BdjV5rlZRPEL/35ub3vfnk5nveVL29PPzI3/nIzQ/9k82f+Zrg3eTa+LzZ562uXRLJIDElE9bE9ZqXuEle/lnIIjrjpFHOVKH+/L+/yq8y/f6NfmBb8Jt8x+AnNvqrWxg/dPMv3fzjmz+4tXxQq97tKwP9WqHEFA5XLQ8VHdpkdfZrW3Bvnf5wuyLVfpqlT9fNxEH9yWyeJqtcPMOWrCcSzRaRJfDpGTnpvrz58WRLgX9D9a3TiZqphFJqenymGVU0lfLOaGNg2je+ddB0vXGiini7FiZFNYvQSvxotssi0ma/knlktbnJta27Ukd55fndcRUPKtaZi3Ro5tGRRLURWzZ4czR2Ev3E1E+a87Rn6fKLDMWkTQ9xcU66LzT/OUwbcgT50xlqf9q/9nnSuv/J7e+kctK8R/0zNwjil2LPfsYa30N2l9o+FrH3jKPNvvYQvFvxEHE8ZG7m3Pcln0N2l9ivtntjjuZZf7Bne/3hP9cXtO8iD0IPRgVNj0R99SP9r2+at05RuDZdsz29eFcmcZM/uJGi7Fu3Gb/59Zsf+vArN3/q0z5ufHn4k3/2o7cvRjd6tzs3kTaQBf7U/VPgk0sAlJx4SUt+e7JuqSpAkvF0zSmV0idX/asDkS+1+gT2N28LfKNvkSpg/9I25M9vxetP3fyRrfX7N/IpLNO+Y6ko6tcKywgZyOpmn+VWT3NLTf3Vf8VUqeVbm5VXyi6z9qRyFpGbeYO4TGbiYnMOTjmlELSE8wqs+tqmfXX7/y+dhrNCrGpLNT7TJt1x/ZPajuTmSMcdXqOOA+hLn40x2aGKEJF36ieVrfKP7ipg2TS+DJu7IsZ6rc8vlBz4Ht+jNR/xZJj5R9rr2JWy63hH2mjuYWQcHooJpZ86BPXtcTbt232jdSbWdabNnv0eii3fV1r75xlMRrNvjo/W+bX3xjYv3jnPHuIrxBut56KzEc2zMXXz3DwWse8wjjb6Wv2vJbzbY7jLv/qn3d6Y1W5vXJi6S+xh7/Kbtnf1g/a02xuz9nfx7MnZuly++rjdljy3WtyqZDBCv8/36PpHUH95u51+5ub3vfKhm+951dX48PiRv/eRmx/6ma1M6PaeN3LgLj0+g05G0EucjuyG3mvHu8mzyQ7xw0uhSlHFqG76erGPUn36ivv6wLdvE73fv1f2Dzb6L7bi5i/c/Cs3//TmD28t34NVwPqqrCKpgkgBVPFjGUvaFTvSg8E9OjUn/vqz56vPcc3gD8DNXNuMlW/404QWb4sU44m2MadPZY1vAwT+1afzK9v/3rj53GkamKk07UxfS9UGbagfkidPnmM7GnnHq0llpYIymlmo3Vb2i0TZI+uviJ32ZbZ5kLVaF/IRrb5Nnk1ZXvnEtJW/mWck9zN39UO6mc90s6+2sebb+3FIXvvQHD99jK/rRLXxsJeDuzDHrzBfOUTl3160j5Pm+WFTmzyp/dRHXm3qX4n+EmI7/RbHJIjDng72ckO3EkzZvsC0mfRYxD7ihbEe1rvae7jE5nnxIuvfNXav/5r1LrGd2LP3gzz1/XBDHOZlMHmoPzTP1HfRp+9xSK+NQxeef1n0KyetKxGvLFKwKl77++T+vnl/71wB9iM3P/SNP3/zpz7h784/PP7k//mjty9FAexBHypQVALooL6p14Z0U7/OI3Egeb0cXibVDFLZqHYqXtHpnxbYJvzQZ7dx/3Rr/Ncb/aWtIPoLN99x8ws3/52t5Suzf2gjXyHwAa5pFEWKITszz1DfXLBLcbvVd2JvdRxTwHLOLJzK0QrbSq9WeXoqxGsSBayqWNxVLfDKZvuKuZAVwXOq6tV+Y/v/209kS1MpxulKJxSblFsCj0o/JDduxbSDtifiYdmo6MC1K0i1yw5eAVvpz7atbh7yHE9u3opaa2uXNW1UIQLlIf+Dtr5yGaeftrXlrfymYw90trVfgNritle78caV6+ZBgZxfESRbU3zFOE7YSZ52yZPmmrXxMOUjNFe+TJ8Qv2Zf1JhVnro5954NWuedunxIP+eKIP48aKzcrVjnnfmeNM8RCnvtFY9F7COuxosc+HAfczwP5rrX+nCX/SXzXTrHpb7t/YAbm3x0AZDnWtpzzEqw6uZDBnsPG7hEPV0+kVXO3j5jviagJFIa9Z/rUnz95EZ/Z6P/3/ZI//DN9978pze/5ZXff/M9r/rS58PhR/7+R25+6Oe3EsENP50XzAwsgvR4compUsqerC+bkt86QNdrI2lev6oUXJWjTkTS4d++Upl+1zap4vUV/wCV/4zs/2ej/2QrVv+Lm9+z5fff2Vr+FYI/upFvHBhuyvmoIeAmVHTgdsmO+ftkFbTaX9qCuf3XJ5Rizao8VrRWuNIJRPtpYG9tq1a4qknLicURc47hTwvWrybv9jTdTuAvePlagX+R+KtT4Fk39eyD4l3x1MNnRWDbsHL90y7SFrUCc7YrSrVxWxnJoCzJEC6bdNpknF0FLM6OjJuzdazJLySW9nfl0US5KW9tx8z+/AUAZn7R7NfG+4lHnZ2pb0z6tQ9f/ZmUb5E2xCfEH5/xZzv7o2sxx85cT/2k0J5NHrWvnSk8Sl/fHLNHbJydzk1UHz7H5/uMAZLP5RumfTZ7+4TvUZjyxON/dvYBcJTQh9a/TKw+XNuGS2zuC3Pu+5bP6Z7H5hI+qQthtl3uK0+eYyafD9B8WMizfftHyV8tL7QVN6iCh+yzVZSsXL19xPzT7j5/8jz7Vqbr0fXpU7VPbw/zJ7dS6Aunv5vkM1jl0b/7jxS3D4ff/b/9bbcuSESvZkkBSdqDm3ne8t38vQS9Bl4NsjXmCzLH6NdXOqpKcFUMLhnVjR/eHHxFRv37r/4hWf8lrn+4Df2rNz9w8/du/sWt9cc28g0Df5HLB7cf3OIw/Ske9NT39txe+lcI/Cte/rsTfr3wr3j562F+xfA5OR3+iW3wG6e/TebfdlW8+icRVNWqa7r+uS17jAS3lWCvbwtyu4Nj4Q6hCk2chuFPOkFOjzh9Si9Wxbp/8/ZnNi8+vq305VNapKfv+UqdIq9CT6htB14b2b4VuSU3qJRxE+9oGJsOrWh7rYdaXzbqIyO+rm2+ZzePzcqLIV+mT3wVA117HV9l5FcEPwZIX3I/87OdLR6Zw/ZOnXErsePTOYi7fRInnk6Oyol2cpRd+ZttY0HezNvctcnvNrTPz0uwtvfO7ET705ma52qVJ0H96chAbv87C3SzPeXW2KPHT2If8VLQD8x7EXuxpVv5Hq6xBf1+eFdMXfIeP+oLq97lAtoRxCfmxe/CnY+HR+NWfmOL4dXN9rMbfXJr/+rW9wtb8fHPb75r0/2W7UlUgP0rT+lPbPShV37/zVce6NPYH/kHH7n5oX+2VU8C6ubslu1mnTfqJP2oxCTrA5uFehUlYPKqFQWbAq6P2RStClX1oH99oH914Nu3yb9lc+YbtqLuiVJS4fr3N/r/bvSfbIXqX9xy9vM3/9rW+m9t9Ps28k0D0/y6reI41YTVhSoL2Hzz96m4OIsT5JcSpv1D9IYoTm6LF/8dKkH0mSHivHKyzxeR4CopNnpzS0i5C+WRE/0AkF/Z7E9tXsUN9kn+7Wnz6b6vFvjvw1mBue2CpmpqIxB9fC45QRexAWNObm30NJoTVTSJtC2dWxu1vTJGLlOIDtV2BNKxxY0lN19Zzad8LU59+Tx9T54xgqM7OcidjMtp25RucjuTTXJEZ05EnuPOId/2xjY+mj6Lj64YySvmmL3455jkuUZj8vFFKV/XPZo8Ws9efJKzt6eP5nyodfPnCPVPX+e4S+aRxyNqX+b+wJQnHj+JfQCcS+he35H9tfqXidWHS+K6tn3fmPPfh3yt7nlsJk+G2v2gT6JzwZO76Lv0068XRdyDw6bHZ8poPk5kxQxZoXNb2Nzqo/lpTIURai3chedS9Qmav+PuMz2f5/lL9v/yU/kDW6321z/0V26+9KmtJPPn2gVyhHl7JrOPgH6rCv7b//Fvuq3SONkng+TWwCUIrZi3f4Hgs4JJRvqr7XpNqkhQFY4KxseKz2rDzZFXZNQnkv6tAP+lA5+N+tcH/u5W9PzEzQ9svwj8rq3lv3OF+/TV56E+sH2fjVD3yZ04vG78qULa1n1z87tPzJn6JLb/EBjyX8rCfRYafWZb+a1ThV2V7ZPZSPUtCMH4bBTfFlPEdlA6GPyTN/mUB7xcnJ4oHvl82Ko+C/bf2PWf0PWJrL/E9s+2VH52Oz9vnlY0rEJwpr+pI2loWVz76OFd0VGSTkfEOGSuZNhbw7Z3HCaffqKOiDFRc+9RPuUXDvPnmCz1cbq4rTjS1ybbtrYuWre0O2HOs3JrTZ/zVywdUyh3M4+o3JSnma8jLr84Moe15rxh5nWl7Bp/RJfiEtvp61xjtslyiANdfMqXoj2xF9HaXnVH8jmdc7C2V91K9T8WsQ+Eo6Teh/7dsmGrHy/ahj3dfWHOfd/ypf13cZi6I7v6kB9kmO31B92DoS9ON20b2+XBLpptj89se6SM7/HqceohwxEbXB8Zulg9Lh5sBaw/8sb7D4/6SsG3eA3/X1uZ8tGbmz/9XX/x5i/8n/747Z8sd2N3K2t7iXqt5isFFuZUTireVDwCUtxxUBWnj03BzkRNmNca8dZeq5HkPkpLx5YPeB+7Ve+p6P1pPLuT0wo3lbbvvfrXG35so5/Yuv/rLYSP3fyRzTn/4oB/Puv0DxRspKz8IP99YCs+w03FT/6q8vpWx1Yov7HlSvjMmPuWsoJWuayA1e7rBMpJW/D5LcGvnb6g61cNyVTIWtlXCxSyLSIgnwcLdnOg3HZAtOUZyqc8Gf4BieeZQlbskeL1H270MxvJy6c280+eUoh4Y7hpmkr6Cz9yROIdIejYwJRBO3cn5hxsaiNbSY86JvwiR/lK5lO8OZOPfJMpfkW1O7797OLJUu9YkGvjdMjvF3RT35b50YzXp13/nLc+PJkPq48RnVjnHqGZh5mnfqSi7LKpP51+c5TPKUM8XTTbsOpWugvZrOPMCUf96Ny6K8GUoXMSyXvY60tu36au9uyblI1+SK+NZn99zs2ce1J2j18n+DWIeQh/LeNlxzHXu2Tta+xfNJaj8dfqJ6aNi+ASZIdHwXxR8BBoexhQl2oPiIejR0MBoWZTTCAfMCpv1Go+s1P+KGD9l1OVQLVf8SL+6mb7d25u/ge/4T+8+SP/k99083//ru16++mtSPJV2V7Seft1M6LAqRxRKWiz7c/M1Ule1/68HPUCN38kMQI93aJP5eYXdBUKUiTG6XHED4mQAIFKiCpe8N+yLfB+gXNKGelTR8XaP97or27L/Odb6fg3bn7nVrj9sc0Zn77+GxspYP0C8JHN5/erQH2hVbVZ/VdMMP3cuCK20KSgNEgNrq/0lnL/6sRrpx4JQMpHQRVoia58ZLMt9L6NiC1oUmgah8ZQB4p8Ql40CMkRI323/+yW/xDC3JI4azJuBKJPrs2GbFltkZAn0dvqtpsO136azmdc5G13Oj8HMoVr65c1nA6xN+9cx7p0+ZoveH6vRA94FNrPuQXksmyP63dsJqcno+zT4dpArj3tADcXglUO6ef4aPZpZ5MezZjJ8gL6VtSXHZLfSe0/jrJDM8fJ9WW/N0/t5Oz3xncmmqc59uaaNOeZvk2bOdZ89Tc2yuaIpm1rTcw2ub1ov9a90d6jx09iHwhHSX1o/cvE6sNdbXgem/vEnPs+5Gv7z9kc2d7F50U+ZdSF3gUfzYdo5fU3roeqvuYlVxOtNd4cV3vCxdbl62H3eKvh1HI+v/O36BW2itwnikx/aq5gVZR9+8b+zZubH/7+P3vzP/zR33Vz87f/2M3Nf/W03+1nQrxqQdtiuDYZ2KiBoorYHC9QHLq5jTNHRDfXiDiPq1bSsal4FTAdLmj89DevOOMrAypPn3/6g33tv7Ll6yduvnNrf//moO8N91/eUrjK3b+wbcoH5Iu5P3lPFo/YyoeEK5it6UPSjeyhlRWo/eG9T159haDpbv9C1+2nsUrrW/n929j+s2E+bfVJLK9U4yevNpIEvPJs4/lkYbIDVb6ZORxM5ffUYYMEZNU8UqH7XnB5+qeb+ae2cN46rSg8oQrZlK2u7Xjgpm8b8bnNPcIRxLPh7snFp7z+5hJGsjVxPiTzQZsdao44Hd6xC9ohP6J+TvFopjhuv21B26DNjpwuWm3wKL1ffGqzJ7fNkXY6fPq5yuse1MblRz7kDy/PSG5XuX7j6BpfzsnmxqG12ge8dSfPDmrnOwp78uSXULFP2VrJ+Fx7Esw2uyOC5PZj7suefIkO70fcGSEfUWOToTnmfI9F7APhKKnX6uF5xrwMrOvv+XNfNveFOfeRDHt9d429tP+c/R4/6oP60d4POI66CFa+2uL64tPWg0OOauvLrnbcRWUuwF2eLn+k3QOu2EBKIWWQ0gfpP/35tj859mGkWsWfHFv8926F1h++ufk73/87bv7c5//szX/8M993c/OjW/Hkn0j1oaUqqz9Ct7DXymKzggBz9fIWzHSWXa9f7aoOnJOTqpaQtjHs+ritj+DUdArJU5G7ZewJJ3x86g/z+7cA/vZGP7mZ/9RWEv7SRm+cPnVVJv6ejXxqbZqPbD5/QPXZX+BH/Ql8m8Bf61a4+s4BLtGb3p7xQMp4oVTEfZVA0apsNJ2ppbavFihyv3AKQiXe5+gm9wUHO9pHzWwkIb4luHz3otmL8o3s0wk6GQmSBzzjgcLVv1bgO7I2ne7jW7q/dDpH0o2k36ptvVQgsi3CUdts67mRKzjM9qrreMwzbo3scWS99K2vn/20bY65jjZYIyTPo5scyR4iS3F6GUV+ROL9OCTXR9ePSW19cTtDbjxyBJsDtYutlU/T52RczOUTR3Tlor0sX+1hvH3Wl139dCgdSgdznelH+ii/YLaPSFw4TG7u1SaaPk39bCdDHMy1BzazjxwFcvuC2q8jebWP0uPZTj7JeZntOccePRaxD4SjpD60/mViz4epu6sfLrG5Txz5dyRD7WvGntM9j80Rh/kDvv6wn2uTuzSS4yibxsy+yFh9ZP0ep2m7d6mCC9dDoqaapY3Cw3cZfYiJTpe319AnsIpXFZUKKvIy/a5tvT96c/MPttrpH37rf/fm//b6n7r5yx/7jq3O+R03N/9oW0Hxq7ZR+6i4qhNzFucMPK2tnr1+kUrDKzeL0r0CNqq/IM2reBRc9Ou2LL1PcJ5/JSInBekrA/9gW+anttLvZ7dS8DOnb5z6bNN3hJWGPvM8fZC6bcD7VJbiqoA1lRirFvgrBtWcddWUyMfdkqyQ3WKzZ4qOat8+bfWJrHSZNp22Jcm3KX3fNl4Ryyuch8iXQpDFLSQZZAmR0M2xeWBw+eezQ4JO6JTxQHC84pEC1qGQN6T4/8Vt1s+dPo3tw3CrISu3JW2fNpKiiplJXMmleHIussPrS55z1m6tKPtsojl/RCcT+IS00ZfKZBlDU0ZsOh4VmEjbiSTP4nNS47J1eucnsPhKc0xUsbL6mwwz7qh8lb/ymxwvz+zXvvTkeLK5IXnSqpt+7REbuMQWZX+u78hmTw+zPfXl+YgAn3s0eVS7s5V9upXP/kmdB3ySPmsc0WMR+0A4Suq1etjrezds2iV+3dWGS2zuC+fWukZ+HtuVw102d3Ego/nDfiSvuvVymUSfXfI5MmbOjQcXp0sWeQiQh0QRoXhFlTnJ1ZPPPnxTMeFILeOjQvWLP2F226mVfu8m/v6tDNwKtJ/9jd9087du/hc3/483/9DNf/Pp79zGfN9W//yGbcy2sk90VV+qtT6tNQfHvWY5y0nci8hpvBdPH+q1rCLCq9UKRtH4DVtGPrjR6Z8KsGh/214QPkn8qW3an9xMf+bmOzf9b94yWNGqiPX5prrzW7cpvnGrAp5UUSpeqzbVdRXoNoRffKh4VdX5UJTsNwYfmPJ1i1HoUi2deMWrNCVbUqlNpuN5JeWrp8l9EquQxX1ezGPczuq3qAUrLXEJ3sCBiV7bZx02qNXwqncf0/dJrEPx89tWfXIL8Y3TSlb1+0OFK2pl29WWta1tLV7RkhyfpH+VG49H6ZOjvXXICPB+fmAWIaBtq8HPXD+7UBFAh7TrT+eodPxnkUpWgKZLjipQ/dKzFqrTzmlvPKrgzTckluTaxRyPastjOcb7MSRPffKkmfeV762J5r5MYjt9TWa/14dgto/s13EI6Pd4/SuHVSfP5Jn/yff2ZLZXfecpefK513tkDradT+TMzH5InvyxiH1AHCX2Gv21c7xMXOLvXW24xOY+MedPPvLhSA97NtfoLrGJr/3TDuYPNeARrPrmbEx8yl1ALpMulmnnwgG6+BzbBYmjHhTkwcH7NEydNT81U3SwOUFFpXpSr6hRqmFUUnhFLTtkYh8CqgC3otY/L/uxrXD7ha2O+vn3/aGbv3vzb938jZvfffPjr33k5itf3oqsz28V3Wvb6q9t3nx5e+Je354TQRdgAUS9ZnGvYtWQT1cVqh/YBr9/40+2YvUVWeCgClMQZJ8YfnIb+hNb3B/bSr1f2ab6xOlfF/jejdSc/pKWwpWs9PuGzaf3GyoHYu6DSHlQyOJqY5vAT1WbZKohTaJ47dNgdSZSWz6tIw0zvKJkFq19tRa3tD560Rij7xNbQr5yqooVrqLwW4UIlOH9isIpDthxC9NLnERyesU8VTaFR20+Usgqpf/JRpLhtxMH5Be3mT93OlNWEGrpcObIVkdWx22jo4PzJjm97U5HnjR1bLJr3Domm9bB6ePJZWQvMxNlCJH7We3ndq+NZFShGV9lPwIVoVM/C1F6Mj1e2zlKV399fkzzKb+Bzpz0YkblITkqt5Po5Trqx5Jtsv0v/5FxxusnQ/qV+NFa8b1+qH0pZQ9z7Jw7AjqY7WkzKZDlt9xD7Umg3560R8lTZ0/NGZ99yFzJ+rTxSfa8/snTN4YcNe9jEfuA2EvsUbLPbcLzjHlZWH24tg2X2NwX5tzn1r1LvsYWpuwHL6R/Xj4xf7CnPHk029N+9qXfa0+C2d+FOS9O6FFH82HxqKitKi4qNrqgTy9mFVVFrGrKK6mC0kcXp3fjeSktqq7yJ9zqqt+y+bgVta9udesnt0V/datyfnWz+YWt8PrYzW+7+bmbH9jKoG/bCrRv3Zb68LbMh7bpvmG7TPMYiQyJ2kJ4zzlnOfX57SF7Y1v+rW3kZ7ZZfmEr235qi+1T2+yf3sq4z5/iVV/2h+8KVXEr+75xm/ID29Qf3l78V9RsXn5/Wu4TV6RuU0WKlSzxqgSvp5hNrmZEVcIqObWjT2H7NLbfFrZwRDGLWOmTztsC9bZclHbu2Arf8Cjt+nFRv3mKRtJ9H1YBywGLaVfIipSMl1uO9/wHgcmx/KLKad7liYQoYPs6Aa98peAzp7AVscK0mpXIdArXzhw9zgPEm1KZZ+1+hQs+2+tY3Jy404Kzw7Ohz7Y5cfprYO+QbK1c9vZINpNlsyJzFptTZu9003XaZ39nJptIfzbJjc+P6UsE8iAfkwCXq0jek/XJpz2N7HNyfWzJ657VP9ds3pX4F63tVZfcWPuTjKyhP74SG8D3+qNAtsbscx6y0RfvrOxxe1F70p6O7eT2dbZXm9V+6uaZ0J40dY9F7APiKLF7+nObcM08LxurD9e24RKb+8LRWud82JPv6ocpH2G10U435TD7wA/xtOsHXLsf8uTsor2+dcwqh+y7TGqv8ECAi5Pc49FjUhHRJ2FKmoqLZ/AyqqDmB3CqrSquuPpG/cJOu5fZ68lRi6pg1FeqGIUc+Sm9uVU5b/hAdnPii5sDX9psvrg5++rm6KyZTWtKU/cAF7s4PTI9hnJj2co1fX0gqv2BbeD7N98+hG8TvW9b6IkJFajqsypIcanV6FUJZM5wDCxsIclEClYfQ/an++mq5pB+TjxNthgqYCvFLW/p0o9HXKDLhox/8TSppPpE1hchcAUsHSeUli3eJ7KdDlkDmUIyWLkj45LCSx7miQLWR9EVsT4f/sVt9OdO4VoBR1a19dJhdbJVpYAXZFRhk2dk3pCdX3q6zjW5cdOOjOtvDpzOWDzSRhC/FJ0/fJLszWIApUuPz2ITyW5FZ+eB3I9TcvZ0qJ+NdGwm0Vuvca2fL5OgHJUb+YuXt5nb2bYH9hlvv9ojPBt8jktvvuZMXilfIkg2Lv/TFUc0dcnZQjKfYB1jj5OjxpLPofOB5nlJRmAvspty7ehIdxdf5dqdj/ryL9LW91jEPiCOErunP7cJ18zzsrH6cG0bLrG5Lxytdc6Ha+Sj/muwznWO71E/4Aj6oQ/1p68vnYthnSe7+qIw7bo8cZevS7VHokejYgFVKKCKWvbPUBGrqpoFLPK6Vl16NStyjZl9XlDOQ47FOaCiUeWoaqp8In0R283JtzZnT7SNf4uzG73Vi/M0ASe2BfiEH1tinmzrP9n6n7idq8MkjMxnBanXXKFaZaiANZGvfKrfjBVnr74+iZM0vitO+a9m9IGoirmYkn0oiqslxYM22D8uSZX0SRu3LMu1+dUBdtzT5mKfxLJFXz5Nrmj18Xf/QoF2Hwtr5zRyEuy+YAQlqZ0oHuGC7iDQka3qO7G88VWC/SIWKWBnEYvTW3U9j6hzyiNtHk09brtxZJ6pA3bGiWj2peu4RM+Lfhb7OYxkrcwlOzaILtJ2tGS1/U+exLZClVyhmryOo3dW6t8bF+VXBPIzczTb8hjZI/pkNPdTW87xbPD2p3kmtZb+5D3Sn8300Rz5PfWQHDV+rjXH0EN6BPY4u6mPB3YrnAWY52TKte0FeeWTskPNYU/x9LN/3e/maEzjtOkRZJcN+bGIfUDsJfZcso/6rp3nZeESv+5qwyU294U597l1z9nt4ZKx5Noumdk3kX7aw9THp83ahtp+4CF55YBP3SqjMMcj6OKsDS7yHhBUG3lAjOnTkvrUii7lZ/DiqVv64M2rqI0qBvFeSLKPBRtHR+7l5KCFyXvgaM5VmXBSxUNWGZmTTY4XIGLHB3rAreWFN6dqAUkg/9RhbPQrYPtIU59xVQFkN7s1zYMjr7SaUOJ80Om/NYv7AJTfKje+8otdlR17Mp83SIsUcd1SiCvI92AVsohrpVbxyr4Phtne2jzZQrSwBRWxvh+LK2LpK2QrZjkjKIkQFJAFLmgJ028Vh4AHEqaktqpPYyXPlxz8BS/fMf7CqWyWHvW7kK1kZavZWuG3xVKE2FfYSg15tvXj2m2B8XQ8xLWdYbw+7ShbdN/oZzKSQVwGKxoqEBzB9DLa0ezYzXY/Pqgz0ji8Pu3mmu3G0Vu38dOPfNUnb+RyuuZq5n6vUEWzH5/9cfuI14/I617VP+3o575mj4Dtng2aa7DZs6OD+ifNcQjil0J+7QHYg4ger699Sd+eZXPE77KLpo0xU9eaK2XzWMQ+EM4l9ahvT3+N7bsB069zPp6LdZ1j/mCem/NSrPOHS+TnRXOsHI76LuGrPNuT+2Enx5NhT3ZBAD51Lk7tc5fl7HeZ97hMGUfm64FBFRFvm99rql5RHXkFkVqGTl+vJNKHcxY3xovIVhsvILYzcNTLQE/Gs7kGxpintQRNtmZJFQOe70hbf4Vr40oIuY8Q+acGJKvMqtLmF2xRNWIfQ5KbgyzxG3JFihQUpVqN3aesXO6TWHYKWinWp9BNR35jc/r100KKVw6prH0yyxGVNs4J3M5XTgiaXAKhZ9RqEpR3ClpfJVBOK2J9Gmv1n91mee00s5X7gNpqPJIuKwjfOYxLFT1Z4coTOu08rGDiaZwd4rG2rUk/dR2v6CqUimACujMTyRSqMCiLyZG2PbevflzQLEKTJzfOfuPaHeHG6GveSF/j6sMn0fmROQpXDqF7wx7IM5muvVj3CLW39dc3x62kf7Ybw5/2lF4b19afPhu0NwbwSfphb9zaf8cR2MWaW+2o3E+O1n2i6+xkN/uSa7PF2dI1dtrMcdmln2vggD8WsQ+Io8Q+tP7XMtaYZvtIDkf5eJ45j+TnRXPszXsf/EiOoy6CVV6RPrts45fCxeqiRvPhcPG65JFHJXk+Km+DlzVSw1RB4aoqvBe0V7F2LyZ9BaRAekUB1w4zSLJxE5ckobUnjOuFtya/SzDEJU5/LxV9L54qjFxlpTJTyKrMyD5y1IdUYfT14ao1L7aqDkc2YQP3pIlbpVRakFJR8SrdFbWVkWT9tqZPbtmme+20KMc4amFcQau8VOBWzBYUqtyYyck7iZVIqyuZkc+CFa/+lpuvE3xsO0evnYrVPvOtiOVNhSzZSqVMOlq9T1/zJDvnU5/tsRXaeOd6nvMKjvqvLTZO6LxJwZwg+cykhjhKiFy7AgKPOppIprVRWcej9Nkav/bNfrz5yOYj50dUGw/CQ/I3Sa5RshxH9dmHyZMn2Vf73rxznjnfnhw1rr54cxbDSvqg8dmTI2A70XhojmvRscJXuTasZyh5tvdsjsZNeaV5HsiIfcg3uuTHIvYBsZfYc8k+6rt2nvcKZoxrvOfal/Y9r93zoDn25j3Hk+Fc/zld6Ac/HuaFsIc5zsWZXZfobEcuVvYuc0SHd0F3yfeQpCN/zaVcVaWaUkV5FXsFVUlexV7GXtH5QnYbqqo4mz1Y2Jz6A7mgzGcOEBDQrcFP0PF1zgn0/DJPMaww75yTLCESo3LCq6RUZeSqMnWhdpVXHzvitfVXyZkPPY0l90otqoiVIp914hWn7LTJuE9jFbTsjKGv7/XN8TdOzihY/SE/8m8zKG5BW6kpWM5yrBMjkbikKVy1raBo1e47GFZWPn9s29YvPAtdWnDpEnbFa+mwGo6sWlthw4Op0ybnmePTOdam104G7a/BusftOz7PW/rsn+7ViVsEj3ZgCtOtHMmiNi6zqH2f54Atmd3sY69Pe86B/HhNW7wfUWNaKz/S4ULVVx6hUCfKNVrzTrYnZNyexds/vD1ujsbPecjNlx0eZV87eW+L0mWTPHXmm2NBTmZ7jyevWI8OpMNXAucikDs3+mt3fpC9q49dVF9yex2PmmuegebCawO5Nv5YxD4gjhL70Pr3Ctb4ZvtcHxzZPo/dOuZ50Bx7874oB/IkmP1h1c0xaL0wroWLcl7m6yXbA9AnH7Xx6Gvg5avwTMbn6xjVdhvOmzFOZ1yBuiXVQVASVF0TMxlk/fNFAOMm1iI2e+PzAZpbMlZZYoKKS1v1ZS0vajVh1VovMq7yoq8yU8F5tdMZZ45e5qeQoplGqSErRhWoQu+T2ArcClbFrVKSDdnYtonM5subE2+dnPGJbJ+TIm1O6RMAxySNcyVE4mxYK1qp1RSvyuhPbaM+vo1+/TQTMqvyeKaKLJVWKUWlUJroIjbSygbvvMb18xClQ4forHTeIiHO9hEsJDUtWnsHppGxioFVltFIux8Re94Z0LaH+qL6IzbpceNQPwbp53g8f1p/tvl+ENaz8OV70twXVNEatb8ou34E5tj2VHv2JaP624Jo1a1bhZpLX3M2DuhXCrMdN+5cvvbAviMHeDSPIuD2hX6P6tvbx+S539EcO3ly7enTyh+L2AfEUWLvQ//1sGkzxjXec+1L+57X7nnQHHvzvihfMfv35CN0KaD1oghdvEeXZX3zsgYyvTbyiNTfBd7D8DXoRYy8qF5BfO2jR25PJAC3J04vmG5IejY46GtsYNetCmwRR9mXHGOS8dZcYR5+7/VNlBxzeXnJVVFVVVVlqjEJpWOrHWdb4Vq1Vrt5zL0ht6VAKhUgpbMCNlKUKh3Zkdn6Q32hKSWlg8zGeCUnO2Nf207C69vCb53KRt+N5YhPZYGDAstRs5DjFa9WpEOzgP38Ftqbpxn7xxhwqbAarlzeS81MHT3ORmqtXLpwKZtnls751u5n4G2YZwM6V3hnQV9kgmxXubOBtOM7mMtMPsleodr2S1bJeGegsxHXTzYWjxpjh+pvnPPSODr+tD4SZvMVUumYoGsfpKNjPHk/Euv+RdqRduPWdukm7+nxtmXq9vobq02OsqffI5gyTPl5IIeRfZjtqYfZjjovyfYtXe25r9NOmzzniaYtPqlxkO6xiH1AHCX2ofXvFazxzfa5PrgP23NzXIvG7815Td/kyXchOz/wsM61hy4M1MWC5oWcPNFFq8/lvNp2gfcIzEcB3wUHKlJX6sWs7fXjfLKxKL0gyAXUzQv6vbz1Bf30gZ0gAlsVGn1Y52Cvna+Nz6Z+6FVTWQF9SVJlkb3KqjIvLju6Xl8VmH6vN9JONiYdW2NG4qUGSWu81CpItZWQSslkXHro0qfrE9jKzubKRjH7ximoqFISFUSQPMhLMyIF7Oe2MD7/LEU+gRVipCwWOllRa9bq+FYqNeQK2Ypb8yL90hWlt32d8egZ7F/kjExy/ua5uQstZFE8J9624FdhyX4E5pK18doymq1Md1Tx2726JXZTrs2OHG+vs4nqR61n/Crz/QiloVTs7Uk/DrMd2Ue6+LTNZp1zlfHpB512dlM/5UnszQPNhU9Kd9/oOHY0z9G069xMas/qmzZTxw5f7Va+6tD0Ix16LGIfEHuJPZfsa+y/HjZtxrjGe659l+2Kvf51PuQiSb+278IcF1bdubn0Hdmv/BzYZHe6ADa6azz9swtjkMsVarPrwp28S1w7OT4fB+1duMl6EaNeQq9ruvWV5HC3qzYHyXQwX8sZZOM41FhtNgWaHeD8AP0I6hcc/4zLbsI6bHGvqjVVTiXQOIlSXeEqtF7ZPi4skVVe5tFnvCpNX39Sj6rUekE3WEaopRIXtnRWpHK/T1crYJF+fBaxFbDJ5mNXSvWZR5i3a75/W+/2v3F266AvARhBZikQnwkLxiyvbeG9uo3w3wl76zQPi77zKhV9+loRWyErZVaREpwO119qtCt02xorl246vG1q2+MnSGBnRcdsCwFJPDRQm7zqcQtxAuUEhyC7gZaJm3K2uYPbD7rasm1P2vv0ONuoMeymvra939MnzzWbu3M4wykVUGqEXSrai5ma9ik7+5dO2z5ni9c3x8z+1QZZdyV2OD8bl874tnESXbS2EcRX3NUfymFc7slTT4egPmR/YLaj9s+4ySP27Wu61kmeumxXfbop638sYh8QR4nd019jG97rGzfjW2O9pr32XQNjXQ578x3pVntYx8z+Pd1dmGMiSN7zYcU6Ln7XOHNPmtDuEp4XdJc4Wi92j8HeXM/gpvLieVW9ijid244czddUf6+i2w6HXk5B6i/g+iGdOaD5ctL45tbWRwcCapzAgJ1100NrsG+sigkkxlh65PVVVXkBvbwlrReVPbmqqwqsMbhxdFVotUfiuVP64qVUIRMpSJPrqyC1DTgb5aY52rLmwxXAwsClhT20lbcpfbLxJ0/T4z/i++YW7lun/72yUaHhUkAWfjW8glRBW/FaYZvNtEfmqZ8sRbgUl+a2Bud/HJ6m8avguIA7H5H2JOhchSbtjLRPOdDiZE5CNgMt13GbLtiH6U6uovah/U82JtuIDrFLbo6pn/1kxE6bb82bbmIJ62Qv/PZ+j6TGOWgPs8Xp28dsk5F+fI5h0zzZzzMwiY7P5Gzx+uvb4+dI3Mmw8gm2ITlu38kRrLpJs2/K7RfeWUqXLRnNfvLsYzttJo+yae30j0XsA+IosXv6a2zh62HTZoxrvOfad9m+KJrvaM29/rD2XTruLhgTwZRhynvIfhLMy5FOe71sJ2Y/HmnPSz+qvc7zNri5elWR18/t1Ws4dSomt2Q3JRvj8dqQXKDGTxjTjTkx7c2BgL6+gtEm80WlFwTdOJAAUFV56Zprvn6419N880Wtn8545AVGZP2qN3wWsCq1Nuapv5YspVwmx+n65FXBiejWQla/eWwJuQIWtS3s2dRG+o3nStsN0qRtfmMKxRghkFF9iF6YFa/J9FFp6tu35PrIUsqm1FpDuko5OXqavlsnOAuUnNTGC1g7AnyeBTAptDdoLjj3vQTkSPQUlu2YTnm6Md3U177bp/Ye0U2qz5hpG7eHhdd89evD80V/nJ6vaMXUtS8zDUJPh/pRwbO3v+zqW+eYY+f4adtcc1tq58Ocix7o9GcXj9Z2Ooinh/iK8jT5ms90yD7MdjqwL0BHXm2Qfa0PR+3tlHF7nN3UT9vstNe1kuOPRewD4iix1+ivneO9hBnjGu+59l22L4rmO1pzr/8I5+bCL5ljReP25okfYdoCuYuSvHfJZj912eHr5T51s+8QbiqvnorICxe54XoNeyWrouiMW3k3aDckpA/6u00LDrQR0M8+cvbZCIxs7voEbO4CzqaXMZuSB72e6eeLGtGpuqrO9PdRIh1eERuV+Ke+WLo04pHUSbNCsm0gI/3aClB9aBYrbRFbMl0P3kyxApkbdPrJ5uW2sUKiV6Syoed+6Spsep+msiMrUukLnVxBK0X1V7yyaStKazLiF27ttucZBIegZLb/nAb9+koAeaL9aPIWiize3nMsHd5Y9BSm50JUu+VR7sXrl297R0/GI212wqld+Mboo69fO5s5Z2tlV2r0CQlmigrNOPs19yR5pqm9s6/kUsdm7mu2e3ztr22O1po+pGOfTX7hU5662tCc2uni9GHKUK7wKe/ZrSSnU17bK4fskH2bNPcTZTP16XB6cvOnn1TfbD8WsQ+Io8Tu6a+xDe/1jZvxrbFe0177XhTNd7TGi65tTOOO+KXwgw7n5tzD2tcliK80ka7LeV7wXcjzos/uLNxmXrX5+nn1BKfS6fajq4ilQ3T6kIXMoZ++IM2jHdZ+48jInOlXpM922h2NKQH6SwTulcRL1EzWfEnrU6Vp4+x6tb30VWfxiN1cd4OwZ9rIpVtqyXgyUoBKa18zMGVbNudjYxyUDnrEFXbGcxvYcq02sAvsFZ+lQPhCVKSSkf7CNc/6dYK+C4vMwSbSTm9dHPCRslt0/gq2VzZZf4lJjqAJcYvFo5wosGT6+oyJnsL0uTJllGtc5lK8fvtXOPZOH11jJtmrqZ+paO7mwLM1H7/os2udILQ9FHahr7K9m/s5U2csOf0eb45sS3Xt5tmj/GDXluTXbE8dvsq1EcTPYT1Se5D/eOdi5clTP/v2+u0duf2clL49ThdNmz2+roWjxyL2AXGU2D39Nbbw9bBpM8Y13nPtu2xfFM13tOZe/7VY5zjil4J9BFO+Bl2wXazrRZlu7zLucl/lO+EW8/L1IlYdCYC+lxCvj123n3Y3XuN6JUtCbU4b56Zdkd6YNfAVrROSS1DtXsvZD/Sg3cvY2PnK9rqqyLy42qiqbZICl01VXWsNCK9HBhfGTCuScqRwKf2KT5/GSrGxdMbjbEobJCNyaIuQPvMUNm7t2WZX6HgFgwKVLNTC1a9gpZcGf6GLrmKW3Fylq/M5ic0JnANO6JgJoit5ZLYFBAWIyJye1GJkC7Yw58l4bTybOcdTtERLJnMl4mo8N7MrLJyezK7wCnHqZ1/zZlObbE7raafHkT4hrTBPEH7pmhzps/f2UXripYyNvdZuv+szbtpGsz1l6yZPXZRPaLaTp90qx4G8BzkMRzaQHRsyap+TV920O+KRNtg/7fZyUmeBPG32dGiucSQ/FrEPiKPEXqO/do73EmaMa7zn2nfZviia72jNvf5rsc5xxK+FcZPOXXp7YD+pixZNzP4ude1kvP474aZSCfUK9gKaoI8E6XsFZ1uQ7M3RWOgFBXr9gU19cWieS9Da5g4FHWYC0qfL1hy9mNqo15ldtqoxvNc4Gxyxm0WsvtYcKIXClKJSjXqAFKzaOFuyAlZ/9un7ZFYfGI8sXWpK8UxtrtXHfTK32RVqeqEZg0NhV6hIj7b+itZZ7BpLp5+u1JqbXr/2CRwXKI50CDZde18yyXFUcDMZLbDKFs8hvDZeAshzLHoKy7UMqp3ruZtu5ahfQiJhzlBx7dln/GqTXH+69NNOOoUU2EM6bWkoVVAaUOlhE9XfuPkLS/Z4tpfIrTWJLr+itmXq92xWnryCHuznObA7spFDNM9Itnj6PW6PYLZXu/Yysr/0cbppV98cH1/njrQfi9gHxFFi9/TX2MLXw6bNGNd4r2mvfS+K5jtaY6//WqxzHPHnhfHXztGlulKX7HrZ1jdpXvzA5k64xaqMehm1BaCI7fXDk91wXl/o1ez2NM54IHdzQm12nEsPrQnxvQD0tQ5fgpdP8HNOiVjnyi70OiJ99UdeX9XX7EdeaRVa7Sq7dDu+lwpc2oSMapfW+TuFQjXb/lhZf+PaGvNyV7uQ2eSGMMj6hWJMIXLXvGRh4WygYsTY+sxBVqhKjZDZ92ls4c+0aVfI5BOQn3A4x3EBFxyQBaM97TgdhwLnJHm2wWJknCNRTidPjhoTPUVutBQ3cimaLsanLKxCw+kKP9LuPEz9bDeOLr/mOtPeOqUIRkgnsC/sPWJvz8kzXSgbe92PQmmctqtulfd01p0+7PFJs894qL3SfWKehXKMr1Q/sjcwx8Xb07Wv/cSjzkKcrnHJK59zgzaCxyL2gXCU1IfWv5cwY1zjvbQP1vaL4Gjd5KP+a7HOd8RfNlym6yU72xP1reTSX23Pwk3W64e7yeKzmnIrkiWnfkj2Muojs51yaOxeghsfBLFnl37aXxr4fA0Bb2yknw68wr3G045OFZc9XrWXzY4v0oGkgPtSE0+PpJ0O1Y4nI9uCoFTgUw9r2FDoqP7aM6zCrw1kekXsDHlS9snoa1KSsyUGFfikAtI/5ajg91CgeDSDFMCes1NmD41/itzHcwVyWbv+uH3LFmmz7xxE6Y1LXkkf3jpozj31+eD8kBHEJ2aaUClA7PHSs3LprB9NObtz/XtzTcqv6d+k2W8OfCWYtveN8nsJ2aNzfMrtdUTXPdB5oJ/yEZ/UOghm+7GIfUAcJXZPf40tfD1s2hrjbD9v331gb627dC+Cdb77nv8adKnOC3fqIA70R3Qx3GrrTYhLgJe1V48u0u42NBZnC9nizYGH7ASy6mf7LljDuoI1zosH67wzcV61ksOG3AuKoIIV6BSnva4VPGxmZYf3Z+W9vHOjnqIHg+sVo6W0dOL60rGRGn+xS5usP1v95pxh62tbcp1LM3T2hUNGs1bXVyhrfU5X23iYNX3rZKP9tnRwoIDbRyjAklJ/snE4u8bD2yYfaOFJdIijOTz5qssemuMpcme6NnW5uPJVZ6/w5EJGaxv1o7LOh/Tri0+bqcMR4COsEwpVCvBSyXYvbfpqk+f5wI3Hpw7fk2e7dduGu9pk49Lh0WxD/L5RblcC+xDotI/4XX2RfW3v534nTx6ZJz1o79FjEfuAOErsNfpr53gvYca4xnuufZfti6L5jtbc678P3LVuF97Rupf0r31TR15pXrrkFXTzoifDnu0h3GK9lG41nA5HXkztacfpbsDs2YE+dkBOH9Z2CVj1R2AvWOtOePmOUEJ63QL9Wo1p05fUWZ1liyM6bbT+2flc5ylKo9QpREs3HkldqY77SkFb4SsFpV87Gbjc/LgxXKLnFs4eB0UrCCXOnp7MrgJWOOmq35sXqvXp2Fqn+Z6BEjgmMG0y3pkRFB2ageCTmgsKaIITOROPcpxzOYnSxaPQ+KfgwupOMtdzHyVPXe32eoZMh0oFmvudTW39+XPUxsG4EcYJ7IDeOGGXVvIMvbRIE91MV6mWVvpSnc20XWW2/SJF11z4Kl/Txic9NORvEqxyHMl9PHlt79kko7nH+vD00apvLD2Ctf1YxD4gjhK7p7/GFr4eNm3GuMZ7TXvte1E0394aD7nuxEPOfQ7zop2XLxniwEcXvf7JgXwxuuHcgG6wXlScfr6UXtF58xnTzYmAnh2w0x/0Nd/EHDP79gKZ/cnssqWb48heyGkTJGy+tvp7PdNV5GhHU+fVraprzN5aG0pdaYumvq3A6fpUVnr6TmxbIdTsWq559OGFwj3ApywUNlDxuobX+NJRmHFonvywPt0J7VNOOQP4DBqBvvrpZpBIOyrPUajNoWjaaRdgwa180oTxT8EFLsF0a+5Brs8QjnQzFbVR6Wg+ZMy0X9fKPpv8qk8Y2oUzwjrpSxF9RKfPvmrPVJXmxpTac2ntzOBT31xRa1/anjo8elmQ6/iUVx7JKZrtI36kQ/YWwdx3vP6Vz7lQqP1YxD4gjhL70Pr3Ctb4ZvtcH5yzvQ8059E6e/2/1tEl24W7XsC1J9YL2wNwNdxgyEu5cgmeBensg27KbAGvPceHtd24OcclmLZrYib0PaumNmgbi8+XFkoiWl/f+KpT5fkY0ljtNmMHlpU+KZO60hmlL63p2M2vH9BNYjex6nO78FZXyWtIFRiNrW/aommzC0FHOVYgJWDqtWeQ2o2fMhQAjiCZPpq62TeDnkFNoj+D3MklLubmDCE+5bhwQZucTnulxl0in9NBPk9IT3ylNZXSUyqTSxmbmV48eT1bdKi59qg1Vx0yx2yvNu8EZm6TJ0+2H7XJa3vl5+Ta6dYzQJ88++mhsZMei9gHxFFi9/TX2MLXw6atMc728/bdN/bWvUv3bsI1F2i28zJGa3tiXtTJV6NbTHFJ7hVVUIDqCbKZN2JFB6KD5mhTjJkbZMxsg3YvufHXQPBzvtolTFK8cmH2e017YbVh/VhofYFnH9v+HH3O01wLhGZpXBpKNSqt6Waa6fpEVh9ef+ksLJjjp1ulYsqdG3JfHUiPr+FHczy+C45wKuI4Kvh0Ocs+0q5vBgbaM89xzhRclF365AKZQcaj7A+QW/ikGcLke/rk5prpWO1qs1nnmXbTZs/OWkJboY8eF/6aMkimL0WrrL8/nEClVV/na+qSm3fSqqs99Xs20TuF9nPlMOX2Y4+vuiP95Ahme91/PBmxBXwSPBaxD4ijxF6jv3aO9xJmjGu859p32T4U9nw48utl+XQX7rpI9eVrtnvU5bxivbT3bO5Et5hXrxeUrldQwQH107FpTPbaeGPD/OS1MWwm6JsTF0ygm6hv1a/oVUTkUMKAHnlFgd4ry4ae3PjspoxUfslz7h2UJnRUxJbOZLba7Pt9oL4KWHLLZt8WcEtfrnEdZ5fL8ULJlryGWz9dHFr/bSiAiFMFXl9yiaBLpp9zQP0WbNECyintlYN+Miq4gkouKASN3cF0adJ0P3nSnt64Qi1sqWm+VVe7PrzzQGaHz7GFQi48YANCB2397OnMWR+kZ4OXTnLtWcTSVbxGa6obC7MdtSYerf3TBuLvBORscphykOv2LJ686o/sVr5StvO8JDcG1jHwWMQ+II4Su6c/twnX2r9XMGNc4720D9b2y0Br7vm5p3un0MUKUz5CNtF6Oa9YL3B0NbrF3GpewdrJOOiv4IBeyTjg3Y7mqH9uhP7mCNnmB5D3Amquc8HqW5MTvJDpUAUM9Hri6dmkp0uP+nP3dK13gNIkBGkpnaUtuX68PrwtmfYRWNoYbTK73AI6pM2uMHJfOPqyn/V8oddG5OZEXwOOcMJiBSWInE5XUNO2dnYT9BbEcxbI0XRsr13QK5+BQXwHuZXL0eo6OT5DTz/byatd7SnX7qzs2SQLKWgLE/TPPqCrH9b+UoiXstKWvrPUGZrpXe2PqHWS57pgjj39yt8J2I/JjyDX7XFy7bt48l5/BNMWn2cjPUw5/ljEPiCOErunv8Y2vNc3bsa3xnqufZfty8SRX8krf9nogoVV3kM20by8o4kegrD2X4R5uykwyN1yyAsJ+vsokNzLWREC82aEaRfShfrmvGEvoOzPBavPq5lN3Nhe1SCJ2dLPFxaHdPMlJpsLebEbfwa5LsxSO1MW0ZWO+tPZIkvNrdI/MdcphJCLbGYYhaV/LxUzdO2IbfQ1WIMr4IgO5wzSXjmayHZdkG46NZ1bHdUuoMnneATxHVgyPml1f7YLd89mj9j0IzRTFtU39VPec18/CHUP+kvTHqxX2krZlI3tx6zURnv2UWuuumi2oTYO6Vf+TkCOLkH7irePkycf6VeOIJuovilPHYLk2o9F7APhKKkPrX+vYcZ5JMO5Ntllsdq8bLT+ymFP9zIgLytBfEU287JeL+6JHoIXwrzFqozoKjhwOJLxOYd2cvNMNFZAbCb0obD2Q4k41ycpXswVvaiBfUkko15b+ubr9U0fr4Cdc1wAaZFqXLj4pFK3p8teWxpLV+ngwl5qYLpHrtAovEJIFlahoWkXsZ/zvg2djdXhvaARJBcwHAU0kSPRdG5tk9e9xOuHKR8gt/BJ0/0I5t6tdnj98VDa6pvzrClN1vc8EPJdY9ms54KO3JmJ9NWfLtsjqh9f5ZVglSd/t8OetZdH/BLd1M++CDoXc9zsT566xyL2AXGU2D39Nbbw9bhpa8zn2udkl8c69mWj9Y/4y0IXaZcw4Ocu2PXCnpf6itn/3Jg3mRcRp1NlQd9ppasfb1y6xrkpYb0xEfTK7mGuewnMuQYvIfSKyxW9osHYXtVIZefVnRvBhq7xEd1zFrEVH+SI2zNt6db+0lffTCcd4o4+PBQOyl18j/QVZrq1PefbRQHmYDJazw2a7amfC9DDni6nVudmO7n9nPtKDys/QMviK80QhDv1s+9IP8dA/aUPzTFTl7y631y4NKygN8YcR/1z/0tl6dPGoT+ckN5s8Dl2pdUOj2rDXRym/G5G+7fHEWgf2ez1QfrZh0A7SgfTJvmxiH1AHCV2T3+NLTxu2tfmYLaPZKiNu0jW/peJ6cvkLwvinwRTLkdA3ru4AU9eMS/354KFkRtNYQFVWDCL2PlKdguSmyM9TBnPprWSJ5oPGnsNZvK8nivoZlJLcpw/FaW9xs2VLpk9zp7cPBdAaFKMr8SFmVI09dNuj46Qa5NzH0+eYRReNrUnb+whcng6SFcBOwNdA0vGL0WO5tiU17Z9nHu52l4A7sVXmu5Hsz1tV31y6QnkUloaoTGzD80w6IUIU4bWyF57jtUuPaUqmulb9agx+N74aO1bx0UTtad+tXm3w160f5Pv0SW2dDDbs39SfXDEH4vYB8RRYvf019jC46a9HWs+ZvuSPtzlstq+LEw/XibEHMHahpmb9dK+6xKHI/3FsDByo3n5YFZYfTJauxcSsmt8BNk2P2S7Egii/sZei15UiJccnK6kQrpeW+gLonOeip1ZzLKfujnvHSg8fCXhlzYoHXt2kyyd/siN9Djicm4nz/YMa7YvDncvkKPAoT3PNrLQDCx51eUUOpJrt3fkqP4LYcn4StyOR6sepv2kqcchLk2lcdo0tv5C0TfDYiNcWPtg6shrima7swBTltps8UnZ1aeNp0sfR0eo75zNuxnr3oH2Hl1iO/XZ71F28aAvkB+L2AfEUWL39NfYwuOmncfMz5qro75zdi8LL3vNLuB50c524Nfsi+YlHu3hSH8RLI7mjbd+NzY9qnDtFe0WXO3Q/GrA1M+1ABdEuua+Fr2cUfNGEgpTt/eimgdqp0vOtiJo6i5AaZskZO7WDlMXpSs8PKKH9KtL2lwFbtfGa6eLahfmtDuLnAHOzCDn+ZnOrzJ+KXI0586127uovivAvfhK0/1o6hEkn7OH7BDQl87s4vUFoU3oFyr7tQ9aA+bRnjx5PTM4zHFrP2pcc62UHboLl9i8W9G+XULtLez1o9l/NHd6SDcx249F7APiKLEPrX/E2zHz9DyyC2jq3muYl3G0h/TrBY662Gee6MvfC2O97So+vYSK0zDbbLoxoX+5IMx5oD5zzBcW5jioiD6H+mcCvIy9jnv9kliBGtjvFa2QfbqIHvCpu3AzuCZ1RzRDn7arPCGldFFYU4G4mrt38Uga0iffidVJ7fZ/L6DaybUvxXQ4Z1dd+kn2r74rwL346vKUa6+hRbDarPu5EuDND+sc2V0LaTC2tJSmUpQMyXv9RzI+9es60Tn/2b8X0D7NPYsgea9/j2BPj5oDph70TaR/LGIfEEeJ3dNfYwuPm/Z8mHk7kuFSu3caL3pRdklD8tGcs/8cPQjW220Wkf0Xu4BdRSw+i9G+OwvGNs8Kc+zpoTV7wcOUzyVhFqgzYY2vIKWnw72W6aC/sg/4URFrfGNx1Bx3wFBpKO17ci4e9a8oZY3dAz3K1SN56mpHpeC5kPOT1iAhfW3yJVgdn3QuqNpXIrcKYbYLZ4Yy7Y7oaAwkTwpk9tAcwpo2gW6Gyw7oGzPTgupbKbtV3tOt8qSpI3+9QF4vIdjTvwjBeX5z8/8H3cqn2uwWUHIAAAAASUVORK5CYII=;" vertex="1" parent="1">
          <mxGeometry x="120" y="240" width="689" height="103" as="geometry" />
        </mxCell>
        <mxCell id="n61FLX1z2W_WPuKx8NXm-4" value="" style="shape=image;verticalLabelPosition=bottom;labelBackgroundColor=default;verticalAlign=top;aspect=fixed;imageAspect=0;image=data:image/png,iVBORw0KGgoAAAANSUhEUgAAAt8AAABlCAYAAACVxI/+AAAAAXNSR0IArs4c6QAAAARnQU1BAACxjwv8YQUAAAAJcEhZcwAADsMAAA7DAcdvqGQAAFBrSURBVHhe7Z3Jr21Zcpfvy65cbjHuAUsGDMg2Egwwsj0yQjAHIYGEGDCwEXPEH2GZEUIgYxs8ACEG8E9YSiM3ICFkyTDAWG7KWVkuZ1NZ2T7Wd877Mn8Vtdbe+zT33nPOXV8pKtaKiBWr2fvuHffkee89+6XnLz2/m0wmXfzhOFVfA88W5BTM8dILsQ2084z0vRwaW6K956P/apNXdr3PwG4s44kR1yLGkb/mqdT5D+GQe+OjF1L55IUekeO2zEfMh016c63B2NE6t8D4XOPHL2Rtj5PJZHJt1PfOZDKZfArFEMUPku2t/RH4jLddobBdytGDMaOHGj4lcUyVGgeZ49yyhL9o5Nq2jMv9HMJa3vsg7wnkMdYwmUwmD8Ghz+TJZPJEsBjKouiQPtLDWONznNT+FijWLEwr+nqFqGNSKHYzznH6e2NOlZyvwlnU+e0vYdyWWDD3ltgex44T9pn3xmQymdwiPGcnk8nkU7IAOkaWiqat8ccUcUuFo/aeH5ti0V3jaDten/oUqTlGGFuF9a5BnOO3UH/xOIRTC2bGK9wbS2cymUwm18qxz9jJ5Enw1F7+WfycIlLbVSy+EeHMs18xvo5ZKjApKC0q85rS70liXsR5ziHmy9wjMq7KGjnXFg6NPxfMh3Bd85ezyWQyuTW2PLsnkyeHxV0WhyMxJjXQvibczylSsYDDx7mkOMaiCyy+al8B442Rng1GcVlgauvhvJBxtnNc9aeGbB+Ceau4h2xX1vynktfmUBzr+NRpP4Y6PnOmwKl9qP1LIteba+zZq23NPplMDmcW35Mnjy+SXnFYbT1xvALqpw7nsHRmCYVhtfXGHQIPOEVo59dLJAvUqgGtaM9+2ur46u+R8VVAXcnc6BFLvsporhHHXBvJ63vovEuwHvP6t6Yg2NOnzTaxS32k9jM/gv9SYC11vUhvX+5jq13bZDI5jEOex5PJTcDLovcSOUQcby5k8rWMznh0XtVWx/fGJLVwsxitDznsCkV49oH47BMDGXeqLJFxdS0VY1JGEOte1lg768TrQ4F2DHmdD5l3DXLV3LZr4XlqH+n1LwXWUteH9PZxjB3bZDLZztKzejK5engp9F4Wh4o5zIdMxtTzU7aem+d9yLgak4Vp4qfeajEenWNpS/qNyX7KUuwIYlIcZ7vHaD89lvJUtsaJ1+pQ6rU+J5l7rYA+dx+hf0nU9SG9dR9jRyaTyTbWntWTydXBi2EkvCBSV59C35eMMlmnnmNK7wwp8Hrn2xvbk0rayD0qsKudcRamVRL6xCm1n7IUO4KYkYzGYXc/tkes+cU5t+C6RtdkDcfntT4Hrj/vH9r5c51z2rc96tf4mo8+YizymOS17J2J6662Lfae4J9MJsv43JtMrp76glgS6Nmg9p86nIUvVguLlK0v3F4xx7gsDqDmBmN4YNnOMZK2fLg5dvTAoyDNvD3hX7vs2dek0oupssQW/2iv+tZygGe/hvcHest9AMQ7JscekgNyvDlrPljqnyrQ63sPa3sImGvrOVSBY+3+rKr1TyaTPqN30WRy08yXwzqcUb7Iq/jiPcdZmseXt/kTCsaluWpBWfv5abdFaErPloLfmCWdMoLYkYzGYdeP7qFvKY/+JQ65pofECtfXa30K3isKa7H92LAWhH2eY69bcE7PAGFubPdFb07lPuedTK6ZtWfwZHKTjAqTp44vUQuGlHyhKodA/OjcnbfOkdiv9hEZ5yfbagvQWojSxq9kH4zVXvsKfW09jMkxijl76De2B3v0F41eDDbPYYk1f3JIrHB9vN7HjJfMw31qn/Ypec+B60q5b9i/8pBz57mnvu95J5NrZOk5P5lMngi+OOuLO/sWNkilZ+vRi/MFreQcS9q21L5QgGVBClnAWqBpQyvZt2DVrmTf2Oz3MMb4Kvh66FuK0c/XZNA9lsYDvtF5VpbyLEH+Uws05848tO17zz4mdZ/IfeKZuP+c977nBveLznkf+zpMJpfE6Nk8mUxunHw58rJEPgrxxa0evTwt1DKPkuMV+sajM5Z+bx4LCovGLDCQCn4fbrYd59jsIzWmCvTsVZKevyc9TvFr5xeGHvp6Y4+hd8224PU+ZLzXvF73zJVyKTzUujJ3nVN5CLg+jzHvZHINzOJ7MnlC8ALkpWjBa9GbYox6CfwW6jUnuhbxCHnrGPxIvqAtIAE77fRnPjAWzYMti+/qE+MQ46ptyV8Ff6UXl9Ij/c5b0bdEftpfWRqf57zGIbHngPm8Z9CTy2Tt3pxMnjKj5/JkcrX40H/oouAS4QyQLH4VC17baRtR8xmvjHwU2/iw0zZGO1JJG9c0++bPsWpi/cQ325AFp210ttFK9qH6q/ToxaWYM8GWMmLNT97Rp9+MW/r0eynvY8O1zvtr8vWMrutkMnl8Lvn5OpkcRRZhTxELEwrUJcmYrQVMLXpSMldP8OV42vZtQ8+nhpxHW1ILzmzjUyxcEcfYrr6tAlVnjl4+bFDtiuvooR89wn31GI3Fxvku0Tv7NRhzyrgcm/faMTkfkvtYX56JktT+Q/PY808ml8zomTyZ3CQWGrfyYvClSwFCMdL7mke1WaygHxrPnbldV67zw2jnHhD6+PW5fq9pauZB+8kuDzofdra1p65t+8oWMkdq20glfT2/BfSokNbe83nmh7BljNdnK3ldD1kTsc516NhLoXdNT4EzyHPxbJBL4dx7nkxuid6zejK5anzo917S2q71xVBfuEiviEUb50v5El7MrD/XmsW2NtetzYLN2LoXr2m9tjzcXt03d/iwyyLV9hbZcs/0xvWksuaHLLDrWugvjT2GtVxeS67PVhjjdT0ExnHNjxl7y3gueTb+jEwmk8vlnM/qyeQiqEXYtcN+8iXb61ffQ7+A65rqehCKA8X1OSY1vmrXpsDo+hJvMYrOwjQlY6pvJOYbyZYx2kANGZMi9jNnoq3ac77Kkp1zHOE1IEZZw7m89ugl6vVGO9fa2FunXjfPpcpjkdfuUtY0mVwSPJcnk8mNYKHyEPhipRCyoM5P32jzaXX9KoniWnPNaaPASB/YT5+FyJK2bSGKVvxEudrPJc6dYFv6qkiO7Y1nLNLzVZyrF1vPV0Z2IddaTIX4LesFYrlHvJ8mX4tnz3luPdOHxmuI1GcCbeyTyVOl99yfTK6apZfRpb6otrK2/vvcHy9TX6i+TFN4qabPFy+ShbeYD9TiPGKsos8+qPFp5zx8yI2KbAvZ+xLmSwHsOb92WfIBNvz8QzrV34snT34FR3qxYP4l1vyJ1+JQGMe9xP3j9T2Vc+U5hHPPueWaXxLsn59Lnw2Kz4XHuCaTyWNyyPNzMrkKtjzIjbm2h35vvWk7537I5QvTl6SfZNNX8DsveiRZINDP3Pkyto+/9o3LnL1CBOHhRgzQRrBTiCrVbv9USejnmtCV0VjQ3htn3mSrDTyfitengj2vwRpeMzTxW8Ykjjl0LLHM6aes3rP+gpj9rXs5hd7Zn0Ku99CzuQRyzde29snkHPSe9ZPJVbPlRWfMuV+K901vvWk7ZT++EC2Yqlio4LeYOgRzW1Bb/Kg/eNFW6C/5XW9dh33OQvFBVwtsi3D/KXb7pwh58jrQJz9iTCXnrteQvnl7VB/tUWylziV5ZhXO1+tSz75CDotdhPYWXNdofYfAvNy3rDfv4+zbXtvPpZDnQvsc5/SYXMu5TybnYuszejK5GrY8yI25tod+b71pO3Y/jEOysLadtlNwjpFQQGRfsq+2SM3CQ81DjbYx9C1QU7Cl3bb2Ub/akIQ1Oi9S0d7zAXb3kjim+nKvMspRyXOucM1H5DVZwhzEeh+NMIZC2MJ+yxzC2Cyucy5zjYT5GGchju0UvCb8wsXXfbxPtlyTLeT63MO1kWdxrnOZTK6F0fN/MrlatjzIjenFXtqLoL5cbVdb9g/BsTVf6i1nknmOEYql2k+bbfBTyrTrg9de6Py0WeGhh+75EItc42q/2jiblIzNmMRPwns+bPiqHZy/+uhjT8x/CHmOOTbPdgvm6e1hBLGM4XpmAb6V3vhDPs0mjnjGWYST6xRYE+dIAe41712/Q2G8OWyfmvOhyetyyHWeTG6BZ7/0/KV5309uAm/k3kP9EF/G3Cc5nwK1LT3/ITiuCsVBFrDIGsZkEYxkAVDz6Kt2C0pgLfaJp2/xgo2imjYaP5qC5vNNjKGNWOwg+Mhj8WNxjp08rAn/MeR+aHMmCTalFnOeex0D+Hp28/RyUTAmjDfOT3YTfNiMseB0DjTQRsjHefXWlZAn95u5RuB3vWv5xXjGmj/bp8I94X3oPbkFx6TcJ54d5Hmc6xzOCWfj+di2P5k8Feb9PnlS8JBPHurlxDy8FC0sFIqU7CvGZbzjt655NGcKPoov20u5zefY3tqxKSNf2sxnAajdftp4WKH57vf7TfR5TennnmkjvtgpvNEW6fZPffEzXiGPItqNSbCPirqaR8xTx/RyJKNcCX3PO+8F7J4rvjWYy9iaawnm2RoLrt+1IYeMXyPzsg/0odQzvg+Yw/uZ+wn9EPMeS73Ol7zWLfTuk3zeHXPfTG6b3vN4MrkJei9hberHeuj31uZack29uEMhR83DHMg58h97hsztSwrtWtQWbcZ9tYlFuXZAZ6yFB5qCxE+7sVl4W6TcB+RV8mycs/fQ9ZP5inkqxCL17Gs/X/qeF3hW6ZfMkXE5foSxW+MrzreEuXOu+8T1cC71fNc4NP5ceD6PNf8anilc6hq3kufs/chziucamg8LEJ5ffGjgHxw39r7v30vC+xJx72lLyfM5R6y2GqfUeKUXi/RikV4sUuPm104mN4M3ctVwiA+yfQ7Il/Nke6SVY8kc5um17S9BDA8QyHFVEvr5UqLvp0D2gSLSAtmCEm3hSduvl6gd87kXgp2vmqC/MYSiljjHWnz3Ctr7gD3mg1ewcRYJfl7KGSf5y0VCXx/YJz/w8hdy8+IH/LRzHILdwgCME+N74CPWsbAUL8RwzRnH2nM/Fez4R+d0X+S9uKVYzHt465hzwBmmwEOe0xY4C4Wz8Xwe6oyOxXPMdWLTbhvh7NO3hjk9E/AZtXQudS096vgtcUvrPiYOiDXedgqoDyHHZHvrvuWh42fxPbkZvJHzhq62Lb6MORfk7M3Ts6nTfww1R6+dL+gtsgYx5KRAAosA56nwQMoChTY50PQpmmkjFtEU0BTSiMU3YvH9zU2+4YVgZyx2+hbfDw17omBM8pyEOGy989KHTjK+js/2UvFNHH50UuN66COW8chSfOJ6txbTxiPu6yHgXuQe5f7zJaruYTz3mvf2Q8CZcEZeC9h6LR4KzkLhbDyfhzqjQ+H8PMM8X22Xdr6PwdJZ5HVdOivjiKFdY7PPPQPG+iwwJvvKMTgux9POtY7WMsL4WXxPbob6A7JFw5LvXGTuUVvdsx1DzdkT6NlHsgT+fDkpS2OrnYcXQpHDQwoNFM8W0Vl8U1BTdKP5pJti+5te2PBnce5YH5wPDXuthSnnY5GU5DnWM8pzlSxGnSdzILX4zmIb7Vd6AJ2+ugYwJuc4BtcxGm9+dMrafMSIsWjvMbDwOxTuRcZZXFf0ofH3Yk7FPeWZSJ7XpcLZePZ5TqxZO2TcfZH3Uj035q5nDTUu25UaC9lnDn/eoLffXAccE2N/LQ+s5ZIal3uteitr4+kzrzrnH0Hc1ti8D2u8/VwT7exvYRbfk5vBG7lq2GLrxZwLcmb+OtfIZ/sYHJ95qm3J3hPhAUQfjWSBlnGJsSnE8qDjIefL17Y+ihiKZwpxi26KaD/Ztgj/liYU4Gj6ijEU5OT7FCZAqP4kF4GcmTod9GzCGY2K31qwGgu0zWl+Cu+00c/4LL6xE5v5gXHY1KO1bYWxzjXKYwxS15O4Jsg11ry1z2W2iLZgXsPYUTw2Y7ydzg17S6n7OgZzoJfOLfdT4/BVG2wdYxxaeUxcF7quu+eznf2eds9cO9powGYM1P5Twn2P9u/ZLZ2P9w8x9ZylzrOU71zM4ntyE2z9QaK9NfZc5Jw93fODD4lj6OXtCfTsPRGLIGzotQLMOGNtI+b2AQkULBTaFi5ovy5i8U0hjQ1NcU2RTZuvnHxrEz/9RownbocLeq9JVn0swo/GcwG5uDPAdBbB4BlwNiPyzJMspsFrgVg8p1BgmwutEKsdcWydz3HGVf8hODd5oJfLvRCnrhiTazplbVxuZKl4NgY/Uv2g3zznJvfp+RyyZ+PXzkyb8YBmf4ypeBY118gOW3w96jj62qoe4diqZbQm7Z5Bjs8x2a9a8uzXYq+V3n5oI/yMaO/dU0KcOLbH6Jobn2NzvlG++2AW35ObIH+oUsPIN9LnhJyjeXoP7Z4+FMYpkP0qYNsXQJWEGAsmfL70R+DLMTnWAq/m4MGJWLRQB1MTW2T7qbfCp91oCm/aFN9o+hTd+CjG/QrLbtJ3mnylCX8FAX2SMymVuhPStvLKp/4Z6J2dZ7JEnp94hqBPm/PYJj/ip9xo+mxRnzkcA7QzN3Iq5kAzr3OJ8ym5HsDvukBd8xyL96GXX6HPHGgxxnj9aQP76BoD7gGwQ9qAcXWvakibQn7bmU8bYLedsZ67axTsYjyS1wntPjK+/jKiz/MA1yxpT+grCWO11fnyDMibsZBrhVwH7Xr+jKVtP/3MTZ8Y7Z5RjjGHEOvaIGOTHL+VepauT/RX6vyjOXvrhJwP3JN2++49cUxiTJ0vY82p9BjZj91fpRc/i+/J1eMNvFXDku0c1PypFRj5j8GxNdeSbU0S+2gfbmhfVDkOwY5f8YWDrj4eWmgepmpi0by8/MTbItzvd1tYW4R/WxOKbwpvvn5C8Y0d2RXfJKXo/nKTN5rw6TeT+zE5iUjsZAxCWAhxo6frAkzpMNpCm6JT6CPsP8kxYEzG5zi0Us+atl8/YYyfhKPpG5vaeXoF8ik4n3NV8OdanFu7NrX+RHuef70Wo2tjXv1oxBc+ZJtY+7Qd660DtLmf0caknz5oQ8yjgNdFP8J6gbFCHJgXiOuN11bFcwDnyFjh/mBufTnOWMS9GeOewHZqJcfRZqx7RWMHY4C2Ots9zZgUQONXg2dgHzJevzbXCNiQPH9gDDZj9QPa/eWenUfSfkyMa8GOOK+wpsRfaDIXjOIqxrlP56/7hNE+AJ9ja040krmT2oeMtS3njJ/F9+RqyRvX9pqGJd99srQGoM0PJg+TLbFV9wRqPxnF5EOsPviMw+5abffEoo2c2mgrxqDZP7FAG/GDaD+MttC26EYj2Ci4/0QTinA/+da/K76pPCm8f6/J7zT5oyYE/ckm39GEBCa26s/iO2CdmDwr1i/uCV/GuUdA08ePpM8+WrKdMMYcdS3Oj2Y9bB+fbX1+Eu44i3Ig1rVyDFWTQ53rd12pgTYCaPKnDeyzBtekNg7NWOxI2m1j9wwS482pBtqu2bHYjMl9QO3XW8Xbh9vJHFmAG4/QVuyjibMP5MmxoM1Y+2iEWG2g1o+I/Ryffs7da5N56llbeGHzOpsnxwJrJt6zcQ9iLkg7eC7AOPKag/NH28eX85qXnMSwB8k5JfdY85FDP0I+fWrOQRwPjnF++xlDfvpL+3cfazHszbzkRIyxj38tF2yZE7bGAXMTh3adaNcltmtOGM0PW9Ygp+aGGj+L78lVkj+MSxpqe+R7bFxbrrG21SOBkW0N43lwqG3DyI/wwrCtz5dQFkjY7NPOPpq+MJYHLS/P/NTbAvw7X2iLa+rm/NT725tQkPsd8N2LlKry95v87ya/3OSNNs/fafX4n7u7e7clfLdN8O4r33f3lWc/3OT7795pmd5pGd9rM3+1yUdtoR8+f9bW+qylatIW+MlOWP0HzfJeW+9X2n4+auvnn9R4v+3prdZ/q/nevfuuJl9s7Zdb7Kst7rtb1jdbBL8svN0E/W4T9s0+WDNtPqBnT/4SAjzMEbZkm1jOBI0diOdcWQ1niugDvnnDPOzAXGpswHj6QJt4rlnOyzzkpo927faBtuN6NrCNBnS2mZ+xtNEKdgQ762Zu48D7i75jc3/Y1IzFZxu7c7h2zyjRxxjgDLCpyec5GUMfn3FAW4hDjMk48oj50gbY3YtijGPE/eM3lrH0PYNqr/GeUQVfz77E0hjPJM+Gtn2o+4Nj1iGMzZzsO6Gffs4CsFfJXGlbW9uhMb0z2ApryjyI6zZvtrfgXgHN2Ozb3oo5tnBI7KEcmnsW35OrIm9W20u2NX0JsBYF1DzkIO0p0GtX2QJxzOeYbNvXZnskvsDVtnvCCxxNIWMsDzC0L3cLbzTFt98QoTjN73fb50Nsi29sFN4UtbuChYlawf3Vd+7u3vrk5+/ee+sH7r7yvXd3v4tvN6rJJ20E1S7VqgvNw0DAJy2aN5S6LfS3v/SNdz/9a20lLI5P1L+t7eabkZbs8213r73ZpO3m1Q9atdzk1eZ7uU36UmujdyU4X0x/t6V9p639nVbUv93knZb+y63AfrtN9VY7j7db+93WfrfZ32vn9NUW+2Frf9T089151eVV3I5n3iO3TA7zcaZItfMLE3YLS/rajEHbt80aAH8P/KwlNeJlYhyafaiNNSZ9PU085D3J+JSk9llDivuzjeZcyGuM54C2TUyOd6y6thWo61V6e6k2cnIO1Ucb8YwUfD0ba0FXDrFr40wEGwK2a589eI6MRyuZazSf+Xp+wM4+gfZIoPado9pr/1wwn+uubc5DevMSg90xo7VlXvBskpxLenFQ54XR+ipLa9ySE4w5JB4fezReG6RNPYvvydWQN6rtqiFtI/ul4Bpzbb0+jB5UIzKX4osRRr7aR2c7X8z2a7unEQsc2/YpdCx2AI2PeSzgeGlSy/LJLprimmLbT7YpsNF87QTfd73oW5iT57ebfPnNn7977Q9/orXun1/5le+6++mf5deBBtUnC/d7MS6emt9Fvqj/d21idhtup/G5JuhX2yl9Q/ut4GW+NNL0MzRfYkf2xfpnfdoIxTyfb9PmtBnzXnsBcLr8hsFn+OBV3f8p1Ge7tjY+1WcsPG/X4nm7Joz9oGk+xf+o6edtix8334dNf9hGfdzsyP7sUzgKNdcW0WbRtASrElbHylwtQh/Je2ypbXwvr/IZ+5PLNeJn3R83D5qxuxfsC3GP7s22ffZNnH19OZaYmpeYXDMQW21QbYz3zFg/bQWbGiEnMfaVHJOiD52QB3tFO2tK7JOHmBT2Dp6BZwKpqxhPjro+/FDtgt+5RmPZB7nd/5KAbXNmu+IcW2Pcoza0baj27DMWvWUueMg4ODZWtubN+0QfOuN6+deYxffkavBGPVZDth+TXJsC2a+2Q8gcSH0RQNp6LwrwpUy/vqDpj2za0RY32bfQpgzERt82pZ/zAw82Cg8egtSiFNTWsNax2KhjaVN4a/erJ/+3yVff/IW773vjYYruyuu/+p13P/2vWhHO5t5qQm3Mxqg4+UifhfJbBZvg+zR8ZE0Rzkb8bcPN53dt9O3+sGg7tVeavNpOlsf6a+2kX2my+0oMJ4xmAZwkJ00xjp1yhAVhY0HY6LMwYhjHFaDNovFTeANfoGcMX57HxjiuLH3Ar2bsl9vsL7fWHzXhE31Gv930y01/1OSTJvtP7Pe+/b2AZjRtVg/MYoHACr2/EGzAShmDRviVgl81Pm4jaX+8m41fJZiBWO5CimtmZ88cMpnJyKryVVzRx2rQjGEsZ+6qnrf/f78JMVhYyYe7kawEPyvZ9/caYTVqQGvbr3zfTjyfZGRTs8rUCn1Wh+6xX/nXjkGwJfa9PqId7b4UYtH46jj7GYeQQ5/50q9PfQysJ9ftGUFq28xlm7NhHZU6fgliltavXwHXkP1eO88PvTYXbIk5hEPyHRrr2TsGjV225toa12MW35OrwJv0UA0922PCOnJNKTBqb8H4noAvRKXXT9LOg6a+lBFs2tWUFpQxCG0KHzX50JRqxFsYGY/dOdHA3JQ+lEN8KMw3OSiLaFOv8ik39SsFN/WqtekftEr2W978mbu/9MaPt97jsyvC/00rwtkwNRm16v4D5D289ah5KarZnMW1xTkb5CD87g02DgWb46jGaFO808aXfsZh51CR3ZztpJ814cBfbv/3cVugb+BXeFW5QNosHEctxhlMHH2unsU932bn03d/4/jjJsT/YRPjifU3E+8K+tw1+4L+2W7RbzfNhvGRjU2Ri9k/18R1vvai7WaJYfNsirVh51AATQzQJj97YW7y0wc0+8dODsZ4NvRpo+mzB/xo4tGeD8L+AJ/7ZCxCGz//tYGsHzfNrwycAXumQN//esCMCqvDD8wGxEi1uUPY593Pzsxo+q56b2NmI/ef/j97ofHutTHePGSinSsB7EAMIxXs7Hefbb8z/9/s+5XY1+c5ZJ9Z7TOTGsGuTVyVOBbSl3YYjctd2e5R7Z5Kri9j6rphKYeSOdF5BjVGe++cenMBdvduLqjjL5VcJ/vI/SRL9wmYxzPIPuzOdBbfk0vHG/RYDdl+LHJdCviDPPJvJcchPvBBWyXnRnzZ1nji8JmTl7bx2rHZT8FO6eNL3dLDL0PgR+/LjX2fLzN8sntE7avG/SeE77WX6YeffsLtp9sU4gh9fBTdf3j3I3c/9OY/v/srb/z11rs8dkX4z734OgqH40FYmyE8qTkCqipqwCyg1X7qbS1JrAU2McaRhzY5qQkRKhNsVm3EmIe1mA+YhzxcQLT1FHkc/+qLO4JXyjOuPLAxBnkHePXpcwcwkb+B2M+i3YKdopwFktein3jvQvJmMWzbjbBoYlksdvLnBvEzhnV4aMQTi502+7Cc886mDcwJrgchnj4+hPjsswaw7RjiPIuagxjnyKKdE6HNHwUGbC/tVvfJC79r1UYWes93Z8C+gDbx9MnkGsGzYiQ+hLNBiGdNZNcOrlV6dtqMRyOulza56NP2/LJNjv2+930Lc8btd+dKETysEGEl2gEfpC3RD+nHrsD+lPd949yBZBvcMTg+ST8Yg50285izt/ZEf47LNrrGAD6vkuhbInNB5ofR3io1Doz1HGQp57GxrLl3PmA/fZ6T/cosvicXjTfnsRqy/ViwBgVGfcj2FoxfkiXw85AZ6RRedUjaeO2lnb46hbIGu6WG5YRlF+2vtMfZx59+vwLN456KkOx8p/mNFvFBK7o/3n07g6Ib7Tc0vnz3k3d/681/cvejb/zV1rt8Xv+1VoT//IsinC16KByYh8QB0ebw8mJyRDzZ0Rba1EcW3tSPaGpMNX6OlXFZNzmWtwmCjXj7iH3GEk+bMeZnPuZOG2L+XZ62gedtI8+8E3Kz2CissdFHvHvweRdxUBbl2BEPj0mIAybGjvYV6KI5SDR24rWxUO98bMA6dotvQizafM6FDZiP8bkv+66d3PSR2meM8fYBbbEN5q4xzkHbQle/fUibe2Fe95lnhsZmrOcD5tTuOTBeWI+M7IwjJzlYGxohr3bPSh+gM14hjvgU19zLx2f4e/b6k69Zqfsjch//Ge78awXr12b8DNcBnleSfnAGUH9GbxbbZk9ftY30EjWffXPXHdRd4k9bjq/rQK/lgxojvVjwJJ3n3NS8dW+z+J5cJPVRUzX0fD3/Y5JryrYPipF/C3XcSEbgYx3G2XZtvpryFVXjeO0Zg1hqaLM8sGygNEDTx06fMoq499vj6aNdJUkxmn/ikCKIUURSpv9eezG+efftbRSFN1Ef3v3du3/65j+8+7E3frj1ro9dEf7v2r5543uwCIfkIe4Paa/1A/E8zXm6c1TkQFss07YQxka9ZFGMLwV7tomljU7RZn775jQPmqI8JQtzc+zEO4w7h83lXaUtJe9A7zi0d+Ahr9Xd6/CFMJ4FCX11nUvw6XetkDbt7sdc2Li3ifWnwnhjEMepiWO9jEfokwMffXPkXoBcp9iYkwuNr/q3wjor2Kq4b+fVhmZvta3WrmSfs0HXfCk9tNdYhBzg2aBTToU51CmAdk8I89lOAfXX4yp72qtMO4VsaBm1L5G6Pvp1/ew77ercd9WQ7RGz+J5cFHkz2l7TQLtnf0xyPXV9I9u5IJevg9FrKO3ZruBD8vVW277+s80rk3zYrBkputVZgO+/aECh7RdJKMD9XJtCnCqNkXxPmD8++b9aDfd2k39097Nv/r27H3/jB5vt+nn911sR/h/a3ilcPUwLbw/WC+YBS14koC359rQ2QFv8oi2WEYtoiuUsphFiKaDx2baQZpyx9BXHIvgZw6fkFuPazYOwrt3bz02yMcS7yjaag1Fjc4x+te0R6aNdxymi3/VkbPYRY9BIHYv2QucFXxJzV8n85OKC68OOPBSjuXItttmTa017SvqIh54Pqp14birPJH1L4jhi0Ym2nk/wwWis12u0JlAfQ81hXoX5mZt90ncdVdZhZEJfG5rdml17L3P6emOAdu0/JnX+3vrcyyy+JxdD3oi2j9XXhI9l1j4SUK9RH9vZh2znKxpqHHaER3LmoZ9j0fSzZKCNUDvSRyMW4BbdfJbN3079fPfFEQru727yp5r8mSbf08RPwpnlD5r8ZpPvvvu5N3+yFd3E3B6v/0Yrwv9L2zdPag6Pw/LAAc0THBsQ58UgnjaHrMbuBaKtz/G0yUHRawFtEW3br5TYz8LZr7rQzmLafPQtqrNNjMW7Y8hrHzEfeXxzfR1sABHabNS7UzwIhHZirFqhr6St+jNvLyZjEWOrRrzotrU7BzYlx2Wc83GxObjqQx4C5nGd6qX59bFWNOvnoqdNXQU7c6AZk3HZhmpjHNivflA/JDl3FdaM9vpWvwLqNXpjPVPmoe31qHFVPwz1kUBfm5rHB7hydoLOONuQ7ftgFt+Ti6PekPbX7L24Xjt/qNL/GDC/a7Dde9zbXsI4xBzqERmv1H6KuezzWvRVSttHNELpQB87bYpu+rSxUXTzH9v5Y3Uf7SouimyK7T/d5Ade6L/QhEKcb3Vz5T5pRfcrrei+70fjZfD6/2hF+H9t58KB+s5DeJPY9ii4EMTR98IgXhh0tv1E3RqPvvl4M1ko+wk1BTHCf6CwSLZwtvhOu8U1a7XYrmJhjibWYpu2RTeiD3FtCG0kz2GId6/Q99C8ixVs1W8bu1Qfh4uucebM2NQ5Jxpsc5GIITc22/gcT4x9SD8HY5w28hAjHKI4D2Ss6xFjjoGxrgeNmN85e2R8HdsDe0rO454QyHYlY8yBcLZo15w+bN6U9O8b53UNaNaQct/rMH+d3773In3lcfDK9LTiT4U6Y1y5tkOZxffk5vCGTr3V9lDU+REeSWBf2YKPs/pYG43X7uORvrqC3Ve7j3X6vt7B8dZxxFl8q/MrJ/QpvBH67+8qre9rQqFNAf5nm/D9bYrvv9iCvuPu57745bsff+fN1n96vP7fWxH+n1oRblFLsWoBLhy8bwUugBcN7QXzNx+1/ylifxH2fcbztrHotbBGW4izDtrE+LX8LJptWzAj5MyC2+JZG9p2jlfrr1LH+qbchHc8B4ZwSN7N4GHSR/AbSx9/xtQ+Yhv029ePYE+Mq7kRbT2tcIGBNYNjzeUY4tDePMgS+j0r86T0chirADZjsdkmxwh85sh2b841HN/Tx+QD94SQx1xeB9e69bwPIed0H85v/yFx/p641suHKzUSHzdo+ls56DE1mdwS/KCc87F3CIf8kK6Re9iat+59dA75eLTNI5zxPDx8gOBD6NsmRmEMtRHjqaP0G7v3Uv3te5/xIiMJXmPEE4WD491tvdM7Cg8UiKed71/GZptCO4XjtwAnF5eEwheh4ObC9YQ4PxmnzyXT7g0CFMa94ph1sibW6npZAzWhvyC4rqqVXLu15EF4oB4iCUiUidEsMC+Ah4kdTYy/XmIDYhFjXFwush5K4ngvLm0O1wvgwYKHzwXxn0r1L4znAuEnlvH+BkUc4m88+Howv3vkv1t5PuzDcwE0gt12FWCMFxihzxjPhbjMjdBm/0ntH0KOpa24xmMwJ5rz5kw5W/8GJ84ajS3P3HGn4lnJqfs5N6znXHs9DVeCcKWQtGmX6gNP9tATnp98Ty6GvBFp1xuTvjc89G5cHtXE9HxbbL2Y+yRfM85dbelbghjHoreMd4w6x2U/X3/as+TQzqvUPq9lYyxJEPpoX9/8BYLv7V4+fNebT7359Pv7m/DVE792wr8yQ7a7u59788O7H3+DYuL22X33+z+/+NoJh2rtZBHLze7bgRgO1wuBthjl6BDrJuudvDDkpG6jHuB4qcusDazfEGzEUUug8VNLMF6fa7TN5UVcf2rrDrTjgFz4mdN1mY858dFXO5Z2Pii6cJhqDg3hQPJO9kC9i+nTRhuX4/f35x7jwTwuijbj7OOnzXg0Psjx2sScro31VojBvxaDL2NpV/RXnfsA7Ih7zDX2YiF9juWiakew2z4X5HIvtJlPOWWezIEmv/s6BfKZi7b3imJ+2uoUxj0kzOk5uGbXr2B7PLjLOMWR6L8PZvE9uRjyRrR9rL4Utq6HOAV4LEHasj3CmCo+5pby9iRfIYo+H5/aeI0p1ntoShrb1nrWhPyBy/1XT/wDlxTZ39uEgpvvfCP8IUwqL+CfKf/VJj9892+/9IOtCP+hnfXWeP03vuPupyi6efJbKHvw4FuBPtoL7EXKC+EF8PCJxW4sBSuFNEUuRa1fL+HI0VmIa0MTi1DsWlxbBGcxjLBei2z7+rDpN1fmVIg1b9rsmwv5Ojy4vGPRHATCAXkg2UYco5iLNrH4Edv40S5EG9AGxgJzA7HGZBt6fcaTC8k1CTbX535qDP1enHkR50bcn5Jjbdc5IOfJcbS34hoYYxtJah9YP6Qvbe7FfKxrjd48YD517lf7CHxLAl6LnCNjkDW2xKxR5zSnbdbJ2vKcOQP9CqjXMdsaxqGzrWZGHje5QvqQcdm+D2bxPbko8masP55VQ9p6/seEH25xfXWdvfY5MF8K63FNaG2pkYr+fJUo+dq1jVb0WeJQ/1kDZiG+/6sGqQAtwPkUnL92kH84Hk2VR5n+xSa/3+S3muV3Wl34j+/+xZf+RivCf7TZrp/Xf70V3f+xFd0Ukhwgh2TxjOYwKUDpQ+/CePgKB4+ftwh5Gc9xWkxbXGPnE+xaeNumwPVTaHOgeXOpLYKzrWBjDHba2GyDNnJhT9Gndmy+JT/FuzjvXNoeEOIdyaGiOaj0VyFPxtDGVsejmYuF4hc3qc0+Y4ANwVI/8wmbdy1KhRyuzVjPSOjnHhyTY9XO4/myBs9XXxX8CLHE5brNY8whHBq/hmtIcX/CutO/Ze2eQ0qeF6yNd46cq67NXJL3nfdkL1cddwq5nnXYwRaIYwfoKu5yDWKP5dCxrg1Sczo73yy+J5eIN2XVkLZRnPoS8LGW612ybcWxIxmhzzgfxbwK0ofd14O+FF+d+FKwIfgpTZQsd6wpKb75FgTCP7LzfFflUXznPyJPNcaMjPqjJl9opcjv3X1Lm4HSnOjnd3/77qe/9A9aEf4TrXd9vP5rrej+9y+Kbg/SQ/P7OR6eh8wBI/QTi1U0hbOFssU2dopsxE+7/QoqfQtsC3L8Fs2IbYtktHGs3zmw8ZZxLQpgp+3bFIwlB5ebtmKM7PoEAYcBHlwejAeVdmweKMJ95dg63otAmzjbjsu+62HBrinbQN84YCO172bdPGCzz8EyhrwKa+ihn/HGMRatT3vuO/3EMz59+tGegeLajKmS+31oPNseS+ty3SnmYp+QMXWv6RP7iP48wzWM2RJ7HtxxaiRX4B1b6a3S8WA7+6mX6I3Jds5dY5PRSeZP4Uj38o3Yxc/ie3Kp5I1p+1AN2X4sWEOuLQVG7TWM49ENjq2yBP58VfR0fY36iqBdX8kpxlJkE8drWrEIVyzAP95VbxTeVGEU4VZsfPL9Tov4YvPu/3n5Vq7uhGiK8C/f/fDd3/zSP7v7sSspwl//1VZ0/0LbAU93ax8OBs12ORj7HCQaeHpbBHNc1GN+Oo0dW08srhH6xBpvmxwIBTl59XE5OGj6zE+MhTo3CnY1a8UP3AQvN8fzJr5udv9wDklGGhhIm2S+/jgAbBwMsfS1Ec9hYeeOQ1s800Z7J9InB2Owc/d5wIx5qwlz8hdhMgYf8bSJx5cXBBtCn8PyzgcOyD7r5IA4TNrkQVgPAh62wngwn+McgxAHzqENrc01eEMBNnz0WX+um7HGaTMOTazxCHbGkB+0ORbtOolzbtcKa3bwzIA4cAzoA8cI+fAbi/acsBPPOtEIdn2SdrCNOB9t82lPyTH7VeSKIDPod+U1NunZ9rN8xjljMq43ZokcX/OM5koBdY+Mk6X4c1DXlfPZZm+z+J5cPN6gx2rI9mPCgxRYj2tKmzrbW3BMjhsJqIEHgj5eO2hfD2A/xddT6p7w6vX162sb4fVswU2fNn5LpQ/bqvZFOK+bb2w9LO+2MuSjT/8OB76kwpdTLMIpvvFRrv928/7lL/3Lu792oUX4p0U3B+Pmqes4TA6Fg8BHnwtEIUxNRrGL9ishtDkmC2rs9BWLZ7SxtBHHIxwmPsZTi9DX91q7A3hNvNIW80zxigILtjhhM95R+t0EY/RVTaXOplkE8QjgA8aqyct8aPzEctfQ9jC9y9Cug99miKWg5o/5Aofu+rExxruSfLbNw3gvFPlY/1Ys8hjDBchCkDZawc8cXCTAbzw5EM+As0Obyzk4K23avQaeCfu1rZ049ug8nCl5GEs86zIXgh8N+J+1/33cIp43jXw2u22FrGRDV7S7CvoIMHbPvvVJOxv+uxkaaBnz/OtmMQsc4gP9aduf32d7Zef7laFhb9+Pcl2ZIX2OYSfm0Q+OB2w5R6I9OVcMZFyuIeNHuXpxGWs77T1/b2348pxzHOSZQfXDaJ1Q43trEGJrvP1ZfE+uAm/SNQ1p69kfm3y8u8Zc66i9BeO3COvo2ZGKdl4zjHMPvHK1+QpH+4pGW7oojLGUSTuxvsaN8YUDfgsCTYFNsU2bL6bwd6TQ54NZfBbhv9Xke770i3c/dCFF+K7o/vlWdLM5ajdqOzYNtDlkNmlB7N9Kxm8baIWNW3BTrxKvZrxthFgEG2L/1TbZK00+aaf9je1qvdSKuGfvNuFKAMUoRZhXRgE2wKfDLABNH/CzADSTM9ZXEHahzx3AggBNDsbgo0084ykuORhstNGsi7uDNvHE0WbN3qn8SQLuQu4mCm7bxtB2f/j4ShOaX/Q+aoJ+r1nIxa+Cn7T/f952zNjnOyuwSmeE2reIYjbKs5eafNyiKBApFp+3HhrP891o9oiwP/qcCWAD7Kwz0YZmZnS29aXNfbs6hH7a9jt59qmdopY1f7D7/71tn81V7svf/VXB7nnQNzNkcVntzGye9BkLri5zoIG243LHYg5stHs+wUdehDkl1+/8YB/JsZJ+xLlzj+mzndBn/tyH5Pqx1/1BL0ZYB320awL3mqQ/yXUjxtmXpXUlGZfjbde82a5rxNfbC5wSm2zKPYvvyTWQNynt2k8NaevZHxvX5Xp6fXXat5BjHFdtCA86H7KgTT/Q54WDGN8TYxDGZj+Fl6BaoWRK0Z9QdvASRyi2qT+pSym20dioVf0EnD52/p4UYv9nk29oRfj3PFIRviu6/3VbHQW3f8ULG6VGZdEsnt8WKLLdFDY/4mcT1LkUzfTRFt60LbK/oZ0+BTXFNF/1eBndTvMVJuN0KTZpUzADmsKURSH0XaRX5AtNSI4PoYT84yYUbyzsK639+WYl7z7/811psC9PKDL3m7Mwt2xg8V5Vi3Vf28SQjytfX4GMY338tsJYcmURTS7jvcM+aL2vvhD299GLFX7YZt2XwPQte/e+z1bqrwTAjLRr4QDMSjygEWwKq2FXtNGsmDao9fuzgOw/S8b+ShOKdCJYxb4E3ke5IleKdjXaiGNXsM+I7D+13ctLbYz7S/E8ej5snJtt4miTHV1hVT07Y12xO5T9Sj87U7Ttz3ayx7Z9SBuSc/XA535ch+0q5su++6Nf0W98bUOOy7ZwL3kloRfDPMkoRknSVn2nwjpcC5r82bfdo+fzWoHj7YNjlvI+NLP4nlwNeaPWh8Kar+e/BHz417XWPuSLQtsavVwp5Mw10O75U7T7wkOnn37aLDj02U+tGGdetC91ih7rT0o+yjmLbPrUpBTe2Cm6qWmtZxEKqN9sQhH+/gMV4a//t1Z0/8yLT7p58rMgimsW7uKxoV2om2NDLPrb24m81k6Dr398vrVfbclebmXbS63I5FPqZySmEEX4qxizwuc0+aSXfxmU0/xCW8aX2kv73XauX2n6w3aubzX5apvqvSbvt6gPmv6g2T5qMZ/sSl1Gcv5gocCWuDZCDMKM+CiH9VsOs0LGem2R93eWfSm/f2Fa5u0h9uPmJ3b///scWYK+0iIoGsn4WhNa4Pxk4ygtCtkLPgRbLw7Zz7MnbftV7PviJcbH/K6BPj72AdjZK33i9/vbS+agv9/RZ23jnCP7rtN5QZtkXMI+sFdJu3tPG300eT0LbakVQBNvP3EvwD4QngvayJfgx+ees4+QD3rjwLxoRXLdrtW2cdoFu3608zouBXp9x0pv7djcQ/VDxpBvLQZGMazFmNwfoG0fQu5XnW3X7LwwWh8Yaw76mU9tW2r/VA45i1l8T66KvFltL9lS9+IugVxbtvOBl37AV+3pA/sj0k87c9K2D7a1ZwGQoh1tX90TC26F2MwLvNQpiCgC0Rbf1KYW3tSqaOpa6lcKb4S2cbvikQm/0IqclvytL/zi3buv/cDd77fAd3aPYarhNuKjNhN1qxWTi2FhiORT3af9i8rkt7/4+buf+o2WmEXxpfRvahN/S0v2zU3zqTTyaivBPtfk1VamvtzK01dbafqs+V9uk/P1j90i+FT65fa/323ySkv9hbaPd9tZYH+7nQd/APXdpvmb0inpKKDfa3ve919tG3i1LZ7lcwaeIWeBsGwKT/ssnz52t4QwHh9Hgt1rzHF6vbyGSPoR/IylCCcfGoxFtBlrMQfmA+y0PW7arJ11Y2N92mlbTONHaBPHGLR5EOKZH51+RPQnrA/wuR/m93wUi2vi8CO1ECcGaBtHDG1iyJPzANpzpu0+jGWc+3P/oz1gr/eAY5Ecj0bEHIAferHEKawPaNdcCKQdcowaG+K5GYPWrw9qzpyL9sgP7gfQVSD7mU9bJedXZ2ye5yGQ19xoz6POl+gD/PTX4rbmk1Gc9qV54ZCcPeo1lGPPOXHOqvPsZ/E9uUrqTQ3VtlVfCr4UgLX1RPwhhvSh68NVvYZjGK9kHkgfL7LeGOz6tFkYpF8b2n6djwchL3uEwpGCaPftiiaUyn4DA23hTZGJUHzrJ3b3UGWS32vyf5r88ov232+F+A/e3f1RG/x2K5bfffVb79579iN37z/7862E/bZWAn9TK3E/34rDz9198PzlXeHOt2ApiD5sT+hPmnzMH0LclY9fbfO82/bAZ7UfNE3UV9o+32rydvO91ez0398VyPuvQLy3e9D7MlDbtm8BRJviCGj/cRN++aDtGbEaZqbPWXnmnAcwnj5wJMZ49rSdCz9YJHqNKBLxoZkPtNNH6DPGgtKx2MiXGIeuYGP/4NrtezZ5PornhwCaONZgG2gbr09b4toR95zgx1792sFz4ewQfZ4lczoeGxrR5vxbIHeFsd4/Cbk9Q8QCPM/IPnl7OchtfIWxzFHBhm8EfoQ58wx6Y4zB57mmYENGELO0Fq7NaPzS3iVzkwtxjH2oWoxxL4A2bmlvPYjPPDWv7TWIq2vtsTVuy1nK1pyXxiy+J1dL3ri21zTQrv37YG2OtOXDo45LgarrSyV1FagabLMOY8lbc4O+jMlYX5AKfey1kFC0EWNO4EXFengI++klxSTFNEKhTaFJQWnR7SfgFNsU4xSV+LHvXnxMyDcw/qDJ/2vCn7EjKQP4S8NJwgAGkpyJqTJYSHnCu2ZwzeAequTeEs8H1OCYng/M26PG0ves3QY2+ha82C0Iza2PQjl9jKWt39zOg901OA92bfbB64zgTw21nfcF6IPMxWVDWKe2HEubdYA+84M+7Qg2hLb7YSyM/GCcMe6dtWlzDGIfzVkCa6YPXA/8YC61caxbm2sE12FxTQxjPCfs5rBNnBrU5iXWNrnxZ985wbZ25tfmGPOhjQX6xNNX68u+Nqi2mhOwpQbXAsS6Run5wb17XrTJy1myRsHuObqmJP3moJ9xtU9+bKN5IOdC2665aDsvGIvNdvoSYhL9jpUaB/hrHCzlTOizF+1q4r2vwfF1PvTWfUGNSXrxsJtzFt+Ta8cbeE1D2nr2c9HLb7+2q7Z9KI6tuXr9rdIDOw8VH+L50sM2EuKQanceXxj5IOSFpVgHUytTH9O3uKbgtob269JobBTmCGN3ifni8RtN+Ho0bSCRwiDEih/NovINdiRM79m5X/fqeST6oJ5X+rwGUmPB8wd82eYze20Ue9kG/PT99Ft/to2lb5GO9GBdyuhosee9QAzCJclx2oylr0+dY8wn2lwv7Rozwnj277gc6/6Ny/zGGZN+8gH9XHNqfKM42vjYu9DG77mAZwPaModam/kYYztz2gb3hT3bQJzxCrBmY90T6M9xgCYuz5++ftr+ggPEMT7XqE/S7/my32zLmp/cmY82frTi/LWd5Bpr237upY4H/MJ6jM95zackozU5Xsl8zmFf7XkkvfWRiza6zm9/ZBfnBHy1n/Ri0wb20a45bdDbH+QeZ/E9uQnqzV81HBJzLsjXmy/tkP2qD8E8OTZtKZAPR23ZTzvwgmGMuvoTfcamYEP0o30Q2t4Vyw0eZNTE1MB84k1dzIfSfgWFwhrNh9a0KcQtuInFZ129gwXwlWn+RCDFNwvgjcgEiBNiYxE+SeuT+gQ8g4Q+9h4Wsz164zI/55kFCBq/Y4ijqKZPnHNl2xi0n2obk7E5B7H6j4Hj5ui5DGgvg2jTP4I8xqCXcN2pl8g49oleGyPGA+3so1m3/bz1RnG9WG3sPWPRiueYsWps2s2bOcB4+8aL9jwfc0i28RELnkvds4zGYa/j9GWMAq4TtCWH+GlXYYxnlfOCZ02c9GJYe8ZAxuBzf6DPXDU2+56Vwnzc265ZHKM2z9K6YBQHNVbWcianxMJovWIbnfeQ2vgtuWEW35ObIG9i21XDyNeLORfky3nqXOlTp/0YMod5em0kH7qQvhQhHuHBbOGR/go+x1QBdI6n3qVISsGGWB9TVPshtYU1RbefeKOz6EYY9+mDkYXzcS7VIW3ASUWPdhG8eXpP0xNgr56b0Pc8KvrqGXuGaV/Krc1xSBbN9o33qw30jct47cSC49E5l/FpH5FHTdvrnwWAdmxbLo8xXFLIXOL6Ug4h9+f4tb2eg9He3bN+19KLx+aZOKZK7qWeX90rbftp71FjkTz79KlH7d46ehpopz197DdZ8kH6YRSjHZ3t1Ftwvqrz3CDnrBhrTM0FvXbVdU5Y2kvmhFHs1jg4Nqes5dbv+DW9lVl8T26G3g9BtW3xZcy5IGdvnq22YzBX5qkCPftIhIdulRpTGY3h4WaxgMaWdS86P+22TTFNUW0BTvGdn3pbdONXyPspTMQiqCLFACc/M0xJMZr0bKAdXcnzS9gKNu3GIYA9Yyyg0QqxaD7hRnIN2o3DbjxCbM6VOAacG7zGCv3R0WPnEnl/bIVYx/TGuX73dCiM8xzq+GPyLeHZuBdk7cyqzjHKufFag9e6wtmkLFHjzM/ac2zGpf0pkHtOnfZKL169ZIM8+3oP1Vjp3Wtbc8JDxILxiPEZY9uYQ5nF9+RmGP1gpAbaW2PPRc7Z02vtY6h5RgK+yHr+lEq10bcQUUZjodp5yFEYWGAh2NB+GG3hzSfbtP3qCcU1bYQi3OLbgt1PzXsP3oeAvdYiG1uvYOPcenbQlxDneSdZDDPGtnktpLOgBgty14udNmKsGEeMebX11g/aD70W3gveI1txjFJx72jXhM59rpF7pe15kGN0DltgHUiu3zVuIccgh5zbfcBZKN5vnvMp5wSnjr8FPFuwjXjWtLkfjEmMPQTjUzsX+HMAzLsEsdyjxJ87lhj1EsSAudFL1PiaP3PQVs/ie3Iz5I0t1bbFlzHnInOP2uqe7Rgc58PB3ApU25qsQQzzIdl2DRUeShYDPLR8gFEwZ8Fk4Y22+Eb8RNtC26+aUIzrJz7H+PWDh8TiLunZwEK2wrmMCrla6Hr2FjWQ8+H3D1kCPopqc5Av14G26HYNCO0aC8ZgMxY5Fu+T1IfAPZT30xq5z9zXVhxHDs/gWNir+2bt9rdCrPs+Zvx94Pnk/XHMOZ+LPI+8P2iztt55aV/yJ8fkgGNi0ELbfq9tX7gOmcM569yHxCXVL3UdcI5YMF7tdYWetn0oNRfU/dufxffkZujd+NV2SMw5ydyjtrpnO4aaswpku0f6eWgoSeaqEKudAo1iRLRTVGRhhPAgReuzgM4+RbSfaFN00/aTb/82FIvvLNppk/shYI/1zLBZ2CXa6/kCtjy7pDcGW43POHR+gm0B7ZpoZzFuvsyJ32uaeRHHobNPO3NsgXuBa8Z1X3rBLuG95P21Bvty3ehDYVyK2M8zqbBHxbWesnfGOd6cx+Y6F56B52D/MajnUuUaybPsnav3Vd6D2Wbf9LfG5TnRr3JJuJ56LrVf95Z7hJPjZ/E9uRW8kfOGrrZDYs5J5h611T3bMdScVSDba+TYKjxY0FsxHuEB70MeaFNsWXBZNGmziLao9hNv4vwEnOIbXxbg5LD4Nud9kWeS50Kb4jNtoL0+oAHbqGAd+bBVe+ZHZ/GNzmL7kOLbGDQ2cmtLsCO8lGwjPYhRvPanQA6vee+6s17WgkbYZ28Pp0B+8zpXxf0itFnzqZgnzxP9mHgGeea0H4N6LlUm63gvp7Zd6Z1pxuK3X2NrzqVY2JoXTskNNT79tO3bnsX35GbIm1u22Eb6nJAz8+ccI1/Vh2IuBdS+6NK3hrFIHe9L9FB4SCEWRPYRCi6FAhobxTOxFBMW1mi+442NIhvhrx2k71hi6DvOHM57TjiL3nlo8+ySWtgK8RS4PfD1ikTHpL3GovNrJ2gLZyA2/yGX6ode8Z19Ym1X6n65Dub2mnB9uObngJzcC+heTuZm7UtrPhVzo12DewZ8rBHY+7lgLvat0D/XuR6L5+CZ2H8MPA8lzwiZTA7B+xnUeW97T83ie3Iz1Bseqm2LL2POTZ1f4QdSnzZA915K+teoOZ0nxSLIhwK2JfC7pponc/ASE+I/fei80EKfWIth+xZLQJui2SKaPhrxqya0e8W3NvNpYx71qbBfqcWyPs4n44SzqWPAM+2NWfJRFKe9F0u7fufb4hNoY0PANTJOMQbwZ/46FtL/0HDdvfa9681aWSf6Mdd5H/jzhNDm5+Kx8X5BaD/GPcJZKJ4NpH0yuS9m8T25GfJGtl01jHy9mMeitxZfUIBNgWxDtpeo46tA1T2WfGv44rNAUCgSaj+Lbvt+7YQ2QoHO104suB1DDj/1xqaGnP9Q2LuFZu8cLOh6vixoK/p6WCxWiK8+bZkLP/kRoF8/+c5+jtWnjRhs5oI6V/2F4KHx2nofJKyLNaLr2d0CeW/bfuzCMs/c9n2eO/vtifcC7cnkIanPocnk6uFhfgqnjj8H9SWB5Euz+pRD6eVgnvqCXjuTmuNQcU6FIqln14afQpoCG7Crfanny13xJU+RZaFl33htdYx9bb22OEZJH+T81Zc5e5izh2Oll8vxWSz3yDGcq2ds/rTVtfbiHxvXk3gN0PnLxq3SO4PHwPsFXe+d+8D7EanPk0s5k8nTgvtvMrkpTn2YXvLDeO1lccraa277KafQy4f04IWsrxenzU+282UO9V9npKiyyMqCC5+22qfd62uzXQs25s25Kq7rUB+Yuwc+1pPUePucT1LPF3o2qC8N47wmFeP1pzwk7D3hjDkv/9n8p0A9g8fCa5/3ge2RHEsdyxlcyjlMni6z+J7cHKc+WC/5wby2tmPX7guOBwKfKiMWtor2LKYOgfiam7ZfD0Gn6Mt4+mjX6rpdS9rB87AARWNDKxa7PXuvv6aRvA608aVUiEmpYHOO6tdeC2+oczF2NH9Cv9qE+RLiOHOuS5696Pfa0+7F3Tc5n2f21HjoMx/hvaX2vvDn3PvF+2R0L26hjiXfpZzD5OnCvT2Z3BSnPlgv+cG8trZzrZ08iC9BxBcjYlGcL8g1eAkimdtiOvMpvcJbH32oL1b6Fr9ZjGJTsFN4KUv2Xn+LTrSlJKyVGOfvkftKHNvzQe8B37PV6+c16lHH0/caVR85sPsVIYQ2tlH++6KeD2t96DU8Nr175DHg7P0ZR7xHvIfwneva1DycgTKZPBb1WTmZXD0+VHsP1y0P3Et+KK+t7b7WzgsM8cWYRTCStpHUYsecYv9QSeyn3TPJwtd2lV6hfKowfwpUm/YkfeapsF5jJMcgCf3eJ+Q1ruZMaqzXYWlMxbi8N+4D1kVu79GchzXgx64/75tb5NL3l/fPIffTEr0cnMOtX+vJZXNfz7zJ5NHZ8nA9x8P9knioFwrz8PBQLF4sxqtkgUN8rpN2XfdoH2vXCz9j1WCxiI22WrHgtpBN3zmEnElvjh7YWZPrquAf2d1Tgo3CuzemMorBPro2h8A94CeetO8D8nK/KXWevD/Z0zn2dalcy97qOm/5mkyeNvf13JtMHo1DHtjX8HBnjT3hhxepbQXU94nzWeD0xAIoCx76uU5jzZd9dY6BWiTi02ZxmqINrdinME37uaRH+pm/kmtNv/30V3rjwPl61Fx5xol2NNekh75RDsBXc9B23KhtP9ujuLzfKjUH+pbx2qIvea/1nk28vil5DUe+Xgxgm0weC+/DyeRmWHqAX/MDN18gFrM9sbBFG4/4EnoseuunzSegaXP9aUvBLrkf2/r91Biy8LTNfYJk3/aSjNg63jUlvbhKzU+/0hu3BmNYUy/fCK9DvZ/o967TGjkmr3+vjWQbX7ZzTF3fCOIO2f+1cm379Nrm9fba9uzVpz/vCWUyeUzmP7IzuRm8kfOGrrZDfdcG61YgdRVQPwS+9CgA1JAvRX3VVl+egg2hgEcTl19nQPyn6c3jvMaI+ZdgLHE9OMteYd2jnnvve9g1xiLZ9ddCm/heHuHvsUYSx9Rx9Hv/MI59NPMTlza1a91yHjnOvY3aI2rMWnyFdR7zS8g1wD3NefjzQPvQ83lIeuevrbfuJZ9c8n4nT5O1d81kcnWc+qC95pcve+eH2qLUonVJPK8t52b+Y4SxdbzzV1/2idGmdu0VfHn9KKjso1MAv1L9IxlxbI6eH4Hsm9/1Vno2MN6cCbYtBbLkdan0fLS9ZiNy3Fp7JDXmWMylnJLrUqjX/dL35DVMyetxiE+ZTC4N7tnJ5KboFRnyFB/E7JkfdItYC1dfWrTzk+KlM/JlZs5DxHnrepA18po6po513bXYzKIUm31jUhw7kl6MNnSPLXl7YGdsSo/MX8Hmp7o9P3huhzJaD9RrfC3kfXXsuVw6S9dtMpk8DNf0XJxMTqa+eJ7ai8jCwkI4C+AqFB+jAkQfcZlri4w+je/N5fXRl33nTp/+/PpAfqUii1D89hVzjASqLcf12Jq3kusyR4+lr0o4zhyV0bgt9K5XwrXxPrp0WGO9F69h3Vu5pb1MJrcAz8bJ5CZZKixOKTpuBV7IPAAshmlXsQhRKtqJzeJlJL24Oh+Y1z44D9hGyAH6IAtN2hbgXHfFglTp2aosxSzRi1fIWemtsYfje35s7FsZMZo/z74ymlO8ruQgDq1cIt5Lrhl653KN1DO/1GswmTwl8n01mdwUSy8ZffNFtIdzoGAafSptUVLPiwJla5GScTmO3HWumte+tvSJRZ7kd5mJx2/BmPnMVW1VpOdbklGR2outUqn+pfvXmBH4WFsvhrxLY/F7T3jNRugz/hpgne6x3ptpc2+XiOuvMplMHp/5szh5UlzLy/8x4aFgYWGRYV855hxHY7D3CoWkjh0VjEn2KcTz6xnonlig96QXv0V6YO/NkdKj5kZ6YF/6OgrgG82zld616pH3z7XQuydzH/V+uyR6a0cmk8llMH8eJ0+KpWJk8rXUF3ctwBFe8ucoQsxT89frZZ/Ynm90fbFnUWs7xfFL0hu3JiN6+VN6mBP/Un7OZ2luWCvO1/AarV3/ayu8R/eiwn7W9vyYuMZc8yWvdzJ5ivBzOZncBL5gfHlCT498kjGT/Vn4Qu/J1pf7qNDLYpM8NT9kTLaXyOKTeIpNvvtc8ygWs0ivf6z0wJ75q/TGZU5jenEwyiH6RjFbfga8J9CjF4k+4sw5kkvCdY/kEtfOOuo6PffJZHJZ8PM5mdwM+ULk5q66Z0ufgi1lsg3Pq3eeS1R/5tCHrlJJG4VlLUK1KcI8+BTHpZC72o6VnDvpxaaMwJf7yl8yeuDjl5ERa/MlzrmGa+Qcva7ZvjY8I/eg9Pr3DXPUeZHJZHKZzJ/PyU1TX0q9F9QhYr7JmHrmip9iV4ithV4dX8+8VxjWGIvCWhjSp/DMr11YSI0E0Ixd0lWwK2lD9zCmJ2vkXMgIci2t4T7J6+qn5vW6XQu9ezT72u57f6N5J5PJ5cLP6WTyZPBl2HthHSPmmnwtozMe/Wfwaqvja+Hey9ErJnuFpn3ET38tWLVXAdvG9XQVx6Tffo+Mr8LYEeZOGUGupU+975MsuL22vWt5DeQeEPem4L/vvdU1OO9kMrls+FmdTJ40viTz5WV7ixhvnslneCa1MEG24NkitQCniKxUW68QtZBFMp52T6TnO1Z69OJSlnA/yhJ13w9FXvu8H66RvC+znTbkPhnNO5lMLh9+XieTSeCLM19oS2JM1chTI/edeklk1K/XALINFJPZF4vR/KRXm/YscEcCPfuxMqIXuya5H2UEvvy6zYg1f7I11mvWu57Qs10quda6H/rg9TnkfCo9GzAHv8DkLzGj2Mlkcnn4nJhMJh3qi/OWX3DsDfFlXkXfKAZ7Fhv17JbGQB2b/UrPvuUPGVJ81hj6Ss8P2u9TlsC/tAZ8S2QM7SXMuRWu4ankPXWOfI8Ne0jJe34kvbjR2MyNTCaT64Kf48lkshGLklt94fkyry/7lN5XSBR9I2pu+4cUe9CLx7ZUPGfxmuirkmTu+5I6Z+Lcrq0KvjWI2fJdb+fZkvNceN8ht0be7z3xZ0Dd89V2yi2e2WRy6/CzO5lMDqQWJrf4AmRPKb7oR1L9PTK2SkLMUvE3ys+Y3jhso0JVm1Ljqi/755LeuhJjevNjW4OiO8cusbaWc5P3w+i6Xiu5r9Qp9ZfZXgy2XtxkMrlO+BmeTCYn8pDFykOShUCvKEjp+UcQa7xtJKn9Su/MLTIrFp34qj/tKTm/4+9bRrgmYmxnQb2EuR23xpacydp1WsN75dQ8lwb7Udxfvd9TejFr4yaTyXXCz/RkMhkwX3B7OAc+ecsXf5WRP8mijodPr6iApeLPYrLmBuy94jHtWYDS7smoiAdynFvWIKauMW1rGL/G1nyV3rXYQl5374Vbobe3JVvv56FnUyaTybVyd/f/AZ/d20z3gJ2xAAAAAElFTkSuQmCC;" vertex="1" parent="1">
          <mxGeometry x="120" y="474" width="735" height="101" as="geometry" />
        </mxCell>
        <mxCell id="n61FLX1z2W_WPuKx8NXm-5" value="" style="shape=image;verticalLabelPosition=bottom;labelBackgroundColor=default;verticalAlign=top;aspect=fixed;imageAspect=0;image=data:image/png,iVBORw0KGgoAAAANSUhEUgAAAqYAAABtCAYAAABzy6PBAAAAAXNSR0IArs4c6QAAAARnQU1BAACxjwv8YQUAAAAJcEhZcwAADsMAAA7DAcdvqGQAAKbzSURBVHhe7f1brO3Jdt/3rd197iQPryLVjK07LzJ5TMuWY8axBClGYDmAHcQvSmAEeQqcpwAB8hL4ITIC+CWADSRvBgwkseEEMeA4iS9RotiIE8WWI4qSKEq8i/c7JZ77rS+pz/zv715j1/nPtVf36e7TfThH49ejatSoqjFG1b9qrP+aa+4nf/6Nl964u9GNbvSepCdP8dJTfka14fAYov/yQn2U9/EbU1uY9IGFXU4GjaXNGOrJ8ehDC9UdRHM8upU/uNCYHVizrnxNfkZfWnj1KD6jLy/oQz75awu1wRef8tdHmS58YdSVkbmAvnFAP1SZfjq4OZMZLxtwOqBd/T7KoqlFRPWKRIE8uh/ppaWntx5ibARcvTL+0QV66h9Z+PACOf6xUdePLk4ftLFuH7Px5tz1S6YfUm8fzTWtPW+1KU8Ur2I2eeWgXuyDaBmHvLYiqGyN1NNXj7eW2qeONdeG10avvrPcOIecx0VbpPGJIlcU6VgxPDmqDLxDZg3mwbVloR0tQtNyMuWQjM7n1ixvXKxicWtsRuVryCrW5028Mky9OKtBvbI9Eb+G2f4ial/tEJlZbh0rx0UIrwyihdNXxutf24S2Xd54+rx28US0in4QJfuhaAYRa5WA3lk0eBfnUV6pHzMfVrBO27Qs5FW6z7e3bje60Y3e4zSPgYnks/1rSeyY1CHTEVc57jjEd1kXS/J50cz22XZNfoZ0J7JDmc7Z3FG6U46T7TRj0hrtcEQ7nme9IzskC0eS0kXisoFveFrvIiopwUsh4x94NlfzZ0PzQTbtulOG8xPUJ2k7o+JVDGdM57p0TVbXrk6eTH3XaZza6Lum48lDfSd2eeNCaz3XPB/EYcofouI4UQwrHzE2IoumJ2eozV6w1pPbB9/0tJw8JANjtG8CuXGnLLTX9LvHq8tmtrdflNsn098diM41agwUr+8c+9oYj12bh+ja2DtNO1/Uh81sy/5rmPtjyiofu7W9sKN9MnGcB0c5nb0f0Av7HtBujNrmWBN0prx5D/hx2fN1oxvd6D1MDrN5AD0G7wa96JB1wE4gvEs9PtGlPxOBytfwGJ0dzXOGqZNNaNpXG5yR/tfobL1mold9T0yPZDRdM3RRzIN9JhOSDZxOZaADxwXjIphj7+8ypl3w/AV4X+7i1T5p6u5UDGdsZ/xx3lWe7WeYY1Su3nVYtPCJZPt4OJq2AopHs73n45rvk86ecbEvpgdYwoMu9cq7DP/GhZLNuLXfk9LKZ/U9MQVyc+xyaC/e28Lm9tb0hX+zHNJTvkbao8qNVd+z8qS9/lZoX/sX0WPnzGakfA09m3STKb9x2bXi/1i0f6wfbp+d6U3cr/Gx9srtg+TphNkH76nbyy9fPLjRjW606Hio31vowHkI1/rh12heoNcOWP0f0jmTOVCat35k86CZsi7/yh1RydNVv4b61C8ke6ht1punsrnVkycLex0iF2z1maiRlXBYI2XtLm915aBttnfBH6M43CUOXQAln/ESz2Szrixqyoe3LjO/RGtPNXekzGZIXrn1ltAiNpbc5pNYIbrFqvhom2hNqtOL13YN9YFkPOzKA9Eirz77zrlCbZPItBWTSbNOByWb+sVavTglm7E71p0F1i9IAFr7uQdgJpk7t/Y7yEsqJvRp7BlBbfpNWcgG9h7wppcv9gpfZnyUi/OMTb1rK46o8t42+59RbbPf7P9Yap4dqPGqI2X+oylPTxu+Q7ys/4vwvJ5R556YsD7WrnprNXWg9Vfe13dC36nbk3QNnsT2RrL7fXKPl+9e/sG/8OQvrNKNbvR7khwAO3+zQGfla0BxtLcHdCaHqMNtl1fuoDyj2mrfxyGvPvUm7yhByR03tTmKlEPHV3XHW+X9qKqM00uebOpPvoO8OdLJJ/XQ5VHdQU8HTf3klVEc1e4SRsZt7BK5Lmhy5S6XZBK7ZOoHZ7lIdHlIDhz0EgjW4OSiXrsyrq929WA2Y8GTVTvenB72vHHxIb/Y4BOEerALtOO7L+T3Nt/rFa8pr01/5drU6UNtEO11lD7UdibD1UWk8sS0Deb8gNipnK1QGVUWD6QeigGqPNv0wcWF7IhPa1YSYN1LDq1rSUJ10N6ewLUp020MnDyYQ2SOPXFwstqLGu9Eq6gAyqOictTfWP/paaSpPTnMEVFlfaE1mrpZlOwa6p/urq/+1VJeB+u3l+MzUtZYOR7aE/EX4dgnrWNrBtYalO0L64onB3sj1K9Vewj76oQ94uqo+qRZf3JLTG/0e48cBPF5ULwI6M3IrwGdyXegM1l09nijx+ipd2Sgszm0o3Qap3rHT3qzDh1XCNevY6xxOvrqo33yxuianLr6Tp3a5lE5oX99+Ymj2sjSwe0LZRzVrzpyGaApK9GavD3WBUKGSkBLRtJRB/20H29CujB46C2Xy6TkgwwnE610leNkvM0TMuUZSX+u8vKa7401/xvPbKUNklM23dt178+0nbXJ6Bp9jjPlyrVH6pGxINKmvuvMNa6P8qzvRNb86QDbpn5l8vhehukbf2YMoFjNNrw49qZ56rx6sa7EYefW3DqWgJIr2xdA1ptS66xOv31BH++Jay6yYz/c7xlUpHiD8wBNL/OMJ4fMJ02N0hpBs811C3s7Pi0EOrPvWR+88hlQ/Ksh3hYJVJn3RQYVkWTqPeedATtEUxue3v3euMfxGWTrBa2xtYy39u2LvU4n1P/aaTohguYO1RFP1ekl24lOQOsEuiWmN/q9QPdb/v0NNI+A/VFPJ5r1qavcgTzHT1/bbEfNl7wjCcg7eqp3kaCpO48yRyiefm2zjM/rsTnImmPqhllvDjJQJkfVXQKVEb+Vu1S0dakUk+r60lXuglHWDrM+f83tQik5VUfKXT7HWGbuwuA1XiLis4RdLPSUZ4I6eRdW3qvrVx1pJ5egvn6x4bXF2T6TUjPlhzI7i0N+6ouMXlkb0gcV33zXrk09i+jEtcXnGMqtM5p6eJg025t31yHP5srAPpy/SL01Ta7M7/TJ1IM6aK+Ot3/Se/3ZOsFMIpTbC9ZNHZ+/si9JTad94MkxTustesqgrSewNh7grA0Ra/Mwy9V5cu+52BpBnCdah12WBaFnPZDRq//ZOGeYespvF82IKPMa4dWLHOwRK2p4cmg/pKfvrgP3b0uhtbTe7ZfWu3rlXV69fRKfqzFRJIss4kltsx3N8qT76NwS0xt9XdP9Vn8eHpu9jpKjM70zoBfpIXyf5wxo6kU9zjveDKVf333u5B0nk2pz3KB0wjyicEeZMpo6ycGRR46UtSevjKsrz/E7LufYoXpt+iA8kPM5HYd7clRbcUHWQ7l1qQ+OyLtg9COfdeV5qUjuXDzJ0iE7Ej+jd2nwGJdolHzMN6c81l7SuicsM6r6iB450qbM43SPCL++/jtslKoevpRM58P01+i1FSt1XN0Mykg9HWQMRMbSSB+o/6ynm2dTXh0pR7WhylOGsgWvzM5AhvMTtX6gDPxWx8Nc76lT+XkdXlm/1h2H1ryytS6pUAbtcWiNcXqt//1a33MoqkgUWRnxXLSm9dMjQPeyvprMSHOtJpKlN61Qnro7zsab8yVL76ulGQ0068pzb8w9E2qfONb8gD1AZ8qmjrb2yf3bUusJ9kL7IUxZZaBPVr/K1/ZFq1K5qAKr9mjviGZ50uu3xPRGX3/UAdEBgCo/1OaRimb7i+gxenO8F+lf05uPdeVrj3Y02/e+2TSBOlJgkvaz46ZjyBGljjq6qmuvPo8yxx0OjsJ0lNMhq64Myo7QZM1XW+UzOwK5Ndemvh+p/NW266AzTqcLA1eflwhSD10qlemZEyeT8B1/YduFUaJZMhr31pS8C0USQia6JST0cCQqQL8otRLVG5/sgM8JHrYdCaoyu9s7bEb5hPIF5RuOjIqKHWo2Xk9ZfVhWGx5YDagxqqNkZ5hkrEnNi9g5oa1yfiVTz/d4KOFIJ5ClD4ceL1rnEgprXCLa3gBrTbd9Qh/IK7cXjKvcXiiSIlI0tUNRmR7irIzDtH7K4fC4kc3SjGdID1g3eX1bv71cPV6f2fedJJ7HgedFbEdrfkTnnociOiN71nacEyLUfpj7YtbtAeUzTH17poiHuRLmm3I0ow6TkhV93p/RIb8lpjf6uqL50KPH1JED4b1IPc4T+6MfP6P822nGIZ05Nt4REk15ZcdSsuTQkYWSzeMs/a496NhLXpl81sExWn3KIdvO6ruuda/skJ9tDnycjjHEKX26qH0TL561318cB5S7UEpGe/sIxiE/YFYWd5lIOHoDFtcmCXWZkElMfCVQdf1xdWMUSTr6g7q2EtFvXmhM7TivjzEOG58se30O9WjJ53xF+WNEbcp09SmeZtaGyIojoovI6GonwytP+WyDKHuSzfbGQMqTR9lHD9hDVnkHeWu8Ix3trT+kTzbb3ni2dq0fVMatWevYPrHGJajkjUEOPVF4T108zGiIVt5HvCDHp2d58JVyf5tv5OK/o7Z2KEyrlFEWTV5bY53p4ChPJnY60wGE82hvgyivz0APP9b3fu3js5zebKse6BxRs8b2QJh1+8I+EKnk7aEzaCv6O58gE1llUZ4Rn0AzQmivo0N2S0xv9HuePAodWu81YtcZ2DyR/IzSifb+UUfInGOOWzm9eRTNfqhjC9XmCKtffR2nybTvSLcyXp9sSUd5r+PZVTtUR+mgKb8WM1T5uBTuOeri0N7loX+XCt3k6q7yrnN9JKrH29Ium7Pko7IEsiQkaKsPHVzkcN7qU1tJLJlxv33h409ljYPU2UNGz3dUfmDZ/9qy9Y1ntoudMs43MlQZR8VYLNIthmLVmqSvTR015qxD9Un6pY+mzq4/x8AbN7uUsyd7aw+I/8rxqTMTz+rGShd8llf91UsUxL1dH6wbWOvWd/K9bL3qa0wQ9cbt6SKb7enwQBkHxFKULG+U8y4ccrvEr/PFttFhnzlrAgv1CSiuX/JZvgaUxTBpb0dTd8p4tcvzdrbPfRLIQuuPrPlsA33TgalT2fcQH1GyV+B4Ps+e2aPenhDpqT9BT/SNHWYkz/YO+dRFPFbHEb5HJBzeoFtieqPfE+QxsfXfb9QxENB8lKPK6Vyj9OqfPj6PlI4ORIamTrJ5dCE64LhKppwsfZzMEVgd6KTX0Zhs6oH6lCkbc29D2ZXOWZm/9SPLf1Q5eShOx3F6lM8uEtSxK+msje7k4csXy7tESjLVS0ZwyaS3m5VFk26JpXqXkj6i+C0L9HFt9L7tqQyXqOqvvX6VzcEGZZ4eNvnk4KvLoz6LisSQj7SQ8i5DvOQvSp6eWBfXeONE9Wkd1efazbnS2YlO/SY1zpw7nh+BDpDH05ltMNe5Ok5HUqp87BHr1eWPWyuwJrj4h/YGOU5GD7Q1DrS3prynhtd49aLNOt4UFUB41gNv7ILqx49Y9x4fn4ZsFjMrT8viu0VZUn/t8ambPo6SVd+tR7M9Sm8C4UUD5enUqy4yex2KxqzjaMr1q47PerLD+/aGZ7Pymcx6qyfDyfY25SJcNFuluVpFfq4A4m1R3aMzoa326PbHTzf6Oqbnt/r9I/N+oh7tFz3ekbLj4UVkrDk2dKzsY6KpE6o7kqKpkxyvv+NOW8da9Y5B0EbmeEwHn+M23pRNnWSR+uzDv1lH+T3rxQnVDmRdFCi+XyhQn+pQ8qqMS0hc4eRfWqO/cUkoehNa8uHyKPnQJokEkeotqPbK9Iwz34pKOiWz6srajCUp1d54JbcgMcWNzcJsmyv0weXLkZ7yVnyUoDiXriB1vdDR454qW4c5Bnl1ZGYybSgd1BpG2nZZtI+ByBqrOdVbWzyd7JltgOo31z6kp0wPtwdwsTremJcEtBYlm1DySd56tAf0qW2Oc79e90guQukVsaKmPiPOcnwmnqzOixkJsntuxGbDYVoHrMoCfJYnb5yw60JExlKUPJ1ddyf96luZh63vjtkWn9GYEdnrOH1lfZPN9uRHmm/dW2drXj0e1Omkqz51rYAyrl3EWo25OmdluojlRVJ5okhUhuh5vVtieqOvS9oPmRfV3+vkcT2j5LO98jUfZ3voIEfaQ7TrdQxNWcdMMseVMjjadk4n3rHYEUiHrOOvsbSBPmEejTvI+THreDJ1NHVxcynjqD7q/MS7INKNOnJdHIDouLbPLhjXuLLk9PhKJhaUaOCiUtnFUULSW0/JpLqEJJBpq0/tux6dQJdMUhrvjayyvnREnD3sCmT+nWufPT3+PIpv4oLzT3mCHClHxRvtuo2Bphyf/dCUWTtlmOWocvLqjRHf/UHqyQDNcu1HEnHwEvSJ5MZVhiO9txeKsZiD9bQmrYP6XGOyOJ3QOu0gN09PAQ7aisZDxGpexI+0+r4eDu+MmGfNGOaMk0Nrh+gmC8l2/cpIOaot2Wy7Rq3nQ+DpXs77+F5+CPWfsD9qv98b7ZPWeZe1T1rzyae+fVT0Joe5WhPpRUVgAk1Ov3p01I12oxt9zcg2hPnQzYfyzeDN9J3zZcN7lbLvGvLjIR93+WxvHLIuReXGrt+cqz5BH3I0j7NJji+y2gN5R2NwPHbcdfTNOp0pm/VwJtsxbYD9Kk9eGafPh8rVJ68cio1YoWQgtl94yg89I88LosRRsiEx9Gazz4JKHMlwyWjQv0Sz5FIiq4/+3/pURnf/FT4OzaWtudmmjaxEiG3Z+6Hlx0uX/VDC3Z4C/pNJXWqfCbsy0FWnk6x6CTxZ7fTTCWJpvjiqPmWt2Vyv1jBYe/Jo71M5Uo+yJbuQejyg4nS8CWvH2ZViO6ENL+4hXXJ9Q0kHHqprN94EWd4HhGtPVgRCq8wj7WcRv+8ZNyJ+r3EQWfysrfZJu/xMZyc6z1t4neg8BIQ3Xt7D3JtxaP9OHPvgvr2+s/z8mpZ49kNKsvYILtL41N3R2r4I+z5ARb/2He219tfeDk8uLTe60XuG5gPeQwk9iG8Vc6x5aHy9UD7tfjvEOuD2NiBPZ8qKzbVxJ9LvSELxSR02jp55JM2jKpkjtXJwnIK+dJXj2pUnktUvTHnjTln92VCf5uQXTp+sto5iqA2vjIqReCH14k52H/esaTaXRQkguGRKDFlZAiqJxEsitZdcSjjhOxYkpWQSUkkrOV5CCo1nbnOaT13/yvpkT8kpfGwljv7M5T75hOrtN+VZT2+/nGcdSkxBf7zEvvEaC9q/M8ZHnO9prp8yWAWkjGqfenMv4PUzfv2iXcYW/XY67KOp1QxBvSdDXazFnm6xD7Nf2HXmDgc65jgD0t7cE/oietojUU+fjeGgRkVisVPxgrlejXDE6XlKtssfIrpzf1R+M2PsVN9smZik3nxIeYc9X3t2HVwk9nWoLO7WV7k9U7tnOh289Qey1lz5MTBG46g3z5RP7HJl8yX78HN740Y3es/RfKB7ICfOHmSYOvcP8tc/5esejy7r2aZ8donvcZpj0q+c7uyzc7QfMuqOVHzCsdRRpz6PvL29to62jrcpS3+2zb6VZ33vk6z5cW3ks6yNz12aZLPvjAdSL554/Q4iNbILReJRgklWkihxJJcglihqo1ciK8EsgfSGlV4J6u9bkKB+54J2ZdBfPxzo4mzRP0zbig6Qf3TtiQ8+SxaBvy7Y6jwssQRtxSJd9VAdh2vJaXpzjzZm+xTOyBrsyCseBvXWP73qePVI3dz4TuT6TTr0tLSDoP1AWxlqswZ00yHLmvpO/R17W31xYFHy6vVJpnxGrYL25yNAeo2a5dpaoUZLp7Wd9cl3ImfDi3Ct/4tozl/5+Qg8T+1TpLzD3mYPOsY02twjoG4PWJ/2xGyvjqcn2slb97n+LwJd0L/9Z7yz+WvD9eWDesnyAS03utH7inrQ9wOkC6m2HvLfi8T34jHhgNsv7okZs708+82x1fdYqyeL00UdR/NI61jruJptlbVNvdofkjvyOiKTGW/qzj6zXt+93njklbtwuiqaA89XfMZk7tf6H6UOaaM76IMEUcIpWSxZlXiCdv1wOr3N1FYfkFT21nP+Cl/iSpdOHHoj2hzGMq8+5OakU5Twwwf/alV7xaXafsPbMyWTXbrp4739rC75rIx/fqGkNN5Ycz7zTDxEc62COs8CWWtc2y5DcVSZHhsaG1VHtd/vHqOKceVmaeclV9endTiD9Utnor54oE9mfLwx1JsfaZveXCtbiaM+1wE3WrKpnQyiytfkaLZNeURm/DO0Z84wx30R5flZn9rydZaRuZB+9vluR7L79Wmt4kab61UZWtsp39f7zaB5618Z5rjx5sDtR0i/9pcvGje60XuCHvvQn9FX0/drQeydB80ZrrU5PLucO0ivkXl2IFy/ZI0ZZluknA3a6WWDNrKJZHOMeRg7fOKOpcrVJ47j6jjqKk851PfaGMEYc5zJZ9kYpXodsVM/sBuU9ak9G9CMQfYlK07GuG81o5lJJYMskRBKJGdCqkyvhJFMuWRSGe9tqrqx8wyHZBOsx3mEpl3KSJ2NvEjWLvLdlc9TmgHNPTI5tBcBtf/agxLQynhJ6tyb9c+qQNZ8k1pLHFqRkKy1TQ/muqujOYc55xgoX9G9TY0m1vUK7QvrogzWAdq5OCSHKZ/tyc0HlcmTmS+rgZXkWZ8Hol45PTR1Do8i5Ua/17iXoTja13TyZtnbgLzyDnqz/zU8lvY+s7zbuftdWzI8G+NHm57Wqv3QerVGE+2R1nPui2AMSOcxMHZ9lHE2JQ/V8dlW/Xn4/41u9J4g2/T3EjlcOmTwDp7QxRpqJ9/ban8rtI9pnC589Q5IpJzu1I8HemSTHDatcZxsXongiJxl7VC54yudxk0eyJKne21M0FZZn2R0StUc72SlA42ZLpgzTo6LByiLD9rLR7zMLIk0q3IWllTiks4STVZV7i2q5JWutviy9o01zqtrJgsne3u2yEv2BgvMkyfqM3JIPYtxdTTLBubp8e9WpY32+iS92y906BavSer7nqM335ayALiWDOjXJ+iL70ReFEA5D0VIuTaIjFVb+kjdmEW3iMYn0TvICLyIGrFIoWStnZmaAbTDLsuSve0MeVM5RMrZSSfKTn2fpyR8vff3eSJvpqlT3YzBTJUb01q03vgOckj/7aQ55uTmm5ETBzKk/JWRuu+f3wfUaFtH3pxRe8IZYl1wp5bzoLXE6RirMStrm6htl+s/x2ocluIPEd1Wof4femGvG93oPUnzYf16oQ5K2A9RB67LtcM31DbLHXQvIjGsH+inPi/xULzR3k85WXI8OzpkyKzXRMccPmWOp3nszaO1VG3vdw2NN8dsDHzaUPsEefqN4WivHHfkVzYvHqLiKEY7HfEyUyPhEk0yKNEM1SWmJadxeKr3xtJ7bXlR9ub356A+M7rXZyTMlydREbWSdNAsR8c7y2KQz3MPTaLTXmk29ak/rUDiRwd6S5obLArt0UB/9gXzxCepF408LCoTbJsR0G+3V3urOlFf40THWP4/LaLNyjPSFtcPlKeVyZXTSz75xN6WtYDYI8rszIYzym5j3FNxAhppFTt8RmCn9LJirm/98Mae607+0NgPUfM+lprzRTT1ivCk2o64+D+tfeTWzk7V3tmxw9kBdOba1n/fP8mST13l9tSU2/GNC0Uunm623Nun5UY3et9RW/utHi5vNzkeOuw6YK7hRYdi7Q7ScDYOdCB3EU9cs6Wxp+4+z9mY0+apF5qvcdJXRg6brq+OKW0dXY6o/dirvsvxoP9jUf8JYzsOmwNmPe6YhWQlGsasXr/6zDmVUXWkjLS9cakZQSvusBZFHHkj2ltRs0lC6Wo3Y8lqb1RX/bXVLgmVuflQZvjsU04us2sTXN6cGtO8WZnlZFlPGSm3wu2A+KGtNyjnb+XD7/t25ag2tHNtLJCI4jCT08rcYgmkV91YYdYnqZsLtdbA69YY0lFG1fH04u2Rxsrv5mbLfU0r4kmUNk0zQPvGyI2uDsrJkyWf/AxTJ5gP7wk4I312Ev37+E9qZJTnO+X1tfa5hrue8tm8O+39d6CzeWqLI2W67YW9rZU7o2nn7A/3UYzmmuBz/SbmCaWOt29agYksPMNs33Xba7XBpHSmbRO3P3660XucbOH3A7GzgwhK5h5Cl2QH1lv1tXmNdzbPizBtiK75sOt1JB2H5UHq05faOmxqV3cM4eH+aHoe9b1KDNvxAmJD84Ejeh7b2THt1O54nzKpYFf0bm99mgsXW6ScmWJ7L5FS6QlGlmhKOps5S42orWR0WrL0BL63o595it9d+OSCxBRkcOHZIjZ31s30r1ets8z6sl9l+se/W2SUGRfIiymjG4lCs88YIfVrlC4LWCfO7WN1bclQ4+KzrfY5lzIUmbkflAMd/qRLRmfKmgupR+nfkx5pRkYDa+2HD6RXIzVKsiK8y/HaQu0Ts216gI5de68zScSRfvrckxoYrZHOSBudSDmgh/q2jnQe0kP0WMsbZbw9k3yXhfo236TmnqDbWP3wVN/no3RP2vhc5OF+PcT9kHwltYaR2SfNlQjq+sx1v2bZGRkjarzH0L1n+JuZ8UY3etfp2iOXfD4G7yXKLnY6WDrUOpQcSDvI98PtzVCP9kPzJO8wnfGtfzpnMEY28nGW6x8mZRN5sXH4QMdfR2CyeSzqU79T2icPD1BjdgxPG3ZZcjIpAT7rki06xiPPZoSXnGSSuCVD4nNvrhY1o/rDJaOZxUiSkepZqU6u31NLdJcrfm7h0wufWpCYSkolp1CiamFKTC8LOgOnQb0VVJeMet2Km6QEteT0+Gcn8zuwNBQv5bxFxUx9xq9ytOtPIuNG+zW3Zozjk8iAbphkXH6xO1TPP+WpR64cdmoOuoiNRzkvoqKoVfSUcetuZpZra6YivZfpKOMPoT7KRTkP8BlBkQakz6Rnm2qRse5HQ40441388LN1ihpnjoeasfU8G0M7PVbjYdbzSjn71Oub7IxqM/c+3jyH57ncI6gPn6ZfzVlc7teFdNIR44Oa+YzmGhpHv4cw90OrtlNWawe6aMqQ+r4y9T3o2gw3utF7mtrCc2u/l2k+io6KDq4z1P7V+Kavw+5s7OT7+NrmQTkPTqivsv5zfG3ZHYyPI7odNh1XHVVhHoEdf/Fnx9YcuEnBqT6NncZnmH6b08Zs/pKlmQLEO5ZLCQIZPuXJ2qPqJbPQfI3PNOYepunF4IjU6LgktVmM0CwzWV26VMVDUtqbUWVJaW9O5ZAS1pLX4ngxwlgKYPwZ7IJqAmC5pLQyHJ8vvQy1KH+Bz9oqg9FRfbQpzzF2rg1VR8rGCqzNIqh90uyP1CembdMH3FomR8nSQ8l2mjqIreYy3jFnM0/NIjZHxcnsEb2rT4uT2y94OtrmmBP1xytHzzbKCdkLZ2QM++bJpbT3blY0447U61Nb8drLx+77ynao79RJLw7NM1FbuEZ04zDn2THH2cdPB+2RP/oZXVTQrnFGrTOqr372gnJ1aD9MWfUwddBsQ+23MPeYcu3K1e/n8f8b3eg9TT3s7zd6v9jtoC6v6xKvvmPKHYGVO0z5nKwLAHXkpHccP88fb3j1rs7nyOBNwBBJVUlXCZa6l3nJerFX7qT/cbKfkrlDNnR8qmcnmTTQL9BrS1d7vlUHJH2YNONzEAObSQQRLcknmRFo0zG6ZLWZtC9qEcWJ/+IgKRWT+aJTu6HFw7TPqHkbpNUsgA1QYCe+tKx47WIdS2eoWa33UyufTYnXhrQXj133rO9OXGItXjnsbez7CvdPaNqUbr4lR2R02xMo2a4X6KLaD846vWggszYiebOgOcOMjDroh9OfOGY6aPY7I3Lz4OaKlIsuyiakjX6RVn/tImnmNM6oWdKprgxmbHdOtMazniwkY1URfqvEln38xs23Wc4PNOfXPlckqu/sd9RCI0xqjaM8RmZptjlOs59ZGqV7RtlRO27vOSnP4IRwgjq76Ck75z52Gocb3ehdo2tbPHroMUAv6v+1pPeybY4ex5SDex6oHebKe3Iq7ais7UhDDkhTkjVu/XFHVnMgsXFstr5dk7hjqoTuGTHYIBlgQpjJqDeAUDJWIpZxGWCszt6NzOm4zAbHJbBr8o7Ujtf0tSdLTp9MGzh6Eb/rQ+cwirSIIa0ZnjbOUiM1YinyIqoloN6OigNO1lBQjJRR99bFBrZoUEYayQwq4MpsNDAOBvOvvN9/vhRHtBteGTUyqo0seVakP8uTks+2uVVyt/2obD468bCPP23Uxicgr4ymLLuNp25VgPzpCj3re6z7IW/8Y04l1mYZSy1Y1iO8cjpH7+d5M4Nx0TVPa5/9yaD+e1uJhnay2lHzkh1/S15s4slQPWtLb6dk6fG89Z5rXoRgrnvjhmiWd5r60LyNWblVm2PNqCHlUJsoodmGtAMiu49iM59ZVSTUpw5Snxxp0w+lt1MWnZE2uzlvIMtrcyK2V8CZRfb020OeyW9fF3WjrzFdewSuyXd6rN7XM3UUgcPXBQzqlTuok0svoOOrOqTbUZUOWXVlvDlDc5FnV/qoIxLhXVkOIkdX19hzRNEgBnc3l1DJj5TlRjMhLUGlA+QT3e/TmI3YhKZds4xDCRiQq5Pvx/L0saRVOR2mNOdB9RRB30s6R0aVybNuEb/4KFb5Kk7iVwzzHbkH9iGfBdpuKIjKAu3VqwEM6oOr7NOu7LtLv/jMP2Ad3F85By8O+N6Wp8WZSRNocrCM0JLuemjuVeUJ/aBy22Juj+ah01xRfSaPqoMlME51lA3kzfHkYiUiaeeIiCjRMFLWtovue9/LRLO2SXtdP4gqZynM6NkPNlg/8Xjg7A3l2nr4+snR/njjssalJKxrH2Q9yjoeIzOaOa/TnV7Ud3JW47ssGAt6PGY5b5sXr186yXF9tTXXHH+3ZaIx0d6GZlvlY03PnpDkOJrrX7SKKrlRZ990H6Ism5TF9xbel41X+z529drR7Vf5N/oa07VH4EWPRvRYvXeSepy+VjQfbUcBOAxnkinVKCeRcnSgTjlZfVF+4fWD0pb4hDHMG59ja89GxO6O0I5YvGPzGTFIZ/ebu84dWDLqLuwPe4BOZaAfdzd2bxacjNmIbY70MC9RyE42zzen6lCyBd5nasOnXkR2pJ6iU9QZpkxb9PBJrdLmRN35K2b5aQh8Qjd62iyC+uVGYJ1KwaLQgOYVeCtLpzL551bc3rjEhbWBf8VlxlM9XlsXUrEN1mNGZ0Ypd1jBUpZA+srtw1A49NeujKtPTDJWexafl6d6aD/j1fODvygd7Tjk0zGulixjCYuthXhbC7DZrQm0HshIeVD/Ro/2etZHlfE8yWJ92dO6z7nJ2dNKmL+xjo94gBEbNeuyCNcTelTNAEYtEkae64bmGFFj7zJ9oLmMZezGba4py476NMZOxucbHOt5729AxSGdvW3y5ykPWFF5yrKK9bUBqk3dbFOe7kOUhZNYSZ61xpiW19bY6jvaX7fE9EZfY7r2CLzo0Ygeq/d2kLlCB1eHVIcm+WMe7a+GjG3O5sPnUYSys6Nm4lpb5Ggw3vQLN1cXRYc0DtmzXxh4/Y1rnmxlQ8dRKAl5RgYooXTfdS/PxLME1T09y/rglcutuummsYzZiB0OyGkbvsuSg+QKR7U3Dijnc+Mgphz/inikFTHU95Y2U6NJcfYZFwkuPwV43yDK8ais0bAyZ/zSQdBaUUFTN3B/xi/4lbV9+mJ/b8JgJuLkE7XjdMiYMWM0kZyn0+vZpz3N6lxuj5K354ryDMmUV95l8fSNF6UbtLEJsW/K1dk9/ag8fb33eFKLZTSaeUEGZlBvtmt0zHBPdEVNXxA5Mjx4iHB6zVO07Q0gY5P2oM+ra8bja4CyNAumDM1YRckC0l55EjkLWDWtz6vKE8nzhmyfc8dDNHXi2TthHvN5yrK3euk9WWMc/URK1KD9UBRxewa3o6C2Ijx5I6P61f5mKI9aNeW84Ym90ZkyD/Qd+rx6seJGN3o0tf3eLkya9cc+Gm/lEXqIpm0dcB0eHRIdIqDN41Q9nZDOPKp3v19E05bGb9xpS6CXD6jyi2COxjSHo8N4zdexob1jBe9KUtdWHdTzX33aOI9HB1GX9TOiZIJyIgln+ZAy/vefQv3vjTIol8CWxDIywyszqCBsNG1zxOPZGWbiVSJGR3n20V7ygeiB8fFDnhFWA5khRzmgvcum0cmejqpqsPxpM7T51JFFQdoMJUu8BJ9SY7dagiWAXSwCXfAE2q44viIK6QnFBpSLQ/I4WXFGymGSep5mIT71tCNetM9AXRuoz+em9nReRM3JfrwyeT621vaA9srCXMJOh//tHWVtdD9wseSI62GZBQMxzyvW51W6ZPSqK2ufEdgR8QIlbwxQ5wmubjx1XgOPeI7qD/SQP3o6UipUK8qyNCdNvcr0smjKZnlCBERF5HgE7d6QvLMvHbyIzjleBJSvKFk0I6cs8nTMkW+tIt45elCaUzskw1k+9wgZwme9dv0a760QT/K6sjkCW5wheTUjO/secbnRjV5IbV1om7WNba22WQ/1GeZDD/NgmG09To3boxIm7fW3g/IxHpp/BzqTn+GtkH5nNjxkE6D6zfW5tg61gVSEvrK+zaVMrzWq3xybrPkaB7lwjePQya6oA/oZmUweBiWV3obOX9uXnCrL27TNhLS3p+kzsOS0ILSJlWfgBrGLfSUfeJiJlqsZR+R087V+2o0nESEzNSq+R4mWVoTrQUajKJK1Mk9JMz+mX5qpVaaDM9AQRxb01GBKAiPxFFhlQVX/nYVfWvitp/VfWRBoK/z3V/fj17T8mvFCylBMih09qA7M4akyoj9NnG1nZLydyHjWHi0cQnHE/AjJHqqd6M5+YGx2sTE78xdQfs4x9W1OpJ1+ssNHJWsgxv1QQobTNhvNeu1eaVPmFYhAHqY7qXGixtIP9NFfFPtpEewD+8UDB9nbw3qcCKyN8heKT/GK9jodxCJWZklgYY/2fMTxM9THOMbL2yK5jz/HhFnWFoxZOyQv8s2Fn807KXk699T6F72APCV247UI4+2NKNkcZ6evtOKeyNtTlfNIRNDsWzn9cFCW3uhGbwvNLd1W6wEEDyd0zD0W9Zuy8wf27SPj9phee1TfKhWX6U/+iQ1o7+DbdSC/5zjFacZXO5pzNsfU22XN3QFL1tgOWldP7a4ishLRWac3x82HSc/FmKGUdZwJprtwviWF31j41af4xYVffiqTN5VDdWe6JzMcnw6a78ywp+SgBMe94xtmeSYnvsDJm6+ST7xrgo/+/pQ+pAOukycXQzhqpUBdi0gKTKsxjX8aOcxAxHzBkzXcJIbz1ycFGPhEpWCwQdAEC//tpzKBthjsIf/M8uO1S3e+sDT/ipHp1fNRGakzD+ji2pJpB14XY5wMPyP9Iv1AKNr3hYGetup01FGykN5sR+psibIX6ovSYXNjIHWYutrFCPe1W4dl1gPh9UK0yOaok2ZbsxSFsz5Zry2LUKthPP2RzdUT3njq0P5sHH/0dIxXLFCtrfdOWbC3K0/r6YEZWVfUegQqsx7Xrn9A+ucdndmGN0fjNFbl5gVz1q6P/vxuDDqzHxnKz+ZrfpT/h+6szYgi9SzR3n5pzyBtrEPNUp/GPqMsvEbaZrSMxx5PrvL0qLI+dOp7zLF7daMbXaW5lSZ/iOozt+T7idh9Znu+fzV+zTE6FjqwHG6O/A7W/aCb1DgdBfXviggdhGc2k4VsmeOBFIVNXUfZKF3Z0xh1OaV2cyvP/vkB7HcQPTuMTEpRpyDB/M0F+ZGkE35q4WcW/tbCX3+KH3+Kn1349QVJqgRWUsowyKiM4Ui4FuRF2SnZAkd9ZUevhEIZB4manA+f7a1Xb1j7shTlly+RZhijSczIWJxRjDOCkYoeS54arHu/VaWCUmvi7qkmv3yElZLOAmVuq4X/woI3pb2Kxi0GfGpN8fnLdJLxjy8YCvqVdWXcVPlMlndMZRpeXRsUz67V3ZWdnkbhufbKuHYR5GlLLtqWvaWHngFIrowjY7Ui5M1b/zlnetO2bGHHHJvvyuili1ZSkRAFdVbrCUYhNwtSVw7qRlTOmmlB7cblaRaBtmRFydz2hnZye9NDRNZ8yJj0j8+WspAHNJRDa45YhNR3K9HO048jbVkeD3mJs5zV4KxifUdCHLTTnXvgbMyQfM6jrzHbb8pFbcqaa85nrGJQ/SDS4r1HFchEV7vRELl+ULkZQjPgIZqyHXsEkPHyqHZEbv72tSfcKekUgW+6WH+jGz2KbKcb3dNXE4+vdSwdHY4rh6ID0cEc1KGDebYr61ffktKH4FhK1xiNS8YOsegiupCGElJvO0tKJZrypJ9Y+LGFv7lQQlr9Rxd+5KkMl7h6ydeb0xxihHm6PQLHOkdPiI0dp/Ed5CVd6vqAo5i8t6nP/F1kOtMeEelCEQBRQxmUcYwHVxp62t6geE1IvbsKuhdkk5fgc9zqlMWXoPaKGifr9fNnVrdXL764SiSdfJpJqHJTNT1emT5ohygdQPEXkYiJAl4Z4ZVRbZa+xAIXzfalaJDTRY2Jpj1z3J34iOic+QQzJmJQHfeZzMOSNqn1sR/8cHCswf1TxXI6dFFexhHeWO0f/UqVpmyiiOgH7QU2mLt2uixvnmM8b0s9B6039AOK/TFjcI2KffwhyuM85VlnTpEiK7Jojlt/oEO3vsY5G4Oufrt9ex3lJ78j/R+is3HeHLEUZeW0OC/aF/Pkz3tcG53pMZpjJt85PERz9Z/cvfyDf+HJX3hau9GNHqQXba0zeuiweb/TW4lHVN85xrXyY4j+DlS548F6VO54AVSfSekhevP46qjqWMND/Sp3+bh8XVIupZKXmcRcJnHfyYX8Kh4kpeDFnV/XSzS9CdXmo4/lUnTU3dfqbhDGggnLFhmSMW3QeUskS6/6U1KlPrsjplfPf6hc/LrKlXHHvjgxk453TEdEXN8zvfvWBcSRUmBQNsvS+fLq2/1hUIMbVHOG6yJ79B1VhrwkpzoInFfSuKD6XMSvLQhmn4uw6p9ZM335kmCYmZWtaeubZXkB6k3fUijrgxuvMbQBkzMbR1yJlKvXXpzj11BYQnOixppjXoMw442rjosobuzq92t88Gj6hzfWG+v/R4JKKkqo77W1iGRghKJq5OmVvsrkc1akvbZmnR71pLeZeriUJcXqHtiS1B5AZX9dfXy2dFoZZ9Xk1l05Tlb7lOEP4SGaOjjPkXFRUYvOxptjoL1clItmSC6S5oiTNW96U792svTvI2rGzoMz8IyeUxafkexJUz+Tmw1lXdawhPXQQQO1dbolw2d9jnvOb4npjR5Nti3at9FjqL7x9wtdszff36o/+u3xeyie2kLHA+qi63FPjhqvNkdDl2P90kHKjUE37jih77hRDs2FJ6M/50LNwWdHZYkKuFp7w+bYvNyBciD5EEg2JaK4upc1JpRQ/bGFf3jhTy/82YX/xsI/tfCPLGh7ZeHbnsIkffiTEZ3Rzl9AZ4uCyLeFVq3r3sw8cHUbjkviERD91mDGSgy/dKkxEESpX5Inl8LhWYE4tS6oJ6veAjCgxNTA1A3nHhPw37fwLWRL+Ymxy/AloH4K8HqarD90+uQa4pNriC9fUqPelOK9BSu5fGrNJcSFOm+U02O9On28WFae8c1T7hU3XH0u2yxH9UF4Y56NS1a5Pupzf1eHqZtNte02qqM5Vu3qnjHIhmN8JdFCrbtIKtvQPNBevYiDMhRpfVHc2GD9wYyV7Vy8jQT2Rz+44MkloqAPD76wZnz1MmNrmzVmzpqsay/Ek4N6QKyNQ3FH6sV2Bz3gkXre5nHnm/JsA/p4a9UYU/9av4n6h6mTfVNHuXZ0tIsgiGD7oKi2rqiIkRkh6+pvNNTqIHyPdniIsjxP2jvVJ0eNN/l9+cmff+OlF814oxs9t23Q89voxfxa23uNsnUHOpMDij+W9jHAY3sm2+XV4w9Reo4D5Z3XNueY9NBcji5yR1xHY5eNxMOF5JoEicy3D3znwn9l4Q895XLHDxvMCzu/fpcXSUZ7gWfyP7jm+96VHv3hlTp9193dr3/kA3e/+aE/fPepl7/lcgS+vLLWj69O3/LaJ+++Ywm+89Mrf/38uuwWXvLbKTdPjjCWA93nE8k4U4ZVXb+NxM8x3JXcL8K8Q/JOCZdPV+aO+oRUsL/v+sya5NVL5v0dT/H7F755QeRES5uIHZ/HOhJX7Yu/vi4qE8gfeoPMGIbxlx8WxJASd4npy2al6LMSXkn/7QVvSyWmBpGE/L3l/ufXur5+6W59S0ZBiEpATFHYku/1GeZQ/67FypO/iCxPaJy53HO8MOeHXVfdtuk5wUs87LsJoW4vtOVmm3pt7RPcCpBXj0v1XrtYYY2ttR8FcHi65hcO9gV5e6P0H/eDTZ6jyjiaXkywhBUstEsn7Fw72maDdvrn1qj3SelcW9bs8uIPWZWVlaF1/WqoMeZYeOO3V9CuEw/Tpr1un+x7Jh5E92wPgb2An+0zfY9vDG597QnlTltlT+WsW39l+smCNvJWJ4469fGHkKXteB4oh3Y/HZHQJ175Xn5LTG/0KGr7oLeDV36vUbbtQGdyQPHH0j7GfER3+d52//geHE1eWXt86leGDszZtusoH4ch6vh1jWhV9/2Ex3Gr1sWDO/Zcka5MV6eynOgfXPjuhZVr3v2RhZVn3n3ETfx3F35uQY7kHFsDvPZ9d3e/+gN3d//5N/+Ld//PV//E3V/87J+++6XProTt0+tS/vKa6cmayR/vyGw/uAb5yErxPvI7d9/5Db959088+bG7P3H3H9z9sbu/cvcH1nDm/fZ1bn54QcJ6ccGZ6SzN6dyDHOnFRKDzlHRz3HYUz6SiK1uuWGLaFS4RdY3jOz57mUQi6rWmDLIEVeJBri6qRVeCQrYM/ewyzuR9FMLE/OOHYXUxpOE+tix/wgqKElH46YWff1o+/nrsQ2tAa9mV5uoqIQVh6joD9WS1m1qbur7p1AfaPzuv/GbJMoH+lbOjMatnY/pTx+7u6p0QVqhs/ec+6CrWZk/Urgx0LI9y/Wb/Q9cPKpIHa2zx8BLS+HzC7BH6EhaRBiuXN0U1z+3gPMmLyllqV5aQ+mFF3Q8sdjLYcCWmX1wjv/FsfaE9UIyL7bQCz7rWqvqUPUQ8CQjXJ1n951gPcdjnTgbsnvV0zdXZepyMX1mf+2dC9FsBevi+1+7/YVe8xLR17kkFbZXBSmjf9UGbVWhFUJFElYsmqsxilmX99KIDNh36IrHz+/ItMb3Ro6hNMvmZ7K3w9xKxaQJ5XNAun/Vkb4Z6DMNe3+WzfcquldNFcaTcITn1lDswa7u/Phy3Di8cUEey9kYlwz+/WnyN0JcvR6Nr0pXp6pQ+/dEFb0slpSvvvCSN8snLHzHJh9bkX17J6N/8/h+8+7e//D+8+1/93X/+7u4nltZfW23uQ+ecqQ1emQmmZ44z1mR/eOGPL4Vv/5W7u3/g5+8+8aEfvfvhu3/j7k/e/dTlUwDs+MY1l0T1WUbZeWo8YxnbGQ5uVtzZXRgWUdVFIgGuacOViEpMma0sEcF73+RdJdfp4PCpNekbzz6H4P2yBMTrTXURxKXzySUjktjFX1sGlphK8JX5VFyog+T0Ixp6PS3wvupAUuovzH5xufg7y5IvXWbhujXMfVda11iJR3Uw3azXjx79zGkHFeq9PvlO4h5QS6KuHCLlOea0D2pTnhx5HkSrZ6RruETS+k+ZevrtjZLNdNSTxUsFQT/yzy8r3ngu6SxRLTm1oMra2yczMQWR503gbcjaCd6YvR+p/PrChrJjgcyuBZvMP0n7yXVK3P+AKn6tdTFu9j3GoTWKh30tz8i6W6d45epRY4XmQHMu/ZDypKlT32TxaYs9UH3KinL7A28l9vY4+f0XtLW2M/kkx+2RWU/PiiiTNwZOPlcjL9DOIzosYl0W5wHkVZ7gxoAZjefLt8+Y3ugtky359UrTt/1RRGcyRN5jFve4Kh8HyvOHTI9zqB9ElXeOpu5ZGeb45mzeQD7LPsN0/OOBHVAdfh1o0E/i8yfyDkD4+Brj42u8D62r7aV1tb2+jqjXn9nBLqM5Or3/c+V+pK+CWnfq3/4zd3f/i2/8P979S3/pX737K//aP3V39++sS/e/XG3yJ2edBXKGMpM5ZTu7ee7Mv7l8+Evrsv4v/9Ddb37+v3b31z7437v7D775n7/7fzz5oysV+y/uPu/zlWusjy7zP7j6PDHO2Xnb2VqQu40WUX9avDS3jnOIulaGuT8q419eklcvUk5OZxGuDS8dbK1W/YkArD5lNrpT1yyHkbNc8pYlfCLpkDL7IK9M1vds+engV5f6b62Rv3xRlfJYKysstMrCJMTqyqCdRSxglXbylifOJObwoNjFz2RxJD6TF7PiPFGc0wGhAGPu1Fy10dNHf6GcY+CNrd4cZ7Kp3zj7mGH2UT7GOz5pekQwiDAuyiIuovH2BI9CXs3ZdstscpycrHRZEmqf2C90PFh4KfTxo9iTpWt9swDMrI52i0LrW3kHis+4TLBmypVnLAPavb+P8+E9zDFm/4dsi9ObY85xUPMH86WjTg+vHpIfu6F9IKqVQ08baJ861dsjgFoBdRyZJ+xWsC4PUZGzEiHP0icTJWOg+lY/6JaY3uhGb5Gef5SO+hl6nHdoewyld40j5Qk0+V6G7HA0HJCQOqwcajPJnMlnWd+O3tRIYYIsSArzbWvcb7lcWZ9Zpc+vw8n8jiej+SWkX7F/xEuYNcV/+EP/8t2f/sv/9t1f/Vd/+O7uLy9bKHoZ6Hf/Xq16C/o9C161fmJhqV3+6OnPrgv0z6xL8p/+3cV/8e7uT/3c3d1/fSVcP7R8+raV+nrb+n9a+Kll76//g3ef/NifuvtrH/3v3v17H/rBu5+++52737j75buX1nn80TXlh5cdLwkBcvbCPHMFDjnD2bfwlD0X20jX/d0BuPbVxX+2H8f562usJkDKLhYzuDjiMxlZ5SdL58kqN6jummT/ltCSWJ4PmMmvZiWl3oT5ri1vS396jfabS+VISoXB6s7VV26HkBl+v/KqK08gcmaxfuezjHhZTNurXYfFUvmI2QG65PHZp/bKjd8coMwGFCdH2uY4s96cuw4iY2M62aucLtBDMx7HePbDHiERVa6OtwooTj5nyQpQFsl2Y2WbR5s90nt9Saj3/WR0yCSrvqnBZ5CPPeEEsS/irNzLePsAz/qHgIoPPpE3eZen4gx5BtqTpxf29YD08cZuvuxBbOQHmjqNM23BRbjnfo49+07c+zpnQlmRxo5J6kUTr2680L55DOnP8vYNzquiTeYHF/vE/slrbede3xLTG71l2rf7Q5Tuzt+rxL7H2PiQzhyj8pQ9hqbu7LvL47vOGZAjQNkxUPk4nBxIwdUBUoxZnleOLEfGU4KaDIc+/3j8ulGC+oXV95Nr1s+tg8mMtC9/0rPOr//33Z+8+5/9pf/l3Sv/wUt3r3z403evfMvCNy5808I3L3zrU9m3L/yBhe9b+I5fu3vlIz9y98qTv3j3ymv//t0rX/x37175/H9098pn//LdK5/520v26t2v/9GVyX5x2e4M9Btrf9sjH/vtZd+H/9G7v/sN/+zdf/rBH1q56+dXSvazdy8tw75xqUtQXy5BdXsIVjeL4KHCtnhXxYytoxjv+CXvIlJvSPXn5d6aKhmVESbSu9HJpQHWReytjRRyGfPGWh8DUWUbVYHWLNv8MAe8AfOKWlLqS2CVf36p//JS/dIld+2Xx2AGdWgHtDNabfWmg0KjTG/KYa8/DeOzNhxxI68rT1lx5LJ6saysrb4ofTI028yLyIJoGS8Yc79W6VVXnnMEbcZPh39Tt7HTJXOF5+frl/+LslGKuFFEV/TmqpCTBfW8NA5q5GbG81ZCIQH1oRN7RXKBA3kfPvHnen7sPD5XmlUsyKrKoI2MB5BlIfmUhax/iE/wLJ7HaNeBfb1qR/Ezm84w+8/yrM+5ks16SO/5drOguNbWOZBp36NZHU9nb0dzRmWW4MnxqD3THtJOX72djJO/mG6fMb3Ro6jtiN4Kv9b2XqNsDahHaW8L6EweeoQnHkv1R42DzzF3+Vl9h2PC8XG8JXUQOchcahNdI/is1y5ZSl7/3pmgDjrt5pCimdUbF8nQL95990oC/6tL9s+t2j/0q3/i7t/8V/6xu+/7vu9ftbePfvInf+LuR/4n//Ldj/7dP3B8hNIfnjOBmd7C+qylv8L6xIrat8tY/+O7T9z9W3f/zN3/9+7PrdoPLXzLOlNfcg+7j2UKgshl7pa9cX+5q4nK8am7A65v17krXtkvRkMyYBaQe7+g7/E19r2BLk2U8IPPmfZnZOMv9t9YOgZhSHeDjIGtH10WPmGNz0X4fKmvQfirC39rufQTa6bPXnJX77+5V9LZqkNXmxAoh661CTrp1QfaNfXZx6ttUpd0e3gvT/IM7NT4zQ98U7ezw2wHY+3PVNfv8RwdIS7cXdMlr9qBDOhpmxx634Sr2wPK+uDw+rNVsUIWtL2BBz+FtF9wdZ4V6clRljY7eF7nzi1BDdo+u0b5wrLmtWf7hHWNLHbFHJSrI+V0kyGyCaRduXVofVsbKM7aK0/U5xo1X3PFZzkf8gN2GTJXdp6V2SPi7Y/KE+TWvvKUHz8GiHDnLjgrrAJevXIvDJT1Ud55UEfTYpQXCBeRLLJ32t24+pQp03sx3RLTGz2K2p7oq+G77L1G2bgDnckBVd4f22SottrR1I171PH6KVevjKZ8wqO/83mw3Y/Rr+67jruGJxxS2vB5+HUY1p7M4YfXx8VpHDPyrGPWpeYzjT+1ev7k3Q+uhOgHf/UfvvuH/g//4t0/88/+t5b87aO/+B//R3f/zp/583c/+smVwMk73amyPwHxGrA8T373xxe+faUDT/7GKvz7d3/67n9z98/e/c7dP71qPjnwjd3VJX1uIa4bQz7A7UU8LCmVXOjiWjetcnXDdO2XjMp/8epHMiKWJSJ7Yiqz9mdcElN/KEW2jPFl+y288LecLxmxL4qVmPLVr/H/6t23r8zbZ35LabrWWuV2RRdyl/BOXeB08b0e9NcWpUeOz7a517l0Bm3pndG0gz/mwYOdm4/p0N/JHM05E4euYdz2IAf24OR413TciszrGyerLW4/fXlZ/cblObPh2g/gxwmrZV+oa/OMtpq8E4GiPiOcF+1aaLPDfHPqubU7jzelH1jedRJ0CohdawjNSC526ogsJHuI9G1945V3+UN6aJaLAh1rjtizIx+U8ysfp6+NDXPeWbZfRDwe5n6abZW1Kx9nN4h80Y93ToNDrrLV0cbL+gVy7craszTLs75yddZkNT5BZvdWpvtiuv0q/0bvKnUAxN+vdM1+j2m88hnVDh7VHvMOnx7hHueJ+dh75LvIevxnH2XjNMec9zjUOmahQ84BBS42h9r8SdvhRlddu7be1qi7HNX95XgpDjx9k3dJnJT/gQV/l//9y85P3P3q3Z+8e/LpV+4+8eMfv/ue7/neuydPnrxt+Jmf+Zm7H/uuH7j79Q+vy1kg3B7O3c5hUOcW+oYl+LAPtf6xu1+4+wMrZfvtdSX/6kXtm5bex1a/l4SqwAqygOo/xiES89aidape27EWR91QOL3MwV9b0uPNdisJ6naiNWCQOLPy6fq9vBwlnj4+MZukQ1Lqc4MSU29Lf3aN8qvLWx+2OFJgK2j1u9YMgRtdCA0NynZD0zSVtizEu7R3TEoXlFlbiM9QXJXFDFeXxAHZxIw7buzWKQ4939mcHfqBedSD9vqnhzduSDe9XTc5nnz2P3TeWMgSxFpRz1Jo9BnJItbIQV2bRBT8aFRiCkcSenBJaj8ufX6t8fEjk9l7nMQsmB23H9oT8bl/Joo9HqI8QXlaHe1xbW9MXgRmFIpA5R0zculBazZt3O2LZjkia4xsr1z/yrscjgiavXU+s0SvLGb97g1OJ8+Si1aRI2uMLEHTmuSVd/3aXky3xPRGj6a2/Nz67wc6exTyoTZ8Yn+UZrk6juJvlmZ/9pyNM3VeBLSX41PO9mPGrgXcwYZ3vXSV1E6/tEQiBBJRMmlMiWlv8nqLU9KaXFlyKu3pa/b9M00/ePfKp//QSkx/6e6PfY+/bHr76Gd+5qfvfuwfWInpNy97CkS34LwtJ75hCV/iz7es6/c77/7m+v+v3f3c5Yj+lhWqb15uf8CN3EZw/uLCuPqvfPhCHfma9VXGXes4SJjU6boGGlJbxzryvQZSkvvJECesl3UQX85YG04sI3zHK1su9ugjsfDeVlLqS2P/zsJPrF4/uxLQ42uhrKYfIaxeSalVx7kMRm+XsKApzoBwoZnXZ7Kd8jDfiwfUNq/SYtg1KpUST+Xks72+jVUkp13QfM29Q5uxzN/aZfO0Hc1xmrN2ZVS7uVFbtJg11tHX32UrFVVlVkSNpJcZQbtIQJHLCjKRszckniA5lYz2Tt/euU9QX1792g9zbyjbF9Cj1R7JFzz/IN0w/Q4Rz+KVUeXihKcDeQozIq1fIK+vcv1RPKptjtm4jRUaszH4VL0xZh2RAZpydJSNMiMZZuShaFYO6U4ZIkdZMD3JsyzKuzCjCOmB+ovplpje6C3TPCzeK7Q/AqHHpMeqw6jjeS/T2x+3OfaboWv6yXe+E/lsOytPfiZjP4ofB9C8SkBCo+5A69Aq6SkZlar0plSSWVJKLjHqHVuJ6QQ9qc/q/8bTlOe1Nc6rq/7aN9+98jtP7j7xkz/+ziSmf3Qlpt+6bOBSgVHuXJ7gMnx4VS5fvcTXb7v7hdXxV1ZyKjm8pNsrTB/SbDybZo672jwf4m0f2VczWVIuPcB1x4N+XVzzyvDnUMcfPphEumitLsYusArXRpZDrbqRJRt+FeszDb4ayq/wf2r1/N3Lp1R7p+1dd6sajDxHDV1/7JtngjIZqpwO/dl+jVguNrhYiWUJYM8qr9SlVcWZfMZbXRu0JqAMLR0e2BdQ+ur1IUu/dnMpo/Tisw9ZVGwgPfNUDqgYHm9OSVuJpxvvmcVIe5bhMxKVRUgiKgHt7ajolaSWlPZBlE+vneeL4O5PjnYdK8jZqB5Q/rHuIaDdZ1Q5T9SLYfGtzbrnpTpOxuPWJ8x+ex2fbfUlowcou/F8bJzZv3J2TPumTmiOWZ6yY6bWvn2wP6WtxqxD5aymE88jM82IZTnYN2Cv9HZ9vm2Pizwd6GnNU+PkbXT7t/Jv9DUi2/29RO+kPdfG3uUv0ps8RNfa5oFW+SAHzzysoLqDTdIjHXHRdfUoQ6kKvZmkpkemnFxS+lT/9XXwOavcf7+5bPDdpf5xoV+7u3vlFz9994nffocS0+9fiem3LTucu8ANpLy7P139IB8VDl9/a10hv71SVH8dzbNvWfqS08tvyAuucYyx3OvIdfy6fBzLJVbKZB3d6l0HyvWda3eUfcMpCeOtEy7m/RI+B5A2o5ulxEPA/etOvkT/x9cq/fLd718j+rHCx2z72v656nghKkxGBjbHtSlPPZGrb/4VKnHIL221R/c+H+hq5FFeFcPe8SkDT8mUuzrx+gbjoeY6A52u08olE9k2Ub/qUWNoq296yZA4qO/xQukd/Y709J6Utc6erQ6wenpQ9HobCuq4RBQXSZ8xVf/U2g9fvjzRvUXHrTGezH6ZTw6QTfncT1kYsXr3ORQ3HKwhL3q2eq7yEg+zXpluY9Qvnt4EMn8gw7Ovsr57e2Oowz7+7B/fy+h5LpJFc0ZVWWRrrx72iGdFnotk0Swi6ewWTTnMsn6NAbXhc4z4k1tieqPHU9sm2usP0b713mm6Ns+Uvxu2TL93RJUfkk0+9dCUVZ71jodD5kDqCulK6Zqo7PqoTUIp6QnSMZiJkHJXlCsrvcrGWfM6/b18KRkN6r+1EtPfXInpl9+hxPQTKzH9jmWPs9iZzU2h4HY34yzD5RZdHS5vTYvPtyxT31gp3s+u/x+fx/zW1edDq+ny63sojLou1mUJM1GSRJFp74juguw4J0eZhyNth0TcWdEv3wNNzqASDcH3ttR3lf6thR9bGj9398qyon+uVWJaUmrl92SinTLDBPyMh+rXaO5TRHfu166vrsSuNzHr/YsYimlJaPHFu1KLPTSnsZqHPzjK3vQApZssW2HKK6c/6zifJqZs148qZxsu/vSO/vXUYqSs20ctciJU5Eo8JabzrejxZvT4YaZf5X9q7YMvPXvS2xfiZ1+0R9obrAhzn8BDxNJ4QHiehOrx9kkxtf4T9IqKbyR5fVn1+rL4+L5gHvjSKyP5w9D7sYP6GeVX7Xufieha+5RNHZT8Hv6fd3md50UjJDNienO2VkosoLapv48XqqeTrH7BeO2EdgUqggduiemN3jTZWu8H+lrYeTbni+yofepN2d7/rL7rz7pj5ThiHAJdJ10pHULaumKUu2JKytRh9i9pdU2Vyqjj6qDvOmxKSr148S1F/YuGx0uYyz34yidXYvqBdygx/cGnv8rnQudfru1hQAXw4voSXpLT4vGRld59Zv33S5fhLp+eXU0feurqRW2VJaqqHdOlA1IDKYK6sKinQ97xnZmodazNm7LjV/qthVg//ZjEs7WjbWQzgQTDHz35XCn85N23L5k/Q5OQ+qfz+WIEo82VhnZA4YoLWXZOex9L07fQnu1q68orwSy9OkNvTUtS6QZ9+0EAmhsH9sd31CewKbR+2Zn9jRvqqxwZW10c9UHqjdE4c9zKSHJyfL+p1UBWplkaCW+3FQlg+UxSd/SAHkmpJ93T3RNuj+DknQLtm7lX2iPwImJpfJbjeYPv2GPU/uH5UZaMSkQ/eMFh5dzlWUzHtx88P5b1bXxtkF+g95vxE1DlMMcHNPnedkTY7FD58ONAvs7ViIySl4Gn7RHRg3a4SIQiM9uhcdIBc6AZocrP45aY3uhdIdvtvUbvhE1feWAc5eaa8ijZ3if+UDtKZ+rNcgfpVx5WDqiJDrbgIHPN4K6cEk9v5EqCyBzofm2fTteXvmtcZ5aktLelXsa4B9137r6nL2Ve+d2VmH7zO/jG9OPLbm5yZ7pYuTCgeU6TfXjF6wn/isVHV3L6qXUE/8ql5n2lP4r6wAzrWnTr3rEtHeC2NKAElbz0wHFeuak7zq2jsZS1HzqMthbSSfFXxsWfAWmXrnlb6jtL/Rr/Z9bq/fJKSl+/JKa+cGq+/y7xKMGA3AJ07Kn7Pda+C2+F6pvfeSA2M50qdvhMQvNUHbSHPdbmiGc/Eudp/24PSj/MOkqGdh3jB4TP2M6n86xMP1nj+McYeOgzyIdXxw45oE29CMTbcSLmQRSx3j2XmKr/7lr/Lz/d9Qc6FXp82FM5u94qsTYeIjHkUV7mQV4F8jh4M3qfiHo+7OyZTofa8ibveIWOd5RH6StRxCfY3F6IxIc+2seYQC8qH3UjtkuyO/CFPNBLd2L6Co9dRRa0MmB15j6cIHve8oObKx+WFbfE9EaPpbbpY7frGb0dYzyWHppjb3s37JnUI4nm47nTWdteDuisfByOPJyHUQcW7iB2KEtJSjCh5BPUa6MPJUHJjNVh39W1SLYgCZWYSkq788AbVMnqb67k6NMrMf3ud/CN6TdJ3BYJw7x3CoWwIOenc7Zb7bjZjuT0pWLgjYs3p7+2PP+dywcXfMHUR9fYH9jO9NZAcuTKd4nGoeSqi9RUTKgfKBuWqQ39pYuWmvXRwjZa0kp1PY1YouEnAL/C/5ml9bN3371mZbM3pf7gSW9+7CvYyrZr4mD2iZ3OZA8R/XyGrjIxER8yvCRUWVolfeKhevGtPZS8GHNCbCPjoynjr/mhNZlrA7VFZ3XEv+JXzOiF5glzjHQmNcYBSZPPH/NyWlcUlYtCuw5vF4rkjObn1pifWva+etkLYOfj9kenwJTXxj97J5DT7TGzS3tM5uOSj1nOamgNWzNt4tPemPHK4/Reu8yQpRPJ2uUsw+m3SskCfd9HcHwvAir+0yfIF8i2EO2y/EB72+S77KA9is1aNNoD95G51zmzEJ/RhPaL1WjfGDdZIJt7Cw/GydN93mPuW2J6o69L6hG9Rsf2/9pSNux8J/LZtpdn+1n5ePxFxCHbtdDB24HrcK7eoZ08JAtSmXnAu556g7rGemPB+TTvOly9XEli6kWez5h+fiWmf/RdSEwjIeBWdxP3hakzmH1lOPxAL6/YfbCE/BuW2mvLBd8B+rlLGu/d5TbLpSsYzrGc+5Xn0d7Uwdq1Yqij3HVB/42LwQwvnfTOU/z1amaz+Je2/JOjxx89vbySaZ8p9dlSX9glIfUFXlJcfhhprrwZjGg2aI+hZJBOF/Q1mnsTz9c4/xDeFQiWQhzJxFDs/Kyj3gv4T6+ZP7di4B2ffzXr1bUir659+ery5MsXuT8fu/8m0GzAkXK258sksml/MBZ7QVs09Sap08XTqd/ePyD2TGRjZQnTG18xsjoLRXEmCiKnLpoiWRR9ef7n1nq+fnmq54+sPfntjadP+wVsaL9OsGsHiqPpJ4uzHtD0QjkOaLbb9fp9+TIDC3smpqU9+HnRM5QsXZi7X9n4PhZgxud9SnPaHWhnY3ZWhqlbfzTHqvyV7dk2MVcAn7SPimcdbm9A5wiQZ2H9dq8qT52JogP1fb7/LTG90VumHsQbPUwevzNKvvOdHtI7a5tljzt+JKYdsB1WyvPgrT4PZjKH9pR1eEvBkjvkyXHJKdmawznj3pOQQi9pyjD69b7E9LWVmP7xdzExRZ3XucFdQXMGl/ngIL/jz0dWpw8uX58cV/LnlmOv3v3kSuzeuLyBlNiJQvEH7rryXf1y8ZLT4PjvWD6O5vv+qKO8NuZJK964xBp6q82B1taoZvK5UompL9P/iaX1C3d/cPX0lVCSU6msN6aS05IPoTi8u98VRo0HxK5sdQ2hriMUj9KF/J1XGN/ISp36ucBS8Ei8yPtZp0+G4F9YFr56iQVvrIQ17weog/sXc4zvF99fWrNmX/PjnW2zLbA7H+oz9fJNOd+mTpQOwiujtqV4twZhxj6a8x+2S06/vDAjLHo9eCLW5lb3Nl1K/5k1tn/3/vgnRj3RImhPKLMluTJun5Cpl95lI7AnoGKRzZOHYjzbeIDzpj2C08V5V/ngZmfZfEbsAWW83Z5HOLTj49ATAeSHdf473p4e1JriM/JhknjUDz1UhvwPaK8/H/l2C35W3sGiWW7F9pmTR7yNT2+zCp9jNDbsc6Hb10Xd6GtEbdn3Cr2T9uxjV78m32nXx0P0UJvD8f7fw98PqA7eeRA7hKfMYdzB7FB34UtnHCazLdDRb7U7q9yF8qPypO5Hd6LsQkax8MrLKzH9gXcoMf2Bp58xfYiEhStoZkFQJslucr/W/8i61C5/FPVkJZu/tK6437hc4n41LgqO4i5PXbjaEOXphUKiJXE1rTK50IH+ZB3tZMaleySmLlefcu3yFXvaZpP1Szp+ceFn14r+9Eqgv3jR7o1p313adY23onZAu6UrBLFDGTcTsKu9l617PdtnW+3kkO985iOZsiWQQmmvXAylVF+6WC/dFoPS7f71MbIS1ZIR/27RkzW+CB928ImfaNbzD0fV8zn78epBHc7I+GHGF6/f2ThzvPqGntrjCZQ0SVBFqciJJp9F98CTtQuP98lvPEvPRKn9oNyT3T5JBp0Y8WyZ/qB8mL6gKZv+ol0+0ZqIfc8Z2ZGUigBPshDIWBhYNi2nX/SSN9ZeB7Yd6WnrQKr8IuyUv2iW+Yf2eMz6Qfel58kIs1dR26MXr9z+sF8m7vfNfbuzRtlpBsknrI5xobmnXfd0S0xv9Gh6fut8Zf0hSvfN9Plq6DHzvJu2TKA592Nks62DKtI29SY8/nB/kDo6obSjwxaSdZDTn+9JyLqu6ATt9LT3DuXp8Wxy55SzztnlfOrsc06VlS288qGVmH7fj999z/e+zf8k6U+vxPSPjD9+eo5mtBYt/Ys77JYp3v9++LjTO4udrR9dPn50XdNPJDhfWC792N0fXE5JTF3ehuh4N4T825cRQEOTNWxHNgjPsW4Hr6xNuArpsR6SsOIv7oimgDPcm1JfEfUTKyn9zCUh9W9t+aMnb3ilb5JTaRu0gsLQjtlJtMyQbYF8XjfKE3RmOyTLb7wrrHCLEZ9LSKHyp9Y+O75Z0wcpxKJ/Vax/JkAbD4FnVgc/4vX66v3lNVufGuQve1AJRLLqePaT7z7Bi2jqGM8cZ0hPmV664oamrjWLT7DwpeXjy6vXBxe8Mw4fXPjImsVOsvaiowzK1UtSS0rplvbFi2o2mtseah9BNMuouM1YFtv2CD5B1j6850bOE/BDCVROnldkuH3ScxRmFPPCrCgLlV5bpeO7EbKTPZXzBxWbZMl3vlP9iue0bI53aKI5Uq3J6KTXyKER0RzjGtHJc6guAjAPfDw70pt02HVLTG/0psl2ej/Q18LOHrdJL7Kj9qk3ZWf9Z7tHu4MQPP79fNqh+PzB0+FzXMzPH3Fk2mtz1ZDHHejK6XR4V9b29KDzz2EiBjxNPp9lYAyDjF9dXvnISkz/4EpMv+d7l+Dto0ti6p8k/cZ18TCV6c+IcYwqFVqNPkfqpiWSOcrtvHiUUcqGOnNx/3j+R1xmry+1n19p0S9e0iIJniiURBqiLyZoyJLTkq6SsI5u04OyEBXC5Mdf5XepliqIOcNo9N1c/pWnX1rX7u9ePk8qIZWcslPqJl2TzhnJKCUXYDThKmRGbskqH/vr4CH5juR4fnRtGbP9C/mbz7g4gZRb3D69LHv12Ttf3ki1gXcg2Sil2tMnXokZm167/McyUUXzyZj2Q7a2ladvcFyvB+39Kk992Kkxin9rgJLP9TFGOslxunzg9YxAUSAThcmLVrtqojGMX3yKVXsmZAPODuVsxwEVo8knkolfsS/VaV8o+zqo451v3p0hq4sC/dqUWTX1akt/epEnfqjx3Qg+KHLv2/QJsp/tc/9AOvTRziddazs+VJBt00ZoJWDvqQ7aUBZlbdifzk6t6ungedZYUTbAbiO8fEtMb/TukO03+XuB3glbetznY6/cXFMeke3y6rPtmgw61DrYkt3T/vB36IIDa68nm4dxh7WRjeGa0lY/VJ3u6kOtcwrX1WkcCQzVdR9c3pj+vncoMf3WlZh+w0pSmo9dF+qKmwfrstv3Pr28lGWQMkk5nr8dkqDywziCbJxvWz5/wIX4u8u9v3b3+9cYUiEqVCVRvS0tMTVcCepMTOex3nqyEJ/H/BFKaYPEC3JoavRO1scMfnslpa9fvq8USt/Av/TkvWJJqZUGI/IhUoYpb1b2kQmJ2dt/7UVo2dPJv3zLb3yWxUUMS0hbEn+e89qztFpSWnJaWVtvUXmo7EeGEpeAPrDs8qcsX1z8+OALtKuzMbsrP1QvBsmmXmsK9KJitSMqxsU9Imttpu1QeXoMpVqiUdI520KydGe7cdsv+56Ztu/l/J7lM9lZecZwcnjjmZW8saOl2J7GoF4bTnfqT89CkcW1HTPdg/yA5NQf12XXtL24IKO9GdJ/UvUpr/x8cjrRCoXsjvRjcRH1BMKMsPbpVTRlyWd9yqdtu52HjbfE9EaPprbw3Mpvld6OMV5ED82xt70b9uzUY4qbv/qkqRPt5RDN8j3tB0GH1H5YdRgrzwOaXleSOu5Ap4e0p4vU6az5GhoxrjMsFcOsO+OVD6/E9CPvUGL6kZWYfmwlcN2wmXkxpvctuOTUQbwM/shSZKMs0u+MvXyUnPrIJvvZzq+Pr/99fDnx5PWVOP34avq1S8JHxYgln/0KX3eJlRxXokUm+WKB2bvUYL8W0HFd+F5GgWMg3rqgUjpfd/BrS/obKzU7/iTojyz4zlKprNSNncqubCMFu2Si5ZvXUtfUtXJ1pJwPZOr5qNw7l3zeE1PxAzri+cVl1avP/lzLm1GeSEh5IwFV1y4RkXBAiUkbIM7jwyr/fWmN7nLnc75rzRdEHp9A+Ze/Z/G4Rs0zMedCWRyqT/mUtTMqQ4+BcrtHvfSMTB0PRXJP4cwTDxH7J0f5VTwqoxk3e2HuA5iyyu0hfY4oXfN0Iu/yqn2RZ0WssWYd7Ip2SF6AOkuO78tozfby5I8lo0ezPCkLjojcR+WIEhS5ojyhtz5GqH9jFO3gSWwllKtP3o/byngrmS3GnXPc12+J6Y3eMr3ZB+vdpBfZdu3BfifooUPkjO9EPtvO9PjbUdmFBOT3/WtNcx60XSnzEFYm62DvkK+ePk7fbFnSGKvszeNUDZoN5aZb98IlMX31HUpMP7AS0w+tpCUb3D9MvUSmA7bD00G6Dkh/de+fc1KVPUpOf3Xh7x7NlzHkOu6371yDfuBL62il4K3pMXxJla7y296YShlxbYZu1v34dlQjVpKXOr92caJ1EEDBZFQjmfFXlg2/scz88iUJ/cMLfpUvZcO9T5TSSd+4YDSjGNkKXsLzlI7r4v76YFt1ZfbNcu1FNsvUgZ90aof6aZsrwRN6OBw/RkhAJaLehvaFV7ik1Dth7byzQFLyPqigPvcszlOz496cvrr++8KzpwS0IpwveP5CcakdGW3G8DFE33ysmhZOW3bSJx2e6QOVG0fdGrfWe11qZieBNtHSBqVrMO2qPOeLaysGxaHYzThOkAXx3Hnxti/sj2J/fC1UP3iA9bYHcHJeqeN5nKd5VblIGzOOcFYis2YR67I+GcnxzbJ6hbNRH0vNjGY5InteniQp++Jk+JntRbantae0aEN993JjJG9svPYpm/3Cq7fE9EY3eqfJ43dGu/xFepOHaG9DeI//cTx24MJ+rVTXFh0H7P2ojYiMVz+HvH5zHO10n5Ylp878bjl3h3sCnv4m9pVvWInpb7xDiekbKzH9yJoss7ubntlZWugQ5jfZavvAUvzQ8kFGROwVp1efskqudff9vuX/N4qBX+f/jTX0py7RkkTpIiH1wvXpN2NdIFE1lKHNPuEaOI7oo5zsOPLNw3gGdKkiM+plxr+3tH5rmfblZ7+69xf4fm0PUjpvTv1i2wiu6H31IGr1zX/YcESoq2Qvp1ef2iBZPF9x0Rcz5ZJwybt6q/O5i8WSzvnZUpuIZ/NX+xaGZyBeFp2XcwMYi8WI54eF/pL99cvshzailWbEh0h5b0czjo+l4m+lW4/KrdNcL23Nk248j3nK47yuLBIT7Qdl3OMKRRGUGxfMM21AxQYvNlA5OZpysC+mjlWprf2ijB+6rGYx6xwueaOeR3k7PYI8rVxUeRYvYtqVZ4SL8leuhp3k7Xu2T0x/q8Ok4rnL0S5Tn/E/KK1sRficeUdPY9H1HJSgQvIdtTUGbv7dUvMXp3PcEtMbvWXat9tDlO7O3yk6G59syq+V3y6a81WemHStfsbPdPf2We94uD9kPfwdDHjHmbIDpt5IW4duB4cDur7116dxjJHcAff0IFf94Pqf899LDC+55A9eL77y6t0rH/rtu0/8nZ96ZxLTL6/E9KNPE9PuKXiJQIR6R9eBygf1dRF9ZIGefI/bVGRL7j/2S05leN+xdF76e+t4/tU12k9eVPuUpwQUJKe4BPX4lbRhX1pJ2JPVx1ce+QtzadExzTzmyY4/zRE86POSqItBmuvLk/7+Ssu+eEnVJKV/dKG3pVI5fwAlfeNC17GRAYmKFZ1gx7x6zDjt28vaq0+eb3zv7ahxySsHIY8fsPdKRr0dVbaRcN6BBeGZ5INnJRQ8bf/j7WPeZbFZeP+FJSH78rNdTpP9Wus1e+KVQzL9AOkPj6XmaU2iZNnT+tnekN3ZPnV4XlTw0jT9agN9cPIZyTn2HF/Z+PmX7WKQ7cWiturJxE25PjN+9kLtuD3z6mU2lpm5B5tH1ZXth96a50neQP3OvJswplmPmQ+OkrVz8wwpH1QJT2PKJrW2uxztMvU5TvE/iISt7PLUKUO7c5aLNkpPfSJ5yPcZg72tsvEn2TVZnse3v8q/0ZugufHfj/T8w/ru0YvipX0/gGas9/5n9V2/umNE+flv2YuTddg4MGim19XmoHYYd911mJN1GejXATPhMMqzDsRVfrL4SwsvrzTkAysRePnXV/3H7l757H9y94kff+mdSUw/+/SNaffLdOViezFgozJi+/LvybqwPrY6aXLm1h/khiAX+q41zge95/vM+u83V2r425c0UWLqjWnJqbelf3/N+dk1+RdXx9cvCZYBJJuMMrBfKX9wtflyn4Mnf94AtiO2O/g/tyS/u0b74iVVk5j6C3xvTZX9DID3Z0Cu4mY0ErRioR0ydwkehGUvF8XqXU8Sz96/TN2uzD5HKoqgDuL4heX3G88sl5j2YQQe8ZDH/ep2/grXIgMvn67ps33ehshrZdZo+/yyzad5j6eH/dGMDSp2gPBm2GXhjGb7Dv1Zx/pWv90AzZVu7emIQFserxzUS89CCSu0Txpz2hSvPEmdfjalo3/UnmqP4XOfqZ/tJyt1/B18luWJch6UmKr3A0tt6qE37MbK2+lxXrYioM7SiIX0yPIWHTqz1xwFFROY5V2GgzGgeu1TN5wTm4p0ZUD8mO1zVQBNvqOV21dMvXHmfNPyl++e/Pk3XqJxoxs9SG039NXwXfZ2U3Psc+3lh+pvlfTtkUON26NX246z9inb++2yWa9cvaPhOGY6aENHm0MXd6h3MDuoHc6T03HZ01cvAdCuDMod+vTU9YujLJR6eHf4t1br/+Xuf/Srn7z73L/yj9193/f/8SV7++gnf+Lv3P3IN/7P7370u1fy0ocq5TK9QmTq5dCUPkqBpELsY6/GlQS9sRLH314H54+v6s8t+MeUvA7lst+JeyX5Jxc+7jOmf3Xh/7bwowu/vKJ5/Gs6Pk7h62yOf1OnxEmMujqsGOo9Yit8XL8HObhbu9YN0TfP59aoX76kbJcX0Qv+4EnKplxyKgRmZ4nRjNRsc890+XetKENJI5615LM8ryHl2Sb5DI1NV51O4+JHWVJaQmoRLRxequ0dcDG1N6E9OC89sxjZTL2P9edo1r5/Hat/KcuPEb90Wb+PrdmNVmpT3ILdbSaYcqsDx3V7gCWtWpYhOihLa7MmPTETD8knrCc5muNWRtmYvHo7LD7b6ntG5ryG1lrk9z2WvHp8lq2cslX02dI3LmtudayMH/A6f5LXBlYK5srFgWd7RIHlle0bux/3ew/cueFAUG7X5lEe+JM9v/M4vjugGIZZn+XHUHshK6e1U0bvoEbfVx6SvYgeax1qZn14b47WYH9qPnhLTG/0OLJJ2ihvN387yZgT6Kwe3+WV3wrp6wBonMaa9TD1KqO9v3oyHE2d2kOyuMMIHIvH3xk7tB0EHQ4TrlvQhpekgvZ52Gt30BurZEC/ElV9cHAYdbW5UtS9R5SU/tjC/+vuz61k7n+q9qv/2t3/7r/8F+7u/s2lSz1H50k7ZTm6Ix1jLPN+9DtWUupb5eUxXrpByan8hrmXy6Q/RXLtsZNf0rjl8xdW3R8++efm/U6eKhXNXth938IfXP699Aur8NcXfmRBoiPBcYEZl3HFRty6DMTFJTavZjbgSL/IpICMebxXfGnpf2jp5ZrUzR88SUi56c0puaS1q7vVZYEZCnOWHNfpwStnlau4eh9LoKM+++9XNE6XPE+r118ZJ5duH15JTH0AgWcW0sKR85JX7U1r1tsv+06seIjzMKtnYmpG+9ECS1Ilp7+x8LMLn1yjfHaNfPw7W6yYT0owU6tp2wVyKNZnell3jeaWn9s7oF0GPSJwjZqfXdOeh9AObFx81rMTB2u+76tgBSprm3vCKlXe2/DjNwlWxWp0Pk1YLe3K9gNYrVaveuBFlkDWT97egRJUeygZ68hZmNW8xz+/4vf6s5nEGp9x3fljSez3vaGebPLAG7O88WzV2wFAgwUTyVAckZ/NMmWgz/404CJyL78lpjd6FLVJJj+TvRX+dpIxA7pWRw+1vRWa4z0G87FF8/E909lllcOsV3bwhEM+j70O5w4G9Q4L7coOe9DmcD8OjkN/pjfKXQ7JjWOueYA59PvFtu9e+it3f+Dur939t5dl//1V8wc6/+e7/8Hdv/RX/8d3d//7f+Tu7j9ZAvcAmk7hznyy6s87epjlBYrcxSvDvitJPiOPKaFMxuVnV6BEheCpX2+sg9pd4/fwEtO+iNRd496TL8mPvDn9uMvJm1OvVvnYJ0uNCeZgnPHBfIzmKHRNm5A+p0yERzkO3if+7or4qxd3uSN1k4hKSJn2B5/WlV3VrajrB1mhGd55NZcEKB8p8FEvacCPX7Uf/dIHdR4oT0+6uou2sjb12XZ8VymvoF/V96rbokm1gVd07Etle5WH7cE8Lc5GZ5GytBp40Xp5Y+ofJsDhd9cIn1uzH+/nLHnXqFl6InDQFqyw2WsD9Yl2wpul1ituDeEa9TT2RNJt7uzUli2VgS9ntjYnsAOxxbrioTreDm+PgDarkrxVUt6hDT++Mq3djIM9Av1eoKS0PdFZV79WRZ1nPJmWB96x3uz2Csw3pnj7aVof51nl45OxZpt7YJarP5aK/1yLylOGajvTR/GvpHYOyoMpi66NpizWPR3zqbmX3z5jeqO3TGfb8b1CL7Lt+oP39tO1ufbH9q3onbXNsjg8L5u1rpqdd9hURriDdV4vqFnIOnyhw9ohLRH1RgEkbN4i/uTCX18X/N+5+941lpeN8jrvwf6Ru79x909/979x9+Sf+cG7v/FProvj21cWaTqJoLeUnflgqhabic4594s7yL3UHUWGnH30covZuart5Q7LLi9Yylwzd7/1be5O+sYzxsdW3w92CUqWpIMyYYmUX0VLsCRWvelhYHMVc3HNKDbhbGpFTS6x+uTS/vTSeO3ZVWy2klJJql9y4+RmpNeoRit8uJnxruHJodW1HMmFQjk56+Jk9SVrjNmnunbczlE+uIRCDCWbLBdX8eOJ3ULmJw+crARErNTzlGdzPyNlYElAuE02vfC31f4c6vhiomDEysVulptB2UhGLhYReXpvluYcbOFp4HneBzss+Vl7O27uPJGsPOfK190GUEb5ne8TYlB5xgaf+0ZbZfAoHv3Nwjrrbf1hPvw4kGmbewjsFf21V+bl9AjUd8oSnCcsZilZ8ulRQIe33lPOmSrv/M2QkaNZ3snYD2HOO+XP0+HHObSFMzLDddwS0xt9Teihh+ZrQe+kPdfG3uUv0ps8RNfaKjtUkh00jxst+4FC3kGxU/3q41DuQJ5vCpQlT7I5rxj77J5fdf/Cuux+ZiVPX3j2xznSjVIMv3X/03f/7t2f+a7/9d13/fDH7v7zP7XG/G8uje9dl4fXqjItL8p0mjkfGATcTSWn7h33T7dubnH1yDvu3b7cusN3GRLz/aa3P6fnFnCzO6lQuNs+uv73wS5KCVLJVamjtgxjVIbBTAFah4tRCyZx2THqc0v6uTXCG5cUzaiSUYmoN6TqQqVNGswClriSG+2MCoVZ5vUK3HMNl1R0JdeWfnK8NmPWV+jIvBmtXEjtniO0YsMLYHVJvRhadGUyenkH0q/SqTyd3rIEFeMsxpGyhVVnWdb7+v3+XZ/7JW80pDzRiFGr2YpmHU52RrNP/doh9ZvQ1tjp7GhOoF+0ihhZmLJ0QL3xjRfOYrBDBNsrU4esPQPaKoOVoHfomN16W/+w/6DH0vZDXqqzWlmfPCUzJi+Qch7SjZOxIqoPa4tCVDm+R+R5jR2T9vpO2rMkq+OQh3u5euAhXsTm3qgtzL4PtU2ZGBwvSKJp+VG+JaY3ejTNrYT2+kOU7pvp89XQtXmm/N2wZfq9I6r8kGzyqYemrHL1js/q6Ch3CKDZoyvA0e8aUHZoaO8wVa+9S5xeb5mkFlIOyZOkVFlm5/fgx6/wn6zE9DtW+iFp6lfP0jZwVTjkpCLeov6pu7909y98479190Pf9a/fvfqPftPdz/6Ta55/fGn9E+tS+mPLB0p/aEE2JjODfkVf7lJu4x7rNOZGVILJ9PJq2VEve0tK1b0I9vYU1OlxWziFyTjG95f8L6/E1F/1X453RzPPXIxkIHHt2DZAhsVbI3E3sBiL62eWxmdXvF6/pGnycO5KRCWmcva4EIhr74Wa6Rq1A8xYGVrpeD92sKqdkF46IJzptivqn0eNQedYAlZarN5y9RMHj3A/ifRTR0kp78RW367T3dPqYlt8WTv3tzJLeZNn5Cx7dbV6V3d8Kk/vibaUcnxv14+Fc6UrR7t81s9gPNiTA/WJ2Qb1bw5IPuec7fnSiYH2clGcERVN5fZJbcphb1eujts3VsTXqj3/HLXu9kE/DMY9+PMHQbo9DaVeZO2Z6S3v8xjU8yZMyyCv6AHK29roGe9eA691jpz/gc4cGR0jHTStnZ7kzS6D9CdNWWWY/dofZ+POtqmDjtQ0T6bXh7e3xPRGX7c0H9wz6qF7p+lFdtQ+9absrP+uu+vPenxv+8pjZkJbR4kDQ695JDpA8A6UMrpSjz6DpSwZLavzByW/sq6Iz19SDekFeP/l2nCNdMV0QboqJLB/Ys35z939xbv/zgf/t3c//K3/+t23vfLLd7/+xz9599kfWnP8wNL8gaX5/auX7KzEVB4j6y1BnW9QDZyLXMl82VGfQOhb8CWnZJJRHylI3scL9EXCVniM+6El+MC68J508fGq2OIoT3XokJauueyUXWImEEvGfXZpf3q58eolReMeN7kLXA/kXC7hn7M+RGbNErwLclqUTD1oZ2HXdF5Up48bc9ZLXA99aZ9FYrmfKCSeyjiQ8TyvJBkgAZkJBm/PSJxB3Fv8rGcRUiYTd2Ubw3i+ZfZLS+u1Sy9+oL1sVNoTzTrre1s0defusHYPrV/ts3/lYLzGxEUqGUwdZXr7ONnA18lRscB3tE+076ht7gto/0Cy422ptWY9tO4lm+rtjU6W9klteTk95BlLo8pTRidLWN5TgGe5+uxT5Ip60UXHvxGFWj9U+SEZNMpjafbLoqwqmu2JnWd10cK1NaZ6Yyfb6fnoqtFG9Xzp9sdPN3oc2SRtlLeDV367yTERNc+cr/Yp28tvhepn/MabY4bmn3qVUeX0HG9o6nXkBfIw61N314HjIJhHT8fTfhSBw1wvffB0XQIdKDs5pCVTZnWxS1R/c10J9wmVl5ySp/5ivM9FyiFdJ10j++j8MuIvLvgTox9bo/7o3Z+7+//d/fDdL/krp9dXdvraGvFLa5QvrkvpS8vOz69RZD9yZGb3qo6ZBYYrgNS7Z4588EC/1i9ZRXIkyW9OqMu4S44587LBWC2bLR5QRtwrWMk7HW3pmfT4SMRLS+8blmGSeQm7WBY/U0pI5ebKzJCucfdshc5IbGciMFMzvASS67WVgO46ydVBe+W8xpPRf/VicW9BBZWn6r015R2ZZJVOiavdwlNJR9floNb3OeIhT4q1+Ff3R1B2F95PIz6Kgn9yPQGvXmY02/4DFStYAMraSoeS4fMpYt5xLR/y0JbcTW898bP2SbWlB+YrJHOexq2OmmPO1Xliv0xMmR0f7IO4qIe9bj+0d6zI3Eeg/MYlkh4qULYHlO0D+ye0OuRWQBmKPvDKKlQXlQ4EHCnzCGehPcIa+8ShYH90QNjJOG+yXh8yPA/z+IiUH8dYAllVrCvXjqYsvZ2mjCfp8eKMyMObpdkPn5GDokduH7RHDq97IvDb95je6JHUJpn8THaNV0Z7/e2kxp5zXKujs7a3SnMs6GgL6Ex+TTblOKApm23X5MoOgFmHgxxTDgR8Hs5wHBIH4dodIunhKJ3I6B09HcyfWzN8ao14JFTlcSC56oWmZFVdmc680M3SoTyJT64CaZ0/rZKs+tOqn1wp2k/d/cN3P3v3/Xe/dUndjPz0/eIb37JMXBeXpPXV5ccX1uhyEoN018xbsrtGTuITCXR9ZNZ9JAzuPRmhv8pX5lAy08oSZTH+cYHLBFnchWYSl50kyMAmkIhqo+f17C+tGHxmXcGvX4YUR974lX1vnckl++Rd08ybF9Q1ak+UPHSFzrpEQVhKMGfiUKjokuN0aifjTX0bn6yxj1/hl3RKNkpI2zU8lJyW7ZNJNEpO25ewqE2PONgGEpBLmdB6iHfWqYN1sAb+Ol/8rY01ahN8au3N46t/Sn/ar6wgB5aQ4ekqmz5r49pKmZiIp6ee2ZXPaOogvLW9uLxo9k92Ruk13pzbmJ0neGcMbu07AXAoTWtf4NrJ07cP2l/K5O2T+igff41v/b09xyWhJZ3K7X4c6NNtBURUpEHkWwUetml2r/I0az2XHRg8w+0PUGcpT5TzPjlvpue+4fj1Z+vMiqyZZXyWa4fHEi/aD5Wr8w61vqAcTd3K1R9DdNsPrX3ez6fl9qv8G70rNDf3u0Vnc76Zh+it0v6w7nbsNjxk07W2XW4O6JDqAHPsznrlbDq4IwIcER3IwUx6NQMZPUeKAxYP1bW75F32DuJPrTk/vY6d15+915BO4OqlFr0d7aowczN2PUA0fXCkGUu64luh/sTCn1pz/tm7n7n7c3f/xd2fufu/333i7t9b6em/s+b7D+9eevKf3X3u5b9+9/qHfnrdUysB+cZl+3esWb/tKdxd7gzudBt277iL+mSC/MQdwwDgBGcEWZ1xwueu5NxLKnlmYOCVicRK3EzkQuut6ZGYfmBN+PEVCT66ciWkvSmVqql7lyh1K65iWZxeRKwq1lbwuDAOtLrKrKwdtBUmvH70IXn90qUjdOlqPz65yXrB4xUvcEFV1iZRxS0SkAsuHfG1e5bXPSScyrk2kKBc4H8sgITKFI3TGkED5cXxd/q++h/pGfWcheqRHmSgXzpmTAazfA2Ns8+XLN7Y4Wwserj29PHdrkmFubb64zP0otreqN4+aE+AvVAd16d+Bze6/eGhwllnpyuDvWB/2A+gXoKqvWjgRYi1eY/w3TN6Z56xyu6dnmRxVpPn9YQxmkf7vRXNOGeuvre/WczxigK01jM6MHXrX1tnTG21T47ieTs9R/Mzp7fE9EY3egdoPnA77W0P6aIe8A6CQNYBUjIXtHUoTNSvMfHniTQtfGo4XMGBGi/9cDBLM3CQYEmovrhs+8LlepBC9C5DvdSidx2uD7bnC2KB+BzH1TEjXtmRX/xw1upvXPNIYfw23V/5f2LhTyytH14J35+8+7t3P3T3IyuR+0srl/y/Lit/dKWCP7c6//1lzBrlW1eG+dFlkUmEwoS53L1DlrFyI9kilGFzqnuSQTj9S0fWFi8DS0TFq1/ZK/uVvvrvrG6/dvdta3JvQiWjktDgbWkfq/Wilil8v0wVmRIVTLQtfk0ztrN8ljDUFrTVh2ftDiDTD2prtyi/eglku8HumDtFUHs7hpMLqgAXaDr7nl2UvzloPRG1JwQsR1mOHxYdHfIu60E77i/1/aOxhwUNHZmiJwnhQKatcnx/duNnmH33/jibyJXTCWeytnJtxmn+h6jwokIMRbMyiCJZUE/vrA2vfcrvHypRZzEeyHmD82Q+gNPj6S2uD8yoQvUizyOWINblYZGqLX1ojKKqD27eiOz+K6Qe4mHWlUOezbLZJ99BHma9qFzTn3Oku/dRTp+tk/SP+szpLTG90TtCttfk0V5/J+l4zO9pfyDeDcqGiWv0UNuk/SCqjuYclfc6wh2lUfJDWgupa0C6sV8NQd0FXbpy8Ccr3fjg4i+tdleC1KF8rTSDrDQEOsgcXq4XPimzQjnL1LMsWZZNHXVkDGMb0zxyR28ZJazexX3T0vz+u19ec/yVZetfXqngZ1Zgf3tleCvV++41y6vLWr9JZlx3nMDLAOVIBjkGOrjciYN492FyxlwsEyvJu+QUZiLqNSz8wrLp11eMfmt1f+Nir8RU8ikh7Vf3vpSAP/2yG5h6CQIqKNBGQbO8qJgVVxaS4UAuidSmnKzYq2uzA9oN9Omo46XijVV/ad7rl93Qjy4lpgW1AFpBnJ7ACjRv8XbNAsMzFM8x8ktwFl0eHvqEIWUWqevkNTkZXbw1M8CXlpY/iDp+uYx6Li/DP4Uysvyhdnsz/fZ/bVM+22HK0kP1m3ND414D3WtUGz3jNO6kPYoiR6+IkuP2Ba4dpUtWmQ5qBZ5v57G1FjkPGJBVtxL2BwvbI6Bc5Gb06gvKO03PII9wsBeMS2an04mUixiq/6zrB0cbbcS6QDton/JdRzma7fqFZBPX2hs3qi5SdJXrk+ezT+Wz8epfHXmWbonpjd40tfkeojba3HDvBs0H471G07azGJJlt7KHGJE95A/dxos7+lBte3tj7mNrP7742UHZFdIB7CjCyVin7MowAl3/3J6/qf7S0nztuZSh60K59CJ0tRgRN9q8rCdNf7JsctagyrWxLkuRcc0hr/TGUbJ6/J2SN5c/svT/s5U2/thSXL2+cx2f37W0v3NZ/9E1AiPlSe4+nWWFskUgz6HeonKSHn4xwOXVr+hhviH1eUafbfyFdWj/5ur+yUvy6e+pelvqm7HAW1JJqWm18YVJprhMU5AKxrG4z2NQ8YISySAqsw696YSZgII63njWwPVNl7ydpXzIrIhkox3DG8GzW+wcAU3OS3r0XW3kdKzocur1BYMzqC06DYH8f7bB6jB3FsvIJKbkrOVFugYg/+L6/+uXobTgwDJWNk1pD2gL2p9a/qxfZZw+qg0aI51o9oN0GjOQBZQeqj2+21sdpTdJ5NDcfi1DzyFKBukp63fWVvtrFwusfYmm6NkDZB4y7WCfkAd7iD6rofLOWTARKeetMitZRdaTYI+E+vM6z8+8So/8iF4WhrkmCAcWVw4IT3/HGSXH9UPGnmjd8fZydX0qVw9zXl4WMcTbvI9uiemN3hLNTfxm6a30eSdot+PdtMtDOGMIPdihh3/Kzh501EN9xgPa+T5vB01zHHr+3wHs4O2Q7RD2dvSLq9+rz1IDcEW4CjrAuiJKMVwf1emQ1Tdbpo/39hzEmg61jveOfPJ59B9WHrJ5RXR9qNMzLzsked+1Wr7t7qeX7C/f/e7dz6ygrMTxY8vn716evLKs/P1Lu7/RkSuBl3uSUcmpRNTnCLQrk3/QLMXu+BX98WFVf67l32j377L/7PL159dQv7jwhUvyKe/1a/rvX5Cg9k/+S04NbTpTi91l7WZQ4LjrjiC26JWfUrGlWlyLpRg1jLKks5jRKa68oqNce/V0cXVl+hLeoy76doVA2S0lou0SCer01A6xy0C9RIVzi0wMiDMBten5j1+oDtPS6jrilatHBvrykhwywwMLe6Z2DulVjtPB51LhYcorN2aRAWWys7knpry+sx3m3JMKKb6Hu4hWFx2RTV5ElcnTqW3qxe2/1y8W2h+dMp0mHrbq7SF7gqz9AXmZp0WwaKKimyyd9GB6yoPQE7Mjvd2zxrjnxXryymGv74imbB8PeFQk5pM15VMfGp/Fj6FdL28RDo2J3xLTG71pmhvqGl3TeajP20nmCWf0btk17QiRB/CxQLOMGmvyOcdZ3aGCHDYOh33sefggBxN5/PhicQdnuD/QHGYdZMrVXQtAp6sCtJd+qOvXWHj2ZBt71XE0eX4qV+86KFEir+566C3ffXJ0AGXrl5bWZ1aC+rG7H737/CWR/OVl7G+uO3DN8Mq6/L57XUL+WOobloX+HN6dKFuUqMpwvYb9ljXrh1xW/pjJ29H+8r6vIlqJ791PLfy1FYufW9fr318J6RuXpNTbUImoN6OG9ca0f0dAimYaKZt4vcQ5DuS4csFAF6WnKKhPSTH/xWIOVfx40PvC5IanJ8msP7360qcn1uq9SS0pVYbjF+G9bla2KyQXAspDWb5yielMPNpldtTypI3AqXxF+R6Kx4UK1PQ6q5VZzFIyb7t5pn6v+2Tx9j+rTKuOT5BlHkxzeFZ9b5v1sMtmvfLkbwXXqDCjynFREUn1ykVKGZTp1oari3SRL+LtLx8OOvZKJ4f9YH+0F5JXLmkNrVCRViarvHt8FoGszgOW5jnZsaOPOutR+kEd9C0yx1h+Y5U1+Fy7yrUlC9Ob6aly8uqznG7jnHlNxkKUnj7k9Z+2NY56UE8OooQj3Phkt8T0Rm+a5ka6Rtd0HtP3q6E5rvK1+dGZDWd9vpbEFg8qiqMpe6hd/w6QDg+HUQdFh0SU//WZ/TrAdnS4uQaqQ9cASBmM4ZrYE1JID7ILJvGJbY5xXF25w1IdjuP9gKPfNUGmXDoxuUuviw+f/rv2/JW/X/F/292PL7v/0zXu/2fp/ehS/JXlzEowv3klKr9/jfbtq+cry4LvWqN+5xrp44t/aF1ML/lVsDejv/QUEtEfW/ClVn9n4a+vcf/WSr1+e+Wxr10SUm9Hv2fhexckp96YzgTVVSwpFU9vSC9vSbvvuvs4DTkUBJlskFgZQvfQcMkbrngWX1AmT7++ZD5Jq65Mr7bGOpKNdg3MJKOyXWM1JKR01O0g5XYQvhybC6hcPb7jQqxhOco7dbw2u0M6Ldmwc/KaR4eHPDENbRxNPtsCE9r76pk9TZz1vQzoTKf28GZo7zuBihYe0ORFrnLrHoou3j4C+urtFVz0j68VsuaiZQ/gIqbc/ml/QHuncqeLcWa0Zv2M8gpNz6YnLE3PeOTmQ+Tp53X6ygj3b+jD89btHO3yvQxFp/0lMkVgRuIh7OM1Zpj1yukmn+3GRI0fFSF0+x7TGz2K2iRz8zzEK6Mz+Wx/t6g5OwbQtMlx4UFJdk3/Gs1+Qd8z+WMp/TlO5TMOPezKDghtCJ/6KFmXwST14hGPlOfY2h16uAPIFQBoJqy95wJlCRZOt3ca9VXuOqGvbOyuHWRcdiBzQ8S27MOP1OH5C89lN5PT3oVpl1BJQ8i968R9EtQv4b3nfH1Z+JmVSn727ofWWN5jstQv2FknZTQrbRbyYCWyl2T055edvq3gN+8+vmQfXr2lXBLPywvWBcmnd4RG8mt7yWl/f1Vy/6E1/BMLFxhtcVFcwLolChY+iKru/DNEsZF+KReb0jEyXGyKoTIZHVAHKbmYF8f+3Csd3L9jdf8r/D6YKwrzMxG877MTc+e0Y9QvafrCU2oDcDAnNYtBG/WyeTSWNudlO8F3gvVZYKvuBwzweeC+ecKbdLp/b4X2+EiL1W4/26+4sJNrB2tYvT2tTI9pE3Pppjx3qle+uPWUB8TTwgI7Fb3ZP5r9oG1X2V4wPj7RnoLWXLRx7e0vONOpDsefBlnn9kBv2ZWDp8n+EVH7Jbk+Im2MGcnKRXn3dI8aK7Muz5wQ9oD9YF+001lvL9FpT5Hh9TcW74vW8eddgWWtYfXd6mR08PbF7KOM4ryalBxp2+vG5D3a21DRmXXl5NXnvuB5ssPzA7fE9EaPojbJGX+o7Rqv/F6h3bbq+0M3287Kj8VjKL0e7vmQ77KHiM6Osz4vGmfSPKQqdxh2GbsukINRWZurwbXS5d0Vk76+eJf5vKzJzaHeXJVfROxz9PPdYegidRC6GtSVtavj2l0jHZyukS5ihBvTIeqakX66kvwL9r+7LP3i8uxLy7rXl9YXFv+G1fLSkr6+Rvqm1SLV4qPrUkLaX9SLh1TMG1JtXbuXj6gu8NeJ/RVvSNUZxdhIgLqVDKIOI2ANA7o35LwqxYT/2sjVgd8w5a5jXEKqP9DBtYmpeuMrf/ZipNUuqRAd8FkIkZFk4NJzjrRr6IqIuv5kw0HOITEpNmTF4dltraEoAA9YGko2JKB9LliSWluwCz59WXXWAMvawzvIa+MVLhLWuWXbQc7kF7X3fEwO3C8M8cI09ZQBpTP1lQtp5R1Fsy0K9lF7qf3RXmgPKeM7jmeQl611CWfoh5v2RvuptlaDZyK1R7F6Xk5M7/OIxZBX9oOdD3Y2q/GQXk8JWZFpvINn3bRw1s/KrRnZzsG64m83zSi9CO2NIoiHWb8lpjd6FLVJ2mDoMfxFOu81yuaAdtkEOpNPONKQgwGpOzAm0Yv2vnt55w8RnfQcCGxQR4/pf0bz8mo83Fgu1S5cly3CO0RdGa4VeuRd3iVdXdJd2HF9yc3T1QLasuch4rtjH7n45uGoHu9qqA70ihU0n/nVtdHvmvKvT6lLpX5+wedCyaVa7NWmLOlE/PeZUbHp1/PFhN8lOZfLh+EGMCnDDMwY9RaiYOhgkIDGxmN7F0HDgnK+73Cd1t71WtLAFFctuXr6OLmy9K22rmrvju+9742oP/kSJVEE740lFyIoOsqiYleAPuQjAByMik+yNtAlHu2GVpBVkgyeeBPG8pKO3pri2nnkc8P0JK2fWd4c/xoUi4DFwNrKQAfIRUC5pep5CSUeU76Xa8+tIjHLUaEoLMaY+hGd9CqjZKKl3B4iO9tToX2gn3r7Qx1PR11b+uH4JXfJpuji9o09oFwyKqr20kxQ51NV1M6imKfT6wneZS0O7Xpv2O0V5TygVzuQQWPkPShLTN94Zt1Eltor6qydcnWovHO4Rq0/oPhOZxEJIoZmfbZDewNvv4gCXvn2GdMbvWm6tmHP6EWb/L1OHqQzeuihRR0CHQoTyWo31ovGm3acyV5E0445PzL3Y8fSx0HY5akv3uHowtVWcknehTsv3vqDsr7KxUMdrz7JYaYdd8Blv3pQnzJHPl0yR/+8ROch2Xh4lD0w7S+56Ir0fg/8Uv8HF7wJ/ccXvP38vqfwmVG/7PcvU/kuUp8Z/eNPy/q6YqVjXbHG/egy+gPLoCfuOcYzVtkJniOIcwWtwM4bTBssqsv0e8aiODVN16c2UC5+YjvllfVJR5meOp1A9sbFSElDHksiRNcuKslQp2MVcqodhSd/6iCevxPiMDfVhRcBQCw+0qAjEurKpUxkEowiw4sSkft/WhKx0hTtH1OzuOVJPpGJ15AbjYsnS46ST0TK6U9MnUln+ohcNADhIhXm9mxvQeWiTqcoF1UgK+Lqx58FtV96CtsDob2Tnj7pFeEZaWVUHeXRGU1rA+uO9X/+iZgegojNqAVt9F5drf7d/HtrQmud5Wdr0uizHU1ZlAzsR+NO1Fa/2Rc9FKGITv3S52leg3rUPOa80Y3eFLXB3grtm/u9Si+ys4dqkj5nD/WOmSdco8amA/sYL0JjZ9NsM3/okqSzzzPrletTP0d/5SkzXuPis4waEylP6ggXg451R7yjX7kLK1nJ07wKapt6ybsC4ubpcMwmfPoD0qP8BVceeC/jfR74QylJqWTzB57yH174Jxcko/71qX90QfJK1x84SVxLao3Rp+JcrR9cxj1xM08n1QsEYuxc5Bns5HSeOpe/xSIUEzB0wxe32jMDV0fptG9R62rayvSaP9wbLbqI0SJMrgfSKwuUm4kVjdrIJ5T/GROe6wdFhQ3omeKiBtDOvnSQMeh5X+rvqg8qTngj7zMBmtbXP5p1FsTP9HbZQ1Q4GnOn2nfs2wvmGOqTpl/pT5o2723q9T/ITO0LpDdr8CKtXH2OqO+cDamTTw9m+Yz2MTstGofFc39E2aV/0Zv0vKeTdqtRswHC55o0S7LaWQqdZa3lLt/HCsaZ/Br0pzP1ya6NC7Xd6EZvO509ROia/L1G086vhc0e4KiHuge6w+MMPdSz/zWiN/t2QJ3Vzw6va6CD2LAfbohOPiFHcTGOu3agS726MlnpSHXvKORrMwmoj5wuGZjDnNqUixXONpS97PeuBaRNlSWN/Oo9TH7P+Chrk7zSbwx1SS6erDGeEcNyMGJgE2SYzg3eRE2MOJGDiwzb0KFYiknxwcl6WzXb8VmepE4/ogPmYFbEpHu9HNObc+pmjDiRBXrhkOWtPt4OmP2fkmFHLO6p8fQJ02vUbi2wkQHptBjpPU9GYmHxCHritdHDjTrjuNd3yi288jtNbM+m3euidmaLthe1I2OeR3OSfWOUomb/6MWyIjxhf8z6Y6J6Rtrqi0N7ADzhPazmmbv/jOgg3+vw8MyTmhnpU8yg2a/BTqaTnnrYZfXZ5Tyt7Rpmf5hz1r7rvHjdb3Sjt0CPfbDeD3TNl6/Gx7fat8NnPtig/lbHNN4c6xrODpB5yMw2ZZRd82ju0KmOsr3juZRgpghd3LAnU+qlJensutD4SB3tBzueb/nsysEdxF0/2vsls/KMh3Ho+8W0XLF+9L0NxclxevW9xIFBOcZIdQ0NnkElpEDWgNUNWmAXNWxxLW7xWcabvvhNGd442k0TouaiS8f6iAs7ivlBDKUZaeUorocfLaRupclmmRZkUTq1PT/LdaIH9WnM6U3eGbvA0mGnnwis8AG/btayz16PLMziGff61XeOkTWzbZd9rajV69mOsqvnKnuj2sn3vsY8H1f8IxG7Ru2hGd2JZgB6WVO5+k7p79E3pjl74oOHkpzdPFEuGtPD+znn6G+FiidutmbtWJh8l1WmH850HovZH87GoFNZ+/PrfaMbvcP01Txs7yY9xs6Oo7dCL+r7mLE7fK5R7Y/BPBiuYeood+B00NSurmzcbJArkVXHAalH/AZHfHxeKV0jrhr1/YLH01UPydKHrgSUPcUidLXwqfKMAf3p/w5y4yrrWxwq11ZMnlEboIBQmGiCDIpPGQwyDJ/FIV55yqGY6VO8aq8840i/8VF6gW/J8vPe33qTzBVEfYYBKktx0zEink4zmi0Ye1KWApq6+u5U/wKaTqvZCuJ8OP5B33rts6M5o/YsSlcZFaM5xozfPnZjvRvE452ye29Lzra28CTya31RbQeJ//SyUZHy3Bd6HmtylGvfoa32a5hW7PqosaIeyLk/pnf6zfpho/+TZrXyY/CQfscBCyafyNLazs72a7oPofug8t6+gy6bb3Sjt516VHe6Jn+v0dfaTgfMW6UOonlozEPk7KCaSLbz0KExx1PeefrKs47idPfroKO9ox868rtueutU2+TSlt6ezjQnNOY1yuZp+wT5TDJDfs+1M9/cS5XNn7+nZLBumbNJJk/3ASqu0//qgQ75jFkxnvrKjaeMqtMvPazeuMyMmEt+T1qtWjOVaE6Q+wOkrMrS6so4TFlQz5rasjTZpOkl0G3nRjyh0wLo89Jz/s2WM9pjkf6kXWen+uBn/d8JKlpzXaPazmwpmvy51o7Oxj16FQk8rXohMtBObu/YK+rWKrly6zvXOfls28vVgReNj5vPXukHKO0e1odIX3hy0Wb9Q+cQ2QTZ2Q/Is33yXW/K9/a9vuue1XfsbZX5edbeqt7oRo+ms8Nkp8fovJ/pvejfPMx62Ge5+jWdXXamvx8Y6h2I+0/D9VGmJ2bKqHGSo7ijHDnau0L2KyGUVgAddVcDDq6I2bfyJPNOv5QfAh/mS8n8LD4Qdd2Ydy/vdjwjBhWsOTg06Zw8/Ss0583/4pYM1bZj7wPiiqZO8Z560yw6xYY996SlHyVA2ShWUltyaKZma7WVs6TZs4QMoqKRXjqTZj9lpGwegUe8M5ZFiI4dQHNfEvU5y1ksyMxGFqLGe5Hs3aZ8mvs+yq7aZkyUa5/yaI77/Nh6FfPWZqdGNoqTCZTJA8KNEewZerM+20F70L+9V3KqPmE/90PXHqVsgWM8saCF94jvj3712bbrBGPterMeZn0v77oTtZ/pnbXN8p5MV9+jdKMbXSWPzuRntOs8ps97ndi+2/92+rWP/2bHnAfPxNnB8JD8MYgcmh2gtRkXzhJUlC5SngewI9kVgJTjxUYbTuYKUN+vDHXXAO6KmAnq1MFnjPMlUs6nM+RjySkf8o0cGaM5Jm9ufuTntOUZGcCgBfAaduM3MnbzFrtilCw5FC8gx+mnO9vFtz7a0pv6+VaZrrbaDypaWYq09sapNr/KRyWx6vQaKUuAPp36Rs0cdh08C7XVztvqvhqKzdMbyI/j17FghvZHy0lDG0pPGz7blMnR1LfsaMqCPmi2Tf52UnNFfEXNVZ2e6CBtoI08rl35DKIMRyyKItofDiNVrq0nclJWZOm0qrXcrUjempOZLy+ysh+q6Ngz6p1Gyn0cZc7R2IcsD+Y5qpxXYdaLyi7fxzlr39uS4cZNtqO2bHsz0DeI/Fn5Rjd6FPUYP0Tp7Pz9SGyfOKO3w799fOUeUg/x3v5OUfPNQ+qhAys7k1dOnt3VHbsoGUqGHPHRLNNRP47t54/zWZ/y+sxxHqLsibI5vyvjkbLx8XxqvsnBVcW2a+Xpy2Nsr33HHKs4dE3WPpE8PWgssnxKH5G1zhEd9WKBlIuX/VH7jOmhW6KZFX5dL/lTx8HFzoL+VR0yur64XB2nU1sJAplkABrHuCWZxqxcBIAOaOcd8kctPRFkeaKOyA6vpaZmQnMk4HMxje9lhLOKXH+UDlKeQLXP+uSPJTZCHoa5pq3nTs1FHzXWtG3uh3jQ5mMyEh4//AV6R2+RDSLUmhq9tZ6gg9PR3/rONY/XbhzloB6mF+nhrM2D5HRYPcd6GL5oTO+AjAKosrZiCrM8gXa+09Sda2H92u0T7YWz8pRVn5g6Jcx4SM/8N7rR20bXNv9xqLy/aD6w7waJ0XxwJzyo2t/pOHYw7XNn0yzj2Tz7oFmeOiiO0tnJMY064nFrURlXV76GN0Nn+tmcb9d8zL+H9sq0NT/yxZWIJ9MezuyK5pg75thdua7f+uDNle6sI7LZp35IOZp9xAKiqT/XnVzMDtmcAamb2ahZUKKZNyUalXszVZIrQVXG1ZUDfeOQQ2OW6DQPRGzTZtdP4m3eIOXjK38aFdRnzKI9Xkh99qkMZ5QF5iuKcE3/RdSe33Fmaz5p38n8Z76h+u3tkb7G3M/C4xtig1GMIEKtuyi0rnTUteG11bfVqbzLph5+hjnumTfa9M+WbJxoLHT8EwLVzqi1MOIZZcW19p3oGxOK8x73MHV2XOtzhtJ45bN+2m50ozdFZ49f9FDb1xO9nX5ee0CvPbDmfifjbOxswq8dOOS1VZ52kTdWeuia/fMgdTCrwzy28Y75rpBQG7wZap5J6tnJ/mvgF1KmezZOMlcQ2+IPoX77eNFsmxyKgysQn1dgc9dGl6x3TlNWOXnzoOKy09TRd5J6cWoPHXvkbLSsMGKJxbzU9UnOOuXqvTENZ8kp6NeYItDY5DgqqsAm+u3k5JPu/WBhoxW/YqJMc++tD53k9Qnqsw0Zu/bmSjb1X0StQuBlZW0PkbnqP6m5d3lU+7Xxtevb+XEkpmZDvLSOotw64tqVZ1tQt9ZFy3hnUas9vutUNl7c+Nc8qR+a+tmk7Wg3An+LTdTIjfIimpbsYyHtYttzeAbtU6d1eAhnOg/Ns48PZDe60Vuia4/gQ/RW+rybxL4dUeWdo3QfA4T3QOJn6GE9Qzr72F8Nog6xfS7lDh1cn91ORG4Mde2VZ3s0D1nHdUSuHyh3rAf1M9ksP5aaYxIbszn/JxCerzjMcbIfkDZX0LzKup7m1UR/922n5ko/HvRvDtwcdKqnkw0w+6NZh3ysHKmLRbz4zAtmynFt/fru5UvPkghllrJOAiGp7I0oKPu1vX+f3r9Jrt4FT7c3pdCv7qFktTqkV1RmRPIWsScPoAj0NMydgn/gWZwasTVWb60qB7TL5hjxdFH6e79kyY1zjdg6vQt5VBTi0a4/9aqHIlbb7IMjnN6UVwb22C9HFKz7XMuJh9paCWXRUS9SMFepKBbBVgOvvfJsR7unIb1ALzr+8CnK7zTNEiWLzsq7Dtqtao3PymCH77v8reBsjMbe27LhRjd6UzQ3/pult9Ln3ab94YUemPngvBl0yIQ3Q40xbXiMHWd+TPlZOzqzj2zOqb73r17/6sdlcpD6pH0/zMMXVacH6l0DaMorI3NP3Ylkk0fZzNcz0j6BZrl+c8w5V+VQorFfh4FM29n1OfvN/rMN6tuVPHWmzFU95ft46sAHnDx/lMUgPaQMUXVoDHT84nuiXmkio5tlJpMslnCWnCYLZLOerDEaR39QT6e+U6ac3j4OsJdX2u6fF4QHnkwe9JzxKQqoehGqPpH8jMy1zxdQ5fmMR425c3PGdzviezkf0a6LszFSn23osCspwkHPepwBtX/mGrOIPNCtTb32qV+bsXDjTaSD721ht8O/kX/84VOJGs6rs+Rt6kwuPrtslo23y/Zya99+SRbSm/o7dp1dT73xd6R7oxu97dSx8X6maw9msrDXpxwaB3+rNG1p7Ml3+Rn2NofRWf997eYBkg4+/ZnjKKNpc6Ru3jPqiolcEXs9kDv2p6w6aiyYOpBstkXZfI2u+XRG2RNvPtS8tZ/50rXYNTivsfpMPTzd2R7MX7l59j7K5kHZke5Evui309wXEd09TunhTy4zI7yRzY5DbzxLQr01Ve8taW9Htc1Lv3LQ33hTBsmaL5AZw3y8Tj5tM8/02i+cj7df9on9fhYTVByL84y3tknJz4B2/b0escVanOFYi4dptptbvzMyf7rZUj2bz+bSRv9s3GPMvBYtQNZgXxfQwxrON+mhtW0N42fl5gIy+0h/nC10djQ2wqdtjVX91WXp8flSmGfp5JWnfNYfku3lqQcPrXt95hhhyiemTnolwOo9F7NPbXCjG73t9NAmfz8Sf3q45sOTbNbppl/57aJpx+Rhr0+ctV3Tn9ScoDznjmoPteHT/7P6pC4w5NiepN6VZI55NSnPvijdF2Hvlw9nRHf6h9QbY46lbPxpY3Xc9VYZdz1Nnf36ou8qjKc/xwDzHlfd82Okl9w4MOuV0wVUOWhH1aPd/0nX9A6aVk8PQU+XfG8rSzKqT/lMUPEz0DdudWX9my+QTUhOUe2igM/dwo/7pHQC7TEAsrk+UBtMqv1Femg+Z5PIQ3s9XOtzNn7EDjSjEOnXmOlN0n7WD6W/23R8JrmIodaw9cCNTN4PMO2RvVzfnoa93niV8foG45Gbc9oQp6OsfbaFYyXtkbkWkGzyiSk7a2+Na59lbemwLNrjPWmOFxp3x9SZunHo5ciUx290oxu9Cdofzvkw1fbQw/12kPGbc9qy46G2h5D9zQMOkX7iDcZHDrYpB3QWh4diMw9I5b3uCJ8X3HGkH9xxn/7UfRHmHOhF6zfbla/pswf2+aasa6myNlccXj10jVXWZ16dtYe93476gut46mo7sxH2eBc/shmHs5iIFf297fijFkllFqhnheSiZELbTAqSSUp5QS9oIwvGq6xdP+XGCDxLr/bG9LlWNtEzHo+ivDoioqa152R/LmgVRzwkP0Z5nuq3x/5FdKbHprCvx04vakdsNtZO5j6TR/qhazpf2Z9EBFqnuXZgxPmGtL3QGiYP9l17ozEan3zqNca+P2o3t37Tnsajg7M/GX1fLnb/tvQM7Z3K1+S7Tue19ZvtAWnbZS+ivU9jT8z2qRefertc+UY3ehSdHW47pXONf71RD/wkvl5DpN9j8CLyAMNZ32ttyR8Cn+jOn2j39spojv3QwSIG9B5DM2b4cYR/JTrqH6u/oz4ov6/ZP30+o2nHnOP+CrqvZ3dts+zaioPrsT6V8cZLn7w+6Sej70rtenWlkqU7+yg3rnrzTBk+/Z32I5wMVdaO0m/f3BMNLXqwrmSBnOUud3WQJGovsVDvrWnIy8bSH4eSlNrTKfm4Bolydu7ROGyzj9pLeD/UAaI5qXrxsMfwKU+2yyci5fZqQOlMXtsZNc/klc/IqhkzvdC6I+3th8mL4Bn0z+aDSOOVrR3NEsBjLe7Lc/+QBbMDqk97ZYf9ZZ/s8vZUe9F4c1+F9pfytON4YxrmfgFrRB4Pre3ejuuX3iyf6YP4TryI6MxxQv2nbGLOhSpP2cs/+Bee/IWn5Rvd6EFq0zxE6TzE306g+PuBstUDOv3Y8U5T87/Ijg6SDpOotqnr8KtcW4cqmmNF6UTa6otmGVWeY6Cpo0/X1cTUuUZ00jvTJ5s2GTdbyKYv6rWlVz+cDFXOxi7r0LU5ZROzvWt2lqvPa7ByvHH2dtQVWvsZr0wv3WQgZurmCbUro9cuNX8qRyIS+85ArNGzVZAUZKF6lmeBsWoP1XG6jTETDOWS3BKJmZxO7P2+uKw7Eg1fDM9S5dAzkQd4Mt4rw/GNBfd66Z7xa7K9DV3jZ6St9dm56KIZbahOb5e3Agif+kE/81YO9HD02rMSzbwTrbSjykXSqGY22hmQNW09gz648axx+sr2xtRtr5hrtuOznB2vn64/tGfOQD+d+k/Z1KtclMhm5Oqr/GaBzuRniGb9rI0tN7rRO0ZtMujheCtoDNg38vuB9jhMfybeTb/O5r+GadeZL5Ou9aG70+7vvFLQvKwmJd/blGfbxGPJGPt8UeNPmvqV04NZru46wtFsO66p+2tv4tp1mv7evo+r3XVY29SbNqYb330B65b9qPZ0diKblyfM5+DYU7QkgmYt2Yt7SzkTxf4FKNDmbSmQ4/TI/97CJxc+tWAs0F+7vvX53aecXty89BpLRMh2zCTDv97z+sWnszic0b3/z+Ox/aNd/832fyzNZ9Z6s3WnfX+gqaffQ6TvtXPyfq/MXdratF8qJ7fWs6090D44K1fXT7m+UFt7dY4N9bE32DrtfB79EOP5ONsHE8UE3+MzZdfGmX1mmX5IdoZr7Y/tP0F32jztgRvd6G2juTH3jfZmMTd7eL9QhzI/evjCLsvXrwWZd9qSPTufpF6b/srZXz1E5GGSMSaJW7GL1PeEJ1mIjN8YOx5D9Pa5Ju1jmW/q1z/ZrM/rqPq8quhWnm2zf7Kda5+yKZ9t4UwHshdPZ/dj6hTv2iAi36l9od/cJ8mOi3x/Y0VWwoCT7QlECWlJ6e8sSC4lpUCfTKLqO1DJJKP0lSWe9EuAqzc3mENEskvy8XxSqtznBQ9/7mnGJkqvGHge9mdi0llM93mia/K3m/jF9p2aP5vP/EdnfaPOnwkySdz9TjbyvmdAu70wk8a93P5pjWfZmHTm2LM/0MfNpS1MXTr2CbrfJwc/foiZfu2+zhhU3/dM5VCSC2ftUDuqnPya7rWxIB10NsaO/JjjzvFvdKM3RXPzzQ340KZ9DBqrceH9SOwWixfFY/r5tfTV3NOueUjsdqU7fcvXEpUpq3+XF0zaxy/JiarDvJQfkh/H/fMgm3oPUfrXaB8nW9A+J167qyn7ZiqTXuXZ1liz/UXYdUud4iHdkJ0wbUhvtkM05crRLEcuzPZG+6H94tfeH7j0ylKXOl6yKVnQJmFUT1ZCKnEku5aUVqfbm9TacckoGKcyNBfoKyKSjux8PlL86TmYpD7jNvVmTM7iFu3Pi/pD+u8W8Ystu33Zhl+zs75npI+24lOMyO7fmu6JYDLrpb4jvTDfnoL2+lcO1hyf/YFue/YazMPm+/3Cl3394xPP+30ds2/P2lkfMkCznu6sJzuTh9qnDtrbdt/O/Ep2oxs9mtp0baKvFo0Vfz/TY+PSYQGT9vq7Sddsnzad6cyDRjvkXzJEdnbg1B7tF1j1XV4SBDMh2mU4PJbqD9dotjWHawY1X6gd7zqq7BrThnaZMq4e1Gfb5LXjrk7XYHKcrP7J6tPc+ER6UF9UH5hleu0B1D6YRI+s/TDhIj3e9JjZ5T8TBZe6JFFiqFy9NvAGFNLzZlSS2ZtRZQlodSiJbS4wVuPSaZ4gkcVnZMDb0i9f/OuZmMT3ZJMXMzF4ERkj0mfGH5Gd0ez3Zuihftkdor1c/SFunlmvjKoX03Do2CslftZE3bolmyD3JPSEhOrW3nrX31g7tOGNA7XVp3mmXmVt7Zvja8V2vybsCXzqXetDfqbXGJXJo1mO5hiPQWMGMjTHvjbmmZzs9sdPN3oU2SzvBN4OequH7ttJZ749BLTbfeZHD+o1oDMdhF/rjyqngz80H3IIhTPdfkqfbcjbMPKdyNOJ1Onu8mnfTmdj78S2nc7GQuZ5aMx9LONk21xHMtTFO9vj04a97UVEr7Qocv2pd/25EitrU4b64nCmN2WzXxzoznHpgr6gjOL6NJ4y2uP2+qVVlNPGaZFH6s2QnCXNDOoSlpIQspLPkgS8pFN7yWhcP1xCqi9Ohlc2xufWnnn1sqdDz0P1/qAJnzKcHOoTby9WvyZLPjHbROsarpG21uX59TnqoiWCE9paEUgHB5ReOrPcik8kQ8rZcvwRVDUeGyGPpne4aO0jhznOvocCPeMrzz3V3pl7qP2VbJb1uf8Bxvr3R0972bopz3Xe68km38vNExWZ9skZ0rkGFEf6oCnbqb5FOtrrjXWjG72vaG7khx6E9yudHRBT9hDodhidtTXWTm9mHnRNl3ynM9k1mlfEpK6PeJT+vF5mezTbJs6otn2uqPapg8/ymQy6gEMy19ku28fCz8bqKp19wxwX5nizXNuUocr4XoYX0dxXlSfsVXzuoeNX+i5z1vOuBEC5Sz9Z9QltvQHzRhR6eyqZnLLK5L1lDWSS0gnjTnxq2f+ZZfeXniUCJRhhTxhCsun7Q5hjVJ6ydIrnjHP4aql1t19Q9Yl9jwTz49PGieT4lCeL57/YPnm2s9vp1v5sT4D1emjfXIM+9oIyrr+57MeHoN8sZ+O9H9PPfH2R7EX1M4h7RH9Hemdt17BT8jnWGdWezl6/vTG90fuG9gfr/U7TH9TB/W7j2uGAlONkXRgoXdRYDtr6RnSOC+QryZuiXd5YjT2JXJy0zX7pagt7f/XaUDr7/NHsP3WUxSFqjH0s5WCuyqikT33atSeAAR3X2fNysh21GaO0TlmbujJKp7bauzrx5mhMZfp7vT7JayOf1HxTLxmqfOikUdREyqiRejPQQ1nBa2WJRIlB0KdkQ73y5BJQyQdOpySULC5BORKdD6wx7f0PP4XyRxZ6K2q/VPYs7LznSr9AxvNZj09M2Sy3t0AdL5L4xEO0r02rIrpA1vpPkO+y2Ref4+11lCz5LLO7OhweTpqe5Wmj72hUvD0SyGdSqQwlp3gy0H/KlPVVPsacf4kf1O2FWZ/l0D6Zstm2l/O89Z/1ZHvbNRmKP4bqd6zPPT1UVzb3jW70nqY27Zt5IN6P1EHxbuIsph0mtU8O0dQL6jul91iy3vvBhYxxrY1sv2Z2Sp5u/IzSC5PY0TwB4Xs/19as0yGDrrxZ39uCq27q1A9PhtdPHfSrri2byEC9/oEcZS+a+oBq1+cazYsR5h5qv+BdpCH5YZ2LvcseB8ljIN/r8w1nv5LvLai3orPem9HKvUntD6Max9i4ZPRISp+suT60IlBCgc+Es7JklY8zoag8/T5DsaMbJ2+cs3K8ODZGeCvU2u9o/Xf52X6ZlB27nTigfNnbqmsXx/udOCER3PfFrF+ThRJLa33WDtrM1b6c0Be3h3E2+hzy8QdyaPrDFzRlfNz9Tn5WnjLYYx7VjipfGyM9NMuPoeZvvGgfp3Umf+nu7u7/D6V7N52u88KiAAAAAElFTkSuQmCC;" vertex="1" parent="1">
          <mxGeometry x="120" y="120" width="678" height="109" as="geometry" />
        </mxCell>
        <mxCell id="n61FLX1z2W_WPuKx8NXm-6" value="" style="shape=image;verticalLabelPosition=bottom;labelBackgroundColor=default;verticalAlign=top;aspect=fixed;imageAspect=0;image=data:image/png,iVBORw0KGgoAAAANSUhEUgAAAr0AAABvCAYAAADhTXjVAAAAAXNSR0IArs4c6QAAAARnQU1BAACxjwv8YQUAAAAJcEhZcwAADsMAAA7DAcdvqGQAAIT0SURBVHhe7f1N0O1Zlt/13cyqrOrqF7VQY2Ro1EYgEMbG4VA4wg57ZoYYR9gDOxzBwC9tTwWKYOQJA5ijeQNBhI2xFQ47sC3AA3tgIyOMCSkQSK2m6Te11FS/VXV1ZdZLVqb/n+fkN++qXf//eXme5+Z9sur8On691l577b3XXvt//nvdk+feeudf/Pjdj1/dcccd3wcfij4Yq/xhwzuf8N2H1jH0I18gy0lzfGEjH1JfPo2ba9C/uJHvCjb++snQGoFe23xz/j28t9Gc16B1bzn3Dz+RH2383saZg3U+Puvc393I1thLMIcx5GcBcc242xvM/e3t7Ra0TvII1pgsHrw2h0+B9bDndT6bR+DX52EPPceXnuVrIX+dx5SPQeMhaR9TX9e6BeVl5ijeijnHJcx1Gncr7HWy/UdI/jBizWGEPdtT0PM78ztzvLYnnutzdccdn3v0QZkvq/UFTu7xXF/c87k0bu0/8r/Wb5LPY2Bc86evc9U3fW7F0Qvy3Mtz9q3sZUdewznuGuYPc+yU6bVXTP9rsTfPm8LeHqZem3wqbnlm1ufts0LP9mPWn7mb/Dxgfq5X/Slonuaacz8F89nENffP8bw257rWXOM51vk84anndoSZz3I923u2wH7HHT+ymC/YPXlkW3muL+75XBq39h/5X+s3+RiYN5ojueKadeaLaKIX1t7LKfvkxBwbs7Ue+SZojYm1L5mOK6bPS0SxtYdVb1/0zxo9bz2f4vgsMJ/1Pg94DcrXys8D1n1PPhZzrnXu2o/FzO98ViefA0dzr/xRwJvcp7nlunxPee4M9N1xx48ceoH2Uj0nJ9lm/y1c57iG14651e8xaGw03x6uXe/I3ouJXHHu5XX0sltt5/xm31E7vXGTgZ7/3pjsK+qP1+Aoj28KxbbuJzn1zxI9kz1zn2Vernnej1AOJz8vsNc159meguaYczcn/SnYy/fkc2D9PEy2xnOt9aOO8jxlnDlH0L7jjh8JzJdncurXyLi2r6Ext467dswtc88XQNDe841wZG++ozlm/4T23gvonH9j1hdZmP17zH/69bvg5lvn0J796dMn9hvkvf7sceYm0KfvNTDPZ4liO8cw9TeF+aythD37U3mEa/zWXOH6rOBzY8ZjzVvR+ClXfeVT0Pg51y1zrnu8lO/J54B59vJcDLDX/1jMPJ3DLTl8DrTf59zrHsr3ut5qe67zveOOF4deArMgTF9t10j8YcDeXrLZ6+SlPTcu7uGo/2iMdXthhV5YE73Akmvhukd+ey/HtW/6HNlmO9hPtj1OrH9Jb8Lcl1CejuaAeZaP4WPRHyRAfHu5O4dze5Lj4lvzvaJnbPpfaqfP/tWOK9Z+Y44w533TKN/OI/3a/E6GxpbzN7mHOfet+Vr9bx3/XChPk4+B2PfOJUI+53zLA34W+KzXg6Nca19699xxx+cKfbj6cE85P/TX9uMPO+b+2/PkNXjsi/wI67rm79IOXeDZe8llv5aNm+PnPHt9s50NZmGxxxVH9uY/BzlyZucwz7Ez3jvnbHt9j0G5mWfTXtvb3r7DuXWLa8Z8DvnnO/e4106f/as9rmCbY3DF3rg3jXK/5p88wt5e9vbzknFuf59X9OztnU3sXy7Z68vePPjDhnN7OvfeueOOF48+tOsHe2V++c4xsy/+KMA+y8FeTq6Fi+WxOdsbd3RRsc++2pMwL/iVfPbse8z3UiGL7WOvr9joE0f2YF39R+i8zvnAPNOYbfZNOflYzP2Vh/Taj8XcB3kJ6/6ulef02iuO5njbWPN/6RzEPDn3dMfbxXo2ncu59rRPZn8TeFPzPgWe+Tvu+Nxg/eCmX5Ir2WPtHyUc5QXLy7W45Ht0qd5iZ4thvbyBnL4r62/MpT441z/7wrTXV+G8ormO+s6h87qEebaP4WM/G+19j7OP/hj0nBbnOay+6zdhe+30SzRuxZwrnz2/zxrzmZznkH0P7WVvT3c8Dke5vhU9V3vns3L6rZw+z4nn2udzwvN+xx0vGusH9Brufbin7U18wD8vKAcr5WQP+p6C5l9xNK841pfl/M/kQHZxR7jmW9mVxjRujt+z7/Vj2IsL2eNEfeQK9jn3Hs6dWyj/e5yfiSNemv8c5t7tJb287O0b8ttD9mKbsR7BmNWffq497Xv65B5W33C0r88K5V0cybiH4r9l7y8B9rMX30uJ+Sjft6Jz6A9uR+z81ud571yfC88513Ph6J1zxx1vHfMDmL5y/SAnIZ+VP8rYy0eEZOjFzN4LshyvvpB97W+eOT4c+QbtLmcgI8w2zkt9zz779vweQ/OE1X6kh2wx5DdtMPO15q72JXuEPfvkUzH3lY72FvdwzdprrDifU5j6Jf897o2ZhOSK1TfuYeYGw2qb7Us8wurXGZwbUz4UV5PtaeYsXtN3CdO3ua4Zq39vP9PW/h/Dp2CNv/Y5XoO9cXuc53DEfJ+Cp+bpTeDofXPHHZ9LvMQP2ecVXngutWtfhmzTb8XR+Gzg/OZLSbtvCKH+6VMb86vdN7HRv5gw/SdXX9zz2+M6Jn3uxx7zZy9WmPaJ5gjlbuZvgr0840tH+97b+xGO9j4xc4DlpdzR1+Jtz5Z9b03xsueDj4W5cOYDe55W7vkesbmfAzN/kzNPt/RlP8LReo07N/YSjnJ+C58jr+3jaJ+TT9nvire17tuGc7vjjh8a/DB9OD9rlLu9l17sJbmCrf49vznHxGp3ibjoQxfTvFzWy2a9hCoU9gqGc0UvzvW0j4qOc5xjpt6ccWL2k4Fujom9PIaZz3N+t2DvvJ8LMycT1px5uAU9e3u5mKwYS374iR5XvxXTZ/Ja7OV15uMce672/I9sj83nivK7l2M5Ocr9uT7Ud4Rz4/Dc2GtQfta8XcvnyK89TO7tMz51vxPXrBfzvRbPGedzwXndccfnCi/xg/TDgl5qeO0Lb/Xd85t9ZMgeukAC//mSqj/belHB9ElHBe+lordiYhar13CNozWnHabPWsy25go284RyuOYY+JXTNbePxVz7TWDmZGJvfxPn4jJ25knBpajF734i9VWI7RWwbNnTQ/O3xso98J04ip8dZ16OuPecZlvnaN4jHPUd2Y/2X85u7YvncDSuWPCx2MvZynP9+uIlnPNpj+1n3evkU/a7h0vrYXFds/Y1ufis4azuuONF4ugDc+6D9BI/ZJ9HzBcb9rILqx5davVlW1+UCOtLtLObZ+gFda445JtPfmz5zD4Fb/oep3/6HH+OazG957PGasy6V2SfaBykr+cRmq/cHvldi87mTWPmBdrnzE9g27OH2V+RFddvc2tPn5VzDH3mo/zsjbsWezkWv1zIweSe7YjlszHJNXdHubzWbq/tYbI8XOpLn23yHKb/Ot8cuzfPng3Y7Q1nHifX/M/8RjjK3UQ+rQnptdvPJT43zDnzOVmuZ873kP9nhblW+ZvI1hndcceLw2M+MOuYz/JD97Zgj9jFvLKX014fzpfXXr6y1T/9FQHRXLMfyNZpnvWFxM5GukAm5guKT2NJfeuFs9q6lCpK17XDnDfs2Y6wrjsJ5kDtOW+2iXIX+JQ7KPdxr73HznqV6cbuoXj3UPxzL7VXfdpqB/pcv/64or1C8c99xfwm2Xtm81+f49le50TzTMx2+urTPmYOsOdmIl9y+q7taW/MEdZ4wlG819hXfVLe4sxdttUHp988A5zjw1xvxV6eeh/s5etS/q7FNfPMmGfs2VfO3Kx5ifns5XKy/mvQ2nO+2rNvT5+2lfquAb85z9zHyvxgb/5snoM77vihxXO9yF4a+oDvffhjL4peitf2s62w3lxzyjWWbL2IayPsncnROU17FxawVyys1EfWT/YtL+jPZx0z7Xu22jGwt8YaV5i2xuY7sbYn5HCuu+a+HGdfmQ99z2eFtZpzD/rFu+57T5+2OPeyYs49IZ41B+ueyHKCE/nU13M62+S07VH/hHnD1PfQ3mcucMXqcynH/GduoFhWe7jF3lxTrnvVnnma75ba0yaPa673+td1rkH5wL3nr5w9FnP/T50nnJun9bC8rJx5u+RHzrWPsK65ns2ks9uzx8besj4UwxrLyhnX3tzO/I47PlfYe5B/VNCHfb44JucHf71cVp+j/riXZ7YZQ/Okx9luDHihH807ZTA+zAtqXlrrZVbxyZdee/qg/rj2rbzG1xpHhe8cpw+mjR7mnsPs38tR+Sb58qkdtfeoL/91bphr76F9tOe5/6nPdrZ17tluDBv/CXFOX+25h7nvOJFvfZ7h2T6yrdQ/Yd4jrH0zJ+ntd0U5yH8dE9n57s1xFNsl+95ce+AvJ+feKZP8onZnR0bto/j2sOcrfrmBmaf0+FTcEue5nDbPJZ/JmbPJo7xOdh70a7C3bnM0z6qvtslpN+cltO4awznOeZ/jrO+4441i/SCcexlc+4L+PKEPdi+H9cWh3QUdeyGsPOezzjH9VrDps3bja8+xMezN1ZmRa/88Ty8rbVwL2QqBaePT+OlT/2TzHnFvDDZfyLe1IqQ3FlYfMMeK8rLXV47LPV9+R2fBPpmt/hV7Z7aifc39rTqKqxzF9kSuazU2X8h/9dW2j/kcr8/0BP8KrsalT9s6B+qbbbiUp/bOb/qylZ/22h5XzFzg3rj6muNormuxxhqmvT3Fmb/0lfWV43T5bJ7yWxumPsG2t9d86ys/e7wlV3zjY9C4ozn29riCTzmSv/SVs2/1M0fUN9vnkE9zznFz/vpX2yWa5xLmeteu8c6/+PG718x9xx2fOeaDmX5JwrTt2T8PmLH3Yc229j0Xevn28iddptbSbk3oJc1nonGNPdKRb/7vbVSkfumTdn3Z6T/2idSfnz6cY2Y7NMct4D/3fAQ+nVGY4+jf+UQCPy9oFzwbaudD9y8M5E9+eyP7Xn//GsFEPtba2wfbmg9t51L+gM0ZsIfGmpNf57nmfAX/GMpFEttLfmR9/KZvtnS+FVD1YXOJjz2f2XeE9ts+2+uUe/oezSO/fMh03Mvd3vg9P3uI7am8wLSR5Wf1r48e64Npm/ae5TnnHCNm9ols7Wfuce4Z2LKT8mZseasP6NnJ5ln1xu2BfY13D/nNnFzD/GHmafVbeeQDyYk920Q5g3KRjZxz7+UqG7kSzDHbUw/ZZl/6jAHoK2GV53Aveu94sZgP5tHDfSThXN9Lg9j26IPfRYLQS/K5MV80vfgCe+uHPf/ZxnnRAKmIqq0fFbGky8wc6ey182kO/XRyjmOjQ/Gwvyk4nynDPDMFKDi7/LJVMChsu9QUwJ1zfXuFrja/CtxgjemfBDkpL+UplKvyOduBvXw2Xn+5B/bWnLoY22PIJma0r3wi+/Rhq3CNjaHXxzbzJL7yUs7o7PSJ4tZHn89Ye03W1x8QtNlXNk/5SjaPfgRrT/uUoB/Y6NE+2pcc7PXFmTtsTJxzwJxj6jPHc0y2UKxgH2tf1Df3Kw9Qv7xBuch3jp0sj+nrfOxksU0dtGHa9qD/GpYnSI8wfaL2apt9yUtY9wbr3kGO2OQGsichPR8ol9N/5Yppm37mWvfEXqxkhOREc9d3L3rveLGYDyZ9bZ+TcK7vJaAXFZB7BPKal9lT0csheQn8cF4o2mS2ZHtxWfGp8NVfEcDWnHRFLgn1f/mhdRrXt7305qsdsplzYraLLdTHfkkHF/w8y6A97emz2CIrwhQOil2gs4M+dmQH42ZhzHcWJ/y0UazsU6I8zVyF7FHup5+xbDOvcz72I4h3L1/TLvbafNLrn3IlzL03H91cWHuucQ721nM095gsF9rlav4BLTYPn/yS05dfec2eLX1Fe7CnckbOfc++9j55ZMfmQJh+6Y2fa6XvwT6ab6L9tdcpo7xAuv4Iq++enGNWPgfa/x7LSfraH2HmdDKfzgHYL8H+zvnNPJg/feaMHrST6efyewnTxzzl4Rpc2v9DDPei946Xivlgpl8rYdqm/W2iWFbCarvmBfacaN2JXkDkjKeXHtklEvlmd6k3Z/3s9SUVrfny8VMGpINil++0paMiA8xTzOairzZYfWDtO8IcAy4chdQe5Ew/f+NQsUqWz/kN77c+kdr5IR9rkNlmoYsVwdZir7gOfIqDLO9h7knfysCvc6M3p3PIfgR+YsP2HLIj+1qcTl0fHaffHJdtbWO5a8w52F/Pmf1h+tzz1OW1P6DNceaqP9/6kC+W17n2tO/BPtpf+iXbzM0l8g/Tllx1BOtNGeznqA/mXtt7eegZk7PktPOd+WQn5xzNn21tA/0IYt6LOxibj1ykT8JR3+TMqfZe7uuD5B7s7Ra/clBuJstb5xBmP9SOK/ZsMO3nYoV1jiP/e9F7x4vFfDDTr5Vwru9tQQyTQK4vrMk3CfPPtenQCyS7l5c+9sjWxULynS9Bcr2EJvUhveKruWbRiwoIvhULWCEcQb+1gjHa2fbyqe/IHvRPv/To8llRn8ICpm+sH+mK2voUZo3p5w0K28Y5jwpdzD9oNy8kxY5yVr6M15Zr6Gzm+XQWoT7joXnZz0Ec7dG6xZUtO4qfnPYK1pkffrM/qS/ZXKts/SPYc/miT5luz3yyr89mLKfymZz2OT+UW2Avx3toL3tyzzZzWv4m85m5BbIxcy5tuYb89eMe7OOobw9y0v7lzVh6OZu6fiincfpk4wP1JYE+2xPtDe2V39yP9pqDfKdtto9s2tnm2Uw9v2D9oC/Yy2P8YObBuCiHxtaW37Da9nKpf0po3IwJ8tmzrzZY/e9F7x0vFvPBpK/tcxLO9b0tFIOXCT3CbE++CVi/GPZi2YOXlRcIGefLDfJhnxcLejFmx3nhg3F039pihQN8ZWNtPqgonmsBu7XsozXfJMoj7qFLKUx/fRVks3it8J3f9NIns1eQmCddTvQBO5t2dhLKI7CVL3p9k+W58WQ2Y8PUz0FcUVyzXX6S025P7cueoYKLbe55tsuvdnp+51BucO53yvTZlrP+4JYtu+fb878+0+mtWa6D9moL9mMvyfQ4+0h7v4bTF7JNsvX8JfOz3h7s46jvHIyTJ2PLUbmP5bCco3xnm+Nqx9rAZ2V91t+jPfOD9r9HIMvhUT/ql0/6zO2aZ/ISxNb853DJrz3KR77pK7PPvNLlGvIL6eQ1scK1vvei944Xi/lgpl+SMG17/W8TxbQSZruX2HOieWNtSJ7DvBx6WU146cz+Lh7UzjZ1FxF/ICsC5je9/BQJCl9z5cNGQt/sJPmBsVA71N7LcbZ1DOhjn+MqvPbmkleXUuDDn8R+rlDRxp9ExW3nxI9P3/jinINf/jBl603Yg1zJHx95ZutMSNRfmx7LAV1f47PXLg6g5wP8xLZe4mzFPe3p7PYqB+2NnNS3zklO39oxtIdgL8Buvz2TJLLJUXvLx/OZ1F8e2TzD2mS2Kc1hXLkKtVc7iNl+Mf2SrTys3OtrLL05Vt/yPsc2DifsFfb6Qvs8GjslXxLlUFse9yj3+U7qI40Hc5xjmHuc+1ltR9wbH/UhkOW13K4SGrcHe9QfzvkBX3udY1bol7eZl/RpX20kzLZ16a373LgXvXe8WMwHM/1aCef63hbEEIH00pntlY+Fsc099V5yRy+7I3QhhPliQv35rC8zdhdJ7OVGbxy66OMsbmdb8Ws8W2uxk11W2sW1Ql+Y+dnzPcI1eWxul1GgT5vigJ+23/NWLCjqZuGgHdmT+ZDmZW/d5oW55szZzEX5wx/fqK/zUSTknw2yNZ91IBu0tnjYtOVaW9zFmWxfqIha+9kqeOvPX39/QCgX9KS1jSmm5gUxFT/UFnM+9Njey1m+dGM9n6Tc0StyszUufc5Fb3x2MH/roP4gRn17Mn222395KX+T/LI3hi85/eU0W37ZkM04KAb70hfsB/TtYfYbS5aH8gO1y90e5Vx/uY5sxusXp3ZsLXZyBR99Eda9rD7IB9NX+8zf7ANy5nxPwhxjnzPvMPcz/ehrDkhIhumHzdmYcyz3CMZkKx5gtxfQlw5zX9MvaOO96L3jRaOH81oJ1/i8LYhhxrNHH3ISktdib570Oe9j0Atpgq0X1HxRTbDhvGDSyfQKA/Qtb7p5f2ojP0WDorexrU+f62vDGot2PuXCpXEN1twZdy6f8j0vF76tRa9N8lP0KtQUC2R2evb5jS/JTrYOWV/FHQZ6OZHvchjlm01fZ6DdOdCx/Gcrp5DM3j5wjaUctQft9PaM+eXb/vjMOdhIOShvjYutkbyEmbOg3fNGptdOykHPcdRH6qs/vTlqr7bmbn2kF589oZjLb+0psVyUF7mYOTqy1ybj9Fv7W28vnsfC+PYPMyfzbC5x5rd28875yu9sZzuCGC+Bz8xLOWZLn7bpP9t8suc/9VVeij3s7XvNAcLsg/rYpp2ezGf6znaY+h7s/ZJPuBe9d7xYzAcz/VoJ5/reNKy10gfaJUCHKeNT0Bxeakf6c8Oe0IVhDbp1enmxg3aXPnuXjSI2O1vf5vbzhnzo+sm+6e2CmnOu6/YiZA/1wd55NGZiL3/ldg/1zTHaijLI3iUkjoo0Poo2/vrpFbJTRmNaSx/ZXHP9dPsrX+WynCF7ffMPIuV8nld2NLZ8zDWg2NgCG9qjPqxoje238SSf8sLWeG367Kf7w4Rx8gHla85b/kJxstuX+djaXyh3nlHj7bfny7PKvxyy+wYdknIMfHDmXzu98aT1ynm6PusXY/tJTj1pT0gvj0gvJ+WyOeZzRZbDzo3Of7aba65Lh9kH+ifszZ7121v99puNXh7IbOVlj3JaP33Pts55DVeIsZjnPiH/ckKm1552bHxzlUt95pPPxmTXnmfT2BXGT7u9a7e3mQs6nGvnD9ln/14bVvuMKZ+wxmuP4cj3XvTe8aLRw3mthGt8ngNz3lWfBLIPZLbnxlyzl176m1q7l1Mwv5dPl8t8mYHLpMsdZ3HbJa+AqBhedcUC2QXFjtC69U2wwfoilBcXwTVwkV+bvy6eCWO75FuX3qWkSMtHQVFRR2pbf9q+uTE/8xmL2vlmt+9kkLdyTi93dLIzke/OiB07l/zI5m4tcA7psOrlyZ7EbD8VU9rZyle5qr98NE47P5xzIH32G1scaB2ceVrbYbX1/CX193yW0732zKd84+o/bWgN869ywr4m7SMZ11zMdrbsxpbrcprMZ8rYuuvasb7WyA/O7ZM+OfuxPJHOo7M5157Ut7K1WwOyrwztJ9neYO2Tg1WmI5BzXMwH55h1TmdyLezjaH/sMGV2EvbGruP27NMfknuwd/0knPOFe9F7x4vFfDDTr5Vwru+pMNckrLY9+3OhuXqxeVF4mc012Z+yZnMgaPdCoVtT32pDFwm7i7pxLhJ27CKnd9Hrd/GTiltUbPEh9ZH5W6dCwPxka4fiQRAL8Ke7tI+gP3+YuWj8xPQnZ25cOFPq6/Ih2X0jSaZXTCjkUPuDT2zi5qPwpbcen8nihRl7+aqYLY9kZ0PKOfkTG/Wzl+fORDtb+zenNcqBPenLh80+2gs/bF/86e0j3+x0OaE3ZvrzI63FXnvtt6a5oLlJ41C/vfCF4ibtxb75kXzlB/TLDchTvn3DO21oHH/kk60z6Ix8M2xu7VhbHKAN2vTsIMb2ZZ9YDmqnk+Ujv/mHipl/+cmXbKwxtVs3m5hJoLPzybe47SGyyZvc0I0r53TQT09GOc02dXk1955Ne+r1A1ug106Kj96+2g+ZTf/MDZBYnrF2EqbfnCu/lZ3HXAvsiQ2KF+yTzoZz38bAXt8l35XnfM+192AfK4E05kHei947XjLmQ3uNhGt8ngpzzXlXwpH9VjSuOXpxrTo+FnN8c5JTX180+a92LyYvMkx3oSRjbZdW0gVD/pGNLvsKq77hrc3H3Py7lEhzFk9rH0H8Lok9tOf2CFPfQ5fNCuOwy6q5a4shVkgo4ujZFBXkNzbqr8ggKxIbO+Xcw3pO5bocotwm5Tpd/tM7L2TTZp8XEna+Ymi/Mz/0uRf9WC7qw9kmZ99sr8UvGtv69bGRctTZtHa+0wav+9552Ou728j5jJ1spzbS5QfL1R579sstzucc98a0Dt1a6/mCvR3Z133O/Ub5YuuZmv10tuk7Wf47Z7JxjRHHXoxssBd7KMflYeZi2p6L67znYpso10C2Z/q07/mgfNW/p5PpzXvOD69FeyRjz9oe9cGRz7mxK2/xjfYPM38r70XvHS8W88FMv1bCub6nwlxz3l44UN9R+1bM8a2zZ7sW+TZ2zgnZHosuBPORLmlyvfi91LrAXfAu+i589K2Wv8BWwaWNdH7WISsAkqEX4RHmnsO8EGZ/+uo/sdevPfM72/PSt25FAv39T8hHwcGu7ZvdbAo83/zqq9irOJlFyjyLJMqXPMuZnJZ31PbtrnNJr/hyBuzGl3N20pnyK+9J64J4xE+2b+2KpPTa+sn6ygWdzLfCn2SvnW6c9YzLRz87G7149DmjD7folbUnaad2145JIxtt1Bc2z+9tXh89jPjyRnOWM6NJOZE/OWUrlyTK39SNRz4x2+T8zM7879mhyNt7bbK2Xclvdu1pK//6ovXq45u9OWY/fVJ81gZSW45Q1rNBfaS+ZGwMyk9t+SOn/7n+7NMHV+grdtC2Xza0P6gdz/lok/KF2slzfY1HyH/2PwVyg2Cf7T17LE/5sO356ct32shz8842aW970Nee70XvHS8W88FMv1XCnu2pMNckrLYIU78Vxq0vsj3bNZjjyHjtHPnk7yXq5RR6ufQy6mXmImGnd8mjAsvF3n/Srajl80c3skc2/RVl5iZxXlSPhfjkAtrfRHm6Bs0TXGxgvJw1v4uf5D+LB8XY1z7RK9oUEGz8tBXAycZgxUacZyJH6eW/PMqvPP/kRmdC8mGn8+kc6M5CP71z7aIiY/uzb9CmV/Sk49yrPu1ywqYvXcHfOG1/KDAXvf69dnLOXQyn2N7Z9HbW09Yu506N6qR9B6+v6M363W0mRfD3Pp3BSDNX2Jq9fLIhm5nkuvNhnz6di77soA3zc1CEJDtZ9J1NOaCXCzK9NlnOyitbuvnyqU3OuU+Zee0LxUHqp4N9gngjsPOd/fYW2Um50Sef2ejli8y21298ttWHBLpYwozdXurP3j6z4dxzfeV/+lozm3Y+ONvNRU5fujm0yyXbRG39+efbnvewnsHKS/1x9ZuYtvyKUb7tEYp3hX3fi9473jqOHsBp70Mc9MWQPm2wtp+Kuc4k7OnFnv1WGN9ce7xl/uY6khPavVT0Yy9UttUf+HvJe+l0MTQHmxcTOyqkKinYFVHz20VFr7bLn0T+jTGHyyn9OTHz8hgc5Ui7iym9ImDqCgXF2R9+ItlqZ6vIVQjz7xvMPVpLfkm5JuUOteWU/OmN8qnNH+Xf2cm/M+HnjIzl5xzlnx07czbj2ieklx/7orfnCnnt9iMnqG0smwKXnzxoJ/Pn2zxzrtr6ZtuY0/ezIi8Ddm6Xdtvu0M7mE2cHdmoWM/c9vR06LVF/dxuh+P340xnLb8Vrdqu3En2eh1VFxcY/abzISeTXOYgC5zNJn8wu0lO0r/PTrsjIzo+enL702sn01sDWTrIVi9ihfc09Zdvj7Ouk5CkdZx/OU8V1/F6/dS7BPpLpxgb7hnKBMzfpxtaPtaG5+UFjsfHpjcVr0B6TxV4OgDRfbb6dwZRT559t2ldfoIepPxb3oveOR2PvwclGrv2zPf2mhCP9pWDGPAnn2tluxXxRXeIKNi+K+sheiM1Lwuzb8zsH/a1DGgN0Fw7pcnZ5eJl5aVZoddn7KQO9cgMVWf3EgdTHd1745nhTsB+XxaX9T9jrRGPJcunyz14xoK+iTfsPNn79E10hUdHLTvfdYvbas/ibtIcuFDmkVwjIofyy/V0bxVXxpdAq54reP7bRHHR5129M59m56ONnTgzmnpcv3R6SilP7pyuAte2fraJX31r0VtRG9vLW2NrT3tiPHqK2S5HbSWSr3ORjN/SeOruwG/Yit7oI2c3ORtqRH0p89/vyip0DO7KZ0YrlFPnVn00/e/mmk9oIPWuzLTr5FDWJnUu5qb8zyG5H5LSnk+bJnq2c0/MNp/iKDljshDz1vpYntNfJcjRz4aRmH5afo/45fnL6fH80J6w7mJGX26kDfXJvTGcT5S59nht9yuaA2Sb3sMYPbNO+h3zifP4u8ZIvJKevM4Bs7XOicZB+L3rveDTmg5N+rQ1W/ajvpaHYijnCnj5fOo9BL6kjNr8XHeSffR1/Dr0s5xzNC2xeHtNnvoC1J/i6VObFMnUXtraL3DeGFbsudQUv+kttiizfQuqruGrsm4Y9lYO5P3srF9BLtZdwaHy+WL5QX8WAQqJCTOlE9r2hkklhSyp8SUWwb3orqfjRmydaQ1zWlrdiL1b5FUvFFim3pD9sOCs+P7MR6P1BpDMhnRU5z9ZZmxOhfMw8aCuK7IGcZWIFUkVTfvrbK8k+dbnSLq/sq/69LbqPPy1w7Urkte2kJ60nl5SxvSev2SvJta2k3Wmy/cGWiw+3WV+vPD8PFcTa6Ay0i6KI4swxndSmz2cOyvvMPdYm+YiyZ5JkI7NhO+xM+JTvzqJxjWkOPyE5fasORYrthAwzwqID/r6f/+jTEY2O5WHKfNJrz/5pT9c/20X/VNhReUe7lKN2m9w7s2zAJzl9Tvn+wXHXoD1OKQdAL0fmS+ZDRu1s6Y1Z/af+JnAveu94Enp45kP03LaXCPFNwmqLMPVb0dj5wrrGNvvSj1DfHBvX9voCnVjbvcS6JFzavShd5C4SVF7Mwlfx5BtEUmE1i9+KAuO+DxZfA5h4hjepPU/Yx60oTHN1IVUQVDSQfV+oeOtnDQpcBZ+i9/c/kfwqhpVVvh02nm5OBYjSwOZPazsF2Tu1wZnQ7UcxJoovbKN/Yhs5C1+5dy6KLef0X9joLJyb89HvjJwXuzY/81rROiCa+QxhBW4loz2QaI/tpTZ/ev6Vlvkaj/zmWGT/7kOEohV9O0J6O+YjA2ztAosaSKdo5grbdBSRFUmneJJ+OSzXZpcnK8gPWXFrddKKFb/1seXLLqdFSGL53sP8HNMR2omcod1EdtIYMh+0U7s0nmQjs2mf5Ix8Rgt9SMsv3aiemOxoxqJQ+J6KXzPadxLLxaTV61v7jbUiPZkfNlZE+jHM9owW2dOhth12Fkc87fL7fdPX8eYkoXZc7RO1SbHZa3p7CrWn5J/vJZbLI90ZWFuei6uxxQTJa3Eveu94NOaDk75ng3P9l2wvEeKbhD1bL5hpuxXrS2tl/avfbB/17Y3dA/vei3nvBTzRS4z08opeaC7xLo/KD9/mVob4T+lKD98uKq7oWInyKQqg23UPvUUL4NY35RvAzLvQXd8VCfQKXoVtUqGrbNL+vU9YUVzhq6Q6FcDvbfPLrEKOxLKO9NqSA1Yukgq372zp+mDz+Prm/Qfb+Xz4cAbOwnkpghW5zskKnVGywldf542OxP5Jx+ZSr4xZy8Xa2eSGLsLaFcHa5aBdTPmtbTcfPUTkScOKXXrRVmLGHh5SxPQevGj2VndadlMbK89Pp+PUfOPrX3moBCSxFVc7faWI18e7SD3mR496Ua+f63kWdOcxdbtMTp1PbbRTNvppvD9ktSuUYxBtkWJt2IsyvaiypZ++Q565iGuOOslruPoW4RH0H71Pw3wHkJOQrt9uyde7PMna6dNnT+q/hHzaI4lykL7XPuKt4+q/Fjf53oveOx6L+eCkP7ftpUJ8K4H0coG9/luxzhGtMXXItsrVZ/ZPfdrWvj3k40XaSzWGdC8x6IXm8qms6PpTIPm2UCGVxL/nEyqu8nl4yQnOTaCWEEC3q0V7C5IWUx24qUgBWLSgdtA+DJ37Acsi7E1xZtpDWEPB8Lowqyw6fbuLCl6sAFbw/s5G3+yykfjNbaMfPmSpsnNmFrMpl5yA7EsUKYl2rUgza7QS26nUfmeL5CtbVD+1Razg9YcSpSL9j2800yyE9VlR+iverNIxgSN0fB1jObAqKTeOWn7YlI6VkZWUJLI1fs5j7EcPEYjO/skirPAlywuJonWyWMnj1EQaK/Xm6kUtWqdZaV5J7rS+t0Xy+vv3cmSVckWKIjtbdjSOvQiLMl20kb1nuM9uuSfXXUV9nU0yPdrRnn76Z99ELKdFbUeimdGhyEiRF6mo0uOMIN2qpG99P36YPZaja7jmL9pBetHCqieLtOjXXWjDnj2Z3tl0XunJdexsZ0s+F9or0Gde9jj7Zx6TfcqyBe09CVO/Bvei945HowdnPkC32uBS/0uD2CLM9kqY+q0wbn2JxT37fLkhTL+1f7anvZdo7dWOvZTYs+l3BeW/opeZC8ULruvPVagcU3IozxRLypG/e6OC9+/9RPftr6vyYXI1hSpPNeOeEwAJvT0tVM3SQmxur0/ell2XYifFr6jU7uKznNJPfMoVUypd2E1pOuMsY1oFnj5tvmx8mg/I+cLm78qOSiVrKniVnKTtfvUTVvAqQ/UpqX5/W+3jh0zK3n9xo2z640Lfm//9G0Ukm6KrCBENaWWQTBHYlR3LyO9u/K2NVv7PN54K4C9s9q9s0oqtbEVnaFUURWWl1eWis5/5kHMR9ByJwDGzVdimR/t2FmT9xsyxtX2velq1PwjMyNhErxh20nzJHiCnByJ1WqK0shWS6VbEdKs7TRJF/trnnW1cz0p5QXlCfVOP2WZfz9jUy7GoV7B57sn6+xyQIpyfj2ins53NuLLBpn2KZu5KZPQ+kD4JyE+0dHbPYZGJAGe7FVq99sm3WcxINrsIykv9q28y5j/792Ae0J8+IbKJ+e5sZ9jOIcknu13mOykDfEjtxsz59+LiM7HuI8Lsg9k/uY494iU/mHK1O4/a7YNE+4Xs96L3jkdhPjTp19rg2jEvDWKbca6EI/utmON9cGd7z9YLbdqyr/KcXnu+LHth1qYnofFJOF12J7/1hQRedF2DLnvlhWJJGVKBq+D9+zb+7EYlnEKK/0OV99sb1RG9/S3iNvukVvlwq2O+vfEb2xvx/c32B9uCX3vnC1th+Mc3/sxWyv30Vih9ZZvixzb53sN3bt/aonLJf7D9/482frxN7t9a/XDjH9tav7PZfubVX93G/+nN/p1N/9423n/6f3+b4Vvb0t/Z+PFDCaUAVGbaS+WUlzO7fdqH8kq4cqFPruRI0YBKI4Wtrfbt7t/Z+Lc/sWkrQ5Wg72+b/vhhNRnzfSvSZVH2RFMGXf8yLWmisLqVuyqxgk3Rq1Cr+FX0ikAkld//+TbTb22Z/Ma2z48f9opW6ywrMUVhxY5KJFaWA6iEEQFpVbaKXLoCV2SOn0QRVgDPspK/Ob7zafY9aaLolETC1hMoKpF2Qvor2pwQ9CSLsJX2Cl62GZ1ItEnj8j+ViyK0ihWToiFjp0fyZ9NOVkD0TJHZRN1nEbTtqM+ydnknKyNRH9n5iDo/tmmnm/M728qnv65XhPOPPElRnoMVZlSxT0v2dtHq6X6e89EP5EL7EvOf7XJcu3yuuZ0oYj6x82CH9HaVf2PrI+1YX23IZ46tf52PvBbijO135czD9DmyTx7Z43PjXvTe8STMhyf9Whtc6t/Dpf43CWvvEc7Zb8Wco5fUEdeX2Z7tSM4XbJx2cvrUnv5ewNm6fuZLGbzY0sGFAV5qLnVUXlQQ+s/llW1/YqPvJ39uo/LtC27VX9r4tzaadBv0va3jq9ug3/rKP/Xqr37hv/3qV97/6Ve//OGfevVX3v97Xv31D7bi5lvb7N/Z+OF20X4kmi2CdzbZzfXuFonbTPu9LfIf23bgTn53k1/YdvSFbaEvbvJd3Pp/fCtavrs5fGErC95VGlTUKAoVgqe/ZvaFrWT9ylYg/vTGn3n117a9fXvb23cf9oH21jejZAUNmtX2lEeK2r7VVeQqN9no+NWtgPvo4Y8Gitx/eKOi7R/ZaAUlp81YUdGxleAfbyt9tO3ZIdmzhUht+fi+069IU2JWuNmfYlckk1/dzvSrW/n4/qdn2Te+9ApfdOb2254tT3p+rEoqWSqiyFmGKxkrfumz6K0f5dHveE+/nBWFYlfRO7/Z1RYVW08jP1Lu0Hh58XSjKEkR4Gml1xGRIi/qvumlF2H+fHzje/rH0/DhURzsucDae3bjHh7phVARoU1HO5g5x3Yn+vrJmH3ts4v67eb0k4Z5yuSMPp7DfBatVntGm84++0XiXPzh9XXhO3Mkkmx7LE/5zzYZ0vfsIgGRIRsJZJHPHWQns02/2T/H0aN2rP1U7O3TvDM3kzOHCNmMm33NMeemT0x7ehLsE9prks/Devei946XhvVhPZJwi+9TYJ455yScs90KY+YLC1ZbnC/IOP3oce2ffZG9OXu5Ru1po7tuss02djEG/7Hx9B8c5wvydMlXYviuTelR0auMU7b9gxv/oY1Kui+qt/7tjVuF86v/w//Jq7/wpf/6q7/0m/+jV//mv7fN8kvbyF/e+vhUAXUnlgDoznUHW1wtWBCRra/Z+AkO1EXe2vxn4KQ2/ce23X95u2zf3YqbLyhuBFNh+Bsbf3UrCn9l2+N/thXzv74VhR89fBeruFcgKsEsW8hGn8roU7Gr3lcA/8rGr26LfvfVn9o0mfqvbJSpfhAimzK5BfbxFqBcqLvkpRoN5Mce575qv+s0DbAPEVReioD89Y2+evftr8hE+rvb0N/ZUvWHnxb0qBBOt8fKS9JSCB3XfI5Opcvr8rGykdTHpi1SEbKnn/7imgOdRS6Kjr2iFz0c80A9qQ+J2BhEIrqSiGzlSV5EwE6KosTnl++0+T76o4cIekSTIqBP6YimjZ8o6X3GyLii50u+y3m6iMg+02S6Xdfml7SDxp7+0pqTnR+kKOJ0/a2Oop5tKxYJidmmPm210bhTxMrw8iMCnHk6vZNe6/Xj9E/HS2gXK0V4qz53COlR/5q907/cImpoB2zXwEz8m61IkkB/nbtLbPW1Dast+3PiXvTe8aLQw3gk4ZLPKp+KOV+E2c7W6wCSt2DON/n9L7Hr9T256tew62NtT7pakl2Cp8vPK6zLrcsPROHSP12b721X5k9utopeBa9vd5Vy/8DG//LGP7nxK1t99f7/95999ds/+U+++qWf3Xp+b5uvukFwpt0D++w70P/iv/Mzr/78X9iKHRUFClvtM6nwVSdVS82+2jZSFa/a+4ltEcXwl7bi5x1FkR8oKBjxl7al/tpWnv7axt/YCuDvPXxDWmEoPFvsxwUK39Nve39iu84Vuf/oJ/Ttrsz1owJfg28zfHs7A0v6urgvHDskkzsilYB47bmasP180ck6q4o4NKEC14QKYFGh3/6iSH9ju2a/uaXp2w/l5Sx66aWoNFZICKfnjBTmLA1FUhkpktmO2U6/4+1bXatNdpBTzsM0dl7BXcMiU0hFuRBZK5er9KLhy+8cv/uwIpYL0qcmWYGrXYFbIUciNE/UH+aOynMfn9p9pnF+rqdcdTz9UXZ+gORRVNqk/sg2I1vREzBXmrII20Gcu8B24Y10eiuhCEh5yIYiylaepl/yOSDnIiUnsyXnLtPnLhv3OrrJuSO8Fq3Y7LOdjieY2SpxtqcOe/Y93opTDvZxL3rveFHoYxXSjyTQz/U/Fev8K6FXAEz7LWjcHpt/bU/7tAE5bUftPft8udbee8lmd/XE0xXjW12XHXatVER0JYNVk9/cRv3uNuKbW9H78cP3k4peJZ1it5Luow/+2Ve//6v/y017c/iX/5Wfe/Xn/3dbvG2ou7v721ZUarF2FZw28ieN0aeu6qtP+k9sC7y3FUTv+KZUoei721/d+De3rP3yVhj+xjb8b23DT/+BXl79gvj3t8n8UOL0Hfif3ugnDf5o4PtiBe+2yEfbgu9veVcpK3bJCt72Je1uFfdhNYg4K9SrSh/qEoMq5Cp8TargY1cAK3RxFr6ntn/y7Me3os+2Z/FbqUkXBnpChDWfvcpFckYyS8pJttM/T2YFtBm0WoclEoc0o3BYyD4LMsmKIpLAohFZOSkvFbEiTT/iWgz3/dzpXyCQD58gOpkeHRufysn6O9rGHBUQ7arP++Tp8/yadntkl5VTOSlvWC7TRVNORTvbR9FBs5Mr2UWU3NOjtmhJOz6tWr7KUzksf2Rc7dpmosOeLLczz0k46t/T9/qm7XVUyVWP12KuNiNY9R+Ed5aVo5zxTrLBJQn0td3OYPYVFUz5sOa96L3jpWB9SGG1kdf6PRfMtRLWD9bafysa27yrvrI+cvVb+2Z72rsGVt95ZdSe10Z6F54rW5HhCjr9E/FVh6jqc7EpMrTJypr58jWL4u93tkvnN7ei9zsP/7lfwaukw5/64M+9+od+7c0WvOEX/tU/8erP/x+22G1QgnrD2orwSbejLbXdWeTO4re2/nwrLvvBK35lW+yLvsNVKPm1riL4r29UxvlmWAHZd6YKNT9r8KMPxS7bJ9/ufncL0BBfvKq/fBGrXW1l+g7dXtqPuMRral81Fxf7w61iAhMp7Jz4lKgAVuyqrls4Kop/c1vmm1t5+a1Pi15RS0XpqgSSWksKUaiet1kaetZIqxcVWpnd6t/7dEMVvPLTt7kVuQ5EBDb9cAgbSwqKBnryZ0RWlEz7FpFoigRLNl1EfPrUpPdJIqfttMt3N33+81sew6nLUVGuPuTUH47wDOwKIX1+3uU5HUU7efrsV4L3QPW5l+c1wtk+F50oypsokG7VGRG/GXHnlH320RVlp8JMBAhFIzKY/auOeziy76Fcl+9VX23fv6Oi0BKV/NOzR2eSzu85IKJQdCs7h+n7/ZGkz8iSbM+Je9F7x4tBD+KtEs71PQXmiTDbk7C2b8Eci14Vq22190pZ+2G2k0d6r6Su2u9/oZ7a+tLJfF05dFe6a+h06XXBefkqIOi+fST7Po+PIsQrzcu4CBR1iru/s3kpfP/g0297//Gt4P0nP6OCNzwUvv/HbQ9CFmKwzW5E4dtq23LXz4K4NGRT3aG+dPWX2qBC0985+8qW4R9TRCnjFIwKK4WlTDcxaZBJtvLxo639wZZTQ6Sxb3irDht+OqwTxG8arPpEX7WrA9WJ7A+3jzMqJqeuoPMUmLC2frFa2B9iSPHTBaQo/u0t+t/bpv/goejFUmBJO7McKdVml37PXOGLxGq2VGlJ1n5/G/nRw4zNXJGbbiUrt2GHxEb3rHbIJM5PTNKq9mrP8lCS5YdeTopO5GSfHjLaEdauP7s1TyWOqGZkMbsjnTZj0snadpROWq1PYo+HKMp90eXz/VGapULXycU+EPODEmdUpJknQWRglaKQQ3LylJ/v19GYc+1TTkEUkzM3+aRPP8i+Rg3ZrEZPxsbNvqLMDlOeyvUi6MTL69vC3GGc7VPkp+hf5wxFv9ric+Je9N7xItBDeCThks8qn4o53x7hyH4rvv918IPt1d4rBKbtEvh4mc45oqvCBdYVkt7Lt6skWX/Xuf/0frrwFAxT+s/wiglFrvb8plKhocgAMymKFA3+UtQvbTP+4lb//farf/qD//Wr/+mv/dOb7bPHQ+H7F7c4u90kz1bJdHcO0N052t1D0+bOJ0uNravByFKkHkN/TpA6fPDfsvyOBeXHJE28dX68LfTdrS19arB+LbHWXbNObbh6xPziQHGQvkBWI2rzeceTYLDCTQxN6vSx8odEtgpgRWAFr299/eHmJL+48Se3OVu2ElVopWummrSNoimipNXI7zyMlljPW7Lk2lAJt5oEsHseHQwpArBqh9+nxQp9ShT19mm/VhdJUZD8yg+dvTyRUR/Ott0CyVYGTmP9eOP0TfDrx41Mt4Oir02yQTK0SrucLCo6v+yi9G8jvF4ZOzm5pNeu+BVJ0RQlOzRrK+CMau3LVvTTd0a8Ny7qf43yIrpkur5JSIbaM9fBSnO1dFEkiyjO9usZy6H2lK2a39RbBfjJD+g/zf5aPgZFOndxJH8QRVmuIRvsjZr9E0e+96L3jheBHsKnSpj6U2CePcI5+60wptfAymkP6dknYb5SZh97rN2VQE4fbdd0sms6uj66Qly/6H/29lRAuOhQEaHQqLhg0/YXrSp6SZcdeiVZSXHka0r/LtkvvvqzH/xTr37+1/6JTX97+IV/bSt8/x9bISREmyZLGCSzk725tQM/1Ne2q/KkQpHZnwlQ2qSJvX+MoXqsWByEtKm11F7Sp6acFaEqkZ10oMYZrwaxvpqQNL/1fbvbt876HgreFrKIole7p4PuKTBxiWGbT5ACUBCoKu8fXDv9bOOLm03xWyik9Hiqup7bstmsUgSYLroPtgR9/JAoia2wnQlV5NJbKd+1SFth9fZjv+QseiUYK3rZtR2EHRQ1vXb5mjnD9CMY1xygCD79HMJ3gKKXt8qgKeURekzJbKJoxqJbI0rH16PLWWQrn9rltXYRzeiwXFhl6rWnPYpEpOTah8ZAO2Nrd9OWnDz1283MVbrIedAhuYdWIo2faKXJGQGe0Op7vKaPLN+tsK5El7P0WzDnwc5mrkFanw7JN4970XvHW8f62F+SsNc3+5+Cdc4592rLfutrAfbmmpyvjkvIf75SGpv9HOc1Qo+uda+sruzaqE262k//CH0FhItOEaHtv9MrJugqKF8fVk1VfJBdhmZVJPgW8De2gvePbwWvv6D19vEL/5ut8P1/bfuSVPfGTLQ2wrSnlzSsGKXrlyopqOCUHgVuRW51mjRiaVM3GN+hqLnUotVdrYNqL1+20vmDdFu7NRyR4tq/dubbZbr+dyrusAkr/JzX3CQZsmNPi7EVv35wrPhV9Ppn3BSPX9225X/i+DsP4Vje1dgVbcbQjKRIRBT9D/ueEkXaSF9ls3lGeyZLas9sie15tLIV5j5mHk4l9uviFtPbb1FpFzE5dxPYovVI/iADoZg8dNPPWTX/yWf+HrgdVfb0GPf4NlszpmMrTvI5zVrOKnL9acoK7OKep0imT2Zr5WQrT7lGU7u8Tlv6Jaxj5tjTTi9B/sLMKdgZmGkSpr6PZpmzmjG56nJ51DdtVp17rb3anxvteK6x2tKfF/ei9463ih6+VcJR3yX5VJgnwmxPex9LSN6COT49zvY16LXcOHLVz7FX/Z7sqnadouu7Mij76acNigffplWuKC76ipJU0fkHyKrm5teZxnpRW1Wh8HtbwfvRVvCK4OXgF/71rfD17wEH4Yajw+IjUeSszqqbpE6NIAXS1LesSK8glU41GfKv1oAOBDsktVd1mRpM0csupVJtGxW6HYc/kzgi+pcLuAlMdjrt1+xJAZNWuKxoLmPMZx7Fr9/6vv5fdXvN39pm+ta2Tf8Ld6+3a2Yr9lzPSMzoP7Of/gcRJMnmouT2TM6iF9mtgBVtVpp7WVcquTPB9uNPHSR7/iI2BrRFHp8brRk7L9LvKE9/KW4thyblNkJy5v31v/2K5asHMtbmO5+NbEcoij2wF0nPHqbv2dKP5pzgs1L+xH3K4Q9mKT4HzI3lFrXLHV4Cf5jj0yfzkx/xl6upxzeB1mq9oxhA+1q0r33ci9473io8fPMBTH+sfC7szUufH8Ho9eGV2ketMauEaZucH/NpvwaN6bWuPeeb7XkNxPVqqJ2OXvtsXvvVbcnTVVDRoJhQQamk0Ddrvu2tgvO3o3yNqACOm/9H20vdZBbZ6o4/+/43Xv383/Y/5PDy8Av/xlb4/gefFL6SiuBBgB4E91R9EjgTitWACGoB01aAlkJtaa3orS7j35od9jwgdRepHusb4O5tR2XejsrROKb/0kZH9Z6gDFYpz6+I2Ukb6OJEeqzA6aIuIW28uRWLZN/64umnDq9/+/u1bYavbzN8a9vu6V9/bTZoNjz9xR4ekiSRs8jFilybXn0kVULRHOIOEmYlsc7CXVJJ31CXaGRDvg6lT1MPw2Ow5tlc8jthHT6dETkfsvKPpwehWdFsJJg9mjX9tWfsIZy22vXVnvZWPcLM25QzmqIzD50Pnawvmf5UmGOyuJp77Y+QPIfyUt7W/OFzoNwn93BL3G8Cc90ZSwTPNWQrP+Vx7vPEe9F7x1tDD958AFfbrfJtwfrn6LUIsz37p236XkL+je11P+3nyH++tuleI7O/Ekc7HStblEOnwkEBoXhQ6KqiSAWGQreqyj9CpspS7H5SDPvntdQ3v7lxm/TP/sQHr37+S/5z98vFL/zvR+E7oV4Cd5SEzjtKArXJapB07+PutGoxhe4nfyb49M8TfRlJVlMYa57mckgOBx2O2ox0WHzE5mj6or3j8A0vvmeCvrVUfDZJTxV0iQiiQsbm6V3QbAKFbD1dVeY9RQprD4FvfU//w8qntbF/AYKf36saay743hYVXWwlRUErWXTJKpkVuv0JQl8FMV2MYF/pIN5it7bCVtx0cSva5af+Es5HLtn71ISZx3JojeRkB5w+/bVX9ElGaxdX+uT8dJvLWDwCH+taf+WePdvap42tNwntOZtYtVdmbw/40tCeyDU+OVix59M57533HbfgXvTe8dYwXwXPId8WrH8L95A9H682r3F6r8D6Vva6r51OzqsgG3ZVsNFJvvmT7Nmw65EdtdH/xv7pOzjVU/+5WCHRt7sk+oa3nzdk28Z8c9vtf7qpv7gVvFth8/P/tZdd8IaHwtdPHRxWd7l6pHb3Oj3ok+wSD7W7/6rVpFB9JqXafcurv/quuTtAh6fecjDVZ2pF7dYzr6JXoevIHIN/E87xvGcSBaY/gSjoFJwmisF5CyZqY8GhdoFCcj5hAqwi77e+Cl3f8it++8a3f7KtJ480h6SZTyKsV9I9g8VR8tjpkkryKUb9pHkkU6wdjOLV2HIgL+liF7P4K+IreMUlVhCrudhW9MBYE+mzjdZna39gPro5szU/2QNBioMu5nJfDs0T6Gxiaq45d+sBnV/ULvZVD/yA3VokzDhILPb6tGdcQM8fZt8dd/wgvvBP/PPv/POf6HfccccbQK/jiWy9rrsKuj7YXBXJ2b+OjWG110fOK2L2sdeXftR2BdG7jk5XUpdbxYaLWmHRt2jY14uKDn6fFB8fbrv65J/n/W9998NXf+ZnFV0vH//hv//Tr/7yX9+Kpg4I6Vidoqaqb9Yw2lI2bShN1WrGsoF268A8mA6hOoxNPVN9o22tjkDaFbzozyT/1Y0/szl9UTHnIP6zjf7gQfrJwa9t9LMDBajCs4krpNp0z0Cb7TkoEW2wTSb1ofEkW0Vo7T3f5vIsIRsf67VuEud8rdXhlNAKwZJZUU56LuVIDlAhruBln8UvH0WvMX3ri/JVMYzWhOJDIMvltKH9xL657k9DSJ8sb/XXLhfmsdZcD3tApz192stfoE977RXtv4eXHsO0xc4nNk98KsRbfnvW0nu3HeWTzk9ujFnzcMdLwL3ovePFo9fFJfm2cGl9/V7H+c1XNHpt9wp3Lbpqvdrp6+sdw97+Wyd5LVZf7aN5sovldAWxdMlOvQuhwle1peh1IXRJbBfJu9vlYNjGv/xj77360js//urPfPllF76/8C//idP/TLG4wf3mrpMYctqhtn5cMfuN6c4kmy8faJ4ejlkL9PC0jvHuYgWvo/CNrv8BN78u+cc3/pHtJN/1reqvb/S//va3Nv6VjWwKXt/2KugUevNbTMGhyQWL66VPrxjoG9Y5pjnSG0P3jJA2bjPGNlcFiH7tbD172vrQfOaN5iOhpxjtS+L6FCpgSXaFrAJWDtjlpOKXXX744PvbCh9s9N9AOhTrnP5d3dcH1WHVj/ZJQrF2gGR7KUerLBftfbU1fqJ1ghhm+xb00LWP+WCyRfO35/I/9c6AzC82X8xmnDHZcK53aU/65WLlzKX8nSP/JJDmLY7sl2K5403h/vOGO94qevieSz4Vc769uVebV5dX6/oKY4PVn5zMb76es5PXgG/+e/pk9nktzDY59a6i9HkVVQ6QH39abKiq+iFqf2lIldXPG/x7WPO/q/upw1YM+bbXF2Mm3ob9M998/9XP/7b/xP7y8Av/6t//6l/6N7YCS2Js2TZtm+5erK7rjvRwdNdpdwjnUI2irjMvOes885DmjuadtAa7uToesfqJtZ9W/12b01f84aLi1r+L7HcmflqgiFPgFmjFpvNUvDq/fhTs62LtkkAK1hjtilWcyQCBerL6NlQR2bepfYvq971+4tA3rejJU2wqQMWI5pKYig5tSaKzldTIHrXnoRjryRZbxZS1sFg9sFGRe/p1cUdDX7F+zqxy8m4UliuHPfX2Fu2HLP7sYOZyQlbQz09ye1ujymfP/tw4ZeAH0dqtn87/aEzwjCXlhkS5kSe6ObJHvivLL/J5CjqLc7y0t1vQfJOQvu6H/xHkoTw1T+3mScLUXxbuRe8dbxXzYzglHPVdkk+FeSLM9h4heQt6xey9mqbtGrgW5jhy1c9xvWJqk12RXZOz6E0/fdtbkasoUvhUEJGKIl8touLX1476kH8VnYjN+gev/pn3t8L3N8z+cvBQ8P6ft1jVPEJVd8z6zhaqT9yv3Zs4IbmSaQ7QBmk0pvqnmrHCtTQhG1/oTq7d+nz4SrE/a/iGV9H749viX/BTBsXu39z4n2z0Le+vbPy9bapvbaHJvcEVsibpLP2BpWKX1Hb2AizQit+CLqC9C1ECFJR9m1rx27eofmbhG+iKTrKnL5ZMOHfp6isWBOt3CKS5K/zos9iNp29zv7j5dGTS3lGsEZgJ+kySfbZOv4nHitw4H6p8rKQNc8X1IZuwUrSi+E8rn2R2suiSmC/UN9tHONc33zJTwulflrgF51Y6oRzJ1+RqO2o/B9qjaNMnL+/i5HPE4jQ3ndzzu3atW9BTb93k1KfEt4P7zxvueKvo0V/l28RRDM8d29F8vYrIa9fkt/rWvnYOmGvPV7FXJ3YlIpj75Otl5pLupdYF3oVBZ5svP7N0+fafkNFvJf/Oq3/vvb/56ks/8eGrP/N1BfLbx0PB+3/ZCrhZF5QwqN1dlp+2uqmvxU/10qk9vyx8/aXh63qO7N4q6bU7WKmU5moi9ZA6059B1KQKXd/s+ufI/t5t8I99bRuj2FXo/n82/jsb/99befXXtrL2Nzd+Yxv6wXZi/od8P9iW/cONghYAWkxBa2EEtlnYYnoB6s9/D3yMwdVP8dcfjmy+NYxpnDH6roF9lOAOpudwFtbYTxheF+Ff2KR/Q/jHt/Uq7UV4VKbOaB1bDB9v8Xz8cLBYniG9fdljNKMV+wMJqT0/azE0bzlLFmFRdw4zv6S5il5Ml/JtPR8E7OGXY1Ib9fVQn2a2ylFk5zgjLtLvhzWKPw9ycvbP9lNRvnCeb7Zr0fhkz005ll+657nczufqlrUeg3I187bm9e3hXvTe8WIwPyq3ytX2VFyaZ6//MWsbE0P63ny9Huerks53fZXN9t5cE83VfOm9MtfXZfO99nVtgx7UMtI1BF7A7F547NPHS7pv9hS8vtXzF6n+5lb4/t+2wvdLW+H7c1v77eHTgnfeI6cNn1CbjNVU3UXueUWt7ZLVUNX61VbVAubrQMBNDlLXLS+dqiy6qqCfWvhW1ze6voD9B+nbRD+5Lfqu3P6Njf/xxv/rNtVffvVTr/7Sxt9+9bPbog2phDKtEsr/vO13H4ISkIUsPBenV6b0DGAliDGVIqBvIv/6oXZ91i752qDNHvKbkEB+oA/ngemrwHVIfbus7Xn0+91vbpH84QO/tGXiJ7Y5FLryZGd7xe7U7bzdTLYz8Bk6RV6px6PRbGabtvK6lnpILwqST/PGIrBqD1n5yXak106Xwx74Ctv5YaG/nmPmop0V7Wyjdn6NwbljsjnpfMsAvbGnXPsDRnvBToBslinjc6A14XU+Tkhei8aufI0it5NJNvmBfLJNP8gP+CTTfxDF0bPRZ6znoBccvc8h/6kDebzKY3H/ecMdLwLzMQ/01b72n5PPAXOdI/iYwrTdij7qcbbn/NnJdUw8gj5jvFrm64X0SprsdZRf+squN6+w7/8Lbb6dVYEpC+hKBGVUvwP1n8JVZpUKXU2KDPRNpP+c/Yub16+8+p9/8C+8+p/9+v9ga3/2eCh4/80t/hKTtOluCVu3DaS7bUns9pgHVtLIkt4cVVNS45ta6dNml7rafElr6ZNufcbQH35avS36Rb+FlVO/kf7FjfL6b22h/41Xf3qrtrkqdoVpycqVanBS2YffeljQ77L9FtvPVEg/WfETB4trF4zzjm1AsCVpD5JUcv3JoD8MiaRi9PQ/WnHqs7eS2eFoezpPT+Xrtv4VbNmtzddTzf+bW5Tf2fi9LVcfPexAjuzCscuVXfTkAul42UkgRWXGjrpVs9OL9KOH/Ji9Urrc1cYelPKpbw9Wb2XSHueq5c3Ka1Rk/uS01V7nnH0n9BEoH6A9CyzI75w8B/O3+pG+8nVMVpBLdIpJUZ57Xm/BXFl+9iJjK6opxQd8wDnln632CWvuJq/J58SMZHKNuPacu74fxIwwzuiSc7an41703vFi0IN4rYRrfJ4C80zCnq3XzrTdgjnffJFMG6THPb8pEdJxXmF7Mu71rzSX6zKefubQxawIUtwqgFzQqAAiXeTpLhgvcdEpzvxFqtNvOP/oxp/bZv1TW+u/8cE/9+q//+v/i0377PBQ8P6fthhLmnpImNUIkmDL7kd3I9ldGfWDcWHWCEEa1C4oZVJESiVZXVl69ZNS3E+pH36vu/Ent+DeVSQqGH95o78M9u9v/A831/94y/rvvPozW0sNrXQVulCFZVtGKiuVl5WZysuvb5v56NO/gFjh6/cTdMHpU3V31oKyikBtrPOWFCuukCRJEcX8aYECmBQFFiHpUPTnYyydRIl2YD2xUEE8D5b0Ly8odD/89EhFaheirk1qY9czPcyjbpUktjqpLUoRnEpQM1rRKutnB8tjUchtD9keisaK9ogVu0U0oyCLjERjG58+23yn7RRRLEdOPH3a99ohW7sge0rS68smmtknKlJ/rE2eIpNLp05q92HuA33yPEV0K9bVZwS3sBheo3yVs3JVOxQ1+ZgdXIN2RB5R/wlFUvRTn7Zbo7XKlPB6jnvRe8eLwfqoHkm4xfcpMM+ccxJW27TfimteFnsyHWZfnD4rV3tXFnv6vMpqu1TSXZEVva7HU+HrcnYpzyquSs6F7SLhU6lgNn+xyqX71e0V9Ztb6fS1T3+K+qc/4R/94M+9+sd+/X+1aW8eDwXvX9hitdnudJuVHBCyrXYv2mZ3Z/endu/utgq9y+d7nT+fUkdKlVoSpa5UspN9E/zwd8q2wL64ncA7p/L09JfS/GsMv7rxL22uv/jqT7z63Yfvaf1vUShTTSlErNRxjkb744eZlMva0a9ZP/1f03uQZlR1K4AFgp01qegVuLZN2bQ5yD3MSGbBqwCme0ZE4t8N5tPvQ/hoK5b5mcPB9YR2kNrYk6zIxdP/1LFjUEaKUF5E7liSWJ8dJPd202PTylhxe1r59U6LSvujh9UcbJ8VEfVAoH4ymwfoGnh4W3VGgKLIXiS17WK+AdoVyffDLQJ9pw9H+cAe82g3097zZ6S+Pg4Rkn30VhSZ/jhtRdou0uMJRVhEMVv9okmv7xKKZka12oourrtIvs7NjGivHY3as02w7WGu3Jg5ftrTj/h6Bye81ouq6JM85JcO7NDIxtUPVknyw/SP7kXvHS8LPYy3SqCv7edA8zbfbB/Zst+CvTni/PjO9v7H+gSv0Nk3+1ey57++etGlkV4/Oa+9rk08/eNNVW8u6GTlQ99OeVmZTSmgWPm9zfr7W9n07YdSyv9+25/c6Jvef2TjP7bx21vh++EbLnwfCt7/7VZM2JTwoEoHhT8roOjWxqljd2bvZrbapH625itl1TfVPOpGNaSfLpAPBfB2Cu/Kum8+/Y9InH4P/erVf7RN/R9trr+8/cHhGw8/7fXLaF8G98WwJYTgHM2gdFQuKnaVlP4YovitxFRWfm0b8eFDQaZs9i2vyrtvfhXCDxX4RqtU8ApesOk2BDMpMJ8sT5XnYi18PSf22TfBfRvMlx/qq/hFu8tGN//pG90vbE/reoyzTRe146k9jzS5Yu6i8rHPyqSokyIjt6t5+/9OyMpyPYteq2vHoukhImdOJ077Pq2YtGrt+rE84frJbycnf9//W1VuykePdnLmatrW9p4O3k3J2EdTNKCdPSlC/bWxHUyd3+nXxnIYRVzUk9NmzCW02oziiHz45/t6rJViK6fDjGjPb7ZvhWj2pOhAO5o/HVbZLjF92vBxuLyze9F7x4tCD+Mq4ajvknwOmGsSVluEqd+COc/k+mKA1TZfGqs+fVZ9pb5es5g+bfMaxC4W12DX56mvMsGrluxa7BUMVvTPP31ju+K/+1AuKZ0UvYo030oqfP/hT/hTWw3z/i//uVe/8+X/3qtf+vpWDpuy+1lQR7DMnoSh/8V/64+9+pf+9a24UG+gLag1sDojnWyL2ramPe/Ktps+UQq6X/mgOVq3ugcrdL+8ZfcLsqxM9VOQ/kkvP2X4a1s4f30rR399K3a//ZA735grT/vH4kxrOdt2TpWHfWeqfFbkVvCSyH76TvWL21jB9FOHKRW9pJPsG9++5dVucyWsTRcNOkxPkhJQdKTCVjlu36fy+1SWi7zityLXGD4ejIrdCmP/oxHf3nL08UNqHZ1opp7M3mOAIsaOFDvG0Gdkfh7Ss2cjK3ZRG5Xjp3zJk9ztcUaEHqS9iILVo9WtKNo1OmdQdGxFW4Gc77e31U4F71x95mW280nOx57vZNAnGjZPSAyijzDb84mKok7nMyWeSkt59RRgEa5kX6M9QqsUETlXz06P2vni6xXXSLLp5zkjq48EUr8V2FewB/21TxGcl0c0x54Njvrjc+Ne9N7xKPTQzIfnGtteX1jbT8FzzhXMGSF9fnhXPgZ788yXwtELZJVATttsr7YjHr2Ks6e7TLTntUk/2d/d1vOq7RLxXdbpLwmdXtanvyikjPL9YGWTglfh+w9s9E3vz278strl39644f/533n16qs/9X9/9c/9jS+++s1f+W++evXvbgWC/5qvQlPnzBuuALsBSOGoaNQVqBpUS6g16BWd+mYF5Lbmx94c2bWTMG+eCdWjOdQT+uliJo219sP8W9Bf2DbgpwsPG+iXtn54oOjzE4a/ui35q1vefn3L4+88/C8Ly5syVNFrO/3cV5hCkRLnpFRU+pBmnfRX3yqE+x8htjr/Dx9OrN9XWMkKTtAfV6zYaaLNaEtiiZUkbZv0TECHZZ/2W5GlkFXwansAJMq3vfS+lyZFpk/EFbyibsz720qnP4q1+oygY+471nm09ckdGt+RitbnKZTbou8zYUeiYGfTnszHLk7l6MMDsNHJlTf57iTbQRHyXR+0IMLyOz8Y2OpWLYoirN1u8jt9fuVNLsjyki29vulT8dVHgwRSPxztBMq33KNdkKKr3Y7zmcxO2mlndBrnf2pEJEUT5Rfp7abIj3DNm9aqkf/pfGYU5YKMokif0UzWv9pvQbkm2006pK99K9sp1J5y1fFWtLcp5zz3oveOR2E+NOnnbNf6w9RfGsR2RDhq34o5D64vAm2YfeSe39RXn2lbqb/X8F57ypXN0dXa+F5AvaSxa0Rp5CXuv9wrpfyW1zeTird+5uDbyi+b1M9VfbFp8q2W+vjv22rdrR74lZ/67776rXf+x6/+g2/83Kt/9+vvvfr/vf8zrz7+cJvxg83pW9sq39348bbqx1skgupGEIja4eFu2yL0k4H3Nolf2hzZ3ttsX9z0d7ZFFaFene+S21X5ztb3QAEJ0OT0zedh1xaZF6Ud0xUr4LoF/saag49iTfmprcjt+9f/dJv1m1sJ9Fe2XP2drdz8xqstBQ9/WPAzBiWRPyT4xa1Ss6IOyKKrhKyYVSqaXbtvdtP1aSst2fwDXh89zG41J2b1vu3tq2nkw6aUFEkFXAUb2iv0hIhQTiq6FL2iJSsJRVx0pMhQlErLCuJT/7vbeJm3utUqZrXZKx1FSRehXImYbgz2uCRFKmJIn5E7OVL0yB6znUrI1+343YdVZt6iiNhEPHdDrxTq2QuduohIbTq2Oln0M/LsbHLrv8ycvouWK6tYGaw8o+DTk4/6suVrfJ8SLGp+5bQck9NGXzntIiZFb9dz5+TMyMpTJEUuYmx37apI0KjZRnOQQE6f+opOJArd09+MKH8zL6tMh2mbPqs9wiqhaI2To9oTe7Z8kQ7p2fdY//Q75f/750mKNT+YPnM/7RvIB96L3jseix6cVcKtNtjrf2kotvkhWwl7H9Rb0XzzRTDZGvPlcM539k+Z3qs426S+vTa59nWZgPmSbGQXmcvSteHqdo10lVc69b2hYk4B7FteRRz/h9qnf1LAfSwIbziTqxF+cjNvNcDXN35jm/xrm/1333lvc/+TW9n4s5v8uzf+5FYefXkr5t7byqN3H74DdJV/a4vu/e2i95/AXeynBVDRdCpFTrpvYpQr/tVP0f/eg/bx5muf/mqP1+y3tvk/3nb73U1+ZwvuO1tZ/53t//z7AB9uOz59C87HTwbA//8j28jf2vjBFtWXtv/729u+v7at+rXtDwFf20rM7zz8IcF3qnIlZ0oef9lPJPJUWSQt8hykql1JY2V1ZWM/YUBtfUptvmwVyezf2mb/6NNvHovEqbH1bS9bdja+nbqnAGeU8lYZ4klRZGnL9angOkXWQ0CKUGQKXP3s2nbzzS2Hp79+59GwiihIkfTIJLMnKyd7vLpIixZ6tk/nfsotiZ6W0xMzn6STtKNVRzvI7/TfQpym6IqoHNJJ0ZRL0RUpO51tln0iFTW9CPQXsbYo5Hb2a3uyX/8O2uyzDIzlSX+cdpKNnDrkwyZKOpw+H6/RLiZ7atLtaNpnFjqj2mWgNv/TmjPKmO0SZpRm3Yv6BPssNzj1OFcnYfY3Rz61Ib027LWnBBGvFHU6tLO1f/rt8VL/c+Ne9N7xaPTgzAfonA0eM+alQWwrYW33Kpu2W3HtC2P6TRukr75TrlztvdC6CNa+7F6U/EI+kL2XNd8KClc4flKvPhRtpFJJ0esbXkWvNvvDZG4oVZhqodvKYvq6GdyyFiCrDbp5N7jKDVPEMdFN17Rs7c+0637o9XVZsikTSHOwVcBoK8/0mZtNGQF82G1FESE/2spHW9D2Lbjw5YCuzOwHBGjLcmhuBQl0ebUPa1qj8tFe7R+VimyVlApbegVweeGr/yStVJErik6R3jfApDa/fO3KWDvau6LtvqyKugzKlEgrcCt4RdguREf+wTbb+9vRn36/6xGwshJSG4uETRSVkp7HijrtNUI69ByASEU82dnLeXkn20n9qG/qfE4ZkCMRiqro9/QiXNHpizTdzCIRQX1sVqWLQF8+ovKThtPziVZLl5/58UqP9dc323HmVn+QYxBVOlnURT5t7fIcT7k9yXVMc2b3g6zTX9AVtR2Te7leYYZzPP2EYeYA0ssFncwvsq32xpF71Be0obyewzkffXja0Wt9ZXaYtnK++tDD1I/QfoJ2c8G96L3j0dh7GJ/b9hIhthnzJKy2+BjM8fMl0Ith7V/7Vj8vlrUv2Usn28o9O7CH7OZqrdDL1gvaddHVobBwbSuVlEX9wwSVS+hb31ngGfsAt5L72KLuZO35lqNzXhfVPoP2Id41L0BnB7qyIFt+QkF9pD466q/UqI8N6V2pkK4YoyttSDmjy18+tmXLYiiO5iwWtLaSpkJWiahs7FtcUj89KoD5NUa6lUd8/WNfr7/h7eQqMdnpazHMl13UdoCi7kou4jJntVac303PnzeITN+p4H1v8//KNqc8WYmMs13ZyEbH8ooiFFUsx+U3inhS5PIk+kpI7R7Vcsgut9mwM2JTar7+Z8xEJpciYyvqIl25PgmxJ4FMj7VPq+fjX7poVic+aXVy9pPZk1FbHhH4QrbsR7AbO7MTsl0myz+282mL2aZEO9ZujXj64YHooWcVrDKhb0Z46lc6n3CS9snT/o8klhO2PZk+uWdDkegLbLVXKcpzNNeU6TBtk0f2PUISjmwxFL+9waf7uhe9dzwW60M3JVzbf8n2EiG+SVhtEaZ+Ky69IOpf/Y7ae/KcrVc2rsjvdBm8HjPRywa8gOYliK7wCpCKWlc7WQGs4O2XovM7rQcUXEHQ3VokJ4sJopvj04HXoanJ0FLQ/vXPHORD1l9YZH0gpELrsksXfjLbZFubKI7W6BKfVFD1ba1yUXuWldmRX4Ux+xxLN9/p30NQjDkhsmJXgautMKPrd7LZ+PRUtEsQfZksqiKYkfsJg8IX9Z+ifm+LqkLW82K1dHbld+0oGs/jLHh7fBCm3pl3piha+UhWRspT8pSvk16Bi7MInmNPbeWSyHF+coq4J0X+pl60oajNKmLSylasPVc//cxH2W1Vs5aXmaNVL4JkeswmOlEWaXKNeqKnYlLkPe/kbNeffqm/9uyP2cRwLdpP+9zb656elCc6ppe/9HWOtT31S7jGB8pBT1Ry6uVMe/pZI99s5XX6X4Nr/eBe9N7xaMwHZ09/LttLwxojeY4w9Vsx58L5QkgHLwyY9lUCGWc/ehHVB8n6cX2JTWTDLg0vW3TRkfNirLhQbChCsOJEyRSVSv1VqEol3H05z8A4XPsG38G6V9QGMrL3wp46idBcofzwk4cZpjy5yOSm/OnPTsohZCdbPxZH5Y228oauPFRg+W40nZ9ycv0ZAyol+7ZXn3kaRz+VTX7j20k6oQreeaqKNn+kEbGd66sUQuPKjHbRFGE/uhAJXbHLpyL4g22G078GMotb7DlT4Motn75vRn0zknItUgz0zj7KaWWjNj2WI7qoyxdfUTuXfOnttDH5s/nt92knRWw3dNFGUfOZTwFZtNpWx/rprfp69Xc2+rW52eTM7OUm6RRro9X5Fml2tsi/vK65FQ3wSQ9F305qZ5u7ndTXjuny2u7Lu7Zdz7nmeFJmSD72CXQo9tje5jO02qbc85MDdvlLj+WQhNqYD0wfttme/iQk7Rnmnib1n7NDc5Cr/2zDalv70vMBUlvM9PY8kS/ci947noT54E0J52xw7ZiXCPGthHPtbLeisXsvgzj76Air/RIa27ipzxd/bfIcvIh6EfdSrdDtUiRd2RUgrnB6bde6gle51PVOYi/u58TcN6x7nfkAussylCfogsX8r4Fc2Vs5I+WKnDYyioOEYkjqc7HTK2eUh5WSFVkKMrLilq6cpM/iWJv0TWXfVmq/LhpE74QqOxW5dKdnJxVtWFnUk0HanVVEjqcC7LQjK/qn2ip8lY1f3/b+h9tMHz7MYEWr9ZxUGpp5tq1eVPWJZM01ziJBRJ1rtPcKVDpWIGUny395O2dbyW6+1/9uQtHLIRuKnhR9Ua/oicC5YrYT/WXNZp2f18lWnKdXBGR6c5AiYy/Hk/KblNdyDen65AG06ZHPbKOzmO3Oq7Gzf+2b/dmSYL1J0C9GIO2VxPbGVy6yl4/yk1/MN/v0g9bQ1jf7sXnyvxZ7+0vaJ5hXPsj89KWj/mnnm07G2aZfg2v94F703vEk9PDMh2i17fXBuf5pe4kQ3yRca7sVje0lsMfZt/qt7XPgOznHhzlXL/5epNlr92LrxevFHCt7plTokq5yulKpIqXvCLXJLlnwgn8OtCcSZg6AdAEGfbOtv5yQ6fya+xrIVXuSwy5E+pRHmPGiEiapxBGzApauWK3gUvZoV/Tyr+jF/Cp+sVKpNmqf/uElkXeq6MQ6Qafek9DT4VSLGtgq+eza7CLx7a5V/nCzfn2b1b+Ncfp2dxa4PUfaVq6fvWeJnd7q2vTyO8+hqHomOuOKIlGmi45efsovzuKWZEuyYXNMO92c9A+3CF//9TyyJ0XESbsQbWhX82kwO5/XUTg5s8mFmZtRe6+ora/c6cs3PXtRstHZsoMI6RFE22eIXrv8a8tL/VBf55HMP1v5bI5Tbl/7TjYOrXUN2s+6r7U9bSSQk+UqfZWNXTnt/MROX1HuwBh+yUA/R3Ps2aA+cjK/8honas++dHNci3vRe8eTMB++cKsN1v7Z9xIhvkm41nYrGjtfDiuPPvT1Qy+UOQ9MXV/96bUfg72XcJejl68LVeGB9NoKE3oFTAVwpRJWoFiD3HuJ34K5b1j37iKk1ybXyy8foDcXsLNdA3uRH7A/RQIZgU96sEYE8bWPLvOKUoWXdsUYqY/uu9MK2IpjpaY2v3S+pP7KJ3O2VlK0p78AVKnZCbLRg52Klt1IbbOY3W6t5velv795+BXx6ZvdnpEp2Stytc2kjXSr5ieqnkd99PKf7Fkg5XWSTbQoB2wiFnk50S5X5MxRY067O7XLZ/NM//TT+qd/8u4UuRyJWJvUlkueMHczo2y20ykZZbaKVnorzKKXrZyxz75V7o0rOhLPYX2ua59ysH8u+DpPP2gvn7VXH/MfjS+WGXe2iUt7rI9cyS5ntcsf1k9O29pu3ch2LdoPKb9h6mBeNn75Rm35Wm0rj+ywtoH/hBjqp6/4tO9e9N7xprE+YLXJqfswTt/Zl4xArg93fW8aM5YIe/rkY2Dc0QsB67sG+c/5ZjvMPtKLH7LjHnqpkp1NL+0uPboXsqKDZHcBIhsqTNgrTBQuFb38XJr6mm9e8XPtS5h78WKGbLWhi26iF3kwpjwBffaDC/YaiN/egF5OyWC/wG5tsrOE9qBNVtooWLUrqBRaqK2g1UfWV4GrrRjml2RXFJvbOmzte+rG0otR9P75p1PcTg/bxWm3/p3kk64Q+972/7+zefn++OOH56Fz7/nwPBhNxwpZz5KfyfSc8ev502bvWauogCSIWXRk+ZanaG9YTuQj6ifLcf30+ulR7s1PN2e+6WIgkU2WzGHMifNpsbOgF8xgd6+jdxKN6jNFRnnW12cP5Ys0E7sxdLbGNSY7nV0b9SOQ5oBscHpeTni9xxNIOSBPO3mdn/rYtUmorT87v3zJ7ObC7HSxkcZHYJ82PqE+oKP985GX2qT8yEPngeV2yumXDfOfY/NB0C6eUFsf2DP/9gPmS29/2vQ9lsPGxfqbi+RLTl85FwNfmP2QnP0hPxI+lfei946XivXBhtV2JOFc31OwN+8RYW3fivmB7kUxOV8el9BcZOOmfg76vZigS2B9ofDxkupiY/cSnReda1gb6V2S9L7JdTlGbUWMwmXaG2uN5rdWton2Nu3n9m5vwI61Id9pA+05j7a5J1afI7SniS6uCXPxXWWXTdK6LnIsLsVsxW2FsD5kq9DND+nmoFfEofnYK860V50UX1wvXvvlA/ronZfCFpyt50G/82fXlpfs/uocP39I6vkxt+LXfJ4l/n3L2/OoT9scUGzFCsVerkhs70iXN/3lO7u8ZWczNlucfY1HttZmnyyOyK98r+g56VmyN/tvj+VDP7KzkXJZv1zJL4mNab7a9c02CaR4Omdy2uYzY18w91UfW+SXT/koR+VSv3zWxnycnX5o7uaac9JjPlNvDygnJKRnj9lg9ZGTVc6+7HI8/Vaf2teiPa17mwTS3GseEGpP/8l865ff2pfYGtbfY6A/5ORe9N7xktHDea2Ea3yeCnPNeVfCkf1WrHOcexlcg14wzbPOdy32/HuxzJdwqK9L0OXpEmUnu1BnUUsqhBUs+hUqXbT6ydZpXfOt68K5vXWJwZQuQ8hW3mDOx2aOiS7HCWPmWkcQc3sJU7+E4iFnYVQxNSUqvKaN/yxw01G/gpeNXsEwC4gj2jfaS3RWzrG8Osf62JEuH86e7Pw9F2zmwL717dnQ37jJOQfdmvP5meejLTY2stzaT3LmgY4VvnzKT3L69IcHffnm1/jWnWvP+fJbfcv3CnuC9t3ey4Vc0pNy1TnFcuxz2djGNK78zr7WmmuLJ9aG4o9zT3OPq4SZJ5RjNnLay1n+6clzemslQ/HD0f7aOxz5TL0cNi49O+bX2LjOdwn8wL6O9rgiX5Sj2V6pP852+Z1sDCT3UMzJI9yL3jteLOaDOR/6I3tYbXs+T4W5VsIl23OgubwQfMBJLwt69tY6t2bzNMYcsL5ozmF9mRrbS9XLt8tv+mTvsmRzOVb0osKkC1Uh0zfAtY3vQqWbe16oKP5iuYT2noTyAuVC/8xL/eUMGjdtwfjGnIP92MMK9nMwN5/WqSiauktfu6IrOfsUuvX1ja85SX0VyXwbq5+t9aaedEb8Ovf2KU907Hmgk/oqsvT5xp/sm9oKW212bet4ZszRs9OczVUMZOseQeziRntpv+W0vWuXq+lH6m8MvT9ImJuM+rLZu7HaU9fXnNokmF+bBD721XNon3JTTkn9yG6sXJUbPnQS5FKbLz+yc2KvLzYv1s+f1JcEdpxo3zHU1m+PQJ/+chD5lLPyzLc+evnONvUpWxcDm9iToL/9gn2idhKmD1k7v3zLVdSeBHmeczV2ziVGEtpDYyBdX36w+s4x9ZUbcup8V7tcYvbOof585jr6VtSvb8+Xber3oveOF40ezmslXOPzHDBfhNmeNh9emLY3gdYi93SgH6G++SKacxzBi7EX73xJgjaul2CXZPZspIKX7qJ1sbpotRU1+ip60Xz8vMy0i+Hh5faJ7VrYY5fdivom5EauJviVvxV7c9yCS/uZsVu/ggjILn3Up+33uOKlk7NPUVa7cWwKXnrzzXlrN6d2MYh/5lY70J2b83PW7RX7ZpZ9fnPr2ajPM6BfuzH6K+D0R3OzYc/KOYi5/M19YTnLtranbR1Lr13O80lHa8dszdE8e74Yym85np+Raa8Py3+U3/ymXU73/LOv+Z56MRxhPi8r2mP73tt/eZGnPf0Wzvma/xLaW3ude5aD+te+2U6WM5w5nHq+6xyzjefyusK4a/z5RLmZ7clyN/N4ZOP/3LgXvXe8WMwHM/2ShGt83hRawwe2l0X0gZ4vEJJfyP5YtE4vi7U917oGjYkzdjpbL9Bepi67dD6QzSVI7wXdJdoliWyRn+JlLXZJ/XRrkPPFT7LjjOMS5n7BuPbLRo+Qf6jtnPdwru8a2Au0nxlHOlhDIVRspIt+Fq98+qaxdj78+6a3gqr52PvP8Y070hsrNjEb3x5CfeDcekaiczfGmc/z5+cZmBL5KnTz0a6fjj0r1iWPIDYxk+XFnrTtqz2u+02yx+lPmi/J1jxJ0G/NxoK+4mhuMI+9aedrb9r2L2b9wM5HTqA8IL8+W/zLa3mSW/5snRGw0/WR/Nd265iXDsVk3VBfqC9p/53LzBEJ7Pmwl5P0dRxbPvXJb/oksMdQH5Qrc8qT/fAl229SDOVm5qQcTYkzj+VSfvOrXxvm2NV+hGItn3u++YRyQRpHorzUTl/JXj8Jjde/rqOd3+zj2/5g+kz9XvTe8aLRw3mthGt83gZmHNcQkteCvw9/c6RP22Nw7bhesL2U54u5lzPOSzN2wbp0sXkUMH1zx6bPN350L7HmJbV78UP2a1B+usD29nyun72+PbhI3wTEMV/silXnDWwVWC7hiiW2edmz51Mh1je6WD/Z2OZKHnHN0x7mWXoGnKEz7w87PRcVvj0H2nx7dvg3BzmfIzLOds8KFCsph9ge7D8bvXxh+VltZHNkq03H8tn41qYn5/qrRP0x2Nd8Libqw3IgJ+WWXrt8Yn1syezN15g53+xPJy9h7ss+Ye553fu0yU95bcxeDqdfrG/Ot0o8B3u8hHxmXuLMUxI7m6nHo/Hp8Vpcs89QbibLZZRnMl+o3Tr1Tdtz4l703vFiMR/M9PWDMO1Twrm+twUxTMJqW/kY7M0zXzbZbsF8qYJ5vEzNk43eC7iLLzbWGMXIvBixi1Uf8mWv+EH+FTvm0U+2BrDNtRC0L0H8XtRQjuY4e8Yw9S7JFWzruFvRHGKZaxRf0qXSxaJdMVbhy55PRRn7tGkrnPtt6iyQZ5HW+MYk22trgvjQWRQrTN3Z9zz0DPQNYj9x6ZxRX0UuzudDO7+ej56F2tnWeLA9RPvITkd7T+ojs5WLPVu+2uUI59xrDNNnxkGKnW4/wAb2ds5esQqknJl75o+9zyWUb2uykXzya8wcn385ZgNrZTvCzEM6TJmdtK/a6eU/m3b6ZHbQhubCuU48B/1H+ytvfMqPNsmWXg6nTgIZ2YHOd/qDNhRz7RUz5vTGrDLMNr3ckeVu6msOcdrokN4eAvtE8e75wg/434veO14q5oOZfq2Ec31vC2LYI5DzAz/7noo5nzUwPfsl9BKNxsyXTHOsF970oetDfZMuzS5cl6uXWReuAseYLt3a9DknGMcOdOQz4yjWXpihXGAv74nGwerT2U3MPD8Wxndxi1c7aU/mbm8VVvnO4qs46NnJ5p6+s7Clo7GkYri+OQahNazHH8TCTiK0DyA7z845eiYqeOvvudBPsif5Np+8sGn3DMw2H7rYJrTti5yctvY4++yXnDmJ2YzBvpHPH9nJuQZkm+PFHfSFngU4Z5/5IM1n3nLLPpm/nM2zgM4n5jvHrLAWzH1MtM/2kJ5cdZy5K5/p2DnMNvCZ8+ubbVh9SDgXP9QvB3SUE5JPenlafRD0dQ71R+3Gzjn2UFzhyM/+9E1/eoS1HbSNx5nLSUg2h3Z67aP4VvC/xvde9N7xYjEfzPRrJZzre1uYscwPOKSvfG40b+snvZxg78Whf75kJ1d/L12sH/jELkt9s5hBbVIxk282F7Fil71vANcCZ64xoV3fNbDfLkTQ3oOi7xwqUo5QX7L4tOnZFUh786x+XeraqD1j6KInFWj1a9c3WZFLmqMiODnHtAY57YF93R+kO0tn2LlW8GrjfE4qzOazQedjLrJnIvLTV7v+FcU/Px+1I8z2mjvtI5s5WyOfdZ1pm2s0dqJ2+Qzn7GzyUS7KQzlOsstt+Sy3q222jUniuj4cxQb69igHSShXyfSZp9lXf+exN29jSFj7pixnK/SjvbX/ZLp+Mq4+CLNv9Y0g//U9F9pD+7mG+Yfs8jU57el71H9uT3wCvXwcgc+96L3jxWJ9oG+RcK7vbUEMK2HPHt8kzN+Lh7wG86U7L76QLeRPdhm6ULtUSX1e3Kh4wfwVP/xIbT7Tlh/Sgc9EffESygm4BPdwlLNpOxobXL5w6Zz3imvrNH976jKHLvh8+Gubi07Wbi8K2fyMU/Bic/GrzZet4hf0z7nYxZbdmZHFS5/n75zYZsHLRurveakvWR/ffMzZudfOJzu5QuxiIMVPRvZQf7mSx9r5zj5tenNjOc1Wu7nza5x+cYN2Oh97gyOdf/lp71MvF3I580fPl94Yeu3ynz0d6GHGPHXQnhT7ufbMT3mbtiN/vrP/yBfWvhnvRP3Qfo2TN2Oy0afNmHLb3GR+rak/n8avzP5caO32tkc4akMSyiNZfrVnrhs7eS34ntt/+bsXvXe8WMwHM/1WCXu2twUx7BH27PhZwUvnFvSi7aXdS4Wc0M6H7FKcl2bjZjGj7TJF/RW6+rpkfeMLxsyXvv7Alp3fNZh5d0kG9ubaOx8v8Glb+1coIGGdl95Ycm+eitc5tjMkxV3s2mLTrtiNjdGfD9LFp7+CLr05Kmy1g3i08wXxaZPFCj0D8+yg86+/5wDIbD0vxvaM1aazZY9rP6z5ba+TK8pTuUrmb0622a6fTId8Yc7Bpq+2vsdg7n9y5g3lJr3cxfrTSeMbM/NKRkhOzJzT22f62t7rm/nFmTvcG8cnO8LqW56192IHfmHPx1i5iHxWaY7Z3zzp9eVXzvcISZj6xKW4A79JmHJluQTt5CRMWb7TUe7FVd+14DvzcMh70XvHS8V8MNOvlXCu721DLBFm+4hvE70wJsQ0L8Re3DAlrpdlVLiQ+VfQzG9w6dBPGyp+9Sl6QLsCuPWac+LIfg6zoLuEI18v8HVdF/a1c3f+5khXkM7ngl7bxVHBBHTM3toVACDG+uL0n3MaW8Fbf/OQ2cn2zT59nN98LmZ+2OrvbLXBMzILX/09D1NHc047ZsteTKCvyzfO/rCXl3XMbE/qa5x20M4W1zbOPEHxHdmP9k+ffez1Tea3x8Y2fs6Tvpe/7NG+0mG2YzYSys3MUTmc/uv4CGvflE+FeWY+9qgf1na5zVb/HmGVRxATXOsH9ElIL1+QLcJsz5xmEwcJ+dRHd5b2n29Y28Bf3mD20b+P96L3jpeK+WCmXyvhXN9Lg9hu4WcNL4v5EgZxzItvYvrGWXDSYxco8FPI4sMLamPFbgVyfRU/UAEkJnMUV+sF9uYF0pjVLxvpxRvmi3sF373+dY5QoXQO5+ZcC+a5zpyb5Eum89srerPNYi5q8+GvnW8/cwjFzEZ3DvwQ2OS2ZwLpE85pPhvOvLPrrOuf5x1nOx1at7lI6KyhPGlnC9r6yk37asxkvkfUX46m75xv6sBPrLeg/bffVZ8E9vo6m9mmG08nUd+UgS7mMNt0+2r/0D4he5y+WG5WOTn9kQ2SYfXBuQ92mLYVq492+YiwtmfuonY5r68x2NwTbPqeC81HxvJWG/bsk3BkC9M27fOcjvZWjLD6aE/bQ/te9N7xUjEfzPRrJZzre+kQ66QP/2pDSL5JeFn0Qo7WTZ/gO1/Y9C5KEuhdoKQihg20+6YX+2YXFT8VuhVCUBEExvCd7WRs3CXMPIMixfhpa/7Vd0JhWF/jXdKXwGf1a525Fr0CCozJh15f82mvRe/sQ/osgufF1vjpF1rHPhtD8iF7XjojZ0Evj8DWs5FPfrOdDdOnrXZ7tIY2WV/nEejFPdG+9JHpk2yNT07b5J4t3zm3dqDPPF2DmYsjlo+Zl5XTPv3TccYK+op5r8/+YO0DtslyEeVo5gnX9hwL03aE6X8L7CfMfWdPn4Ryt0c+5RvmuBWt91woR2SE2Z4Estwd9U99T849sNXe65/IF+e41f9e9N7xouHh7AFdJRz1HcnPI+aLenLvBT71PfRC2MO5vr0XMq4wB3uXZHrt+QKaBY0Ctvm02Wv7pje9Atg8fQMMs+iF5pzrBbbpey3kRpF3K/qLX49BPyG4hIrQ9fwqSruI6Gz59wyBvmyN0yYxlAc28bVua0zki3Mt6LmYZw3OpzNCPvrzaxx92mN95Hr+2tNn7T+C2Ffaf7p91S4X0zb9ZjsblqM5zwrx7tmPwB9nvtr3lFPnm//M+eo35ZtAeZk5qg3yVK6mzKdxyckw9adADta5ygsZZ75mDqP2fDbp+bwNzJydI+zZI0z9beJe9N7xYjEfzPUDk34k4Vzf5xX2gOuLXPupME8v5D3My3D60WPoJZ5/Y5Ffa1XUzKKV/yxY9fe7Xn7a+QC/9Zte7NtimHJyRbbiI0M5n1j7V5ijom8Pxs+15vowvyGeWGOpAGCLwNbabMVCr6DN15zZ+CTzB5I91p5xkjN35jWHuYPzc17YnmcOelYizPZ8pui1Vx2KQ7u587sW9jD3qx2BfdrW9h6nTzHOuenlJvBbbXBkh7nfcrAnEfiv3BuD+oD+XLCXyfKDkCxXa87ynWwOEpIT+a57YQtrX3mA/GZ75mqPIIflf+Xq+1mjnKyEcrjXj3Bkf26Un2vydC9673ixmA9m+rUSzvV93mEvk3sv8afAnOsLpJfzau8FDbOPrTFknL6o8FmL1lmw0o0Dkh9pTHH2DXCgVyg3z5STQJrrCGufdjbyXP5n0bhC3xGM2eu3Fs455xpd/FBBAHR+JOwVvfpj/nOtfBqH9HzLZ9A/59XmU8HrnNYx0LOC+uO091xNOQnGWFObTuZbLFMGbaiv/ZL2E+eYaa8vvfGzH7PNeVpj2gJbsV2L9mscOfU9yX/mlW31S598Kuxt5cxDMsyzKL/ruKM2QjLM9jV7Oudjrr08rSyfk3t+bwPlao+wZ5+EPdtzYM2PueVuRWuWw3vRe8eLxXww06+VcK7vhwn25aX+puECXOFFsr6ow+zrIo3z5aQ9f59r3Cx6FbcIbBXIzUFOf/lozmyhNrnGcQtcsjix93ydOxt2hSDwm/HTj8ZadxaQ5GR9UIzZ66tdsQDtKb90aEy22sAmTqS3D2jMHFfBK//TF9qPvs5nnhE9++qz59/82Y/628sR2t/kOmavf7VNzv51LvnaA781Z5fQno2bOag9Zbrz2bPvyfgUlAty6pBcwWc+n3vj97g39xo/O1tyD+f65tiVM29Q2/ObfY9vA/ZwRNizRziyPxZrPvba1qi9h3vRe8eLRg/ntRKu8bnjcdh7mXhpRy/uFdmj9ixaQXsWtgrW+o3pW1uo6A38+ufKgjlmIbyC3bg57y1wca7/ZNitMLY5ijP9aF52BdH8qQDkLy4/NYA5B7sCYRYJsxAFUtvc/JOgj14BG7LNeVasazvPit492D/2rKx+ax+ZvvrC7CfLNYj5XBvY2n/73durvuk3mb2xaz/szfkcsB9s7+VitadPv3Ny1R+L8kGu+jmsYyDbOse05ftZofwcceYQYbVl/6xRDiOUv7VvEvbseCvm/mc+9mxwaQ25veOOF4nHfEAeM+aO6zBfLkcE0oslrsgvzLGwnqGXbBcW8J0XWHKSbXLa0yvgat9Kc62Y8+eTbfbR14Jz6vntsXGT9VVUYaC314l8Q/NAcp5h82ZzDtno2WCeJ3tFbsVWc65o7gpUcsLY+lB7shxgewB9INbZv7bn+CObMUcoHyumffUp9r09PRXrXOu8q322p9zD7CtPsT3iub6Z15jPEY7mNLZ52wtmC+f29CYxY5pcsWd7KSiPM5972Ou3r57xa3ntmJkz+jnyv+OOO+64iPnSmFyx53cOey9IF1kwvosNSMxmrS6/S+xipEOX7BHnRbza99DcK2e802cP9R3R+IlpJ1fMtWFtH6EzJEPnOW3rWVfYruP6mcr8ln5iFrNxYq6zzk+f57S3t/rqX891be/5XMpZuNZv7mllfeter0Fjy+lj5rgEe5y5mZS3NXdYTo/6zuXt3Hp4afxLwEuP702gZ/E52fP8mGfa+Dvu+KHBc7/Y7zihvPaiWV9CK1a/S2j+4FIM82KD2T6ydbF2uXYh4uyr/4iN2bPvIf+9ceta5+aYfivXcdn2+qBx4chXu3PYO7tpm37TXpE1i62Qz56d/1r0Tp+5RgzinrnVnnsztr54zblfe16PgZj29sRWLibrw0vYm/eW8WCv53z1z9xcy6O8m+9cfi+td27sS8K1+f+8o2dt7zl8Kpv7sTDHHXf80ODz8vL7POPohbaCLT8X9zms59YlB/TZX9/srx0bs9pdutnp/W71VppjD+ua1ti76ItjD6vvyom5F3KdszHZp/85dKZdLvO8V2Sf7Bm5hIo63wCv4ydaf2/e9rTuNcy+lXtns2df57wWR+Paz8oK3Nh+87+EOXadC5sLkivyOYp95uWptMa53OrbG4fXjH0JOMrzDyPsdX3m9nitH/Y8PlcezXnHHS8Stzzo+V3yf64Pzucd5fZawp5+7gVV/55tYs8G7KEiBPYuvmnLnm5srE36bax187uFRxdqc08/nGun1zeZT+NX8pnI1tgJtuYK+a3zBH2dx/oHlc5vgt/KxrVG41byQz93mOP1TeRL6p+wxsrmD7Nv5usWXoPVNz07todrue4D2t9KOTImeUS+E7Uv2a0vf3uce5y8pu8I+ay8duyUQfvcuOfGUW5hz/aSUK4mJ2on7eda9hxe4t7z+lSY8447XjR6+HF9oV96wa+cH6jn/jB9XrDm4FrC+uJjX/PbCxLXfjYX1oprbI1dL7zWirDajjgLTO1krG/1SV/96HuYvtdwBdu65uSE9up7DeY5r5hniDDPdurQXNfyCLO/dc7h1j0/F2a+53NQ/Os+Jo+wjpvtleVmledQjJck0NHeJrO/Kcw90PGa9fKd42HP9qZgnc545WcVw2PQOXe2k+vZk583yP8dd3yuMF8m6ZfkHvVN/qjhXG72eJSjOU/6xLrOCi/PPawv1PWFG6Y9Qi/qXs5x2mH6JPd8p0/6nt+K2XeOzXOEfFauY+Zc8SmY5zeRfT3/iezneA7n5j6HW3yfinI9z2Mv53PPt+4HZi5W1jflc2Hur73t7e+OE+Y50Y/4EjHPF3umJ2f/5xHO5Y47PrfoBdJL5ojzZVP7qB9/FNBeZx6OOP32MOdKn7g0/toX6Pqypa8vZWtl3/spQXY6NO45uIfWvER+M66JPX/c82Wba96C9dygM53oPOe5rj7ZZ//aXsdM5H/Jbw97eXkTmGeB5X5Fe5j7uWVPM2fpK+f8t+Cc/7q3S/t8E7h1PyueOv5alP/1PGb7s4rlVsyzPWJn/lmd+5uCs7jjjh8a9GJZXzZ77VXu9eMPE9rT3Ne0rdzLB+6hvvI4MceufXCNbb6Yw7StL+Rs9U/mu6dPv9l/5DP79mDP0/8czbOH+vbWXjF/snEL9uaaZ9Z58KPPvvSJbHH61T7C9E9ei1t8n4LyH+Eoh/aw7v9azDHrHNN+a57CXsxsPUOTc6+fFZ6y3mcV79F5rOf10iA3e+ccy99nlcfPAs7kjjt+aLH3AlpfRLfwhxX2NvMUz9nXfORb3+z3wpz22Qd7L9TVB3oZ1zdfyPXBbB+xb1VrpzdfrP/IZ/btYRahl7g3x946kxNzrnwn9nIfztnrS8f5LKzPRH3nmO8Rmo/vteDfnte9PyfmGtgZ76F9tJd1P+xHmGPOsflvxVGu2tfk3vO0tt8E1n3dss/H5uVamPvoPJJvcv3HYp7rEY/eIZ93OJc77viRwPqC+rz8Jbh13adwYrVNvz2u+djDOiakN3avb6KX7vrCrU3G+XKuH2Z/+srGPheP1tizT+6Nh+Q1c2CFfFzROtdi77yyZY+tSZ8+R5xjYban3y1Y96zdnm/Z9yWs867rhrmnuIcjn9V+jregMZ1DEuzliCuMYZ+5mDnZG3MrnjrH0fhycCthzz6f2WzPhb38Tj4m1405xx9GOJ877viRw/qiSt+Tk3u2zwKtZf09nutb+VgUw4yFfFM499JdX87Tl75eCLOdTfyNPWK+T+URZjy4pydX7PnEI1zTfwk9R0dnP5+Ra9l8q45PQfu9Zl/XQq4nnzr33Ovkm0Lzl+eZ71vR3meep+1N4Knzrnu+lTNvk/VD8qmw1/WzPRmmfsd5OKs77viRxvoim/JS3+Sbxt6a8SimPeb7mBdl42cunoqjOCoq9mDMvAwmsp0jkK1xxGt8ruERZkz89nQ8wq2+l3wuoWfoCPXP53FPJyeP/B4LY+1z5uY50FwrH4uZg/imMfObfGyu7X19/rK9RJTj9j45bZf6ax/xObDmdI/l/o7r4ezuuOOODb2w5gstfZVHNnzTaB3rxrWdbc8+eSuac/KaeR7zYj5XsGTns77466t/ynQQe7Y3ySPs+e3pxbti7im/I1+41A9ycg7z3PfA7nlITr1xU1+59j0W7bW8kM+B5p3zPxZzn3O/yeeGeY/O4VbM523VnyvXz4W9/e7xKDdHNu2Y7Tkw83nEl5jnzwuc1x133LFg76U25Wpb9fim0NzrepMzznN8DIxb534K9saz9YJf0UsfV5/1cpgyHcjJ1W/6T/vqU/85HmHOc457aG79l9aBSz6XxsN8pvbQs7DHc8/iXt9T0F6PcvcYzDxfk6tLWPcb3wTm/M/xuZ15eO68PCeKZ+4Xzz2LtxKST8XM4yXe8Ri8evX/B95zl0NKl+IHAAAAAElFTkSuQmCC;" vertex="1" parent="1">
          <mxGeometry x="120" y="353" width="701" height="111" as="geometry" />
        </mxCell>
      </root>
    </mxGraphModel>
  </diagram>
</mxfile>
